<?xml version="1.0" encoding="UTF-8"?>
<!DOCTYPE svg PUBLIC "-//W3C//DTD SVG 1.1//EN" "http://www.w3.org/Graphics/SVG/1.1/DTD/svg11.dtd">
<!-- Creator: CorelDRAW X7 -->
<svg xmlns="http://www.w3.org/2000/svg" xml:space="preserve" width="9.2286mm" height="17.1026mm" version="1.1" style="shape-rendering:geometricPrecision; text-rendering:geometricPrecision; image-rendering:optimizeQuality; fill-rule:evenodd; clip-rule:evenodd"
viewBox="0 0 923 1710"
 xmlns:xlink="http://www.w3.org/1999/xlink">
 <defs>
  <style type="text/css">
   <![CDATA[
    .fil1 {fill:#3288B3;fill-rule:nonzero}
    .fil0 {fill:black;fill-rule:nonzero;fill-opacity:0.400000}
    .fil2 {fill:black;fill-opacity:0.501961}
   ]]>
  </style>
 </defs>
 <g id="Capa_x0020_1">
  <metadata id="CorelCorpID_0Corel-Layer"/>
  <g id="_602284441152">
   <path class="fil0" d="M214 365c0,-200 159,-363 355,-363 186,0 338,147 353,334l0 1039c-14,178 -153,321 -328,333l-593 0c191,-45 214,-174 213,-362l0 0 0 0 0 -55 0 0 0 -52 0 -5 0 -1c0,-61 0,-121 0,-121 0,-203 0,-382 0,-747z"/>
   <path class="fil1" d="M343 1354l0 93c0,183 -90,251 -127,261l351 0c17,-4 244,5 223,-354l0 -1096 -222 -135 -225 136c0,0 0,1043 0,1095z"/>
   <path class="fil2" d="M285 1708c1,0 1,-1 1,-1 0,-8 -7,-14 -14,-14 -8,0 -14,6 -14,14 0,0 0,1 0,1l27 0zm219 0l-27 0c0,0 0,-1 0,-1 0,-8 6,-14 14,-14 7,0 13,6 13,14 0,0 0,1 0,1zm-109 0l-27 0c0,0 0,-1 0,-1 0,-8 6,-14 13,-14 8,0 14,6 14,14 0,0 0,1 0,1zm192 -2c7,-1 16,-2 26,-4 -2,-5 -7,-9 -12,-9l-1 0 0 0c-7,0 -13,6 -13,13zm-32 -1575l-6 4c2,-1 4,-2 6,-4zm99 1356c8,0 14,6 14,14 0,7 -6,13 -14,13l0 0 0 0c-7,0 -14,-6 -14,-13 0,-8 7,-14 14,-14l0 0 0 0zm-109 0c8,0 14,6 14,14 0,7 -6,13 -14,13l0 0 0 0c-8,0 -14,-6 -14,-13 0,-8 6,-14 14,-14l0 0 0 0zm219 0c7,0 13,6 13,14 0,7 -6,13 -13,13 -8,0 -14,-6 -14,-13 0,-8 6,-14 14,-14zm-163 64c7,0 13,6 13,14 0,7 -6,13 -13,13l-1 0 0 0c-7,0 -13,-6 -13,-13 0,-8 6,-14 13,-14l0 0 1 0zm109 0c7,0 14,6 14,14 0,7 -7,13 -14,13 -8,0 -14,-6 -14,-13 0,-8 6,-14 14,-14zm-56 78c8,0 14,6 14,14 0,7 -6,13 -14,13l0 0 0 0c-7,0 -14,-6 -14,-13 0,-8 7,-14 14,-14l0 0 0 0zm-109 0c8,0 14,6 14,14 0,7 -6,13 -14,13l0 0 0 0c-8,0 -14,-6 -14,-13 0,-8 6,-14 14,-14l0 0 0 0zm109 -413c8,0 14,7 14,14 0,8 -6,14 -14,14l0 0 0 0c-7,0 -14,-6 -14,-14 0,-7 7,-14 14,-14l0 0 0 0zm-109 0c8,0 14,7 14,14 0,8 -6,14 -14,14l0 0 0 0c-8,0 -14,-6 -14,-14 0,-7 6,-14 14,-14l0 0 0 0zm219 0c7,0 13,7 13,14 0,8 -6,14 -13,14 -8,0 -14,-6 -14,-14 0,-7 6,-14 14,-14zm-163 65c7,0 13,6 13,13 0,8 -6,14 -13,14l-1 0 0 0c-7,0 -13,-6 -13,-14 0,-7 6,-13 13,-13l0 0 1 0zm109 0c7,0 14,6 14,13 0,8 -7,14 -14,14 -8,0 -14,-6 -14,-14 0,-7 6,-13 14,-13zm-56 78c8,0 14,6 14,13 0,8 -6,14 -14,14l0 0 0 0c-7,0 -14,-6 -14,-14 0,-7 7,-13 14,-13l0 0 0 0zm-109 0c8,0 14,6 14,13 0,8 -6,14 -14,14l0 0 0 0c-8,0 -14,-6 -14,-14 0,-7 6,-13 14,-13l0 0 0 0zm219 0c7,0 13,6 13,13 0,8 -6,14 -13,14 -8,0 -14,-6 -14,-14 0,-7 6,-13 14,-13zm-163 64c7,0 13,6 13,13 0,8 -6,14 -13,14l-1 0 0 0c-7,0 -13,-6 -13,-14 0,-7 6,-13 13,-13l0 0 1 0zm109 0c7,0 14,6 14,13 0,8 -7,14 -14,14 -8,0 -14,-6 -14,-14 0,-7 6,-13 14,-13zm-56 -488c8,0 14,7 14,14 0,8 -6,14 -14,14l0 0 0 0c-7,0 -14,-6 -14,-14 0,-7 7,-14 14,-14l0 0 0 0zm-109 0c8,0 14,7 14,14 0,8 -6,14 -14,14l0 0 0 0c-8,0 -14,-6 -14,-14 0,-7 6,-14 14,-14l0 0 0 0zm219 0c7,0 13,7 13,14 0,8 -6,14 -13,14 -8,0 -14,-6 -14,-14 0,-7 6,-14 14,-14zm-163 65c7,0 13,6 13,13 0,8 -6,14 -13,14l-1 0 0 0c-7,0 -13,-6 -13,-14 0,-7 6,-13 13,-13l0 0 1 0zm109 0c7,0 14,6 14,13 0,8 -7,14 -14,14 -8,0 -14,-6 -14,-14 0,-7 6,-13 14,-13zm-56 78c8,0 14,6 14,13 0,8 -6,14 -14,14l0 0 0 0c-7,0 -14,-6 -14,-14 0,-7 7,-13 14,-13l0 0 0 0zm-109 0c8,0 14,6 14,13 0,8 -6,14 -14,14l0 0 0 0c-8,0 -14,-6 -14,-14 0,-7 6,-13 14,-13l0 0 0 0zm219 0c7,0 13,6 13,13 0,8 -6,14 -13,14 -8,0 -14,-6 -14,-14 0,-7 6,-13 14,-13zm-163 64c7,0 13,6 13,13 0,8 -6,14 -13,14l-1 0 0 0c-7,0 -13,-6 -13,-14 0,-7 6,-13 13,-13l0 0 1 0zm109 0c7,0 14,6 14,13 0,8 -7,14 -14,14 -8,0 -14,-6 -14,-14 0,-7 6,-13 14,-13zm-56 -477c8,0 14,6 14,14 0,7 -6,13 -14,13l0 0 0 0c-7,0 -14,-6 -14,-13 0,-8 7,-14 14,-14l0 0 0 0zm-109 0c8,0 14,6 14,14 0,7 -6,13 -14,13l0 0 0 0c-8,0 -14,-6 -14,-13 0,-8 6,-14 14,-14l0 0 0 0zm219 0c7,0 13,6 13,14 0,7 -6,13 -13,13 -8,0 -14,-6 -14,-13 0,-8 6,-14 14,-14zm-163 64c7,0 13,6 13,14 0,7 -6,13 -13,13l-1 0 0 0c-7,0 -13,-6 -13,-13 0,-8 6,-14 13,-14l0 0 1 0zm109 0c7,0 14,6 14,14 0,7 -7,13 -14,13 -8,0 -14,-6 -14,-13 0,-8 6,-14 14,-14zm-56 78c8,0 14,6 14,14 0,7 -6,13 -14,13l0 0 0 0c-7,0 -14,-6 -14,-13 0,-8 7,-14 14,-14l0 0 0 0zm-109 0c8,0 14,6 14,14 0,7 -6,13 -14,13l0 0 0 0c-8,0 -14,-6 -14,-13 0,-8 6,-14 14,-14l0 0 0 0zm219 0c7,0 13,6 13,14 0,7 -6,13 -13,13 -8,0 -14,-6 -14,-13 0,-8 6,-14 14,-14zm-163 64c7,0 13,6 13,14 0,7 -6,13 -13,13l-1 0 0 0c-7,0 -13,-6 -13,-13 0,-8 6,-14 13,-14l0 0 1 0zm109 0c7,0 14,6 14,14 0,7 -7,13 -14,13 -8,0 -14,-6 -14,-13 0,-8 6,-14 14,-14zm-56 -493c8,0 14,7 14,14 0,8 -6,14 -14,14l0 0 0 0c-7,0 -14,-6 -14,-14 0,-7 7,-14 14,-14l0 0 0 0zm-109 0c8,0 14,7 14,14 0,8 -6,14 -14,14l0 0 0 0c-8,0 -14,-6 -14,-14 0,-7 6,-14 14,-14l0 0 0 0zm219 0c7,0 13,7 13,14 0,8 -6,14 -13,14 -8,0 -14,-6 -14,-14 0,-7 6,-14 14,-14zm-163 65c7,0 13,6 13,13 0,8 -6,14 -13,14l-1 0 0 0c-7,0 -13,-6 -13,-14 0,-7 6,-13 13,-13l0 0 1 0zm109 0c7,0 14,6 14,13 0,8 -7,14 -14,14 -8,0 -14,-6 -14,-14 0,-7 6,-13 14,-13zm-56 78c8,0 14,6 14,13 0,8 -6,14 -14,14l0 0 0 0c-7,0 -14,-6 -14,-14 0,-7 7,-13 14,-13l0 0 0 0zm-109 0c8,0 14,6 14,13 0,8 -6,14 -14,14l0 0 0 0c-8,0 -14,-6 -14,-14 0,-7 6,-13 14,-13l0 0 0 0zm219 0c7,0 13,6 13,13 0,8 -6,14 -13,14 -8,0 -14,-6 -14,-14 0,-7 6,-13 14,-13zm-163 64c7,0 13,6 13,13 0,8 -6,14 -13,14l-1 0 0 0c-7,0 -13,-6 -13,-14 0,-7 6,-13 13,-13l0 0 1 0zm109 0c7,0 14,6 14,13 0,8 -7,14 -14,14 -8,0 -14,-6 -14,-14 0,-7 6,-13 14,-13zm-109 -413c7,0 13,6 13,14 0,7 -6,13 -13,13l-1 0 0 0c-7,0 -13,-6 -13,-13 0,-8 6,-14 13,-14l0 0 1 0zm53 78c8,0 14,6 14,14 0,7 -6,13 -14,13l0 0 0 0c-7,0 -14,-6 -14,-13 0,-8 7,-14 14,-14l0 0 0 0zm-109 0c8,0 14,6 14,14 0,7 -6,13 -14,13l0 0 0 0c-8,0 -14,-6 -14,-13 0,-8 6,-14 14,-14l0 0 0 0zm219 0c7,0 13,6 13,14 0,7 -6,13 -13,13 -8,0 -14,-6 -14,-13 0,-8 6,-14 14,-14zm-163 64c7,0 13,6 13,14 0,7 -6,14 -13,14l-1 0 0 0c-7,0 -13,-7 -13,-14 0,-8 6,-14 13,-14l0 0 1 0zm109 0c7,0 14,6 14,14 0,7 -7,14 -14,14 -8,0 -14,-7 -14,-14 0,-8 6,-14 14,-14zm-275 1173c8,0 14,6 14,14 0,7 -6,13 -14,13 -7,0 -13,-6 -13,-13 0,-8 6,-14 13,-14zm-54 64c8,0 14,6 14,14 0,7 -6,13 -14,13 -7,0 -13,-6 -13,-13 0,-8 6,-14 13,-14zm110 0c7,0 13,6 13,14 0,7 -6,13 -13,13 -8,0 -14,-6 -14,-13 0,-8 6,-14 14,-14zm-165 78c7,0 13,6 13,14 0,7 -6,13 -13,13 -8,0 -14,-6 -14,-13 0,-8 6,-14 14,-14zm109 0c8,0 14,6 14,14 0,7 -6,13 -14,13 -7,0 -13,-6 -13,-13 0,-8 6,-14 13,-14zm0 -413c8,0 14,7 14,14 0,8 -6,14 -14,14 -7,0 -13,-6 -13,-14 0,-7 6,-14 13,-14zm-54 65c8,0 14,6 14,13 0,8 -6,14 -14,14 -7,0 -13,-6 -13,-14 0,-7 6,-13 13,-13zm110 0c7,0 13,6 13,13 0,8 -6,14 -13,14 -8,0 -14,-6 -14,-14 0,-7 6,-13 14,-13zm-56 78c8,0 14,6 14,13 0,8 -6,14 -14,14 -7,0 -13,-6 -13,-14 0,-7 6,-13 13,-13zm-54 64c8,0 14,6 14,13 0,8 -6,14 -14,14 -7,0 -13,-6 -13,-14 0,-7 6,-13 13,-13zm110 0c7,0 13,6 13,13 0,8 -6,14 -13,14 -8,0 -14,-6 -14,-14 0,-7 6,-13 14,-13zm-56 -488c8,0 14,7 14,14 0,8 -6,14 -14,14 -7,0 -13,-6 -13,-14 0,-7 6,-14 13,-14zm-54 65c8,0 14,6 14,13 0,8 -6,14 -14,14 -7,0 -13,-6 -13,-14 0,-7 6,-13 13,-13zm110 0c7,0 13,6 13,13 0,8 -6,14 -13,14 -8,0 -14,-6 -14,-14 0,-7 6,-13 14,-13zm-56 78c8,0 14,6 14,13 0,8 -6,14 -14,14 -7,0 -13,-6 -13,-14 0,-7 6,-13 13,-13zm-54 64c8,0 14,6 14,13 0,8 -6,14 -14,14 -7,0 -13,-6 -13,-14 0,-7 6,-13 13,-13zm110 0c7,0 13,6 13,13 0,8 -6,14 -13,14 -8,0 -14,-6 -14,-14 0,-7 6,-13 14,-13zm-56 -477c8,0 14,6 14,14 0,7 -6,13 -14,13 -7,0 -13,-6 -13,-13 0,-8 6,-14 13,-14zm-54 64c8,0 14,6 14,14 0,7 -6,13 -14,13 -7,0 -13,-6 -13,-13 0,-8 6,-14 13,-14zm110 0c7,0 13,6 13,14 0,7 -6,13 -13,13 -8,0 -14,-6 -14,-13 0,-8 6,-14 14,-14zm-56 78c8,0 14,6 14,14 0,7 -6,13 -14,13 -7,0 -13,-6 -13,-13 0,-8 6,-14 13,-14zm-54 64c8,0 14,6 14,14 0,7 -6,13 -14,13 -7,0 -13,-6 -13,-13 0,-8 6,-14 13,-14zm110 0c7,0 13,6 13,14 0,7 -6,13 -13,13 -8,0 -14,-6 -14,-13 0,-8 6,-14 14,-14zm-56 -493c8,0 14,7 14,14 0,8 -6,14 -14,14 -7,0 -13,-6 -13,-14 0,-7 6,-14 13,-14zm-54 65c8,0 14,6 14,13 0,8 -6,14 -14,14 -7,0 -13,-6 -13,-14 0,-7 6,-13 13,-13zm110 0c7,0 13,6 13,13 0,8 -6,14 -13,14 -8,0 -14,-6 -14,-14 0,-7 6,-13 14,-13zm-56 78c8,0 14,6 14,13 0,8 -6,14 -14,14 -7,0 -13,-6 -13,-14 0,-7 6,-13 13,-13zm-54 64c8,0 14,6 14,13 0,8 -6,14 -14,14 -7,0 -13,-6 -13,-14 0,-7 6,-13 13,-13zm110 0c7,0 13,6 13,13 0,8 -6,14 -13,14 -8,0 -14,-6 -14,-14 0,-7 6,-13 14,-13zm0 -413c7,0 13,6 13,14 0,7 -6,13 -13,13 -8,0 -14,-6 -14,-13 0,-8 6,-14 14,-14zm-56 78c8,0 14,6 14,14 0,7 -6,13 -14,13 -7,0 -13,-6 -13,-13 0,-8 6,-14 13,-14zm-54 64c8,0 14,6 14,14 0,7 -6,14 -14,14 -7,0 -13,-7 -13,-14 0,-8 6,-14 13,-14zm110 0c7,0 13,6 13,14 0,7 -6,14 -13,14 -8,0 -14,-7 -14,-14 0,-8 6,-14 14,-14z"/>
  </g>
 </g>
</svg>
