<?xml version="1.0" encoding="UTF-8"?>
<!DOCTYPE svg PUBLIC "-//W3C//DTD SVG 1.1//EN" "http://www.w3.org/Graphics/SVG/1.1/DTD/svg11.dtd">
<!-- Creator: CorelDRAW X7 -->
<svg xmlns="http://www.w3.org/2000/svg" xml:space="preserve" width="4.2332mm" height="4.2332mm" version="1.1" style="shape-rendering:geometricPrecision; text-rendering:geometricPrecision; image-rendering:optimizeQuality; fill-rule:evenodd; clip-rule:evenodd"
viewBox="0 0 423 423"
 xmlns:xlink="http://www.w3.org/1999/xlink">
 <defs>
  <style type="text/css">
   <![CDATA[
    .fil0 {fill:white}
   ]]>
  </style>
 </defs>
 <g id="Capa_x0020_1">
  <metadata id="CorelCorpID_0Corel-Layer"/>
  <path class="fil0" d="M345 218l5 -7 -5 -6c-17,-25 -34,-44 -53,-58 -24,-19 -49,-29 -74,-29 -26,-1 -51,8 -77,26 -20,14 -41,35 -62,61l-5 7 5 7c21,26 41,46 62,61 25,17 51,26 76,25 26,0 51,-10 75,-28 18,-15 36,-34 53,-59zm-133 31c34,0 62,-28 62,-63 0,-11 -2,-21 -7,-30 4,3 8,6 12,9 14,11 29,27 43,46 -14,20 -29,36 -44,48 -20,15 -40,23 -61,24 -21,0 -42,-7 -63,-22 -17,-12 -34,-28 -51,-49 17,-21 34,-38 51,-50 -3,8 -4,16 -4,24 0,35 27,63 62,63zm-18 -75c0,5 5,17 8,20 3,3 13,6 18,6l-6 31c-13,0 -26,-6 -35,-14 -9,-9 -14,-22 -14,-36l29 -7z"/>
 </g>
</svg>
