<?xml version="1.0" encoding="UTF-8" standalone="no"?>
<!-- Generator: Adobe Illustrator 16.0.0, SVG Export Plug-In . SVG Version: 6.00 Build 0)  -->

<svg
   xmlns:dc="http://purl.org/dc/elements/1.1/"
   xmlns:cc="http://creativecommons.org/ns#"
   xmlns:rdf="http://www.w3.org/1999/02/22-rdf-syntax-ns#"
   xmlns:svg="http://www.w3.org/2000/svg"
   xmlns="http://www.w3.org/2000/svg"
   xmlns:sodipodi="http://sodipodi.sourceforge.net/DTD/sodipodi-0.dtd"
   xmlns:inkscape="http://www.inkscape.org/namespaces/inkscape"
   version="1.1"
   x="0px"
   y="0px"
   width="36.1073"
   height="36.114262"
   viewBox="39.6 -36.804 36.1073 36.114262"
   enable-background="new 39.6 -36.804 54 67"
   xml:space="preserve"
   id="svg29"
   sodipodi:docname="logo.svg"
   inkscape:version="0.92.2 (5c3e80d, 2017-08-06)"
   inkscape:export-filename="/home/luancomputacao/workspace/scipy/scipyla2018-web/assets/img/logo.svg.png"
   inkscape:export-xdpi="96"
   inkscape:export-ydpi="96"><metadata
     id="metadata35"><rdf:RDF><cc:Work
         rdf:about=""><dc:format>image/svg+xml</dc:format><dc:type
           rdf:resource="http://purl.org/dc/dcmitype/StillImage" /><dc:title /></cc:Work></rdf:RDF></metadata><defs
     id="defs33" /><sodipodi:namedview
     pagecolor="#ffffff"
     bordercolor="#666666"
     borderopacity="1"
     objecttolerance="10"
     gridtolerance="10"
     guidetolerance="10"
     inkscape:pageopacity="0"
     inkscape:pageshadow="2"
     inkscape:window-width="1920"
     inkscape:window-height="1053"
     id="namedview31"
     showgrid="false"
     inkscape:pagecheckerboard="true"
     inkscape:zoom="7.0447761"
     inkscape:cx="27.832707"
     inkscape:cy="23.621441"
     inkscape:window-x="0"
     inkscape:window-y="27"
     inkscape:window-maximized="1"
     inkscape:current-layer="g26"
     showguides="true"
     inkscape:guide-bbox="true"><sodipodi:guide
       position="-8.4922729,-2.0767505"
       orientation="1,0"
       id="guide25"
       inkscape:locked="false" /><sodipodi:guide
       position="43.755155,-23.795368"
       orientation="1,0"
       id="guide27"
       inkscape:locked="false" /></sodipodi:namedview><g
     id="Camada_2"
     display="none"
     style="display:none"
     transform="translate(-9.3422728,-14.517988)"><rect
       x="29.799999"
       y="-44"
       display="inline"
       width="78.75"
       height="82"
       id="rect2"
       style="display:inline;fill:#71be90" /></g><g
     id="svg3685"
     sodipodi:docname="scipyla.h.svg"
     inkscape:version="0.91 r13725"
     transform="translate(-9.3422728,-14.517988)"><sodipodi:namedview
       borderopacity="1"
       pagecolor="#000000"
       guidetolerance="10"
       inkscape:zoom="6.9018878"
       inkscape:cy="25.708421"
       objecttolerance="10"
       bordercolor="#666666"
       gridtolerance="10"
       id="namedview3716"
       inkscape:cx="51.837084"
       showgrid="false"
       inkscape:pageopacity="0"
       inkscape:pageshadow="2"
       inkscape:window-width="1233"
       inkscape:window-height="670"
       inkscape:window-x="18"
       inkscape:window-y="21"
       inkscape:window-maximized="0"
       inkscape:current-layer="Capa_x0020_1"
       showguides="false" /><g
       id="g26"><g
         id="g14"
         transform="translate(0,13.627119)"><path
           id="path3694"
           inkscape:connector-curvature="0"
           d="m 67.081,-35.913 c 9.439,0.028 17.149,7.313 17.915,16.555 L 70.597,-0.169 C 69.405,0.087 68.187,0.2 66.939,0.2 57.358,0.172 49.563,-7.312 48.968,-16.695 l 14.513,-18.879 c 1.163,-0.226 2.353,-0.339 3.6,-0.339 z"
           style="fill:#14365b" /><path
           id="path3696"
           inkscape:connector-curvature="0"
           d="m 65.04,-34.609 c 0.709,-0.481 1.361,-0.935 2.041,-1.304 -7.369,-0.028 -14.088,4.45 -16.865,11.367 -0.964,2.409 -1.389,4.988 -1.247,7.568 0.028,0.736 0.113,1.474 0.227,2.183 0.312,-0.652 0.652,-1.275 0.992,-1.843 0.34,-0.538 0.737,-1.474 1.247,-1.843 0.681,-0.453 1.332,-0.312 1.955,0.171 0.936,0.736 3.203,2.862 4.365,2.976 0.482,0.057 0.709,-0.283 0.624,-0.708 -0.113,-0.482 -0.651,-1.049 -1.332,-1.616 -1.134,-0.907 -2.438,-1.871 -2.835,-2.296 -0.481,-0.539 -0.595,-0.964 -0.453,-1.445 0.17,-0.794 0.964,-1.984 1.332,-2.608 0.283,-0.453 0.624,-0.936 0.964,-1.417 v 0 c 2.353,-3.345 6.038,-7.285 8.106,-8.504 v 0 z"
           style="fill:#0e253f" /><path
           id="path3698"
           inkscape:connector-curvature="0"
           d="m 68.952,-1.104 c -0.68,0.482 -1.36,0.936 -2.013,1.305 7.342,0.028 14.089,-4.45 16.838,-11.367 0.935,-2.324 1.389,-4.875 1.247,-7.597 -0.028,-0.709 -0.113,-1.445 -0.227,-2.183 -0.313,0.652 -0.624,1.275 -0.992,1.871 l -0.482,0.766 c -0.34,0.481 -0.906,1.644 -1.36,1.955 -0.651,0.454 -1.332,0.313 -1.927,-0.142 -0.965,-0.766 -3.232,-2.891 -4.395,-3.005 -0.481,-0.028 -0.709,0.313 -0.623,0.709 0.113,0.482 0.652,1.077 1.36,1.616 1.105,0.906 2.409,1.87 2.806,2.324 0.737,0.793 0.596,1.36 0.113,2.324 -1.615,3.43 -6.717,9.155 -9.467,10.743 v 0 z"
           style="fill:#0e253f" /><path
           id="path3700"
           inkscape:connector-curvature="0"
           d="m 79.979,-27.749 c -0.086,-0.113 -0.058,-0.284 0.057,-0.369 0.113,-0.085 0.283,-0.085 0.367,0.028 0.992,1.305 1.787,2.722 2.382,4.28 0.538,1.503 0.907,3.09 1.021,4.791 0.34,4.62 -1.248,8.957 -4.082,12.217 -2.834,3.26 -6.916,5.442 -11.537,5.755 -4.648,0.34 -8.985,-1.276 -12.245,-4.082 -3.26,-2.835 -5.414,-6.917 -5.754,-11.565 -0.312,-4.62 1.275,-8.957 4.081,-12.217 2.835,-3.26 6.889,-5.414 11.509,-5.755 h 0.142 c 1.928,-0.142 3.799,0.085 5.584,0.567 1.843,0.51 3.6,1.332 5.159,2.438 0.114,0.085 0.142,0.255 0.058,0.368 -0.086,0.114 -0.256,0.143 -0.369,0.058 -1.502,-1.049 -3.203,-1.843 -4.988,-2.354 -1.758,-0.481 -3.601,-0.68 -5.5,-0.538 -4.507,0.312 -8.447,2.409 -11.168,5.556 -2.749,3.175 -4.28,7.37 -3.969,11.849 0.313,4.507 2.41,8.447 5.584,11.168 3.146,2.75 7.342,4.28 11.82,3.969 4.508,-0.312 8.447,-2.409 11.197,-5.556 2.721,-3.175 4.252,-7.37 3.939,-11.849 -0.113,-1.616 -0.453,-3.175 -0.992,-4.62 -0.567,-1.503 -1.361,-2.892 -2.296,-4.139 z"
           style="fill:#ffffff" /><path
           id="path3702"
           inkscape:connector-curvature="0"
           d="m 58.124,-21.399 v 0 c 0.057,3.345 0.992,5.612 4.195,6.604 0.623,0.198 1.247,0.312 1.871,0.34 1.219,0.113 1.898,0.057 3.061,0.057 1.786,0.028 4.168,0.652 4.025,2.693 0.028,-0.113 0.057,-0.228 0.057,-0.369 v 0 -0.028 c 0,0 0,-0.028 0,-0.057 v 0 -0.028 0 0 c 0.029,-0.028 0.029,-0.057 0.029,-0.085 v 0 -0.028 0 -0.028 0 0 -0.057 0 0 0 -0.028 0 0 -0.028 0 -0.028 0 0 -0.028 0 -0.028 0 h -0.029 v 0 -0.028 0 -0.028 0 -0.028 0 0 0 -0.028 0 -0.028 0 0 -0.028 0 0 -0.028 0 -0.028 0 0 -0.028 0 l -0.028,-0.028 v 0 -0.028 -0.028 0 0 -0.028 0 0 -0.028 0 -0.029 0 0 0 l -0.028,-0.028 v -0.028 -0.028 0 0 -0.028 -0.028 h -0.028 v -0.028 0 -0.028 -0.028 0 0 l -0.028,-0.028 v -0.028 0 -0.028 l -0.028,-0.028 v -0.028 0 0 0 -0.028 0 l -0.028,-0.028 v 0 0 0 -0.028 -0.028 h -0.028 v 0 -0.028 -0.028 -0.028 h -0.028 v -0.028 -0.028 h -0.028 v 0 -0.028 -0.028 0 H 71.05 v -0.028 0 c 0,0 0,-0.028 -0.028,-0.028 v 0 -0.028 -0.028 h -0.028 v -0.028 l -0.028,-0.028 v 0 -0.028 0 l -0.028,-0.028 v 0 0 -0.028 l -0.028,-0.028 v 0 0 l -0.028,-0.028 v 0 0 0 l -0.028,-0.028 v -0.028 0 0 0 l -0.028,-0.029 v 0 -0.028 0 h -0.028 v 0 -0.028 0 H 70.77 v 0 -0.028 0 l -0.029,-0.028 v 0 0 0 l -0.027,-0.028 v 0 -0.049 0 h -0.029 v 0 c 0,-0.028 0,-0.028 -0.027,-0.028 v 0 c 0,-0.028 0,-0.028 -0.029,-0.057 v 0 c 0,0 -0.027,0 -0.027,-0.028 v 0 l -0.029,-0.028 v 0 L 70.54,-14.37 v 0 c -0.029,-0.028 -0.029,-0.028 -0.029,-0.028 v 0 c -0.027,-0.028 -0.027,-0.028 -0.057,-0.028 v 0 c 0,-0.028 0,-0.028 -0.027,-0.057 v 0 c 0,0 -0.029,0 -0.029,-0.028 v 0 c -0.027,0 -0.027,0 -0.027,-0.028 v 0 c -0.029,0 -0.029,-0.028 -0.057,-0.028 v 0 l -0.029,-0.028 v 0 l -0.027,-0.028 v 0 c -0.029,0 -0.029,-0.028 -0.058,-0.028 v 0 l -0.028,-0.028 v 0 c -0.028,0 -0.028,-0.028 -0.057,-0.028 v 0 l -0.028,-0.028 v 0 c -0.028,0 -0.028,-0.028 -0.057,-0.028 v 0 l -0.028,-0.028 v 0 c -0.028,0 -0.028,-0.028 -0.057,-0.028 v 0 l -0.028,-0.028 v 0 c -0.028,0 -0.028,-0.028 -0.057,-0.028 v 0 l -0.028,-0.028 v 0 c -0.028,0 -0.028,0 -0.057,-0.028 v 0 c -0.028,0 -0.028,0 -0.057,-0.028 v 0 h -0.029 v 0 c -0.027,-0.028 -0.027,-0.028 -0.057,-0.028 v 0 c -0.027,-0.028 -0.027,-0.028 -0.057,-0.028 v 0 c 0,0 -0.027,-0.028 -0.057,-0.028 v 0 c 0,0 -0.027,0 -0.027,-0.028 v 0 c -0.029,0 -0.057,0 -0.057,0 v 0 C 69.405,-15.1 69.405,-15.1 69.377,-15.1 v 0 c -0.029,0 -0.029,-0.028 -0.057,-0.028 v 0 c -0.029,0 -0.029,0 -0.057,-0.028 v 0 c 0,0 -0.029,0 -0.057,0 v 0 c 0,-0.028 -0.029,-0.028 -0.058,-0.028 v 0 l -0.057,-0.028 v 0 c 0,0 -0.028,0 -0.057,0 v 0 c 0,-0.028 -0.028,-0.028 -0.057,-0.028 v 0 c 0,0 -0.028,0 -0.057,-0.028 v 0 c -0.028,0 -0.028,0 -0.057,0 v 0 c -0.028,0 -0.028,0 -0.057,-0.028 v 0 c -0.028,0 -0.028,0 -0.057,0 v 0 c -0.028,0 -0.057,0 -0.057,-0.028 v 0 c -0.028,0 -0.057,0 -0.085,0 v 0 c 0,0 -0.029,0 -0.057,-0.028 v 0 h -0.057 v 0 c -0.029,0 -0.057,0 -0.057,0 v 0 C 68.407,-15.38 68.379,-15.38 68.35,-15.38 v 0 c 0,0 -0.027,0 -0.057,0 v 0 c -0.027,0 -0.057,0 -0.057,-0.028 v 0 c -0.027,0 -0.057,0 -0.084,0 v 0 c 0,0 -0.029,0 -0.057,0 v 0 c -0.029,0 -0.058,0 -0.086,0 v 0 l -0.057,-0.028 v 0 c -0.028,0 -0.057,0 -0.085,0 v 0 c 0,0 -0.028,0 -0.057,0 v 0 c -0.028,0 -0.057,0 -0.085,0 v 0 c 0,0 -0.028,0 -0.057,0 v 0 c -0.028,-0.028 -0.057,-0.028 -0.085,-0.028 v 0 c -0.028,0 -0.058,0 -0.058,0 v 0 c -0.027,0 -0.057,0 -0.084,0 v 0 c -0.029,0 -0.057,0 -0.086,0 v 0 c -0.027,0 -0.057,0 -0.084,0 v 0 h -0.029 v 0 h -0.057 v 0 h -0.057 v 0 h -0.057 v 0 h -0.057 -0.057 v 0 h -0.028 -0.057 v 0 H 66.815 66.77 v 0 H 66.742 66.685 66.628 66.6 66.543 v 0 h -0.028 v 0 h -0.057 -0.057 v 0 h -0.029 v 0 h -0.057 v 0 h -0.027 -0.057 -0.029 v 0 h -0.057 v 0 h -0.057 v 0 h -0.027 v 0 H 66.004 65.975 65.918 65.89 v 0 h -0.057 v 0 h -0.028 -0.057 v 0 H 65.72 v 0 h -0.057 v 0 h -0.028 -0.057 v 0 h -0.057 -0.028 v 0 h -0.057 v 0 h -0.028 v 0 h -0.057 v 0 h -0.057 v 0 h -0.029 v 0 H 65.21 v 0 h -0.027 v 0 h -0.057 -0.057 v 0 H 65.04 v 0 h -0.057 v 0 l -0.057,-0.028 v 0 H 64.87 64.842 v 0 h -0.057 v 0 h -0.057 v 0 h -0.057 v 0 h -0.057 v 0 H 64.586 64.53 v 0 h -0.057 v 0 l -0.057,-0.028 v 0 H 64.36 v 0 h -0.057 v 0 h -0.057 v 0 h -0.029 v 0 H 64.19 v 0 h -0.029 v 0 h -0.027 v 0 h -0.029 v 0 l -0.027,-0.028 h -0.029 v 0 h -0.027 v 0 h -0.057 v 0 h -0.029 -0.027 v 0 H 63.88 v 0 h -0.027 -0.029 l -0.027,-0.028 h -0.058 v 0 h -0.028 v 0 H 63.68 63.652 v 0 h -0.028 c -0.028,-0.028 -0.057,-0.028 -0.085,-0.028 H 63.51 v 0 h -0.028 -0.028 v 0 l -0.028,-0.028 H 63.398 63.37 v 0 h -0.03 -0.057 v 0 l -0.028,-0.028 v 0 h -0.029 v 0 H 63.199 63.17 v 0 h -0.027 v 0 l -0.029,-0.028 h -0.027 -0.029 v 0 h -0.027 v 0 l -0.057,-0.028 h -0.029 -0.027 v 0 h -0.029 v 0 l -0.027,-0.028 h -0.029 -0.027 v 0 h -0.029 v 0 L 62.75,-15.772 H 62.721 62.693 62.665 L 62.637,-15.8 h -0.028 v 0 h -0.028 -0.028 l -0.028,-0.028 h -0.028 -0.028 v 0 l -0.028,-0.028 h -0.028 -0.028 c -0.057,-0.028 -0.085,-0.028 -0.142,-0.057 l -0.057,-0.028 c -0.028,0 -0.085,-0.028 -0.114,-0.028 h -0.027 c -0.057,-0.028 -0.113,-0.057 -0.143,-0.057 l -0.057,-0.028 c -0.027,-0.028 -0.057,-0.028 -0.113,-0.057 h -0.027 c -0.029,-0.028 -0.086,-0.058 -0.143,-0.058 l -0.028,-0.028 c -0.028,-0.028 -0.085,-0.028 -0.113,-0.057 l -0.028,-0.028 c -0.057,0 -0.085,-0.028 -0.142,-0.057 l -0.028,-0.028 c -0.028,0 -0.057,-0.028 -0.113,-0.057 l -0.029,-0.028 c -0.027,0 -0.084,-0.028 -0.113,-0.057 l -0.027,-0.028 c -0.029,-0.028 -0.086,-0.028 -0.113,-0.057 l -0.029,-0.028 c -0.057,-0.028 -0.084,-0.057 -0.113,-0.085 h -0.027 c -0.029,-0.028 -0.057,-0.057 -0.114,-0.085 l -0.028,-0.028 c -0.028,-0.028 -0.057,-0.057 -0.085,-0.085 l -0.028,-0.028 c -0.057,-0.028 -0.085,-0.057 -0.113,-0.085 l -0.028,-0.028 c -0.028,-0.028 -0.057,-0.057 -0.085,-0.057 l -0.028,-0.028 c -0.057,-0.057 -0.085,-0.085 -0.113,-0.114 l -0.028,-0.028 c -0.029,-0.028 -0.057,-0.057 -0.086,-0.085 l -0.027,-0.028 c -0.029,-0.028 -0.057,-0.057 -0.086,-0.085 l -0.027,-0.028 c -0.029,-0.028 -0.057,-0.057 -0.086,-0.085 l -0.027,-0.028 c -0.029,-0.057 -0.057,-0.085 -0.086,-0.113 l -0.027,-0.028 c -0.029,-0.028 -0.057,-0.057 -0.086,-0.085 l -0.028,-0.057 c -0.028,-0.028 -0.028,-0.057 -0.057,-0.085 0,0 -0.028,0 -0.028,-0.028 -0.028,-0.028 -0.057,-0.057 -0.085,-0.113 l -0.028,-0.028 c -0.028,-0.028 -0.028,-0.057 -0.057,-0.085 l -0.028,-0.028 c -0.028,-0.058 -0.028,-0.086 -0.057,-0.114 l -0.028,-0.057 c -0.028,-0.028 -0.028,-0.057 -0.057,-0.085 l -0.028,-0.057 c -0.028,-0.028 -0.058,-0.057 -0.058,-0.113 -0.027,0 -0.027,-0.028 -0.027,-0.028 -0.029,-0.028 -0.029,-0.057 -0.057,-0.085 l -0.029,-0.057 c 0,-0.028 -0.027,-0.057 -0.027,-0.085 -0.029,-0.028 -0.029,-0.057 -0.057,-0.085 0,-0.028 -0.029,-0.057 -0.029,-0.085 l -0.027,-0.057 c 0,-0.028 -0.029,-0.057 -0.029,-0.085 -0.027,-0.028 -0.027,-0.028 -0.027,-0.057 -0.029,-0.028 -0.029,-0.057 -0.057,-0.114 0,0 0,-0.028 0,-0.057 -0.029,-0.028 -0.029,-0.057 -0.029,-0.057 -0.027,-0.028 -0.027,-0.057 -0.027,-0.057 -0.029,-0.057 -0.029,-0.085 -0.057,-0.142 0,0 0,-0.028 0,-0.057 -0.029,-0.028 -0.029,-0.057 -0.029,-0.057 0,-0.028 -0.028,-0.057 -0.028,-0.085 0,-0.028 -0.028,-0.057 -0.028,-0.113 0,-0.028 0,-0.028 -0.028,-0.057 0,-0.028 0,-0.057 0,-0.085 -0.028,-0.028 -0.028,-0.028 -0.028,-0.057 0,-0.029 -0.028,-0.085 -0.028,-0.113 0,-0.028 0,-0.057 0,-0.085 -0.028,-0.029 -0.028,-0.029 -0.028,-0.058 0,-0.029 0,-0.057 0,-0.085 -0.028,-0.028 -0.028,-0.057 -0.028,-0.085 0,-0.028 0,-0.057 0,-0.085 -0.028,-0.028 -0.028,-0.057 -0.028,-0.085 0,-0.028 0,-0.057 0,-0.085 0,0 0,-0.028 0,-0.057 -0.028,-0.028 -0.028,-0.057 -0.028,-0.085 0,-0.057 0,-0.085 0,-0.113 0,-0.028 0,-0.028 0,-0.057 0,-0.029 0,-0.057 0,-0.085 -0.048,-0.043 -0.048,-0.071 -0.048,-0.071 z m -0.822,18.793 c -0.34,-0.481 -0.255,-0.964 0,-1.474 0.086,-0.142 0.199,-0.284 0.313,-0.426 0.113,-0.17 0.227,-0.312 0.368,-0.481 0.821,-0.907 2.041,-2.637 2.835,-3.26 l 0.027,-0.028 v 0 0 -0.028 h 0.029 v 0 l 0.027,-0.028 v 0 h 0.029 v 0 0 l 0.027,-0.028 v 0 0 l 0.029,-0.028 v 0 h 0.027 v 0 l 0.029,-0.028 v 0 0 0 h 0.027 l 0.029,-0.028 v 0 h 0.028 v 0 l 0.028,-0.028 v 0 0 0 h 0.028 v 0 h 0.028 v 0 c 0,-0.028 0.028,-0.028 0.028,-0.028 v 0 h 0.028 v 0 h 0.028 v 0 c 0,-0.028 0.028,-0.028 0.057,-0.028 v 0 c 0.028,0 0.028,0 0.057,0 v 0 h 0.028 v 0 c 0.227,-0.028 0.453,0.028 0.68,0.17 v 0 c 0.369,0.198 0.738,0.538 1.22,0.936 1.389,1.077 3.43,2.494 6.038,2.183 4.336,-0.511 8.22,-5.499 4.024,-10.403 v 0.028 h 0.028 v 0 0 0 0 0 0 0 0 0.028 0 0 0 0 c 0.028,0.028 0.028,0.028 0.057,0.057 v 0 c 0.17,0.283 0.313,0.567 0.453,0.879 v 0.028 c 0.143,0.312 0.228,0.624 0.313,0.964 v 0 c 0,0 0,0.028 0,0.057 0.028,0.028 0.028,0.057 0.028,0.085 v 0 c 0,0.028 0,0.057 0.028,0.085 v 0 c 0,0.028 0,0.057 0,0.085 v 0 0.028 0 c 0.028,0.028 0.028,0.057 0.028,0.085 v 0 c 0,0.057 0,0.085 0,0.142 v 0 c 0.028,0.028 0.028,0.085 0.028,0.113 v 0 c 0,0.028 0,0.058 0,0.086 v 0 0.057 0.057 0 l 0.028,0.028 v 0 c 0,0.028 0,0.057 0,0.085 v 0 0.057 c 0,0.028 0,0.057 0,0.085 v 0 c 0,0.028 0,0.057 0,0.085 v 0 c 0,0.028 0,0.085 0,0.113 v 0.057 0 0.028 0 0.057 0.028 0.057 0 0.028 0 0.057 l -0.028,0.028 v 0.057 0.028 0.058 0.057 0.028 0.057 l -0.028,0.028 v 0.057 0.028 0.057 0.028 l -0.023,0.051 v 0.028 0.057 0 0.028 0 l -0.028,0.057 v 0.028 0.057 0 0.028 0 l -0.028,0.057 v 0 0.028 0 0.057 0 l -0.028,0.028 v 0 0.057 0 0.028 0 l -0.028,0.057 v 0 c 0,0.028 0,0.057 -0.028,0.086 v 0 c 0,0.028 0,0.057 -0.028,0.085 v 0 c 0,0.028 0,0.057 -0.028,0.085 v 0 c 0,0.057 -0.028,0.113 -0.057,0.198 0,0.028 0,0.057 -0.028,0.085 0,0.028 0,0.057 -0.029,0.085 0,0.028 -0.027,0.057 -0.027,0.085 -0.029,0.028 -0.029,0.057 -0.029,0.085 -0.027,0.057 -0.057,0.113 -0.084,0.17 0,0.028 -0.029,0.057 -0.029,0.085 v 0 c -0.031,0.028 -0.031,0.056 -0.06,0.085 0,0.029 -0.027,0.058 -0.027,0.086 v 0 c -0.029,0.057 -0.057,0.113 -0.113,0.17 -0.029,0.057 -0.057,0.113 -0.086,0.17 v 0 c 0,0.028 -0.027,0.057 -0.057,0.085 v 0 c 0,0.028 -0.028,0.057 -0.028,0.085 -0.028,0.028 -0.057,0.057 -0.057,0.085 -0.028,0.057 -0.085,0.113 -0.113,0.142 -0.028,0.029 -0.028,0.057 -0.057,0.085 v 0 c -0.028,0.028 -0.028,0.057 -0.057,0.085 -0.029,0.028 -0.028,0.057 -0.057,0.085 -0.028,0 -0.057,0.029 -0.057,0.058 v 0 c -0.028,0.028 -0.057,0.057 -0.057,0.085 -0.028,0.028 -0.058,0.057 -0.085,0.057 v 0 c 0,0.028 -0.029,0.057 -0.057,0.085 v 0 c -0.029,0.028 -0.057,0.057 -0.057,0.085 -0.029,0 -0.057,0.028 -0.086,0.057 v 0 c 0,0.028 -0.027,0.057 -0.057,0.085 v 0 c -0.027,0 -0.057,0.028 -0.084,0.057 0,0.028 -0.029,0.057 -0.057,0.057 -0.029,0.028 -0.057,0.057 -0.086,0.085 0,0.028 -0.027,0.028 -0.057,0.057 -0.028,0.028 -0.057,0.057 -0.085,0.057 -0.028,0.028 -0.057,0.057 -0.085,0.085 v 0 c 0,0 -0.028,0.028 -0.057,0.057 -0.029,0.029 -0.057,0.028 -0.085,0.057 v 0 c -0.028,0.028 -0.057,0.028 -0.085,0.057 -0.025,0.024 -0.053,0.052 -0.082,0.052 -0.028,0.028 -0.058,0.057 -0.085,0.057 -0.029,0.028 -0.057,0.057 -0.086,0.057 v 0 c -0.027,0.028 -0.057,0.057 -0.084,0.057 -0.029,0.028 -0.057,0.028 -0.086,0.057 v 0 c -0.027,0.028 -0.057,0.028 -0.084,0.057 v 0 c -0.029,0.028 -0.057,0.028 -0.086,0.057 -0.027,0 -0.057,0.028 -0.085,0.057 -0.028,0 -0.057,0.028 -0.085,0.028 v 0 c -0.057,0.028 -0.085,0.028 -0.113,0.057 v 0 C 71.078,-7 71.05,-7 71.021,-6.971 v 0 c -0.028,0 -0.057,0.028 -0.085,0.028 -0.057,0.028 -0.085,0.028 -0.113,0.057 v 0 c -0.028,0 -0.057,0.028 -0.086,0.028 v 0 c -0.057,0.028 -0.084,0.028 -0.113,0.057 v 0 c -0.027,0 -0.057,0.028 -0.084,0.028 v 0 c -0.057,0 -0.086,0.028 -0.113,0.028 v 0 c -0.029,0.028 -0.057,0.028 -0.113,0.057 -0.029,0 -0.057,0 -0.086,0.028 v 0 c -0.057,0 -0.085,0.028 -0.113,0.028 v 0 c -0.028,0 -0.085,0.028 -0.113,0.028 v 0 c -0.028,0 -0.057,0.028 -0.113,0.028 v 0 c -0.028,0.028 -0.085,0.028 -0.113,0.028 v 0 C 69.719,-6.52 69.69,-6.52 69.633,-6.52 v 0 c -0.058,0.03 -0.085,0.03 -0.142,0.03 v 0 c -0.029,0.029 -0.086,0.029 -0.113,0.029 v 0 c -0.057,0.028 -0.086,0.028 -0.143,0.028 v 0 c -0.027,0 -0.085,0 -0.113,0.028 v 0 c -0.057,0 -0.085,0 -0.113,0 v 0 c -0.057,0 -0.085,0 -0.142,0.028 v 0 c -0.028,0 -0.085,0 -0.113,0 -0.028,0 -0.085,0 -0.113,0 -0.058,0 -0.085,0 -0.142,0 -0.029,0 -0.057,0 -0.113,0 -0.029,0 -0.057,0 -0.113,0 -0.029,0 -0.086,0 -0.113,0 -0.029,0 -0.086,0 -0.114,0 -0.028,0 -0.085,0 -0.113,0 -0.028,-0.028 -0.085,-0.028 -0.113,-0.028 -0.028,0 -0.085,0 -0.113,0 v 0 C 67.679,-6.433 67.65,-6.433 67.594,-6.433 v 0 c -0.028,0 -0.058,0 -0.114,-0.028 -0.027,0 -0.057,0 -0.084,0 -0.059,-0.029 -0.088,-0.029 -0.116,-0.029 -0.029,0 -0.086,-0.028 -0.113,-0.028 -0.029,0 -0.057,-0.028 -0.113,-0.028 v 0 c -0.029,0 -0.058,-0.028 -0.086,-0.028 -0.028,0 -0.085,-0.028 -0.113,-0.028 -0.028,-0.028 -0.057,-0.028 -0.113,-0.028 -0.028,-0.028 -0.057,-0.028 -0.085,-0.057 -0.028,0 -0.057,-0.028 -0.113,-0.028 -0.028,0 -0.057,-0.028 -0.085,-0.028 -0.029,-0.028 -0.086,-0.028 -0.113,-0.057 -0.029,0 -0.057,-0.028 -0.086,-0.028 -0.027,-0.028 -0.057,-0.028 -0.113,-0.057 v 0 c -0.027,0 -0.057,-0.028 -0.084,-0.057 -0.029,0 -0.057,-0.028 -0.086,-0.028 C 65.919,-7 65.891,-7 65.862,-7.028 v 0 c -0.028,-0.028 -0.057,-0.028 -0.085,-0.057 v 0 c -0.028,0 -0.057,-0.028 -0.085,-0.057 v 0 c -0.057,0 -0.085,-0.028 -0.113,-0.028 C 65.551,-7.198 65.522,-7.227 65.494,-7.227 65.466,-7.255 65.437,-7.284 65.409,-7.284 65.38,-7.311 65.353,-7.34 65.296,-7.34 65.239,-7.397 65.183,-7.425 65.126,-7.453 65.097,-7.481 65.069,-7.51 65.04,-7.51 65.013,-7.538 64.983,-7.568 64.956,-7.596 v 0 c -0.029,0 -0.057,-0.028 -0.114,-0.057 -0.028,-0.028 -0.057,-0.028 -0.085,-0.057 v 0 C 64.729,-7.738 64.7,-7.767 64.672,-7.767 v 0 c -0.028,-0.028 -0.057,-0.057 -0.085,-0.085 v 0 c -0.028,0 -0.057,-0.028 -0.085,-0.057 v 0 c -0.057,-0.028 -0.113,-0.085 -0.17,-0.113 l -0.085,-0.085 v 0 c -0.086,-0.057 -0.17,-0.142 -0.256,-0.198 v 0 C 63.934,-8.362 63.878,-8.39 63.821,-8.447 H 63.794 C 63.736,-8.475 63.68,-8.532 63.623,-8.589 v 0 c -0.085,-0.058 -0.17,-0.143 -0.255,-0.199 l -0.057,-0.057 v 0 L 63.225,-8.93 v 0 c -0.85,-0.736 -1.729,-1.672 -2.806,-0.595 l -0.028,0.028 v 0 c -0.028,0.028 -0.028,0.028 -0.057,0.028 v 0 l -0.028,0.028 v 0 l -0.028,0.028 v 0 l -0.028,0.032 v 0 l -0.028,0.057 v 0 l -0.028,0.028 v 0 l -0.028,0.028 v 0 l -0.028,0.028 v 0 l -0.028,0.028 v 0 l -0.03,0.03 v 0 l -0.368,0.481 v 0 l -2.892,3.601 -0.028,0.028 -0.17,0.198 c -0.057,0.085 -0.086,0.142 -0.143,0.198 -0.027,0.028 -0.027,0.057 -0.057,0.113 v 0 0 c -0.227,0.454 -0.17,0.964 0.143,1.361 l 0.368,0.34 z m 4.847,-16.838 c -1.389,-2.409 0.879,-4.818 3.117,-3.543 1.305,0.737 2.24,1.956 3.431,2.608 1.786,0.963 4.251,1.19 6.095,-2.382 v 0 0 l -0.029,0.028 v 0 0 0.028 h -0.027 v 0.028 0 h -0.029 v 0.028 0 l -0.027,0.029 v 0 0 l -0.029,0.028 v 0 0.028 h -0.027 v 0 0.028 l -0.057,0.057 v 0.028 0 h -0.029 l -0.028,0.028 v 0.028 0 0 l -0.028,0.028 v 0 0 0.028 h -0.028 v 0 0.028 0 h -0.028 v 0.028 0 0 h -0.028 v 0.028 0 0 l -0.028,0.028 v 0 0 0 0 l -0.028,0.028 v 0 0 0.028 0 H 74.31 v 0 0.028 0 0 0 h -0.028 v 0 0.028 0 0 0 l -0.028,0.028 v 0 0 0 0 0 l -0.028,0.028 v 0 0 0 0 0 0 0 l -0.028,0.028 c -1.899,1.729 -3.855,1.417 -5.727,0.17 -0.027,-0.028 -0.057,-0.028 -0.084,-0.057 -0.199,-0.142 -0.341,-0.283 -0.454,-0.396 -0.255,-0.198 -0.454,-0.341 -0.765,-0.567 -0.086,-0.085 -0.143,-0.142 -0.228,-0.198 v 0 c -1.105,-0.879 -1.927,-1.758 -3.288,-1.53 v 0 c -0.028,0 -0.028,0.028 -0.057,0.028 h -0.028 c 0,0 -0.028,0 -0.057,0 l -0.028,0.028 h -0.028 c -0.028,0 -0.057,0 -0.085,0 l -0.028,0.028 h -0.028 l -0.057,0.028 H 63.227 63.2 l -0.029,0.028 h -0.057 l -0.027,0.028 h -0.029 l -0.027,0.028 h -0.057 l -0.029,0.028 h -0.027 l -0.029,0.028 h -0.027 l -0.057,0.028 -0.029,0.028 h -0.027 l -0.029,0.028 h -0.028 l -0.028,0.028 -0.028,0.028 h -0.057 l -0.028,0.028 -0.028,0.028 h -0.028 l -0.028,0.028 v 0 l -0.028,0.028 -0.028,0.028 h -0.028 v 0 l -0.028,0.028 v 0 l -0.028,0.028 -0.028,0.028 h -0.028 v 0 l -0.028,0.028 v 0 l -0.028,0.028 -0.028,0.028 -0.028,0.028 -0.029,0.028 v 0 h -0.027 v 0 l -0.029,0.028 -0.027,0.028 -0.029,0.028 v 0 0.028 l -0.027,0.029 v 0 c -0.057,0.028 -0.086,0.085 -0.113,0.142 l -0.029,0.028 -0.027,0.028 v 0 l -0.029,0.028 -0.027,0.028 c 0,0 -0.029,0.028 -0.029,0.057 -0.027,0.028 -0.027,0.057 -0.057,0.085 v 0 c -0.027,0 -0.027,0.028 -0.057,0.057 v 0 c 0,0.028 -0.028,0.057 -0.028,0.085 -0.028,0.028 -0.057,0.057 -0.057,0.085 v 0 c -0.057,0.113 -0.113,0.255 -0.17,0.368 0,0.028 -0.028,0.057 -0.028,0.057 v 0 0.058 0 l -0.028,0.028 c 0,0.028 0,0.028 0,0.057 l -0.028,0.028 v 0.057 0 0.028 l -0.028,0.028 v 0 0.028 0.028 l -0.028,0.057 v 0 0.028 0 0.028 0 0.057 0 0.028 l -0.028,0.028 v 0 0.028 0 0.057 0.028 0.028 0.028 0.057 0.028 0.028 0 l -0.028,0.057 v 0.028 0.028 0 0.028 0 0.057 0.028 0 l 0.028,0.029 v 0.057 0 0.028 0.028 0.057 0.028 0.028 0.057 l 0.028,0.028 v 0 0.028 0.057 0.028 l 0.028,0.028 v 0.057 0.028 0.028 l 0.028,0.057 v 0.028 0.028 l 0.028,0.028 v 0 0.028 0.028 l 0.028,0.028 v 0.028 0 0.028 0 0 l 0.028,0.028 v 0.028 0 0.028 0 0.028 0 h 0.028 v 0 0.028 0 0.028 l 0.028,0.028 v 0 0.029 0 0 0 l 0.028,0.028 v 0 0.028 0 0.028 l 0.028,0.028 v 0 l 0.028,0.028 v 0.028 0.028 0 h 0.028 v 0.028 0 l 0.028,0.028 v 0 0.028 0 l 0.028,0.028 v 0 0.028 h 0.028 v 0.028 0 0.028 0 l 0.029,0.028 v 0 0 l 0.027,0.028 v 0 0.028 0 h 0.029 v 0.028 0 l 0.027,0.028 v 0 0 l 0.029,0.028 v 0 0.028 0 h 0.027 v 0.028 l 0.029,0.028 v 0 0 l 0.027,0.028 v 0.028 0 h 0.029 v 0.028 0 l 0.027,0.028 v 0 l 0.029,0.028 v 0 l 0.027,0.028 v 0.028 h 0.029 l 0.027,0.028 v 0 0.028 0 0 0 0 0 h 0.029 v 0 0 0.028 0 0 0 0 0 h 0.027 v 0 0 0 0.028 0 0 0 0 0 h 0.029 v 0 0 0 0 0 0 0 0 0.028 0 0 0 0 0 h 0.027 v 0 0 0 0 0 0 0 0 0.028 0 0 0 0 0 h 0.025 z"
           style="fill-opacity:0.30199998" /><path
           id="path3704"
           inkscape:connector-curvature="0"
           d="M 56.849,-2.918 C 56.14,-3.4 56.083,-4.25 56.622,-4.874 l 3.458,-4.309 c 0.624,-0.737 1.332,-1.077 2.183,-0.481 0.368,0.255 0.736,0.566 1.105,0.878 1.842,1.475 3.686,2.977 6.52,2.211 2.324,-0.623 3.799,-2.324 4.309,-4.28 0.227,-0.906 0.255,-1.842 0.057,-2.749 -0.17,-0.936 -0.596,-1.814 -1.247,-2.58 -3.203,-3.373 -6.293,-1.587 -9.723,-2.607 -0.481,-0.142 -0.936,-0.425 -1.276,-0.794 -0.34,-0.34 -0.595,-0.793 -0.736,-1.304 -0.199,-0.794 -0.085,-1.615 0.312,-2.268 0.368,-0.652 0.992,-1.162 1.786,-1.389 1.559,-0.397 2.409,0.538 3.571,1.502 0.368,0.283 0.851,0.652 1.333,1.049 1.927,1.531 4.195,1.843 5.924,-0.028 0.198,-0.17 1.162,-1.53 1.275,-1.587 0.17,-0.085 0.396,0.113 0.51,0.227 0.426,0.396 1.021,0.255 1.248,-0.312 l 0.709,-2.892 c 0.113,-0.567 0.311,-1.077 -0.143,-1.446 -0.057,-0.085 -0.113,-0.142 -0.198,-0.198 l 0.651,-0.821 1.162,0.057 c 0.171,0 0.313,-0.143 0.341,-0.313 0,-0.17 -0.142,-0.312 -0.312,-0.312 l -1.077,-0.057 -0.284,-1.049 c -0.057,-0.17 -0.227,-0.255 -0.396,-0.227 -0.17,0.057 -0.283,0.227 -0.227,0.396 l 0.312,1.105 -0.142,0.198 v 0 l -0.51,0.652 c -0.057,-0.057 -0.113,-0.085 -0.17,-0.142 -0.256,-0.227 -0.567,-0.255 -0.879,-0.17 -0.199,0.057 -0.369,0.17 -0.539,0.255 l -2.664,1.332 c -0.453,0.227 -0.652,0.822 -0.313,1.247 0.283,0.313 0.737,0.284 0.313,0.822 l -0.596,0.766 c -0.623,0.822 -1.247,0.68 -1.898,0.255 -0.454,-0.312 -0.879,-0.681 -1.305,-1.021 -1.898,-1.502 -3.6,-2.863 -6.689,-2.013 -1.615,0.426 -2.664,1.247 -3.43,2.58 -1.928,3.345 -0.256,7.682 3.43,8.815 0.623,0.17 1.219,0.283 1.871,0.34 1.219,0.085 1.898,0.057 3.033,0.057 1.672,0 2.777,0.539 3.4,1.275 0.313,0.369 0.511,0.766 0.596,1.219 0.113,0.454 0.086,0.907 -0.028,1.361 -0.227,0.964 -0.964,1.813 -2.126,2.126 -1.36,0.34 -2.607,-0.652 -3.826,-1.645 -0.681,-0.566 -1.389,-1.162 -2.184,-1.559 -0.821,-0.426 -1.7,-0.596 -2.579,-0.426 -0.51,0.085 -1.021,0.313 -1.502,0.652 -0.822,0.595 -1.446,1.559 -2.069,2.324 -0.709,0.879 -3.288,3.799 -3.543,4.62 -0.086,0.284 -0.143,0.624 -0.143,0.936 0,1.729 1.39,3.146 3.119,3.146 0.708,0 1.332,-0.227 1.842,-0.595 v 0 l 0.028,-0.028 v 0 c -0.368,-0.171 -0.538,-0.284 -0.878,-0.511 -0.2,-0.107 -0.369,-0.22 -0.539,-0.334 z m 18.424,-23.669 c -0.255,0.028 -0.454,-0.198 -0.481,-0.454 0,-0.255 0.197,-0.481 0.453,-0.481 0.283,0 0.482,0.198 0.51,0.453 0,0.256 -0.198,0.482 -0.482,0.482 z"
           style="fill:#ffd43b" /><path
           id="path3706"
           inkscape:connector-curvature="0"
           d="m 69.235,-7.056 c -2.041,0.538 -3.571,-0.057 -4.961,-1.021 1.56,1.19 3.232,2.126 5.613,1.502 2.324,-0.623 3.799,-2.324 4.309,-4.28 0.227,-0.906 0.255,-1.842 0.057,-2.749 -0.142,-0.709 -0.426,-1.389 -0.851,-2.041 -0.113,-0.17 -0.255,-0.34 -0.396,-0.539 -0.397,-0.453 -0.851,-0.85 -1.39,-1.19 0.284,0.228 0.511,0.454 0.737,0.709 0.652,0.766 1.049,1.645 1.247,2.579 0.199,0.907 0.17,1.843 -0.057,2.75 -0.509,1.955 -1.983,3.656 -4.308,4.28 z m 5.584,-16.923 c -1.36,1.871 -2.977,3.771 -5.611,2.608 0.68,0.396 1.416,0.623 2.125,0.623 1.021,0.028 2.013,-0.34 2.863,-1.275 v 0 0 0 c 0.085,-0.085 0.34,-0.396 0.566,-0.709 0.313,-0.396 0.652,-0.85 0.709,-0.878 0.17,-0.085 0.369,0.113 0.51,0.227 0.426,0.396 1.021,0.255 1.248,-0.312 l 0.538,-2.269 c 0.028,-0.085 -0.878,2.523 -1.813,1.758 -0.369,-0.283 -0.794,-0.198 -1.135,0.227 z m -13.548,3.09 c -0.199,-0.794 -0.085,-1.615 0.312,-2.268 0.368,-0.652 0.992,-1.162 1.786,-1.389 1.105,-0.284 1.871,0.113 2.637,0.708 -1.673,-1.955 -4.055,-1.417 -5.018,0.143 -0.851,1.304 -0.624,3.26 1.332,4.422 -0.057,-0.057 -0.113,-0.113 -0.17,-0.171 -0.057,-0.028 -0.086,-0.085 -0.143,-0.142 -0.34,-0.34 -0.595,-0.793 -0.736,-1.303 z m 16.157,-8.135 -0.312,0.425 0.481,0.368 0.341,-0.396 c -0.142,0.028 -0.454,-0.199 -0.51,-0.397 z M 56.479,-4.676 c 0.029,-0.057 0.086,-0.113 0.143,-0.17 l 0.17,-0.227 3.288,-4.11 c 0.567,-0.681 1.247,-1.049 2.013,-0.567 -0.17,-0.142 -0.313,-0.255 -0.482,-0.396 -0.85,-0.595 -1.587,-0.255 -2.183,0.482 l -3.231,4.024 -0.227,0.313 c -0.028,0.028 -0.057,0.057 -0.085,0.085 -0.397,0.538 -0.341,1.19 0.085,1.672 0.085,0.057 0.142,0.113 0.227,0.198 0.028,0 0.057,0.028 0.086,0.028 0.141,0.114 0.311,0.256 0.48,0.369 -0.538,-0.453 -0.652,-1.133 -0.284,-1.701 z"
           style="fill:#1a0000;fill-opacity:0.2" /><path
           id="path3708"
           inkscape:connector-curvature="0"
           d="m 59.909,-25.964 c 0.795,0.369 1.191,0.567 1.814,1.021 0.086,-0.68 -0.084,-1.332 -0.312,-2.013 -0.594,0.256 -1.076,0.596 -1.502,0.992 z m 8.845,2.949 c 0.737,-0.142 1.445,-0.51 1.983,-1.021 v 0 c -0.113,-0.057 -0.227,-0.113 -0.367,-0.198 -0.369,-0.255 -0.709,-0.538 -1.049,-0.822 -0.086,0.85 -0.256,1.361 -0.567,2.041 z m -1.474,7.54 c 0.651,0 1.189,0.085 1.672,0.227 -0.028,-0.113 -0.085,-0.198 -0.113,-0.283 -0.256,-0.623 -0.313,-1.105 -0.369,-1.758 -0.453,0.369 -0.821,0.851 -1.049,1.39 -0.084,0.142 -0.141,0.283 -0.197,0.425 0.027,-10e-4 0.056,-10e-4 0.056,-10e-4 z m -2.693,-0.029 c 0.652,0.028 1.162,0.028 1.701,0.028 -0.34,-0.651 -0.482,-1.162 -0.596,-1.928 -0.539,0.54 -0.935,1.163 -1.105,1.9 z m -2.211,-0.368 c 0.369,0.113 0.736,0.198 1.077,0.255 -0.028,-0.142 -0.057,-0.255 -0.085,-0.368 -0.113,-0.596 -0.113,-1.077 -0.057,-1.673 -0.566,0.34 -1.021,0.822 -1.361,1.36 -0.057,0.085 -0.084,0.143 -0.141,0.228 0.198,0.057 0.369,0.142 0.567,0.198 z m -4.224,-5.442 c 0.737,-0.341 1.247,-0.454 1.984,-0.539 -0.511,-0.566 -1.162,-0.936 -1.871,-1.162 -0.113,0.539 -0.142,1.077 -0.142,1.616 0.001,0.028 0.029,0.056 0.029,0.085 z m 0.369,-2.495 c 0.794,0.028 1.219,0 1.956,0.171 -0.227,-0.681 -0.567,-1.191 -1.105,-1.701 -0.142,0.198 -0.312,0.425 -0.425,0.652 -0.171,0.311 -0.313,0.594 -0.426,0.878 z m -1.389,16.611 c -0.113,-0.737 -0.51,-1.446 -0.964,-1.984 -0.396,0.453 -0.765,0.936 -1.162,1.389 0.368,0.057 0.766,0.085 1.077,0.17 0.369,0.113 0.68,0.227 1.049,0.425 z m -0.567,-2.466 0.396,-0.482 c 0.227,-0.283 0.482,-0.595 0.709,-0.907 0.453,0.539 0.906,1.275 1.02,1.984 -0.679,-0.34 -1.246,-0.51 -2.125,-0.595 z m 7.171,-2.665 c -0.085,0.907 -0.227,1.417 -0.567,2.098 0.766,-0.142 1.446,-0.51 1.984,-1.021 -0.453,-0.368 -0.906,-0.765 -1.417,-1.077 z m 1.985,1.53 c -0.028,0.879 -0.17,1.39 -0.481,2.098 0.766,-0.17 1.417,-0.566 1.955,-1.105 -0.51,-0.255 -0.993,-0.623 -1.474,-0.993 z m 5.499,-0.679 c -0.17,0.538 -0.51,1.049 -0.992,1.445 0.851,0.028 1.502,0.113 2.184,0.397 -0.143,-0.737 -0.569,-1.361 -1.192,-1.842 z m -4.507,-13.011 c 0.765,-0.113 1.503,-0.511 2.069,-0.992 -0.482,-0.368 -0.964,-0.737 -1.475,-1.049 -0.083,0.851 -0.253,1.36 -0.594,2.041 z"
           style="fill-opacity:0.34900004" /></g></g></g></svg>