<?xml version="1.0" encoding="UTF-8"?>
<!DOCTYPE svg PUBLIC "-//W3C//DTD SVG 1.1//EN" "http://www.w3.org/Graphics/SVG/1.1/DTD/svg11.dtd">
<!-- Creator: CorelDRAW X7 -->
<svg xmlns="http://www.w3.org/2000/svg" xml:space="preserve" width="15.684mm" height="15.675mm" version="1.1" style="shape-rendering:geometricPrecision; text-rendering:geometricPrecision; image-rendering:optimizeQuality; fill-rule:evenodd; clip-rule:evenodd"
viewBox="0 0 1568 1567"
 xmlns:xlink="http://www.w3.org/1999/xlink">
 <defs>
  <style type="text/css">
   <![CDATA[
    .fil0 {fill:#722C55}
    .fil4 {fill:white}
    .fil3 {fill:#E6E6E6;fill-opacity:0.129412}
    .fil2 {fill:black;fill-opacity:0.250980}
    .fil1 {fill:#0E253F;fill-opacity:0.309804}
   ]]>
  </style>
 </defs>
 <g id="Capa_x0020_1">
  <metadata id="CorelCorpID_0Corel-Layer"/>
  <g id="_1028342218880">
   <circle class="fil0" transform="matrix(0.830226 -0.0126472 0.0126473 0.830226 784.212 783.766)" r="944"/>
   <path class="fil1" d="M1231 140c-169,48 -491,-1 -673,-61 -32,-11 -52,-14 -66,-22 -59,23 -115,54 -166,91 77,23 142,54 224,74l250 70c157,59 582,74 622,36 -52,-73 -117,-137 -191,-188zm-447 1316c-67,-2 -123,-3 -190,5 -55,7 -100,21 -147,30 105,51 224,78 349,76 111,-1 216,-26 311,-69 -82,-21 -239,-40 -323,-42zm-2 -379c-78,5 -185,-11 -260,-9l-481 -37c21,63 49,123 84,177 51,10 147,2 207,4l77 0c77,-7 224,-5 252,-6 65,-1 124,-11 185,-12 123,-2 542,-42 646,-75 17,-34 31,-70 42,-107 -36,18 -111,24 -159,33 -196,35 -406,18 -593,32zm-388 -278l0 0zm317 -216l-435 -135c-69,-27 -133,-55 -159,-75 -63,101 -103,218 -113,342 69,21 133,44 216,60 18,4 87,14 149,21 0,0 0,0 0,0 8,1 17,2 25,3l0 0c32,4 60,7 72,8l0 0 0 0 1 0 29 2 2 2 3 0c2,-1 4,-1 7,-1l144 12c25,2 47,3 63,3l12 1 18 1c0,1 -1,2 -1,2l139 2 683 11c1,-23 2,-46 2,-70 -1,-34 -3,-66 -8,-99 -109,-3 -212,-5 -321,-15 -77,-6 -167,-22 -245,-30l-89 -11c-57,-12 -135,-23 -194,-34z"/>
   <path class="fil2" d="M797 0c-412,-7 -763,309 -794,726 -32,431 292,807 723,839 9,1 17,1 26,2l48 0c-416,-237 -446,-1275 -3,-1567z"/>
   <path class="fil3" d="M1566 842l-822 -13 -17 -3 -12 -1c-16,0 -38,-1 -63,-3l-144 -12c-3,0 -5,0 -7,1l-3 1 0 -1 -2 -2 -29 -2c-14,-1 -54,-5 -98,-11 -62,-7 -131,-17 -149,-21 -83,-16 -147,-39 -216,-60 -3,27 -4,53 -3,81 0,3 0,7 0,10 186,59 406,125 607,122l0 -1c9,1 16,2 17,2l16 0c11,2 25,3 40,5 197,17 675,8 871,7 7,-32 11,-65 14,-99zm-1157 370l0 0zm437 -18c-61,1 -120,11 -185,12 -28,1 -175,-1 -252,6l-77 0c-60,-2 -156,6 -207,-4 33,50 71,97 114,138l36 -4c38,-4 93,-13 117,-16 54,-5 109,-10 165,-13 94,-6 196,-2 290,-5l291 5 213 11c58,-60 105,-129 141,-205 -104,33 -523,73 -646,75zm-296 -972c-82,-20 -147,-51 -224,-74 -50,36 -95,77 -134,123l120 61c74,36 226,85 303,105 310,80 595,103 915,105 -25,-77 -62,-149 -108,-214 -40,38 -465,23 -622,-36l-250 -70z"/>
   <path class="fil4" d="M511 1012c-32,0 -36,-5 -36,-27 0,-28 50,-98 74,-124 9,-10 24,-28 33,-34l52 42c64,48 50,48 85,27 9,-6 17,-11 27,-16l-106 -81c-7,-5 -10,-6 -15,-13 14,-19 133,-102 149,-113l33 21c36,24 69,51 95,69l42 -39c-4,-5 -21,-18 -27,-22l-86 -63c8,-4 14,-8 23,-13 8,-4 16,-8 24,-12 50,-25 112,-52 173,-52 23,0 28,7 28,22 0,27 -27,68 -39,85 -10,14 -42,52 -57,67 -11,11 -21,21 -31,31 -21,21 -79,67 -102,85 -43,32 -105,72 -152,96 -45,22 -125,64 -187,64zm5 -501c-27,0 -53,1 -74,19 -57,48 -1,133 -1,135 0,15 -18,28 2,66 17,31 65,42 96,14 28,-25 28,-68 -1,-94 -12,-12 -25,-16 -48,-16 -3,-12 -38,-66 7,-66 77,0 113,22 173,48l46 22c-2,6 -5,6 -10,9 -4,3 -7,6 -12,9 -12,8 -78,59 -90,70l-120 122c-34,46 -67,88 -67,149 0,47 44,72 94,72 54,0 115,-25 162,-45 5,-2 7,-3 11,-5 14,-7 20,-8 36,-17 27,-17 55,-30 87,-51 109,-71 143,-103 228,-187 40,-39 103,-127 103,-177 0,-30 -4,-45 -27,-65 -58,-49 -192,6 -243,31 -10,5 -20,9 -30,15 -20,11 -39,21 -58,32 -10,6 -11,0 -29,-9 -67,-34 -158,-81 -235,-81z"/>
   <path class="fil4" d="M1064 940c5,10 27,51 8,60 -37,19 -146,-22 -182,-41 -22,-11 -14,-9 -48,13 -6,4 -18,13 -25,15 4,5 40,22 48,26 10,4 16,7 25,10 52,21 168,66 223,20 56,-48 0,-133 0,-135 0,-7 20,-45 -14,-77 -25,-23 -64,-22 -87,2 -6,6 -9,11 -13,19 -12,26 -4,55 15,72 15,12 24,16 50,16z"/>
   <path class="fil4" d="M778 1115c-27,0 -48,-57 -57,-73l-38 18c-6,3 -8,5 -14,6 14,28 12,35 37,68 53,69 125,42 164,-35l17 -38c-19,-5 -36,-19 -54,-23 -5,19 -33,77 -55,77z"/>
   <path class="fil4" d="M667 513c19,4 36,18 54,22 5,-19 33,-77 55,-77 27,0 48,57 57,74 8,-5 16,-9 25,-13 9,-5 18,-8 27,-12 -14,-28 -12,-34 -37,-68 -53,-69 -125,-42 -164,35l-17 39z"/>
  </g>
 </g>
</svg>
