<?xml version="1.0" encoding="UTF-8"?>
<!DOCTYPE svg PUBLIC "-//W3C//DTD SVG 1.1//EN" "http://www.w3.org/Graphics/SVG/1.1/DTD/svg11.dtd">
<!-- Creator: CorelDRAW X7 -->
<svg xmlns="http://www.w3.org/2000/svg" xml:space="preserve" width="15.684mm" height="15.675mm" version="1.1" style="shape-rendering:geometricPrecision; text-rendering:geometricPrecision; image-rendering:optimizeQuality; fill-rule:evenodd; clip-rule:evenodd"
viewBox="0 0 1568 1567"
 xmlns:xlink="http://www.w3.org/1999/xlink">
 <defs>
  <style type="text/css">
   <![CDATA[
    .fil0 {fill:#19594A}
    .fil3 {fill:white}
    .fil2 {fill:black;fill-opacity:0.231373}
    .fil1 {fill:#091727;fill-opacity:0.309804}
   ]]>
  </style>
 </defs>
 <g id="Capa_x0020_1">
  <metadata id="CorelCorpID_0Corel-Layer"/>
  <g id="_1028339474416">
   <g>
    <circle class="fil0" cx="784" cy="784" r="784"/>
    <path class="fil1" d="M112 991c78,-81 6,-214 -111,-179 3,74 16,144 37,211 18,-7 38,4 74,-32zm739 -988c-12,-1 -24,-2 -36,-2 -10,-1 -21,-1 -31,-1 -32,0 -64,2 -95,6 -4,1 -8,1 -12,2 -9,27 -30,59 32,97 72,44 182,50 255,17 70,-31 64,-60 74,-77 -2,-2 -4,-4 -7,-5 -57,-19 -118,-32 -180,-37zm678 1026c-47,-66 -151,-75 -204,47 -53,121 1,193 25,250 80,-84 142,-185 179,-297zm-435 103c-54,-3 -91,31 -89,94 0,21 -8,41 20,68 12,12 34,29 55,27l31 -3c16,-3 21,-8 31,-16 15,-13 30,-31 34,-60 8,-56 -32,-108 -82,-110zm244 -388l0 0zm-241 -106c-302,18 -216,303 29,276 10,-1 17,-3 26,-4 33,-3 21,-2 59,-20 56,-27 57,-47 87,-102l1 -34c3,-3 8,-5 18,-6 2,0 5,0 7,-1l0 0 4 -1 -3 1c4,0 9,-1 13,-3 157,-41 111,-155 93,-189 -51,-98 -220,-103 -290,-34 -36,35 -40,51 -44,117zm66 269l7 -2c-2,2 1,0 -7,4l0 -2zm-395 -515c-6,-27 -36,-56 -69,-48 -90,24 -53,136 22,121 24,-5 55,-37 47,-73zm-324 254c149,-19 105,-198 -56,-168 -38,7 -54,9 -74,33 -61,71 7,151 130,135zm102 414c102,-30 70,-186 -65,-150 -114,31 -56,185 65,150zm15 288c30,-54 -45,-93 -76,-52 -42,54 50,100 76,52z"/>
    <path class="fil2" d="M797 0c-412,-7 -763,309 -794,726 -32,432 292,807 723,839 9,1 18,1 26,2l48 0c-416,-237 -446,-1275 -3,-1567z"/>
   </g>
   <g>
    <path class="fil3" d="M923 692c-10,-6 -9,-10 -8,-21 1,-6 8,-37 7,-40 -10,-11 -151,-66 -182,-79 -37,-13 -52,2 -89,10 -25,6 -54,9 -76,-5 -22,-14 -10,-50 -17,-63 -8,-7 -53,-3 -50,-13 3,-7 29,-46 24,-50 -5,-4 -28,4 -35,9 -16,11 -28,24 -51,14 -22,-9 -26,-35 -23,-55 5,-29 -10,-42 -28,-65 -24,-29 -44,-23 -80,-31 -14,-2 -63,-13 -74,-11 -6,8 1,41 24,38 20,-4 23,2 35,20 23,36 23,49 26,89 2,16 15,18 31,26 26,14 58,33 88,32 33,-2 32,0 58,25 20,18 27,28 43,47 30,36 81,-1 79,55 -2,30 -10,32 -31,55 -13,15 -10,16 -13,38 -3,25 -3,17 10,40 12,21 47,88 63,100 18,13 78,35 83,51 7,21 0,184 7,228 5,32 31,50 38,95 6,35 9,33 37,58 28,25 28,16 30,-17 3,-55 2,-41 -8,-93 -8,-44 19,-29 52,-59 37,-34 57,-141 93,-152 52,-17 43,5 65,-53 12,-31 59,-137 47,-164 -10,-24 -65,-30 -92,-36 -20,-5 -66,-14 -83,-23z"/>
    <path class="fil3" d="M671 430c-24,-21 -64,-34 -94,-19 -28,14 -18,16 8,9 20,-6 25,-4 41,9 7,5 9,10 15,12 10,4 32,3 36,-3 1,-2 0,-3 -6,-8z"/>
    <path class="fil3" d="M757 446c-18,-10 -47,-7 -64,2 -5,3 -2,4 3,6 13,6 47,11 61,0 4,-3 3,-5 0,-8z"/>
   </g>
  </g>
 </g>
</svg>
