<?xml version="1.0" encoding="UTF-8"?>
<!DOCTYPE svg PUBLIC "-//W3C//DTD SVG 1.1//EN" "http://www.w3.org/Graphics/SVG/1.1/DTD/svg11.dtd">
<!-- Creator: CorelDRAW X7 -->
<svg xmlns="http://www.w3.org/2000/svg" xml:space="preserve" width="15.684mm" height="15.675mm" version="1.1" style="shape-rendering:geometricPrecision; text-rendering:geometricPrecision; image-rendering:optimizeQuality; fill-rule:evenodd; clip-rule:evenodd"
viewBox="0 0 1568 1567"
 xmlns:xlink="http://www.w3.org/1999/xlink">
 <defs>
  <style type="text/css">
   <![CDATA[
    .fil0 {fill:#14365B}
    .fil3 {fill:white}
    .fil1 {fill:white;fill-opacity:0.149020}
    .fil2 {fill:black;fill-opacity:0.250980}
   ]]>
  </style>
 </defs>
 <g id="Capa_x0020_1">
  <metadata id="CorelCorpID_0Corel-Layer"/>
  <g id="_1027136906848">
   <path class="fil0" d="M1103 68c396,176 573,639 398,1034 -176,396 -640,574 -1035,398 -395,-176 -573,-639 -397,-1035 176,-395 639,-573 1034,-397z"/>
   <path class="fil1" d="M1387 1149c-104,144 -197,220 -288,267 3,18 -4,37 -19,52 -27,24 -70,24 -96,0 -2,-1 -3,-3 -5,-4 -96,29 -195,47 -310,95 339,51 685,-128 832,-457 27,-61 46,-124 56,-187 -18,29 -39,57 -66,94 -11,-26 -34,-45 -64,-48 -50,-5 -99,33 -110,84 -11,52 20,99 69,104l1 0zm-637 106c19,-17 50,-17 69,0 19,17 19,45 0,62 -19,17 -50,18 -69,1 -19,-17 -19,-45 0,-63zm-549 -880c42,-38 110,-39 152,-1 42,37 42,99 0,137 -42,39 -110,39 -152,1 -42,-37 -42,-99 0,-137zm332 -188c40,4 68,36 71,75 33,-9 67,-20 103,-33 26,-9 51,-25 74,-45 11,30 40,49 75,46 45,-4 82,-44 82,-90 1,-38 -24,-67 -59,-74 12,-18 23,-37 33,-55 65,10 129,29 191,57 62,27 118,62 169,102 -18,40 -36,77 -47,90 -66,74 -138,146 -216,208 20,11 31,35 25,61 -7,33 -39,57 -70,54 -26,-3 -44,-24 -46,-49 -123,79 -262,129 -420,121 -124,-5 -318,2 -481,-28 11,-54 28,-109 52,-162 35,-78 81,-148 136,-209 74,23 144,34 216,32 0,-5 1,-11 2,-17 11,-51 60,-89 110,-84zm842 410c-6,6 -11,11 -17,17 6,3 12,7 18,12 32,28 32,76 0,105 -33,29 -85,30 -118,1 -5,-4 -9,-9 -12,-15 -292,257 -377,201 -655,184 1,35 -14,70 -44,97 -59,53 -154,54 -213,2 -29,-27 -44,-62 -43,-97 -120,0 -215,-34 -288,-58 5,63 18,125 38,184 26,-24 69,-24 95,-1 27,24 27,63 0,87 -14,13 -34,19 -53,18 14,27 29,54 46,79 25,39 54,76 86,110 16,-15 28,-35 33,-57 4,-20 2,-39 -4,-55 200,-9 433,-36 535,-74 8,-3 17,-6 25,-9 3,17 12,33 26,46 37,33 97,32 134,-1 28,-26 35,-63 20,-93 63,-16 121,-40 248,-132 121,-88 228,-196 322,-314 -12,-61 -32,-120 -57,-177 -30,46 -66,86 -122,141z"/>
   <path class="fil2" d="M797 1c-413,-8 -764,309 -795,725 -32,432 292,808 724,839 8,1 17,2 25,2l48 0c-416,-237 -446,-1275 -2,-1566z"/>
   <path class="fil3" d="M682 468c13,0 23,7 29,17 10,19 -1,48 -29,48 -29,0 -42,-35 -23,-55 4,-5 13,-10 23,-10zm323 204c-5,124 -91,133 -179,133 -29,0 -90,0 -118,0 -11,0 -24,2 -35,6 -11,4 -20,9 -27,15l0 0c-6,4 -10,9 -13,14 -3,5 -6,10 -8,17 -1,3 -3,8 -3,12 -1,4 -2,8 -2,11 0,34 0,71 0,107l1 64 0 0 -1 6 0 1c0,13 0,23 9,36 7,11 18,20 30,26 12,7 27,12 41,16 35,8 82,11 126,7 38,-3 73,-11 96,-24 8,-5 15,-11 21,-18 4,-6 6,-12 7,-19 0,-5 0,-14 0,-21 0,-8 0,-15 0,-18 -1,-7 -1,-32 -1,-44l-165 0 -16 0 0 -16 0 -26 0 -16 16 0 253 0c2,0 4,0 6,1l0 0c4,0 9,-1 14,-2l0 0c5,-1 10,-2 14,-4 18,-7 32,-18 42,-33 45,-65 47,-293 -62,-293l-46 0 0 62zm38 270c0,0 -1,0 0,0l0 0 0 0zm-423 -455l0 72 166 0 16 0 0 16 0 24 0 16 -16 0 -260 0c-8,0 -16,2 -23,4 -8,3 -16,7 -22,11 -18,11 -30,30 -39,51 -11,27 -15,58 -15,86l0 2 0 1 0 2c0,15 0,27 1,39 1,11 2,23 5,38l0 0c1,6 3,12 5,18 2,7 4,13 6,18l0 0 5 12c3,6 7,13 12,18 4,6 8,11 14,15 3,2 5,4 9,6 2,2 5,4 8,5 4,1 7,3 11,4 3,1 7,1 11,1l50 0 0 -75c0,-11 2,-24 6,-36 3,-13 9,-25 15,-34 9,-15 21,-26 35,-34 14,-8 29,-12 46,-14 14,-2 135,-2 178,-2l14 0 0 0c17,0 33,-2 47,-8 12,-5 22,-13 30,-24 4,-5 7,-11 9,-17 2,-6 4,-13 5,-22 0,-2 0,-46 1,-91 0,-46 -1,-92 -1,-94 -1,-6 -3,-11 -5,-17 -3,-6 -7,-12 -12,-16 -3,-3 -6,-6 -10,-8l0 0c-5,-4 -10,-7 -14,-9 -13,-7 -30,-12 -48,-16 -22,-4 -45,-6 -64,-6 -19,0 -37,0 -55,1 -17,1 -34,3 -51,8 -8,2 -15,4 -21,6 -7,2 -13,5 -19,9l0 0c-2,1 -4,2 -4,2l0 0c-2,1 -3,2 -4,3 -7,5 -13,11 -17,18 -3,5 -5,10 -5,17l0 0zm235 581c0,-10 1,-19 11,-27 4,-3 5,-4 9,-6 18,-6 34,2 41,16 11,21 -5,46 -26,46l-5 0c-15,0 -30,-14 -30,-29z"/>
  </g>
 </g>
</svg>
