<?xml version="1.0" encoding="UTF-8"?>
<!DOCTYPE svg PUBLIC "-//W3C//DTD SVG 1.1//EN" "http://www.w3.org/Graphics/SVG/1.1/DTD/svg11.dtd">
<!-- Creator: CorelDRAW X7 -->
<svg xmlns="http://www.w3.org/2000/svg" xml:space="preserve" width="6.51mm" height="5.053mm" version="1.1" style="shape-rendering:geometricPrecision; text-rendering:geometricPrecision; image-rendering:optimizeQuality; fill-rule:evenodd; clip-rule:evenodd"
viewBox="0 0 651 505"
 xmlns:xlink="http://www.w3.org/1999/xlink">
 <defs>
  <style type="text/css">
   <![CDATA[
    .fil1 {fill:#0E253F}
    .fil0 {fill:#14365B}
    .fil4 {fill:#FFD43B}
    .fil2 {fill:white;fill-rule:nonzero}
    .fil5 {fill:#1A0000;fill-opacity:0.200000}
    .fil3 {fill:black;fill-opacity:0.301961}
    .fil6 {fill:black;fill-opacity:0.349020}
   ]]>
  </style>
 </defs>
 <g id="Capa_x0020_1">
  <metadata id="CorelCorpID_0Corel-Layer"/>
  <g id="_495024511872">
   <path class="fil0" d="M512 0c77,54 130,141 138,240l-199 265 -347 0c-59,-55 -98,-132 -103,-218l221 -287 290 0z"/>
   <path class="fil1" d="M139 0c-51,36 -92,86 -116,146 -17,43 -25,90 -23,136 1,14 3,27 5,40 5,-12 11,-23 18,-34 6,-9 13,-26 22,-32 12,-9 24,-6 35,2 17,14 58,52 79,54 8,1 13,-5 11,-13 -2,-9 -12,-19 -24,-29 -20,-16 -44,-33 -51,-42 -9,-9 -10,-16 -8,-26 3,-14 17,-35 24,-46 5,-8 11,-17 17,-26l0 0c33,-46 79,-98 116,-130l-105 0z"/>
   <path class="fil1" d="M547 505c34,-32 63,-72 81,-118 17,-42 25,-88 23,-137 -1,-13 -3,-26 -5,-39 -5,12 -11,23 -18,33l-9 15c-5,8 -16,29 -24,35 -12,8 -24,5 -35,-3 -17,-14 -58,-52 -79,-54 -8,-1 -13,5 -11,13 2,9 12,19 24,29 20,16 44,34 51,42 13,14 11,24 2,42 -19,40 -65,99 -109,142l109 0z"/>
   <path class="fil2" d="M559 88c-1,-2 -1,-5 1,-7 2,-1 5,-1 7,1 18,24 32,49 43,77 10,27 16,56 18,86 6,84 -22,162 -73,221 -13,14 -27,27 -42,39l-16 0c19,-13 36,-28 50,-46 50,-56 78,-132 72,-213 -2,-29 -8,-57 -18,-83 -10,-27 -25,-52 -42,-75zm-379 -88l21 0c-38,18 -71,43 -97,74 -50,56 -77,132 -72,213 6,81 44,152 101,201 6,6 14,12 21,17l-16 0c-4,-3 -8,-6 -12,-9 -58,-51 -98,-125 -103,-208 -6,-84 22,-162 73,-221 24,-27 52,-50 84,-67zm270 0l21 0c10,5 19,11 29,18 2,1 2,4 1,6 -2,2 -5,3 -7,1 -14,-9 -29,-18 -44,-25z"/>
   <path class="fil3" d="M166 202l0 0c1,61 18,102 75,120 11,3 22,5 34,6 22,2 34,1 55,1 32,0 75,12 73,49 0,-3 0,-5 1,-7l0 0 0 -1c0,0 0,0 0,-1l0 0 0 0 0 0 0 0c0,-1 0,-1 0,-2l0 0 0 0 0 0 0 -1 0 0 0 0 0 -1 0 0 0 0 0 0 0 0 0 0 0 0 0 -1 0 0 0 0 0 0 0 -1 0 0 0 0 0 0 0 0 0 -1 0 0 0 0 0 0 0 0 0 0 0 -1 0 0 0 0 0 0 0 0 0 -1 0 0 0 0 0 0 0 0 0 -1 0 0 0 0 0 0 -1 0 0 0 0 -1 0 0 0 0 0 -1 0 0 0 0 0 0 0 0 0 -1 0 0 0 0 0 0 0 -1 0 0 0 0 0 0 0 0 0 0 0 -1 0 0 0 0 0 -1 0 0 -1 0 0 -1 0 0 0 0 0 0 0 -1 0 0 0 0 0 0 0 -1 0 0 0 0 -1 -1 0 0 0 -1 0 0 0 0 0 0 0 0 0 0 0 -1 0 0 0 0 0 0 0 0 -1 -1 0 0 0 0 0 0 0 -1 0 0 0 0 -1 -1 0 0 0 0 0 0 0 -1 0 0 0 0 0 -1 -1 0 0 0c0,0 0,0 0,-1l0 0 0 0 0 0 0 -1 -1 0 0 0 0 -1 0 0 0 0 0 0 0 0 -1 -1 0 0 0 0 0 -1 0 0 0 0 0 0 -1 0 0 0 0 -1 0 0 0 0 0 0 0 0 -1 -1 0 0 0 0 0 0 0 0 0 0 0 0 0 0 0 -1 0 0 -1 0 0 0 0 0 0 0 0 -1 0 0 0 0 0 0 -1 0 0 0 0 -1 0 0c0,0 0,0 -1,0l0 0c0,0 0,-1 0,-1l0 0c0,0 0,0 -1,0l0 0 0 -1 0 0c0,0 -1,0 -1,-1l0 0c0,0 0,0 0,0l0 0c-1,0 -1,-1 -1,-1l0 0c0,0 0,0 -1,0l0 0c0,-1 0,-1 0,-1l0 0c-1,0 -1,0 -1,-1l0 0c0,0 0,0 -1,0l0 0c0,0 0,-1 0,-1l0 0c-1,0 -1,0 -1,0l0 0c0,0 0,-1 -1,-1l0 0c0,0 0,0 0,0l0 0c-1,0 -1,-1 -1,-1l0 0c0,0 -1,0 -1,0l0 0c0,-1 0,-1 -1,-1l0 0c0,0 0,0 0,0l0 0c-1,-1 -1,-1 -1,-1l0 0c0,0 -1,0 -1,0l0 0c0,0 -1,-1 -1,-1l0 0c0,0 0,0 -1,0l0 0c0,0 0,-1 0,-1l0 0c-1,0 -1,0 -1,0l0 0c-1,0 -1,0 -1,-1l0 0c0,0 -1,0 -1,0l0 0c0,0 -1,0 -1,0l0 0c0,-1 -1,-1 -1,-1l0 0c0,0 -1,0 -1,0l0 0c0,0 0,-1 -1,-1l0 0c0,0 0,0 -1,0l0 0c0,0 0,0 -1,0l0 0c0,-1 0,-1 -1,-1l0 0c0,0 0,0 -1,0l0 0c0,0 0,0 -1,0l0 0 -1 -1 0 0c0,0 0,0 -1,0l0 0c0,0 0,0 -1,0l0 0c0,-1 0,-1 -1,-1l0 0c0,0 0,0 -1,0l0 0c0,0 -1,0 -1,0l0 0c0,0 -1,0 -1,-1l0 0c0,0 -1,0 -1,0l0 0c0,0 -1,0 -1,0l0 0c-1,0 -1,0 -1,0l0 0 -1 -1 0 0c-1,0 -1,0 -2,0l0 0c0,0 0,0 -1,0l0 0c0,0 -1,0 -1,0l0 0c0,0 -1,0 -1,0l0 0c-1,0 -1,0 -1,0l0 0c-1,-1 -1,-1 -2,-1l0 0c0,0 -1,0 -1,0l0 0 -1 0 0 0c-1,0 -1,0 -1,0l0 0c-1,0 -1,0 -2,0l0 0c0,0 -1,0 -1,0l0 0c-1,0 -1,0 -1,0l0 0c-1,0 -1,0 -2,0l0 0c0,0 -1,0 -1,0l0 0c-1,0 -1,0 -1,0l0 0c-1,0 -1,0 -2,-1l0 0c0,0 -1,0 -1,0l0 0 -1 0 0 0 -1 0 0 0 -1 0 0 0 -1 0 0 0 -1 0 -1 0 0 0 -1 0 -1 0 0 0 -1 0 0 0 0 0 -1 0 -1 0 -1 0 -1 1 -1 0 0 0 0 0 0 0 -1 0 -1 0 0 0 -1 0 0 0 -1 0 0 0 -1 0 0 0 -1 0 0 0 -1 0 0 0 -1 0 0 0 0 0 0 0 -1 0 -1 0 -1 0 -1 0 0 0 0 0 0 0 -1 0 -1 0 0 0 -1 0 0 0 -1 0 0 0 0 0 -1 0 0 0 -1 -1 -1 0 0 0 -1 0 0 0 0 0 0 0 -1 0 0 0 -1 0 0 0 -1 0 0 0 -1 0 0 0 0 0 0 0 -1 0 -1 0 0 0 -1 0 0 0 -1 0 0 0 -1 0 0 0 -1 0 -1 0 0 0 0 0 0 0 -1 0 0 0 -1 0 0 0 -1 0 0 0 -1 0 -1 0 0 0 -1 0 0 0 -1 0 0 0 -1 0 0 0 -1 0 0 0 -1 -1 0 0 -1 0 0 0 0 0 0 0 -1 0 0 0 0 0 0 0 -1 0 0 0 0 0 -1 0 0 0 0 0 0 0 -1 0 0 0 -1 0 0 0 0 0 -1 0 0 0 0 0 -1 0 0 0 -1 0 0 -1 -1 0 0 0 0 0 -1 0 0 0 0 0c-1,0 -1,0 -2,0l0 0 0 0 -1 0 0 0 0 0 -1 0 -1 0 0 -1 0 0 -1 0 -1 0 0 0 0 0 0 0 -1 0 0 0 0 0 -1 0 0 0 0 0 0 0 -1 0 0 -1 -1 0 0 0 0 0 0 0 -1 0 0 0 -1 0 0 0 0 0 0 0 -1 0 0 -1 -1 0 0 0 -1 0 0 0 0 0 -1 0 0 0 -1 0 0 -1 -1 0 0 0 0 0 -1 0 0 0 -1 0 0 0 0 0 -1 -1 0 0 -1 0c-1,0 -2,0 -3,-1l0 0c-1,0 -2,-1 -3,-1l0 0c-1,0 -2,-1 -3,-1l0 0c-1,-1 -2,-1 -2,-1l-1 0c-1,-1 -2,-1 -3,-2l0 0c-1,0 -1,-1 -2,-1l-1 0c-1,-1 -1,-1 -2,-1l-1 -1c0,0 -1,0 -2,-1l0 0c-1,-1 -2,-1 -3,-2l0 0c-1,0 -1,-1 -2,-1l-1 -1c0,0 -1,-1 -2,-1l0 0c-1,-1 -1,-1 -2,-2l-1 0c0,-1 -1,-1 -1,-2l-1 0c0,0 -1,-1 -2,-2l0 0c-1,-1 -1,-1 -2,-1l0 -1c-1,0 -2,-1 -2,-2l-1 0c0,-1 -1,-1 -1,-2l-1 0c0,-1 -1,-1 -2,-2l0 0c0,-1 -1,-1 -1,-2l-1 -1c0,0 -1,-1 -1,-1l-1 -1c0,0 -1,-1 -1,-2l-1 0c0,-1 -1,-1 -1,-2 0,0 0,0 0,0 -1,-1 -1,-2 -2,-2l0 -1c-1,-1 -1,-1 -1,-2l-1 0c0,-1 -1,-2 -1,-2l-1 -1c0,-1 0,-1 -1,-2l0 -1c-1,0 -1,-1 -1,-2 0,0 -1,0 -1,0 0,-1 0,-1 -1,-2l0 -1c0,0 -1,-1 -1,-2 0,0 0,0 -1,-1 0,0 0,-1 0,-1l-1 -1c0,-1 0,-1 0,-2 -1,0 -1,-1 -1,-1 0,-1 0,-1 -1,-2 0,0 0,-1 0,-1 0,0 0,-1 -1,-1 0,-1 0,-1 0,-1 0,-1 0,-2 -1,-2 0,-1 0,-1 0,-2 0,0 0,-1 0,-1 -1,0 -1,-1 -1,-1 0,-1 0,-2 0,-2 -1,-1 -1,-1 -1,-1 0,-1 0,-1 0,-2 0,0 0,-1 0,-1 0,-1 -1,-1 -1,-2 0,0 0,-1 0,-1 0,-1 0,-1 0,-2 0,0 -1,0 -1,-1 0,0 0,-1 0,-1 0,-1 0,-2 0,-2 0,-1 0,-1 0,-2 0,0 0,0 -1,-1 0,0 0,-1 0,-1 0,-1 0,-1 0,-2 0,0 0,-1 0,-2 0,0 0,-1 0,-1 0,0 0,-1 0,-1 0,-1 0,-1 0,-1l0 -1zm-9 303l-22 0 1 -1c1,-1 2,-2 3,-3l3 -4 0 -1 52 -65 0 0 7 -8 0 0 0 -1 0 0 1 0 0 0 0 -1 0 0 1 0 0 0 0 -1 0 0 1 -1 0 0 1 0 0 0 0 -1 0 0 1 0 0 0c0,0 0,-1 0,-1l0 0 1 0c20,-20 35,-3 50,11l0 0 2 1 0 0 1 1c2,1 3,2 5,4l0 0c1,1 2,1 3,2l0 0c1,1 2,2 3,3l0 0c2,1 3,2 5,3l0 0 1 2c1,0 2,1 3,2l0 0c1,0 2,1 2,1l0 0c1,0 1,1 2,1l0 0c0,1 1,1 1,1l0 0c1,1 1,1 2,2 0,0 1,0 1,1l0 0c1,0 2,0 2,1 1,0 1,0 2,1 1,1 2,1 3,2 1,0 1,1 2,1 0,0 1,1 1,1 1,0 1,1 2,1 1,0 1,1 2,1l0 0c0,0 1,0 1,1l0 0c1,0 2,0 2,1l0 0c1,0 1,0 2,1 0,0 1,0 2,0 0,1 1,1 1,1l0 0c1,1 1,1 2,1 1,0 1,1 2,1 0,0 1,0 2,1 0,0 1,0 1,0 1,1 2,1 2,1 1,0 1,0 2,1 1,0 1,0 2,0 1,0 1,1 2,1 0,0 1,0 2,0l0 0c0,0 1,1 2,1 0,0 1,0 1,0 1,0 2,1 2,1 1,0 2,0 2,0 1,0 2,0 2,0l0 0c1,1 2,1 2,1l0 0c1,0 2,0 2,0 1,0 2,0 2,0 1,0 2,0 2,0 1,0 2,0 2,0 1,1 2,1 3,1 0,0 1,0 2,0 0,0 1,0 2,0 0,0 1,0 2,0 1,-1 1,-1 2,-1 1,0 2,0 2,0l0 0c1,0 2,0 3,0l0 0c0,0 1,0 2,0l0 0c0,0 1,0 2,-1l0 0c1,0 2,0 2,0l0 0c1,0 2,0 3,0l0 0c0,-1 1,-1 2,-1l0 0c1,0 2,0 2,0l0 0c1,-1 2,-1 3,-1l0 0c0,0 1,0 2,-1l0 0c0,0 1,0 2,0l0 0c0,0 1,-1 2,-1l0 0c0,0 1,0 1,0 1,-1 2,-1 2,-1l0 0c1,0 1,0 2,-1l0 0c1,0 1,0 2,0l0 0c0,-1 1,-1 2,-1l0 0c0,0 1,-1 1,-1l0 0c1,0 2,0 2,-1 1,0 1,0 2,-1l0 0c1,0 1,0 2,0l0 0c0,-1 1,-1 1,-1l0 0c1,0 1,-1 2,-1 1,0 1,-1 2,-1 0,0 1,-1 1,-1l0 0c1,0 1,-1 2,-1l0 0c0,0 1,-1 1,-1 1,0 1,0 2,-1l0 0c0,0 1,-1 1,-1 1,0 1,-1 2,-1 0,0 1,-1 1,-1 1,0 1,-1 2,-1l0 0c0,0 1,-1 1,-1 1,-1 1,-1 2,-1l0 0c0,-1 1,-1 1,-1 1,-1 1,-1 1,-2 1,0 1,0 2,-1 0,0 1,-1 1,-1 0,0 1,-1 1,-1 1,-1 1,-1 2,-1l0 0c0,-1 0,-1 1,-2l0 0c0,0 1,-1 1,-1 0,0 1,-1 1,-1l0 0c1,-1 1,-1 1,-2l0 0c1,0 1,-1 1,-1 1,0 1,-1 2,-1l0 0c0,-1 0,-1 1,-2 0,0 0,-1 1,-1 0,-1 0,-1 1,-1l0 0c0,-1 0,-1 1,-2 0,-1 1,-2 2,-3 0,0 0,-1 1,-1 0,-1 0,-1 1,-2l0 0c0,0 0,-1 1,-1l0 0c0,-1 1,-2 1,-3 1,-1 1,-2 2,-3l0 0c0,-1 0,-1 1,-2 0,0 0,-1 0,-1l0 0c1,-1 1,-1 1,-2 1,-1 1,-2 1,-3 1,0 1,-1 1,-2 0,0 0,-1 1,-1 0,-1 0,-1 0,-2 0,0 1,-1 1,-1 0,-1 1,-2 1,-4l0 0c0,0 0,-1 0,-1l0 0c1,-1 1,-1 1,-2l0 0c0,0 0,-1 0,-1l0 0 0 -1 0 0 1 -1 0 0 0 -1 0 0 0 -1 0 0 0 0 0 0 0 -1 0 0 1 -1 0 0 0 -1 0 0 0 0 0 -1 0 -1 0 0 0 -1 0 0 0 0 0 -1 1 -1 0 -1 0 -1 0 0 0 -1 0 -1 0 -1 0 0 0 -1 0 -1 0 -1 0 0 1 -1 0 -1 0 0 0 -1 0 0 0 -1 0 0 0 -1 0 0 0 -1 0 0 0 -1c0,-1 0,-1 0,-2l0 0c0,-1 0,-1 0,-2l0 0c0,0 0,-1 0,-1l0 -1 0 0c0,0 0,-1 0,-2l0 0 -1 0 0 0 0 -1 0 -1 0 0c0,0 0,-1 0,-1l0 0c0,-1 0,-2 0,-3l0 0c0,0 0,-1 0,-2l0 0c0,-1 0,-1 -1,-2l0 0 0 0 0 0c0,-1 0,-1 0,-2l0 0c0,0 0,-1 0,-1l0 0c0,-1 0,-1 -1,-2 0,0 0,-1 0,-1l0 0c-1,-6 -3,-12 -5,-17l0 -1c-3,-5 -5,-10 -9,-15l0 -1c0,0 0,0 0,-1l0 0 0 0 0 0 -1 0 0 0 0 0 0 0 0 0 0 0 0 0 0 0 0 0 0 0 0 0 0 0c76,88 6,177 -73,187 -47,6 -84,-20 -108,-40 -9,-6 -16,-13 -22,-16l0 0c-5,-3 -9,-4 -13,-4l0 0 0 0 0 0c-1,1 -1,1 -1,1l0 0c-1,0 -1,0 -1,0l0 0 -1 0 0 0 0 0 0 0c0,0 -1,0 -1,0l0 0 0 0 0 1 -1 0 0 0 0 0 0 0 0 0 0 0 -1 0 0 0c0,0 0,0 -1,1l0 0 0 0 0 0 0 0 0 0 0 0 -1 0 0 0 0 1 0 0 -1 0 0 0 0 0 0 0 0 0 0 0 -1 1 0 0 0 0 0 0 -1 0 0 0 0 1c-14,11 -36,42 -51,59 -2,2 -4,4 -6,6zm81 -267c-25,-43 16,-87 56,-64 24,13 41,35 62,47 33,17 77,22 110,-43l0 0 0 0 0 0 -1 1 0 0 0 0 0 0 0 0 0 1 0 0 -1 0 0 0 0 0 0 1 0 0 -1 0 0 0 0 1 0 0 0 0 0 0 -1 1 0 1 0 0 -1 0 0 0 0 1 0 0 0 0 -1 0 0 0 0 0 0 1 0 0 0 0 0 0 0 0 0 0 -1 1 0 0 0 0 0 0 0 0 0 0 0 0 -1 1 0 0 0 0 0 0 0 0 0 0 0 0 0 0 0 1 0 0 -1 0 0 0 0 0 0 0 0 0 0 0 0 1 0 0 0 0 0 0 0 0 0 0 -1 0 0 0 0 0 0 0 0 1 0 0 0 0 0 0 0 0 0 0 0 0 0 0 -1 0 0 0 0 0c-34,32 -69,26 -103,3 0,0 -1,0 -1,-1 -4,-2 -6,-5 -9,-7 -4,-3 -8,-6 -13,-10 -2,-1 -3,-2 -5,-3l0 -1c-19,-15 -34,-31 -59,-27l0 0c0,0 -1,0 -1,0l0 0c-1,0 -1,1 -1,1l-1 0 0 0c-1,0 -1,0 -2,0l0 0 -1 1 -1 0 0 0 -1 0 -1 0 0 1 -1 0 -1 0 0 0 -1 1 -1 0 0 0 -1 0 0 1 -1 0 -1 0 0 1 -1 0 0 0 -1 1 0 0 -1 0 -1 1 0 0 -1 0 0 1 0 0 -1 0 0 0 -1 1 0 0 0 0 0 0 -1 1 0 0 -1 0 0 0 0 1 0 0 -1 0 0 1 -1 0 0 1 0 0 -1 0 0 0 0 0 -1 1 0 0 0 0 -1 1 0 0 0 0c-1,1 -2,2 -2,3l-1 0 0 1 0 0 0 0 -1 1c0,0 0,0 -1,1 0,0 0,1 -1,1l0 0c0,1 0,1 0,1l0 0c-1,1 -1,1 -1,2 -1,1 -1,1 -1,2l0 0c-1,2 -2,4 -3,6 0,1 -1,1 -1,1l0 0 0 1 0 0 0 1c0,0 0,0 0,1l-1 0 0 1 0 0 0 1 0 0 0 0 0 1 0 1 -1 0 0 0 0 1 0 0 0 0 0 0 0 1 0 0 0 1 0 0 0 0 0 1 0 0 0 1 0 0 0 1 0 1 0 0 -1 1 0 1 0 0 0 0 0 1 0 1 0 0 0 0 0 0 0 1 0 1 0 0 0 0 0 1 0 0 1 1 0 0 0 1 0 1 0 0 0 1 0 1 0 0 0 0 0 1 0 1 0 0 1 1 0 1 0 0 0 1 0 1 0 0 1 1 0 0 0 1 0 0 0 0 0 1 0 0 0 0 0 1 0 0 1 0 0 0 0 0 0 1 0 0 0 0 0 0 0 1 0 0 0 0 0 0 1 1 0 0 0 0 0 0 0 0 0 1 0 0 0 0 0 0 0 1 0 0 1 0 0 0 0 1 0 0 0 0 1 1 0 0 0 0 0 1 0 0 0 0 0 0 0 0 1 1 0 0 0 0 0 1 0 0 0 0 0 0 1 1 0 0 0 0 0 0 0 0 0 1 0 0 1 0 0 0 0 0 0 1 0 0 0 0 0 0 0 0 1 1 0 0 0 0 0 0 0 0 0 1 1 0 0 0 0 0 0 1 1 0 0 0 0 0 0 1 0 0 0 0 1 0 0 1 0 0 0 0 1 1 0 0 0 0 1 1 0 0 0 0 0 0 0 0 0 0 0 0 0 0 0 0 0 0 0 0 0 0 0 0 0 0 0 0 0 0 0 1 0 0 0 0 1 0 0 0 0 0 0 0 0 0 0 0 0 0 0 0 0 0 0 0 0 0 0 0 0 0 0 0 0 0 0 0 0 0 0 0 0 0 0 0 0 0 0 0 0 0 0 0 0 0 0 0 0 0 0 1 1 0 0 0 0 0 0 0 0 0 0 0 0 0 0 0 0 0 0 0 0 0 0 0 0 0z"/>
   <path class="fil4" d="M135 505c1,-1 2,-3 4,-4l62 -78c11,-13 24,-20 39,-9 7,5 13,11 20,16 33,27 66,54 118,40 42,-11 68,-42 77,-77 4,-17 5,-34 1,-50 -3,-16 -11,-32 -22,-46 -58,-61 -114,-29 -176,-47 -8,-3 -16,-8 -22,-14 -7,-7 -11,-15 -14,-24 -4,-15 -1,-29 6,-41 6,-12 18,-21 32,-25 28,-7 43,10 64,27 7,5 16,12 24,19 35,27 76,33 107,-1 4,-3 21,-27 23,-28 3,-2 7,2 9,4 8,7 19,5 23,-6l12 -52c3,-10 6,-19 -2,-26 -1,-1 -2,-2 -3,-3l11 -15 21 1c3,0 6,-3 6,-6 0,-3 -2,-6 -5,-6l-20 0 -5 -19c-1,-3 -4,-5 -7,-4 -3,1 -5,4 -4,7l5 20 -2 3 0 0 -9 12c-1,-1 -2,-2 -3,-3 -5,-4 -10,-4 -16,-3 -3,1 -7,3 -10,5l-48 24c-8,4 -12,15 -5,22 4,6 13,5 5,15l-10 14c-12,15 -23,12 -35,4 -8,-5 -16,-11 -23,-18 -35,-27 -65,-51 -121,-36 -29,7 -48,23 -62,47 -35,60 -4,138 62,158 11,4 22,6 34,6 22,2 34,1 55,1 30,1 50,10 61,23 6,7 9,14 11,22 1,9 1,17 -1,25 -4,17 -17,32 -38,38 -25,6 -47,-12 -69,-30 -12,-9 -25,-20 -39,-27 -16,-8 -31,-11 -47,-8 -9,2 -19,5 -27,12 -15,10 -26,27 -37,42 -13,15 -60,68 -64,83 -2,5 -3,10 -3,16l57 0zm340 -396c-5,1 -9,-3 -9,-8 0,-5 4,-9 8,-9 5,0 9,4 9,9 0,4 -3,8 -8,8z"/>
   <path class="fil5" d="M366 461c-37,10 -65,-1 -89,-18 28,21 58,38 101,27 42,-11 68,-42 77,-77 4,-17 5,-34 1,-50 -2,-13 -7,-25 -15,-36 -2,-4 -5,-7 -7,-10 -7,-8 -15,-16 -25,-22 5,4 9,9 13,13 12,14 19,30 23,46 3,17 3,34 -2,50 -9,35 -35,66 -77,77zm-231 44l-15 0c1,-4 2,-7 5,-11 1,-1 1,-1 2,-2l4 -5 58 -73c11,-13 24,-19 39,-8 3,2 6,4 9,6 -14,-8 -26,-2 -36,11l-59 74 -3 4c-1,1 -2,2 -3,3l-1 1zm331 -349c-24,34 -53,68 -101,47 13,7 26,11 38,12 19,0 37,-7 52,-23 0,0 0,-1 0,-1 0,0 0,0 0,0 0,0 0,0 0,0 2,-1 6,-7 10,-12 6,-8 12,-15 13,-16 3,-2 7,2 9,4 8,7 19,5 23,-6l10 -41c0,-1 -16,46 -33,32 -7,-5 -14,-4 -21,4zm-244 56c-4,-15 -1,-29 6,-41 6,-12 18,-21 32,-25 20,-5 34,2 48,13 -30,-35 -73,-26 -91,2 -15,24 -11,59 24,80 -1,-1 -2,-2 -3,-3 -1,-1 -2,-2 -2,-2 -7,-7 -11,-15 -14,-24zm292 -147l-6 8 9 7 5 -7c-2,0 -8,-4 -8,-8z"/>
   <path class="fil6" d="M198 121c14,6 21,9 32,18 2,-13 -1,-24 -5,-36 -11,4 -20,10 -27,18zm159 53c14,-3 26,-10 36,-19 0,0 0,0 0,0 -2,-1 -4,-2 -7,-4 -6,-4 -13,-9 -19,-14 -1,15 -4,24 -10,37zm-26 135c11,1 21,2 30,4 -1,-1 -2,-3 -2,-5 -5,-11 -6,-20 -7,-31 -8,6 -15,15 -19,25 -1,2 -2,5 -3,7 0,0 0,0 1,0zm-49 0c12,1 21,1 31,1 -7,-12 -9,-22 -11,-35 -10,9 -17,21 -20,34zm-40 -7c7,2 13,4 20,5 -1,-3 -1,-5 -2,-7 -2,-11 -2,-19 -1,-30 -10,6 -19,15 -25,25 0,1 -1,2 -2,4 3,1 7,2 10,3zm-76 -98c13,-6 23,-8 36,-9 -9,-11 -21,-17 -34,-21 -2,9 -3,19 -2,28 0,1 0,2 0,2zm7 -45c14,1 22,0 35,3 -4,-12 -10,-21 -20,-30 -3,3 -5,7 -8,12 -3,5 -5,10 -7,15zm-25 300c-2,-13 -9,-26 -18,-36 -7,8 -14,17 -21,25 7,1 14,2 20,3 6,2 12,4 19,8zm-10 -45l7 -8c4,-6 8,-11 13,-17 8,10 16,23 18,36 -12,-6 -23,-9 -38,-11zm129 -48c-2,16 -5,26 -10,38 13,-2 25,-9 35,-18 -8,-7 -16,-14 -25,-20l0 0zm35 28c0,15 -3,25 -8,37 13,-3 25,-10 35,-19 -9,-5 -18,-11 -27,-18zm100 -13c-4,10 -10,20 -19,26 16,1 28,2 40,8 -3,-14 -10,-25 -21,-34zm-81 -234c13,-2 26,-9 37,-18 -9,-7 -18,-13 -27,-19 -1,16 -5,25 -10,37z"/>
  </g>
 </g>
</svg>
