<?xml version="1.0" encoding="UTF-8"?>
<!DOCTYPE svg PUBLIC "-//W3C//DTD SVG 1.1//EN" "http://www.w3.org/Graphics/SVG/1.1/DTD/svg11.dtd">
<!-- Creator: CorelDRAW X7 -->
<svg xmlns="http://www.w3.org/2000/svg" xml:space="preserve" width="12.491mm" height="4.1486mm" version="1.1" style="shape-rendering:geometricPrecision; text-rendering:geometricPrecision; image-rendering:optimizeQuality; fill-rule:evenodd; clip-rule:evenodd"
viewBox="0 0 1249 415"
 xmlns:xlink="http://www.w3.org/1999/xlink">
 <defs>
  <style type="text/css">
   <![CDATA[
    .fil1 {fill:#0E253F}
    .fil0 {fill:#14365B}
    .fil4 {fill:#FFD43B}
    .fil7 {fill:white}
    .fil2 {fill:white;fill-rule:nonzero}
    .fil5 {fill:#1A0000;fill-opacity:0.200000}
    .fil3 {fill:black;fill-opacity:0.301961}
    .fil6 {fill:black;fill-opacity:0.349020}
   ]]>
  </style>
 </defs>
 <g id="Capa_x0020_1">
  <metadata id="CorelCorpID_0Corel-Layer"/>
  <g id="_1028281183104">
   <path class="fil0" d="M208 0c108,1 197,84 206,190l-165 220c-14,3 -28,5 -43,5 -109,-1 -199,-86 -206,-194l167 -217c13,-2 27,-4 41,-4z"/>
   <path class="fil1" d="M185 15c8,-5 15,-10 23,-15 -84,0 -162,51 -193,131 -11,27 -16,57 -15,87 1,8 2,16 3,25 4,-8 7,-15 11,-22 4,-6 9,-17 15,-21 7,-5 15,-3 22,2 11,9 37,33 50,34 6,1 8,-3 7,-8 -1,-5 -7,-12 -15,-18 -13,-11 -28,-22 -33,-27 -5,-6 -6,-11 -5,-16 2,-9 11,-23 16,-30 3,-5 7,-11 11,-16l0 0c27,-39 69,-84 93,-98l0 0 10 -8z"/>
   <path class="fil1" d="M230 399c-8,6 -16,11 -24,16 85,0 162,-51 194,-131 10,-26 16,-56 14,-87 0,-8 -1,-17 -3,-25 -3,8 -7,15 -11,21l-6 9c-3,6 -10,19 -15,23 -8,5 -15,3 -22,-2 -11,-9 -37,-33 -51,-34 -5,-1 -8,3 -7,8 1,5 8,12 16,18 12,11 27,22 32,27 8,9 7,15 1,27 -18,39 -77,105 -108,123l0 0 -10 7z"/>
   <path class="fil2" d="M356 94c-1,-1 -1,-3 1,-4 1,-1 3,-1 4,0 11,15 20,31 27,49 7,17 11,36 12,55 4,53 -14,103 -47,140 -32,38 -79,63 -132,66 -54,4 -103,-14 -141,-47 -37,-32 -62,-79 -66,-132 -3,-53 15,-103 47,-140 33,-38 79,-63 132,-66l2 -1c22,-1 44,1 64,7 21,6 41,15 59,28 1,1 2,3 1,4 -1,2 -3,2 -5,1 -17,-12 -36,-21 -57,-27 -20,-6 -41,-8 -63,-6 -51,3 -97,27 -128,64 -32,36 -49,84 -46,135 4,52 28,97 64,129 37,31 85,49 136,45 52,-3 97,-28 129,-64 31,-36 49,-84 45,-136 -1,-18 -5,-36 -12,-53 -6,-17 -15,-33 -26,-47z"/>
   <path class="fil3" d="M105 167l0 0c1,38 12,64 49,76 7,2 14,3 21,4 14,1 22,0 35,0 21,0 48,8 46,31 1,-1 1,-3 1,-4l0 0 0 0c0,-1 0,-1 0,-1l0 0 0 0 0 -1 0 0c0,0 0,0 0,-1l0 0 0 0 0 0 0 0 0 0 0 0 0 -1 0 0 0 0 0 0 0 0 0 0 0 0 0 0 0 -1 0 0 0 0 0 0 0 0 0 0 0 0 0 0 0 -1 0 0 0 0 0 0 0 0 0 0 0 0 0 0 0 0 0 -1 0 0 0 0 0 0 0 0 0 0 0 0 0 0 0 0 0 -1 0 0 0 0 0 0 0 0 0 0 0 0 0 -1 0 0 0 0 0 0 0 0 0 0 0 -1 0 0 0 0 0 0 0 0 -1 0 0 0 0 0 0 0 0 -1 0 0 0 0 0 0 0 0 0 -1 0 0 0 0 0 0 0 0 0 -1 0 0 0 0 0 0 0 0 0 0 0 -1 0 0 -1 0 0 0 0 0 0 -1 0 0 0 0 0 0 0 0 0 0 0 0 0 0 0 -1 0 0 0 0 0 0 0 0 0 0 0 -1 -1 0 0 0 0 0 0 -1 0 0 0 0 0 0 0 0 0 0 0 0 0 0c0,-1 0,-1 -1,-1l0 0 0 0 0 0 0 -1 0 0 0 0 0 0 0 0 0 0 -1 -1 0 0 0 0 0 0 0 0 0 0 0 0 0 -1 0 0 0 0 0 0 0 0 -1 0 0 0 0 0 0 0 0 -1 0 0 0 0 0 0 0 0 0 0 0 0 0 0 0 0 0 0 -1 -1 0 0 0 0 0 0 0 0 0 0 0 0 0 0 0 0 0 0 0 -1 0 0c-1,0 -1,0 -1,0l0 0c0,0 0,0 0,0l0 0c0,-1 0,-1 0,-1l0 0 -1 0 0 0c0,0 0,0 0,-1l0 0c0,0 0,0 -1,0l0 0c0,0 0,0 0,0l0 0c0,0 0,-1 0,-1l0 0c-1,0 -1,0 -1,0l0 0c0,0 0,0 0,0l0 0c0,-1 -1,-1 -1,-1l0 0c0,0 0,0 0,0l0 0c0,0 0,0 -1,-1l0 0c0,0 0,0 0,0l0 0c0,0 0,0 0,0l0 0c-1,0 -1,0 -1,-1l0 0c0,0 0,0 0,0l0 0c-1,0 -1,0 -1,0l0 0c0,0 0,0 0,0l0 0c-1,-1 -1,-1 -1,-1l0 0c0,0 0,0 0,0l0 0c-1,0 -1,0 -1,0l0 0c0,-1 0,-1 0,-1l0 0c-1,0 -1,0 -1,0l0 0c0,0 0,0 0,0l0 0c-1,0 -1,0 -1,-1l0 0c0,0 0,0 -1,0l0 0c0,0 0,0 0,0l0 0c0,0 -1,0 -1,0l0 0c0,0 0,-1 0,-1l0 0c-1,0 -1,0 -1,0l0 0c0,0 0,0 -1,0l0 0c0,0 0,0 0,0l0 0c0,0 -1,0 -1,-1l0 0c0,0 0,0 0,0l0 0c-1,0 -1,0 -1,0l0 0 -1 0 0 0c0,0 0,0 0,0l0 0c-1,0 -1,-1 -1,-1l0 0c0,0 0,0 -1,0l0 0c0,0 0,0 0,0l0 0c-1,0 -1,0 -1,0l0 0c0,0 0,0 -1,0l0 0c0,0 0,0 0,-1l0 0c-1,0 -1,0 -1,0l0 0c0,0 -1,0 -1,0l0 0 -1 0 0 0c0,0 0,0 0,0l0 0c-1,0 -1,0 -1,0l0 0c0,0 -1,0 -1,0l0 0c0,0 0,0 -1,0l0 0c0,0 0,-1 0,-1l0 0c-1,0 -1,0 -1,0l0 0c0,0 -1,0 -1,0l0 0 -1 0 0 0c0,0 0,0 -1,0l0 0c0,0 0,0 0,0l0 0c-1,0 -1,0 -1,0l0 0c-1,0 -1,0 -1,0l0 0c0,0 -1,0 -1,0l0 0c0,0 -1,0 -1,0l0 0c0,0 0,0 -1,0l0 0c0,0 0,0 -1,0l0 0c0,0 0,0 0,0l0 0 -1 0 0 0 -1 0 0 0 0 0 0 0 -1 0 0 0 0 0 -1 0 0 0 -1 0 0 0 0 0 -1 0 0 0 0 0 -1 0 0 0 -1 0 0 0 -1 0 0 0 -1 0 0 0 0 0 -1 0 0 0 0 0 0 0 -1 0 0 0 0 0 -1 0 0 0 0 0 -1 0 0 0 0 0 0 0 -1 0 0 0 0 0 -1 0 0 0 -1 0 0 0 0 0 0 0 -1 0 0 0 0 0 -1 0 0 0 0 0 0 0 -1 0 0 0 0 0 -1 0 0 0 0 0 -1 0 0 0 0 0 0 0 -1 0 0 0 0 0 0 0 -1 0 0 0 0 0 0 0 -1 0 0 0 0 0 -1 0 0 0 0 0 0 0 -1 0 0 0 -1 0 0 0 0 0 -1 0 0 0 0 -1 0 0 -1 0 0 0 0 0 0 0 -1 0 0 0 -1 0 0 0 0 0 -1 0 0 0 0 0 0 0 -1 0 0 0 -1 0 0 0 0 0 0 0 -1 0 0 0 0 0 0 0 0 0 0 0 -1 0 0 0 0 0 0 0 0 0 -1 0 0 0 0 0 0 0 0 0 0 0 -1 0 0 0 0 0 0 0 0 0 -1 0 0 0 -1 0 0 0 0 0 -1 -1 0 0 0 0 0 0 0 0 -1 0c0,0 0,0 -1,0l0 0 0 0 0 0 -1 0 0 0 0 0 0 0 -1 0 0 0 0 0 -1 0 0 0 0 0 0 0 0 0 0 0 -1 -1 0 0 0 0 0 0 0 0 -1 0 0 0 0 0 0 0 -1 0 0 0 0 0 0 0 -1 0 0 0 0 0 0 0 0 0 -1 0 0 -1 0 0 0 0 0 0 -1 0 0 0 0 0 -1 0 0 0 0 0 0 0 0 0 -1 0 0 0 0 0 -1 -1 0 0 0 0 0 0 -1 0c0,0 -1,0 -2,0l0 -1c-1,0 -1,0 -2,0l0 0c0,0 -1,-1 -1,-1l-1 0c0,0 -1,0 -1,-1l-1 0c0,0 -1,0 -1,-1l-1 0c0,0 0,0 -1,0l0 -1c-1,0 -1,0 -2,0l0 -1c-1,0 -1,0 -1,0l-1 0c0,-1 -1,-1 -1,-1l0 -1c-1,0 -1,0 -2,0l0 -1c-1,0 -1,0 -1,-1l-1 0c0,0 0,0 -1,-1l0 0c-1,0 -1,0 -1,-1l-1 0c0,0 -1,-1 -1,-1l0 0c-1,-1 -1,-1 -1,-1l-1 -1c0,0 0,0 -1,-1l0 0c0,0 -1,-1 -1,-1l0 0c-1,-1 -1,-1 -2,-1l0 -1c0,0 0,0 -1,-1l0 0c0,0 -1,-1 -1,-1l0 -1c-1,0 -1,0 -1,-1l-1 0c0,0 0,-1 0,-1 0,0 -1,0 -1,0 0,-1 0,-1 -1,-2l0 0c0,-1 0,-1 -1,-1l0 -1c0,0 0,0 -1,-1l0 0c0,-1 0,-1 -1,-1l0 -1c0,0 0,-1 -1,-1 0,0 0,-1 0,-1 0,0 0,0 0,-1l-1 0c0,-1 0,-1 0,-1 0,-1 -1,-1 -1,-1 0,0 0,-1 0,-1l0 -1c-1,0 -1,0 -1,-1 0,0 0,0 0,-1 0,0 0,0 -1,-1 0,0 0,0 0,0 0,-1 0,-1 0,-1 0,0 0,-1 0,-1 -1,0 -1,-1 -1,-1 0,0 0,-1 0,-1 0,0 0,-1 0,-1 -1,0 -1,0 -1,-1 0,0 0,0 0,-1 0,0 0,0 0,-1 0,0 0,0 0,0 -1,-1 -1,-1 -1,-1 0,-1 0,-1 0,-2 0,0 0,0 0,0 0,-1 0,-1 0,-1 0,-1 0,-1 0,-1 -1,0 -1,-1 -1,-1 0,0 0,-1 0,-1 0,0 0,-1 0,-1 0,0 0,-1 0,-1 0,0 0,0 0,-1 0,0 0,0 0,-1 0,0 0,-1 0,-1 0,0 0,0 0,-1 0,0 0,0 0,-1 0,0 0,0 0,0l-1 0zm-9 215c-4,-5 -3,-11 0,-16 1,-2 2,-4 3,-6 2,-1 3,-3 5,-5 9,-10 23,-30 32,-37l0 -1 0 0 1 0 0 0 0 0 0 0 0 0 0 0 0 0 1 0 0 0 0 -1 0 0 0 0 0 0 0 0 0 0 1 0 0 0 0 0 0 0 0 0 0 0c0,0 0,0 1,-1l0 0 0 0 0 0 0 0 0 0 0 0 0 0 0 0 1 0 0 0 0 0c0,0 0,0 0,0l0 0 0 0 1 0 0 0 0 0c0,0 0,-1 0,-1l0 0c1,0 1,0 1,0l0 0 0 0 0 0c3,0 6,1 8,2l0 0c4,3 9,7 14,11 16,12 39,29 69,25 50,-6 95,-63 47,-119l0 0 0 0 0 0 0 0 0 0 0 0 0 0 0 0 0 0 0 0 0 0 0 0 0 0 0 0 0 0c0,1 0,1 1,1l0 0c2,3 3,7 5,10l0 0c1,4 3,8 3,11l0 0c0,1 1,1 1,1 0,0 0,1 0,1l0 0c0,0 0,1 0,1l0 0c0,0 0,1 0,1l0 0 0 1 0 0c0,0 0,0 0,1l0 0c0,0 0,1 1,1l0 0c0,1 0,1 0,2l0 0c0,0 0,0 0,1l0 0 0 0 0 0 0 0 0 1 0 0c0,0 0,1 0,1l0 0 0 0c0,1 0,1 0,1l0 0c0,1 0,1 0,1l0 0c0,1 0,1 0,2l0 0 0 0 0 1 0 0 0 0 0 1 0 0 0 0 0 1 0 0 0 0 0 1 0 0 0 1 0 0 0 1 0 0 0 1 0 0 0 1 -1 0 0 1 0 0 0 1 0 0 0 1 0 0 0 0 0 0 0 1 0 0 0 1 0 0 0 0 0 0 0 1 0 0 -1 0 0 0 0 1 0 0 0 0 0 0 0 1 0 0 0 0 0 0 0 1 0 0c0,0 0,0 0,1l0 0c-1,0 -1,0 -1,1l0 0c0,0 0,0 0,1l0 0c0,0 0,1 -1,2 0,0 0,1 0,1 0,0 0,1 0,1 -1,0 -1,1 -1,1 0,0 0,1 0,1 -1,1 -1,1 -1,2 0,0 0,1 -1,1l0 0c0,0 0,1 0,1 0,0 0,1 -1,1l0 0c0,1 0,1 -1,2 0,0 0,1 -1,2l0 0c0,0 0,0 0,1l0 0c0,0 -1,0 -1,1 0,0 0,0 0,0 -1,1 -1,2 -2,2 0,1 0,1 0,1l0 0c-1,1 -1,1 -1,1 0,0 0,1 -1,1 0,0 0,1 0,1l0 0c-1,0 -1,0 -1,1 0,0 -1,0 -1,1l0 0c0,0 0,0 0,0l0 0c-1,1 -1,1 -1,1 -1,0 -1,1 -1,1l0 0c0,0 -1,1 -1,1l0 0c0,0 0,0 -1,1 0,0 0,0 0,0 -1,1 -1,1 -1,1 -1,0 -1,1 -1,1 0,0 -1,0 -1,1 0,0 -1,0 -1,0l0 0c0,1 0,1 -1,1 0,0 0,1 -1,1l0 0c0,0 0,0 -1,1 0,0 0,0 0,0 -1,0 -1,1 -1,1 -1,0 -1,0 -1,1l0 0c-1,0 -1,0 -1,0 -1,0 -1,1 -1,1l0 0c-1,0 -1,0 -1,0l0 0c-1,1 -1,1 -1,1 -1,0 -1,0 -1,1 -1,0 -1,0 -2,0l0 0c0,0 0,0 -1,1l0 0c0,0 0,0 -1,0l0 0c0,0 0,1 -1,1 0,0 -1,0 -1,0l0 0c0,0 -1,1 -1,1l0 0c0,0 -1,0 -1,0l0 0c-1,0 -1,0 -1,1l0 0c-1,0 -1,0 -1,0l0 0c-1,0 -1,0 -2,0 0,1 0,1 -1,1l0 0c0,0 -1,0 -1,0l0 0c0,0 -1,0 -1,1l0 0c-1,0 -1,0 -2,0l0 0c0,0 -1,0 -1,0l0 0c-1,0 -1,1 -2,1l0 0c0,0 -1,0 -1,0l0 0c-1,0 -1,0 -2,0l0 0c0,0 -1,0 -1,1l0 0c0,0 -1,0 -1,0l0 0c-1,0 -1,0 -2,0l0 0c0,0 -1,0 -1,0l0 0c-1,0 -1,0 -2,0 0,0 -1,0 -1,0 -1,0 -1,0 -1,0 -1,0 -1,0 -2,0 0,0 -1,0 -1,0 -1,0 -1,0 -1,0 -1,0 -1,0 -2,0 0,0 -1,0 -1,0 -1,0 -1,0 -1,0 -1,0 -1,0 -2,0l0 0c0,0 0,0 -1,0l0 0c0,-1 -1,-1 -1,-1 -1,0 -1,0 -1,0 -1,0 -1,0 -2,0 0,0 0,0 -1,-1 0,0 -1,0 -1,0l0 0c0,0 -1,0 -1,0 -1,0 -1,0 -1,-1 -1,0 -1,0 -2,0 0,0 0,0 -1,0 0,0 -1,-1 -1,-1 0,0 -1,0 -1,0 0,0 -1,-1 -1,-1 -1,0 -1,0 -1,0 -1,0 -1,-1 -1,-1l0 0c-1,0 -1,0 -2,0 0,0 0,-1 -1,-1 0,0 0,0 -1,0l0 0c0,0 0,-1 -1,-1l0 0c0,0 -1,0 -1,0l0 0c0,-1 -1,-1 -1,-1 0,0 -1,-1 -1,-1 0,0 -1,0 -1,0 0,-1 -1,-1 -1,-1 -1,0 -2,-1 -2,-1 -1,-1 -1,-1 -1,-1 -1,0 -1,0 -1,-1l0 0c-1,0 -1,0 -1,0 -1,-1 -1,-1 -1,-1l0 0c-1,0 -1,-1 -1,-1l0 0c-1,0 -1,0 -1,-1l0 0c-1,0 -1,0 -1,0l0 0c-1,-1 -2,-1 -2,-2l-1 -1 0 0c-1,0 -2,-1 -3,-2l0 0c-1,0 -2,-1 -2,-2l0 0c-1,0 -2,-1 -2,-1l0 0c-1,-1 -2,-2 -3,-3l-1 0 0 0 -1 -1 0 0c-10,-9 -20,-19 -32,-7l-1 0 0 0c0,1 0,1 0,1l0 0 0 0 0 0 -1 0 0 0 0 1 0 0 0 0 0 0 -1 1 0 0 0 0 0 0 0 0 0 0 -1 1 0 0 0 0 0 0 -4 5 0 0 -34 42 0 0 -2 3c0,0 -1,1 -1,2 -1,0 -1,0 -1,1 0,0 0,0 0,0 0,0 0,0 0,0 -3,5 -2,11 1,16l5 4 4 2zm55 -193c-15,-27 11,-55 36,-40 15,8 26,22 40,29 20,11 48,14 70,-27l0 0 0 0 -1 0 0 1 0 0 0 0 0 0 0 0 0 0 0 0 0 0 0 0 -1 1 0 0 0 0 0 0 0 0 0 0 0 1 0 0 0 0 -1 1 0 0 0 0 0 0 -1 0 0 0 0 0 0 0 0 1 0 0 0 0 0 0 0 0 0 0 0 0 0 0 0 0 -1 1 0 0 0 0 0 0 0 0 0 0 0 0 0 0 0 0 0 0 0 0 0 0 0 1 -1 0 0 0 0 0 0 0 0 0 0 0 0 0 0 0 0 0 0 0 0 0 0 0 0 1 0 0 0 0 0 0 0 0 0 0 -1 0 0 0 0 0 0 0 0 0 0 0 0 0 0 0 0 0 0 0 0 0 0 0 0 1c-22,19 -44,16 -66,2 0,-1 0,-1 -1,-1 -2,-2 -4,-3 -5,-5 -3,-2 -5,-4 -9,-6 -1,-1 -2,-2 -2,-2l-1 0c-12,-11 -21,-20 -37,-18l0 0c0,0 -1,0 -1,0l0 0c0,0 0,0 -1,0l0 1 -1 0c0,0 0,0 0,0l-1 0 0 0 -1 0 0 0 0 0 -1 1 0 0 -1 0 0 0 0 0 -1 0 0 1 -1 0 0 0 0 0 -1 0 0 0 -1 1 0 0 0 0 -1 0 0 0 0 1 -1 0 0 0 0 0 -1 1 0 0 0 0 -1 0 0 0 0 0 0 1 0 0 -1 0 0 0 0 0 0 0 0 1 0 0 -1 0 0 0 0 0 -1 1 0 0 0 0 0 0 0 0 -1 1 0 0 0 0 0 0 0 0 0 0c-1,1 -1,1 -2,2l0 0 0 1 0 0 -1 0 0 0c0,0 0,1 0,1 -1,0 -1,1 -1,1l0 0c0,0 0,0 0,1l0 0c-1,0 -1,0 -1,1 0,0 -1,0 -1,1l0 0c0,1 -1,2 -2,4 0,0 0,0 0,1l0 0 0 0 0 0 0 0c0,1 0,1 0,1l0 1 -1 0 0 0 0 0 0 1 0 0 0 0 0 1 0 0 0 0 0 0 0 0 0 1 0 0 0 0 0 0 0 1 0 0 0 0 0 0 0 0 0 1 -1 0 0 1 0 0 0 0 0 1 0 0 0 0 0 1 0 0 0 1 0 0 0 0 0 0 0 0 0 1 0 0 0 0 0 1 0 0 0 0 0 1 0 0 1 0 0 1 0 0 0 1 0 0 0 0 0 1 0 0 0 0 0 1 0 0 0 1 0 0 0 1 1 0 0 0 0 0 0 1 0 0 0 0 0 1 0 0 0 0 0 0 0 0 0 0 0 1 0 0 1 0 0 0 0 0 0 0 0 0 0 0 0 1 0 0 0 0 0 0 0 0 0 0 0 0 0 1 0 0 0 0 0 0 0 0 0 0 1 0 0 1 0 0 0 0 0 0 0 1 0 0 0 0 0 0 0 0 1 0 0 0 0 1 0 0 0 0 0 0 0 0 0 1 0 0 0 0 1 0 0 0 0 0 0 0 0 0 0 1 0 0 0 0 0 0 0 0 0 0 0 0 1 1 0 0 0 0 0 0 0 0 0 0 0 0 0 0 0 1 1 0 0 0 0 0 0 0 0 1 0 0 0 0 0 0 0 0 1 0 0 0 0 1 0 0 0 0 0 0 1 0 0 1 0 0 0 0 0 0 0 0 0 0 0 0 0 0 0 0 0 0 0 0 0 0 0 0 0 0 0 0 0 0 0 0 1 0 0 0 0 0 0 0 0 0 0 0 0 0 0 1 0 0 0 0 0 0 0 0 0 0 0 0 0 0 0 0 0 0 0 0 0 0 0 0 0 0 0 0 0 0 0 0 0 0 0 0 0 0 0 0 0 0 0 0 0 0 0 0 0 0 0 0 0 0 0 0 0 0 0 0 0 0 0 0 0 0 0 0 0 0 0 0z"/>
   <path class="fil4" d="M91 379c-8,-6 -9,-16 -3,-22l40 -50c7,-9 15,-12 25,-5 4,3 8,6 13,9 21,17 42,35 74,26 27,-7 44,-27 50,-49 2,-11 3,-21 1,-32 -3,-10 -7,-21 -15,-29 -37,-39 -72,-19 -112,-30 -5,-2 -10,-5 -14,-9 -4,-4 -7,-10 -9,-15 -2,-10 0,-19 4,-26 4,-8 12,-14 21,-16 17,-5 27,6 40,17 5,3 10,7 16,12 22,17 48,21 68,0 2,-2 13,-18 14,-19 2,-1 5,2 6,3 5,4 12,3 15,-4l8 -33c1,-6 3,-12 -2,-16 -1,-1 -1,-2 -2,-2l7 -10 14 1c2,0 3,-2 3,-4 0,-2 -1,-4 -3,-4l-13 0 -3 -12c0,-2 -2,-3 -4,-3 -2,1 -3,3 -3,5l4 13 -2 2 0 0 -6 7c0,0 -1,-1 -2,-1 -3,-3 -6,-3 -10,-2 -2,0 -4,1 -6,3l-31 15c-5,3 -7,9 -3,14 3,4 8,3 3,10l-6 8c-8,10 -15,8 -22,3 -5,-3 -10,-7 -15,-11 -22,-18 -41,-33 -77,-24 -18,5 -30,15 -39,30 -22,38 -3,88 39,101 7,2 14,4 22,4 14,1 21,1 35,1 19,0 31,6 39,14 3,4 5,9 6,14 2,6 1,11 0,16 -3,11 -11,21 -24,24 -16,4 -30,-7 -44,-19 -8,-6 -16,-13 -25,-17 -10,-5 -20,-7 -30,-5 -6,1 -12,3 -17,7 -10,7 -17,18 -24,27 -8,10 -38,43 -41,53 -1,3 -1,7 -1,11 0,20 16,36 36,36 8,0 15,-3 21,-7l0 0 0 0 0 0c-4,-3 -6,-4 -10,-6 -2,-2 -4,-3 -6,-4zm211 -272c-3,0 -5,-2 -5,-5 0,-3 2,-5 5,-5 3,-1 5,2 6,5 0,3 -3,5 -6,5z"/>
   <path class="fil5" d="M233 331c-24,7 -41,0 -57,-11 18,13 37,24 64,17 27,-7 44,-27 50,-49 2,-11 3,-21 1,-32 -2,-8 -5,-16 -10,-23 -2,-2 -3,-4 -5,-6 -4,-5 -10,-10 -16,-14 3,3 6,5 9,8 7,9 12,19 14,30 2,10 2,21 -1,31 -6,23 -22,42 -49,49zm64 -194c-16,22 -34,44 -65,30 8,5 17,7 25,7 11,1 23,-4 33,-14 0,0 0,0 0,0 0,0 0,0 0,0 0,0 0,0 0,-1 1,0 4,-4 6,-7 4,-5 8,-10 8,-11 2,-1 5,2 6,3 5,4 12,3 15,-4l6 -26c0,-1 -10,30 -21,21 -4,-4 -9,-3 -13,2zm-156 36c-2,-10 0,-19 4,-26 4,-8 12,-14 21,-16 12,-4 21,1 30,8 -19,-23 -47,-16 -58,1 -10,15 -7,38 16,51 -1,-1 -2,-1 -3,-2 0,0 -1,-1 -1,-1 -4,-4 -7,-10 -9,-15zm186 -94l-4 5 6 5 4 -5c-2,0 -6,-3 -6,-5zm-241 280c1,-1 2,-2 2,-2l2 -3 38 -47c6,-8 14,-12 23,-7 -2,-1 -4,-3 -6,-4 -9,-7 -18,-3 -25,6l-37 46 -2 3c-1,0 -1,1 -1,1 -5,6 -4,14 1,19 1,1 1,2 2,2 1,1 1,1 1,1 2,1 4,3 6,4 -6,-5 -8,-13 -4,-19z"/>
   <path class="fil6" d="M126 115c9,4 14,6 21,11 1,-8 -1,-15 -4,-23 -7,3 -12,7 -17,12zm101 33c9,-1 17,-6 23,-11 0,0 0,0 0,0 -1,-1 -3,-2 -4,-3 -4,-3 -8,-6 -12,-9 -1,10 -3,16 -7,23zm-16 87c7,0 13,1 19,2 -1,-1 -1,-2 -2,-3 -2,-7 -3,-13 -4,-20 -5,4 -9,10 -12,16 -1,1 -2,3 -2,5 0,0 0,0 1,0zm-32 -1c8,1 14,1 20,1 -4,-8 -5,-14 -7,-22 -6,6 -11,13 -13,21zm-25 -4c4,1 8,2 13,3 -1,-1 -1,-3 -1,-4 -2,-7 -2,-12 -1,-19 -7,4 -12,9 -16,15 0,1 -1,2 -1,3 2,1 4,1 6,2zm-48 -62c8,-4 14,-6 22,-6 -5,-7 -13,-11 -21,-14 -1,6 -2,13 -2,19 1,0 1,0 1,1zm4 -29c9,0 14,0 22,2 -2,-8 -6,-14 -12,-20 -2,3 -4,5 -5,8 -2,3 -4,7 -5,10zm-16 191c-1,-9 -6,-17 -11,-23 -5,5 -9,11 -14,16 5,0 10,1 13,2 4,1 8,3 12,5zm-6 -29l4 -5c3,-3 5,-7 8,-11 5,7 11,15 12,23 -8,-4 -14,-6 -24,-7zm82 -30c-1,10 -3,16 -7,24 9,-2 17,-6 23,-12 -5,-4 -11,-8 -16,-12l0 0zm23 17c-1,10 -3,16 -6,24 9,-2 16,-6 22,-12 -5,-3 -11,-7 -16,-12zm63 -7c-2,6 -6,12 -12,16 10,1 18,1 25,5 -1,-9 -6,-16 -13,-21zm-52 -150c9,-1 17,-5 24,-11 -6,-4 -11,-9 -17,-12 -1,10 -3,16 -7,23z"/>
   <path class="fil4" d="M882 134c9,9 14,22 14,39 0,17 -5,30 -14,39 -8,9 -21,13 -37,13l-29 0 0 49 -30 0 0 -153 59 0c16,0 29,4 37,13zm-16 39c0,-17 -8,-25 -22,-25l-28 0 0 50 28 0c7,0 12,-2 16,-6 4,-3 6,-10 6,-19zm146 -22l-46 137c-3,6 -5,11 -9,15 -6,5 -14,8 -24,8l-20 0 0 -25 15 0c5,0 8,-1 9,-2 2,-1 4,-4 6,-8l2 -6 -37 -119 29 0 22 86 24 -86 29 0z"/>
   <path class="fil7" d="M1249 274l-31 0 -9 -26 -48 0 -8 26 -31 0 47 -140c2,-5 5,-8 7,-10 3,-2 6,-3 10,-3 4,0 7,1 9,3 3,1 5,5 7,10l47 140zm-656 -45c0,15 -6,26 -16,34 -11,9 -25,13 -41,13 -13,0 -26,-4 -38,-11 -6,-4 -11,-9 -15,-16 -4,-7 -6,-15 -6,-23l27 -2c0,8 4,14 10,18 7,5 14,7 22,7 18,0 27,-6 27,-19 0,-10 -6,-16 -18,-18l-25 -3c-13,-2 -22,-6 -30,-13 -7,-7 -11,-17 -11,-31 0,-13 5,-24 16,-32 10,-9 24,-13 40,-13 16,0 29,4 38,12 10,8 15,18 15,31l-27 1c-2,-12 -11,-18 -25,-18 -9,0 -16,2 -20,5 -5,4 -8,8 -8,14 0,5 2,9 5,12 4,3 9,4 14,5l24 3c28,3 42,18 42,44zm88 0l25 0c0,1 0,3 0,6 0,3 -1,5 -1,7 0,1 0,2 0,5 0,2 -1,4 -1,5 0,1 -1,2 -2,4 -2,7 -9,13 -21,18 -7,2 -15,3 -23,3 -8,0 -15,-1 -21,-3 -7,-3 -12,-6 -16,-10 -8,-9 -12,-26 -12,-50 0,-25 4,-42 12,-51 4,-4 9,-7 16,-10 6,-2 13,-3 21,-3 16,0 28,3 36,11 8,8 12,19 12,33l-26 0c0,-7 -1,-11 -4,-15 -4,-3 -9,-4 -18,-4 -9,0 -14,2 -17,8 -3,5 -4,13 -4,24l0 11c0,17 3,27 10,31 3,2 7,3 11,3 5,0 9,0 12,-1 4,-1 6,-3 7,-5 1,-2 2,-5 3,-7 0,-2 1,-5 1,-10zm63 -125c7,0 11,1 13,3 2,3 3,7 3,14 0,6 -1,11 -3,13 -2,2 -7,3 -13,3 -7,0 -11,-1 -13,-3 -2,-3 -4,-7 -4,-14 0,-6 2,-10 4,-13 2,-2 6,-3 13,-3zm14 170l-28 0 0 -118 28 0 0 118zm345 0l-34 0c-30,0 -37,-8 -37,-37l0 -116 30 0 0 111c0,9 4,16 13,16l36 0 -8 26zm99 -51l-16 -61 -17 61 33 0z"/>
  </g>
 </g>
</svg>
