<?xml version="1.0" encoding="utf-8"?>
<!-- Generator: Adobe Illustrator 16.0.0, SVG Export Plug-In . SVG Version: 6.00 Build 0)  -->
<!DOCTYPE svg PUBLIC "-//W3C//DTD SVG 1.1//EN" "http://www.w3.org/Graphics/SVG/1.1/DTD/svg11.dtd">
<svg version="1.1"
	 id="svg3685" xmlns:rdf="http://www.w3.org/1999/02/22-rdf-syntax-ns#" xmlns:svg="http://www.w3.org/2000/svg" xmlns:dc="http://purl.org/dc/elements/1.1/" xmlns:sodipodi="http://sodipodi.sourceforge.net/DTD/sodipodi-0.dtd" xmlns:inkscape="http://www.inkscape.org/namespaces/inkscape" xmlns:cc="http://creativecommons.org/ns#" sodipodi:docname="scipyla.h.svg" inkscape:version="0.91 r13725"
	 xmlns="http://www.w3.org/2000/svg" xmlns:xlink="http://www.w3.org/1999/xlink" x="0px" y="0px" width="93.6px" height="36px"
	 viewBox="0 0 93.6 36" enable-background="new 0 0 93.6 36" xml:space="preserve">
<sodipodi:namedview  borderopacity="1" pagecolor="#000000" guidetolerance="10" inkscape:zoom="6.9018878" inkscape:cy="25.708421" objecttolerance="10" bordercolor="#666666" gridtolerance="10" id="namedview3716" inkscape:cx="51.837084" showgrid="false" inkscape:pageopacity="0" inkscape:pageshadow="2" inkscape:window-width="1233" inkscape:window-height="670" inkscape:window-x="18" inkscape:window-y="21" inkscape:window-maximized="0" inkscape:current-layer="Capa_x0020_1" showguides="false">
	</sodipodi:namedview>
<g id="Capa_x0020_1">
	<path id="path3694" inkscape:connector-curvature="0" fill="#14365B" d="M18.142-0.057c9.439,0.028,17.149,7.313,17.915,16.555
		l-14.4,19.189c-1.19,0.256-2.409,0.369-3.657,0.369C8.419,36.028,0.624,28.545,0.029,19.162L14.542,0.283
		C15.704,0.056,16.895-0.057,18.142-0.057z"/>
	<path id="path3696" inkscape:connector-curvature="0" fill="#0E253F" d="M16.101,1.247c0.708-0.481,1.36-0.935,2.041-1.304
		C10.772-0.085,4.054,4.393,1.276,11.31c-0.963,2.409-1.389,4.988-1.247,7.568c0.028,0.736,0.113,1.474,0.227,2.183
		c0.312-0.652,0.652-1.275,0.992-1.843c0.34-0.538,0.737-1.474,1.248-1.843c0.68-0.453,1.332-0.312,1.956,0.171
		c0.936,0.736,3.203,2.862,4.365,2.976c0.482,0.057,0.709-0.283,0.624-0.708c-0.113-0.482-0.652-1.049-1.332-1.616
		c-1.134-0.907-2.438-1.871-2.834-2.296c-0.482-0.539-0.595-0.964-0.454-1.445c0.17-0.794,0.964-1.984,1.332-2.608
		c0.284-0.453,0.624-0.936,0.964-1.417l0,0c2.353-3.345,6.038-7.285,8.107-8.504l0,0L16.101,1.247z"/>
	<path id="path3698" inkscape:connector-curvature="0" fill="#0E253F" d="M20.013,34.752c-0.68,0.482-1.36,0.936-2.013,1.305
		c7.342,0.028,14.088-4.45,16.838-11.367c0.935-2.324,1.389-4.875,1.247-7.597c-0.028-0.709-0.113-1.445-0.227-2.183
		c-0.312,0.652-0.624,1.275-0.992,1.871l-0.482,0.766c-0.34,0.481-0.907,1.644-1.361,1.955c-0.652,0.454-1.332,0.313-1.927-0.142
		c-0.964-0.766-3.231-2.891-4.394-3.005c-0.482-0.028-0.709,0.313-0.624,0.709c0.114,0.482,0.652,1.077,1.361,1.616
		c1.105,0.906,2.409,1.87,2.806,2.324c0.737,0.793,0.595,1.36,0.113,2.324c-1.616,3.43-6.718,9.155-9.467,10.743l0,0L20.013,34.752z
		"/>
	<path id="path3700" inkscape:connector-curvature="0" fill="#FFFFFF" d="M31.04,8.107c-0.085-0.113-0.057-0.284,0.057-0.369
		c0.113-0.085,0.283-0.085,0.368,0.028c0.992,1.305,1.786,2.722,2.381,4.28c0.539,1.503,0.907,3.09,1.021,4.791
		c0.34,4.62-1.248,8.957-4.082,12.217s-6.917,5.442-11.537,5.755c-4.649,0.34-8.986-1.276-12.246-4.082
		c-3.26-2.835-5.414-6.917-5.754-11.565c-0.312-4.62,1.276-8.957,4.082-12.217c2.834-3.26,6.888-5.414,11.508-5.755h0.142
		c1.928-0.142,3.799,0.085,5.584,0.567c1.842,0.51,3.6,1.332,5.159,2.438c0.114,0.085,0.142,0.255,0.057,0.368
		c-0.085,0.114-0.255,0.143-0.369,0.058c-1.502-1.049-3.203-1.843-4.989-2.354c-1.758-0.481-3.6-0.68-5.5-0.538
		C12.416,2.041,8.476,4.138,5.755,7.285c-2.75,3.175-4.28,7.37-3.969,11.849c0.312,4.507,2.41,8.447,5.584,11.168
		c3.146,2.75,7.341,4.28,11.82,3.969c4.507-0.312,8.447-2.409,11.196-5.556c2.721-3.175,4.252-7.37,3.94-11.849
		c-0.114-1.616-0.454-3.175-0.992-4.62C32.769,10.743,31.975,9.354,31.04,8.107z"/>
	<path id="path3702" inkscape:connector-curvature="0" fill-opacity="0.302" d="M9.185,14.457L9.185,14.457
		c0.057,3.345,0.992,5.612,4.195,6.604c0.624,0.198,1.247,0.312,1.871,0.34c1.219,0.113,1.899,0.057,3.062,0.057
		c1.786,0.028,4.167,0.652,4.025,2.693c0.028-0.113,0.057-0.228,0.057-0.369l0,0v-0.028c0,0,0-0.028,0-0.057l0,0v-0.028l0,0l0,0
		c0.028-0.028,0.028-0.057,0.028-0.085l0,0v-0.028l0,0v-0.028l0,0l0,0V23.47l0,0l0,0l0,0v-0.028l0,0l0,0v-0.028l0,0v-0.028l0,0l0,0
		v-0.028l0,0v-0.028l0,0h-0.028l0,0v-0.028l0,0v-0.028l0,0v-0.028l0,0l0,0l0,0v-0.028l0,0v-0.028l0,0l0,0v-0.028l0,0l0,0v-0.028l0,0
		v-0.028l0,0l0,0v-0.028l0,0l-0.029-0.028l0,0v-0.028v-0.028l0,0l0,0v-0.028l0,0l0,0v-0.028l0,0v-0.029l0,0l0,0l0,0l-0.028-0.028
		v-0.028v-0.028l0,0l0,0V22.79v-0.028h-0.028v-0.028l0,0v-0.028v-0.028l0,0l0,0l-0.028-0.028V22.62l0,0v-0.028l-0.028-0.028v-0.028
		l0,0l0,0l0,0v-0.028l0,0l-0.028-0.028l0,0l0,0l0,0V22.45v-0.028h-0.028l0,0v-0.028v-0.028v-0.028h-0.028v-0.028V22.28h-0.028l0,0
		v-0.028v-0.028l0,0H22.11v-0.028l0,0c0,0,0-0.028-0.028-0.028l0,0v-0.028V22.11h-0.028v-0.028l-0.028-0.028l0,0v-0.028l0,0
		l-0.028-0.028l0,0l0,0v-0.028l-0.028-0.028l0,0l0,0l-0.028-0.028l0,0l0,0l0,0l-0.028-0.028v-0.028l0,0l0,0l0,0l-0.028-0.029l0,0
		v-0.028l0,0h-0.028l0,0v-0.028l0,0h-0.029l0,0v-0.028l0,0l-0.028-0.028l0,0l0,0l0,0l-0.028-0.028l0,0v-0.028l0,0h-0.028l0,0
		c0-0.028,0-0.028-0.028-0.028l0,0c0-0.028,0-0.028-0.028-0.057l0,0c0,0-0.028,0-0.028-0.028l0,0l-0.028-0.028l0,0L21.6,21.486l0,0
		c-0.028-0.028-0.028-0.028-0.028-0.028l0,0c-0.028-0.028-0.028-0.028-0.057-0.028l0,0c0-0.028,0-0.028-0.028-0.057l0,0
		c0,0-0.028,0-0.028-0.028l0,0c-0.028,0-0.028,0-0.028-0.028l0,0c-0.028,0-0.028-0.028-0.057-0.028l0,0l-0.028-0.028l0,0
		l-0.028-0.028l0,0c-0.029,0-0.029-0.028-0.057-0.028l0,0l-0.028-0.028l0,0c-0.028,0-0.028-0.028-0.057-0.028l0,0l-0.028-0.028l0,0
		c-0.028,0-0.028-0.028-0.057-0.028l0,0l-0.028-0.028l0,0c-0.028,0-0.028-0.028-0.057-0.028l0,0l-0.028-0.028l0,0
		c-0.028,0-0.028-0.028-0.057-0.028l0,0l-0.028-0.028l0,0c-0.028,0-0.028,0-0.057-0.028l0,0c-0.028,0-0.028,0-0.057-0.028l0,0H20.75
		l0,0c-0.028-0.028-0.028-0.028-0.057-0.028l0,0c-0.028-0.028-0.028-0.028-0.057-0.028l0,0c0,0-0.028-0.028-0.057-0.028l0,0
		c0,0-0.028,0-0.028-0.028l0,0c-0.028,0-0.057,0-0.057,0l0,0c-0.028-0.029-0.028-0.029-0.057-0.029l0,0
		c-0.028,0-0.028-0.028-0.057-0.028l0,0c-0.028,0-0.028,0-0.057-0.028l0,0c0,0-0.028,0-0.057,0l0,0c0-0.028-0.028-0.028-0.057-0.028
		l0,0l-0.057-0.028l0,0c0,0-0.028,0-0.057,0l0,0c0-0.028-0.028-0.028-0.057-0.028l0,0c0,0-0.028,0-0.057-0.028l0,0
		c-0.028,0-0.028,0-0.057,0l0,0c-0.028,0-0.028,0-0.057-0.028l0,0c-0.028,0-0.028,0-0.057,0l0,0c-0.028,0-0.057,0-0.057-0.028l0,0
		c-0.028,0-0.057,0-0.085,0l0,0c0,0-0.028,0-0.057-0.028l0,0h-0.057l0,0c-0.028,0-0.057,0-0.057,0l0,0
		c-0.028-0.028-0.057-0.028-0.085-0.028l0,0c0,0-0.028,0-0.057,0l0,0c-0.028,0-0.057,0-0.057-0.028l0,0c-0.028,0-0.057,0-0.085,0
		l0,0c0,0-0.028,0-0.057,0l0,0c-0.029,0-0.057,0-0.085,0l0,0l-0.057-0.028l0,0c-0.028,0-0.057,0-0.085,0l0,0c0,0-0.028,0-0.057,0
		l0,0c-0.028,0-0.057,0-0.085,0l0,0c0,0-0.028,0-0.057,0l0,0c-0.028-0.028-0.057-0.028-0.085-0.028l0,0c-0.028,0-0.057,0-0.057,0
		l0,0c-0.028,0-0.057,0-0.085,0l0,0c-0.028,0-0.057,0-0.085,0l0,0c-0.028,0-0.057,0-0.085,0l0,0h-0.028l0,0h-0.057l0,0h-0.057l0,0
		h-0.057l0,0h-0.057h-0.057l0,0H18h-0.057l0,0h-0.057H17.83l0,0h-0.028h-0.057h-0.057H17.66h-0.057l0,0h-0.028l0,0h-0.057h-0.057
		l0,0h-0.028l0,0h-0.057l0,0h-0.028h-0.057h-0.028l0,0h-0.057l0,0H17.15l0,0h-0.028l0,0h-0.057h-0.028h-0.057h-0.028l0,0h-0.057l0,0
		h-0.028H16.81l0,0h-0.028l0,0h-0.057l0,0h-0.028H16.64l0,0h-0.057h-0.028l0,0h-0.057l0,0H16.47l0,0h-0.057l0,0h-0.057l0,0h-0.028
		l0,0h-0.057l0,0h-0.028l0,0h-0.057h-0.057l0,0h-0.028l0,0h-0.057l0,0l-0.057-0.028l0,0h-0.057h-0.029l0,0h-0.057l0,0h-0.057l0,0
		h-0.057l0,0h-0.057l0,0h-0.028h-0.057l0,0h-0.057l0,0l-0.057-0.028l0,0h-0.057l0,0h-0.057l0,0h-0.057l0,0h-0.028l0,0H15.25l0,0
		h-0.028l0,0h-0.028l0,0h-0.028l0,0l-0.028-0.028h-0.028l0,0h-0.028l0,0h-0.057l0,0h-0.028h-0.028l0,0h-0.028l0,0h-0.028h-0.028
		l-0.028-0.028h-0.057l0,0h-0.028l0,0H14.74h-0.028l0,0h-0.028c-0.028-0.028-0.057-0.028-0.085-0.028H14.57l0,0h-0.028h-0.028l0,0
		l-0.028-0.028h-0.028h-0.028l0,0H14.4h-0.057l0,0l-0.028-0.028l0,0h-0.029l0,0h-0.028H14.23l0,0h-0.028l0,0l-0.028-0.028h-0.028
		h-0.028l0,0h-0.028l0,0l-0.057-0.028h-0.028h-0.028l0,0h-0.028l0,0l-0.028-0.028H13.89h-0.028l0,0h-0.028l0,0l-0.028-0.028h-0.028
		h-0.029H13.72l-0.028-0.028h-0.028l0,0h-0.028h-0.028l-0.028-0.028H13.55h-0.028l0,0l-0.028-0.028h-0.028h-0.028
		c-0.057-0.028-0.085-0.028-0.142-0.057l-0.057-0.028c-0.029,0-0.085-0.028-0.114-0.028h-0.028
		c-0.057-0.028-0.113-0.057-0.142-0.057l-0.057-0.028c-0.028-0.028-0.057-0.028-0.113-0.057h-0.028
		c-0.028-0.028-0.085-0.058-0.142-0.058l-0.028-0.028c-0.028-0.028-0.085-0.028-0.113-0.057l-0.028-0.028
		c-0.057,0-0.085-0.028-0.142-0.057l-0.028-0.028c-0.028,0-0.057-0.028-0.113-0.057l-0.029-0.028c-0.028,0-0.085-0.028-0.113-0.057
		l-0.028-0.028c-0.028-0.028-0.085-0.028-0.113-0.057l-0.028-0.028c-0.057-0.028-0.085-0.057-0.113-0.085h-0.028
		c-0.028-0.028-0.057-0.057-0.114-0.085l-0.028-0.028c-0.028-0.028-0.057-0.057-0.085-0.085l-0.028-0.028
		c-0.057-0.028-0.085-0.057-0.113-0.085l-0.028-0.028c-0.028-0.028-0.057-0.057-0.085-0.057l-0.028-0.028
		c-0.057-0.057-0.085-0.085-0.113-0.114l-0.029-0.028c-0.028-0.028-0.057-0.057-0.085-0.085l-0.028-0.028
		c-0.028-0.028-0.057-0.057-0.085-0.085l-0.028-0.028c-0.028-0.028-0.057-0.057-0.085-0.085l-0.028-0.028
		c-0.028-0.057-0.057-0.085-0.085-0.113l-0.028-0.028c-0.028-0.028-0.057-0.057-0.085-0.085l-0.028-0.057
		c-0.028-0.028-0.028-0.057-0.057-0.085c0,0-0.028,0-0.028-0.028c-0.028-0.028-0.057-0.057-0.085-0.113l-0.028-0.028
		c-0.028-0.028-0.028-0.057-0.057-0.085l-0.028-0.028c-0.028-0.058-0.028-0.086-0.057-0.114l-0.028-0.057
		c-0.028-0.028-0.028-0.057-0.057-0.085l-0.028-0.057c-0.028-0.028-0.057-0.057-0.057-0.113c-0.028,0-0.028-0.028-0.028-0.028
		c-0.028-0.028-0.028-0.057-0.057-0.085l-0.028-0.057c0-0.028-0.028-0.057-0.028-0.085c-0.028-0.028-0.028-0.057-0.057-0.085
		c0-0.028-0.028-0.057-0.028-0.085l-0.028-0.057c0-0.028-0.028-0.057-0.028-0.085c-0.028-0.028-0.028-0.028-0.028-0.057
		c-0.028-0.028-0.028-0.057-0.057-0.114c0,0,0-0.028,0-0.057c-0.028-0.028-0.028-0.057-0.028-0.057
		c-0.028-0.028-0.028-0.057-0.028-0.057c-0.028-0.057-0.028-0.085-0.057-0.142c0,0,0-0.028,0-0.057
		c-0.028-0.028-0.028-0.057-0.028-0.057c0-0.028-0.029-0.057-0.029-0.085s-0.028-0.057-0.028-0.113c0-0.028,0-0.028-0.028-0.057
		c0-0.028,0-0.057,0-0.085c-0.028-0.028-0.028-0.028-0.028-0.057s-0.028-0.085-0.028-0.113s0-0.057,0-0.085
		c-0.028-0.029-0.028-0.029-0.028-0.058s0-0.057,0-0.085C9.27,15.221,9.27,15.193,9.27,15.165s0-0.057,0-0.085
		c-0.028-0.028-0.028-0.057-0.028-0.085s0-0.057,0-0.085c0,0,0-0.028,0-0.057c-0.028-0.028-0.028-0.057-0.028-0.085
		c0-0.057,0-0.085,0-0.113s0-0.028,0-0.057s0-0.057,0-0.085C9.185,14.485,9.185,14.457,9.185,14.457L9.185,14.457z M8.362,33.25
		c-0.34-0.481-0.255-0.964,0-1.474c0.085-0.142,0.199-0.284,0.312-0.426c0.113-0.17,0.227-0.312,0.369-0.481
		c0.822-0.907,2.041-2.637,2.834-3.26l0.028-0.028l0,0l0,0v-0.028h0.028l0,0l0.028-0.028l0,0h0.028l0,0l0,0l0.028-0.028l0,0l0,0
		l0.028-0.028l0,0h0.028l0,0l0.028-0.028l0,0l0,0l0,0h0.028l0.029-0.028l0,0h0.028l0,0l0.028-0.028l0,0l0,0l0,0h0.028l0,0h0.028l0,0
		c0-0.028,0.028-0.028,0.028-0.028l0,0h0.028l0,0h0.028l0,0c0-0.028,0.028-0.028,0.057-0.028l0,0c0.028,0,0.028,0,0.057,0l0,0h0.028
		l0,0c0.227-0.028,0.454,0.028,0.68,0.17l0,0c0.369,0.198,0.737,0.538,1.219,0.936c1.389,1.077,3.43,2.494,6.038,2.183
		c4.337-0.511,8.22-5.499,4.025-10.403v0.028h0.028l0,0l0,0l0,0l0,0l0,0l0,0l0,0l0,0v0.028l0,0l0,0l0,0l0,0
		c0.028,0.028,0.028,0.028,0.057,0.057l0,0c0.17,0.283,0.312,0.567,0.453,0.879v0.028c0.142,0.312,0.227,0.624,0.312,0.964l0,0
		c0,0,0,0.028,0,0.057c0.028,0.028,0.028,0.057,0.028,0.085l0,0c0,0.028,0,0.057,0.028,0.085l0,0c0,0.028,0,0.057,0,0.085l0,0v0.028
		l0,0c0.028,0.028,0.028,0.057,0.028,0.085l0,0c0,0.057,0,0.085,0,0.142l0,0c0.028,0.028,0.028,0.085,0.028,0.113l0,0
		c0,0.028,0,0.058,0,0.086l0,0v0.057v0.057l0,0l0.028,0.028l0,0c0,0.028,0,0.057,0,0.085l0,0v0.057c0,0.028,0,0.057,0,0.085l0,0
		c0,0.028,0,0.057,0,0.085l0,0c0,0.028,0,0.085,0,0.113v0.057l0,0v0.028l0,0v0.057v0.028v0.057l0,0v0.028l0,0v0.057l-0.028,0.028
		v0.057v0.028v0.058v0.057v0.028v0.057l-0.028,0.028v0.057v0.028v0.057v0.028l-0.028,0.057v0.028v0.057l0,0v0.028l0,0l-0.028,0.057
		v0.028v0.057l0,0v0.028l0,0l-0.028,0.057l0,0v0.028l0,0v0.057l0,0l-0.028,0.028l0,0v0.057l0,0v0.028l0,0l-0.028,0.057l0,0
		c0,0.028,0,0.057-0.028,0.086l0,0c0,0.028,0,0.057-0.028,0.085l0,0c0,0.028,0,0.057-0.028,0.085l0,0
		c0,0.057-0.028,0.113-0.057,0.198c0,0.028,0,0.057-0.029,0.085c0,0.028,0,0.057-0.028,0.085c0,0.028-0.028,0.057-0.028,0.085
		c-0.028,0.028-0.028,0.057-0.028,0.085c-0.028,0.057-0.057,0.113-0.085,0.17c0,0.028-0.028,0.057-0.028,0.085l0,0
		c-0.028,0.028-0.028,0.057-0.057,0.085c0,0.029-0.028,0.058-0.028,0.086l0,0c-0.028,0.057-0.057,0.113-0.113,0.17
		c-0.028,0.057-0.057,0.113-0.085,0.17l0,0c0,0.028-0.028,0.057-0.057,0.085l0,0c0,0.028-0.029,0.057-0.029,0.085
		c-0.028,0.028-0.057,0.057-0.057,0.085c-0.028,0.057-0.085,0.113-0.113,0.142s-0.028,0.057-0.057,0.085l0,0
		c-0.028,0.028-0.028,0.057-0.057,0.085s-0.028,0.057-0.057,0.085c-0.028,0-0.057,0.029-0.057,0.058l0,0
		c-0.028,0.028-0.057,0.057-0.057,0.085c-0.028,0.028-0.057,0.057-0.085,0.057l0,0c0,0.028-0.028,0.057-0.057,0.085l0,0
		c-0.028,0.028-0.057,0.057-0.057,0.085c-0.028,0-0.057,0.028-0.085,0.057l0,0c0,0.028-0.028,0.057-0.057,0.085l0,0
		c-0.028,0-0.057,0.028-0.085,0.057c0,0.028-0.028,0.057-0.057,0.057c-0.028,0.028-0.057,0.057-0.085,0.085
		c0,0.028-0.028,0.028-0.057,0.057c-0.028,0.028-0.057,0.057-0.085,0.057c-0.028,0.028-0.057,0.057-0.085,0.085l0,0
		c0,0-0.028,0.028-0.057,0.057s-0.057,0.028-0.085,0.057l0,0c-0.028,0.028-0.057,0.028-0.085,0.057
		c-0.028,0.029-0.057,0.058-0.085,0.058c-0.028,0.028-0.057,0.057-0.085,0.057c-0.028,0.028-0.057,0.057-0.085,0.057l0,0
		c-0.028,0.028-0.057,0.057-0.085,0.057c-0.028,0.028-0.057,0.028-0.085,0.057l0,0c-0.028,0.028-0.057,0.028-0.085,0.057l0,0
		c-0.028,0.028-0.057,0.028-0.085,0.057c-0.028,0-0.057,0.028-0.085,0.057c-0.028,0-0.057,0.028-0.085,0.028l0,0
		c-0.057,0.028-0.085,0.028-0.113,0.057l0,0c-0.028,0.028-0.057,0.028-0.085,0.057l0,0c-0.028,0-0.057,0.028-0.085,0.028
		c-0.057,0.028-0.085,0.028-0.113,0.057l0,0c-0.028,0-0.057,0.028-0.085,0.028l0,0c-0.057,0.028-0.085,0.028-0.113,0.057l0,0
		c-0.028,0-0.057,0.028-0.085,0.028l0,0c-0.057,0-0.085,0.028-0.113,0.028l0,0c-0.028,0.028-0.057,0.028-0.113,0.057
		c-0.028,0-0.057,0-0.085,0.028l0,0c-0.057,0-0.085,0.028-0.113,0.028l0,0c-0.028,0-0.085,0.028-0.113,0.028l0,0
		c-0.028,0-0.057,0.028-0.113,0.028l0,0c-0.028,0.028-0.085,0.028-0.113,0.028l0,0c-0.057,0.028-0.085,0.028-0.142,0.028l0,0
		c-0.057,0.028-0.085,0.028-0.142,0.028l0,0c-0.028,0.029-0.085,0.029-0.113,0.029l0,0c-0.057,0.028-0.085,0.028-0.142,0.028l0,0
		c-0.028,0-0.085,0-0.114,0.028l0,0c-0.057,0-0.085,0-0.113,0l0,0c-0.057,0-0.085,0-0.142,0.028l0,0c-0.028,0-0.085,0-0.113,0
		s-0.085,0-0.113,0c-0.057,0-0.085,0-0.142,0c-0.028,0-0.057,0-0.113,0c-0.028,0-0.057,0-0.113,0c-0.028,0-0.085,0-0.113,0
		s-0.085,0-0.114,0s-0.085,0-0.113,0c-0.028-0.028-0.085-0.028-0.113-0.028s-0.085,0-0.113,0l0,0
		c-0.028-0.028-0.057-0.028-0.113-0.028l0,0c-0.028,0-0.057,0-0.114-0.028c-0.028,0-0.057,0-0.085,0
		c-0.057-0.029-0.085-0.029-0.113-0.029s-0.085-0.028-0.113-0.028s-0.057-0.028-0.113-0.028l0,0c-0.028,0-0.057-0.028-0.085-0.028
		s-0.085-0.028-0.113-0.028c-0.028-0.028-0.057-0.028-0.113-0.028c-0.028-0.028-0.057-0.028-0.085-0.057
		c-0.028,0-0.057-0.028-0.113-0.028c-0.028,0-0.057-0.028-0.085-0.028c-0.028-0.028-0.085-0.028-0.113-0.057
		c-0.028,0-0.057-0.028-0.085-0.028c-0.028-0.028-0.057-0.028-0.113-0.057l0,0c-0.028,0-0.057-0.028-0.085-0.057
		c-0.028,0-0.057-0.028-0.085-0.028c-0.057-0.028-0.085-0.028-0.114-0.057l0,0c-0.028-0.028-0.057-0.028-0.085-0.057l0,0
		c-0.028,0-0.057-0.028-0.085-0.057l0,0c-0.057,0-0.085-0.028-0.113-0.028c-0.028-0.028-0.057-0.057-0.085-0.057
		c-0.028-0.028-0.057-0.057-0.085-0.057c-0.029-0.028-0.057-0.057-0.114-0.057c-0.057-0.057-0.113-0.085-0.17-0.113
		c-0.028-0.028-0.057-0.057-0.085-0.057c-0.028-0.028-0.057-0.058-0.085-0.086l0,0c-0.028,0-0.057-0.028-0.114-0.057
		c-0.028-0.028-0.057-0.028-0.085-0.057l0,0c-0.028-0.028-0.057-0.057-0.085-0.057l0,0c-0.028-0.028-0.057-0.057-0.085-0.085l0,0
		c-0.028,0-0.057-0.028-0.085-0.057l0,0c-0.057-0.028-0.113-0.085-0.17-0.113l-0.085-0.085l0,0c-0.085-0.057-0.17-0.142-0.255-0.198
		l0,0c-0.057-0.057-0.113-0.085-0.17-0.142h-0.028c-0.057-0.028-0.114-0.085-0.17-0.142l0,0c-0.085-0.058-0.17-0.143-0.255-0.199
		l-0.057-0.057l0,0l-0.085-0.085l0,0c-0.85-0.736-1.729-1.672-2.806-0.595l-0.028,0.028l0,0c-0.028,0.028-0.028,0.028-0.057,0.028
		l0,0l-0.028,0.028l0,0l-0.028,0.028l0,0l-0.028,0.028l0,0l-0.028,0.057l0,0l-0.028,0.028l0,0l-0.028,0.028l0,0l-0.028,0.028l0,0
		l-0.028,0.028l0,0l-0.028,0.028l0,0l-0.369,0.481l0,0l-2.891,3.601l-0.028,0.028l-0.17,0.198c-0.057,0.085-0.085,0.142-0.142,0.198
		c-0.028,0.028-0.028,0.057-0.057,0.113l0,0l0,0c-0.227,0.454-0.17,0.964,0.142,1.361l0.369,0.34L8.362,33.25z M13.209,16.412
		c-1.389-2.409,0.879-4.818,3.118-3.543c1.304,0.737,2.239,1.956,3.43,2.608c1.786,0.963,4.251,1.19,6.094-2.382l0,0l0,0
		l-0.028,0.028l0,0l0,0v0.028h-0.028v0.028l0,0h-0.028v0.028l0,0l-0.028,0.029l0,0l0,0l-0.028,0.028l0,0v0.028h-0.028l0,0v0.028
		l-0.057,0.057v0.028l0,0h-0.029l-0.028,0.028v0.028l0,0l0,0l-0.028,0.028l0,0l0,0v0.028h-0.028l0,0v0.028l0,0h-0.028v0.028l0,0l0,0
		h-0.028v0.028l0,0l0,0l-0.028,0.028l0,0l0,0l0,0l0,0l-0.028,0.028l0,0l0,0v0.028l0,0H25.37l0,0v0.028l0,0l0,0l0,0h-0.028l0,0v0.028
		l0,0l0,0l0,0l-0.028,0.028l0,0l0,0l0,0l0,0l0,0l-0.028,0.028l0,0l0,0l0,0l0,0l0,0l0,0l0,0l-0.028,0.028
		c-1.899,1.729-3.855,1.417-5.726,0.17c-0.028-0.028-0.057-0.028-0.085-0.057c-0.198-0.142-0.34-0.283-0.454-0.396
		c-0.255-0.198-0.454-0.341-0.765-0.567c-0.085-0.085-0.142-0.142-0.227-0.198l0,0c-1.105-0.879-1.927-1.758-3.288-1.53l0,0
		c-0.028,0-0.028,0.028-0.057,0.028h-0.028c0,0-0.028,0-0.057,0l-0.028,0.028h-0.028c-0.028,0-0.057,0-0.085,0L14.4,11.339h-0.028
		l-0.057,0.028h-0.029h-0.028l-0.028,0.028h-0.057l-0.028,0.028h-0.028l-0.028,0.028h-0.057l-0.028,0.028h-0.028l-0.028,0.028
		h-0.028l-0.057,0.028l-0.028,0.028h-0.028l-0.028,0.028h-0.029l-0.028,0.028l-0.028,0.028h-0.057l-0.028,0.028l-0.028,0.028H13.55
		l-0.028,0.028l0,0l-0.028,0.028l-0.028,0.028h-0.028l0,0l-0.028,0.028l0,0l-0.028,0.028l-0.028,0.028h-0.028l0,0l-0.028,0.028l0,0
		l-0.028,0.028l-0.028,0.028l-0.029,0.028l-0.028,0.028l0,0h-0.028l0,0l-0.028,0.028l-0.028,0.028l-0.028,0.028l0,0v0.028
		l-0.028,0.029l0,0c-0.057,0.028-0.085,0.085-0.113,0.142l-0.028,0.028l-0.028,0.028l0,0l-0.028,0.028l-0.028,0.028
		c0,0-0.028,0.028-0.028,0.057c-0.028,0.028-0.028,0.057-0.057,0.085l0,0c-0.028,0-0.028,0.028-0.057,0.057l0,0
		c0,0.028-0.028,0.057-0.028,0.085c-0.028,0.028-0.057,0.057-0.057,0.085l0,0c-0.057,0.113-0.113,0.255-0.17,0.368
		c0,0.028-0.028,0.057-0.028,0.057l0,0v0.058l0,0l-0.028,0.028c0,0.028,0,0.028,0,0.057l-0.028,0.028v0.057l0,0v0.028l-0.028,0.028
		l0,0v0.028v0.028l-0.028,0.057l0,0v0.028l0,0v0.028l0,0v0.057l0,0v0.028l-0.028,0.028l0,0v0.028l0,0v0.057v0.028v0.028v0.028v0.057
		v0.028v0.028l0,0l-0.028,0.057v0.028v0.028l0,0v0.028l0,0v0.057v0.028l0,0l0.028,0.029v0.057l0,0V14.4v0.028v0.057v0.028v0.028
		v0.057l0.028,0.028l0,0v0.028v0.057v0.028l0.028,0.028v0.057v0.028v0.028l0.028,0.057v0.028v0.028l0.028,0.028l0,0v0.028v0.028
		l0.028,0.028v0.028l0,0v0.028l0,0l0,0l0.028,0.028v0.028l0,0v0.028l0,0v0.028l0,0h0.028l0,0v0.028l0,0v0.028l0.028,0.028l0,0v0.029
		l0,0l0,0l0,0l0.028,0.028l0,0v0.028l0,0v0.028l0.028,0.028l0,0l0.028,0.028v0.028v0.028l0,0h0.028v0.028l0,0l0.028,0.028l0,0v0.028
		l0,0l0.028,0.028l0,0v0.028h0.028v0.028l0,0v0.028l0,0l0.029,0.028l0,0l0,0l0.028,0.028l0,0v0.028l0,0h0.028v0.028l0,0l0.028,0.028
		l0,0l0,0l0.028,0.028l0,0v0.028l0,0h0.028v0.028l0.028,0.028l0,0l0,0l0.028,0.028V16.1l0,0h0.028v0.028l0,0l0.028,0.028l0,0
		l0.028,0.028l0,0l0.028,0.028v0.028h0.028l0.028,0.028l0,0v0.028l0,0l0,0l0,0l0,0l0,0h0.028l0,0l0,0v0.028l0,0l0,0l0,0l0,0l0,0
		h0.028l0,0l0,0l0,0v0.028l0,0l0,0l0,0l0,0l0,0h0.028l0,0l0,0l0,0l0,0l0,0l0,0l0,0l0,0v0.028l0,0l0,0l0,0l0,0l0,0h0.028l0,0l0,0l0,0
		l0,0l0,0l0,0l0,0l0,0v0.028l0,0l0,0l0,0l0,0l0,0H13.209L13.209,16.412L13.209,16.412L13.209,16.412z"/>
	<path id="path3704" inkscape:connector-curvature="0" fill="#FFD43B" d="M7.909,32.938c-0.709-0.482-0.766-1.332-0.227-1.956
		l3.458-4.309c0.624-0.737,1.332-1.077,2.183-0.481c0.368,0.255,0.737,0.566,1.105,0.878c1.842,1.475,3.685,2.977,6.52,2.211
		c2.324-0.623,3.798-2.324,4.309-4.28c0.227-0.906,0.255-1.842,0.057-2.749c-0.17-0.936-0.595-1.814-1.247-2.58
		c-3.203-3.373-6.293-1.587-9.723-2.607c-0.482-0.142-0.936-0.425-1.276-0.794c-0.34-0.34-0.595-0.793-0.737-1.304
		c-0.199-0.794-0.085-1.615,0.312-2.268c0.369-0.652,0.992-1.162,1.786-1.389c1.559-0.397,2.409,0.538,3.571,1.502
		c0.369,0.283,0.851,0.652,1.333,1.049c1.927,1.531,4.195,1.843,5.924-0.028c0.198-0.17,1.162-1.53,1.275-1.587
		c0.17-0.085,0.397,0.113,0.51,0.227c0.425,0.396,1.021,0.255,1.247-0.312l0.709-2.892c0.113-0.567,0.312-1.077-0.142-1.446
		c-0.057-0.085-0.114-0.142-0.199-0.198l0.652-0.821l1.162,0.057c0.17,0,0.312-0.143,0.34-0.313c0-0.17-0.142-0.312-0.312-0.312
		l-1.077-0.057L29.14,5.131c-0.057-0.17-0.227-0.255-0.397-0.227c-0.17,0.057-0.283,0.227-0.227,0.396l0.312,1.105l-0.142,0.198l0,0
		l-0.51,0.652c-0.057-0.057-0.113-0.085-0.17-0.142c-0.255-0.227-0.567-0.255-0.879-0.17c-0.198,0.057-0.368,0.17-0.539,0.255
		l-2.665,1.332c-0.453,0.227-0.652,0.822-0.312,1.247c0.283,0.313,0.737,0.284,0.312,0.822l-0.595,0.766
		c-0.624,0.822-1.247,0.68-1.899,0.255c-0.454-0.312-0.879-0.681-1.304-1.021c-1.899-1.502-3.6-2.863-6.689-2.013
		c-1.616,0.426-2.665,1.247-3.43,2.58c-1.928,3.345-0.255,7.682,3.43,8.815c0.624,0.17,1.219,0.283,1.871,0.34
		c1.219,0.085,1.899,0.057,3.033,0.057c1.672,0,2.778,0.539,3.401,1.275c0.312,0.369,0.51,0.766,0.595,1.219
		c0.114,0.454,0.085,0.907-0.028,1.361c-0.227,0.964-0.963,1.813-2.126,2.126c-1.36,0.34-2.607-0.652-3.827-1.645
		c-0.68-0.566-1.389-1.162-2.183-1.559c-0.822-0.426-1.701-0.596-2.58-0.426c-0.51,0.085-1.02,0.313-1.502,0.652
		C9.27,23.98,8.646,24.944,8.022,25.71c-0.708,0.879-3.288,3.799-3.543,4.62c-0.085,0.284-0.142,0.624-0.142,0.936
		c0,1.729,1.389,3.146,3.118,3.146c0.708,0,1.332-0.227,1.842-0.595l0,0l0.028-0.028l0,0c-0.368-0.171-0.539-0.284-0.878-0.511
		C8.249,33.165,8.079,33.052,7.909,32.938z M26.334,9.269c-0.255,0.028-0.454-0.198-0.482-0.454c0-0.255,0.198-0.481,0.454-0.481
		c0.283,0,0.482,0.198,0.51,0.453C26.816,9.043,26.617,9.269,26.334,9.269z"/>
	<path id="path3706" inkscape:connector-curvature="0" fill="#1A0000" fill-opacity="0.2" d="M20.296,28.8
		c-2.041,0.538-3.572-0.057-4.961-1.021c1.559,1.19,3.231,2.126,5.613,1.502c2.324-0.623,3.798-2.324,4.309-4.28
		c0.227-0.906,0.255-1.842,0.057-2.749c-0.142-0.709-0.425-1.389-0.851-2.041c-0.113-0.17-0.255-0.34-0.396-0.539
		c-0.397-0.453-0.851-0.85-1.389-1.19c0.284,0.228,0.51,0.454,0.737,0.709c0.652,0.766,1.049,1.645,1.248,2.579
		c0.198,0.907,0.17,1.843-0.057,2.75C24.095,26.475,22.621,28.176,20.296,28.8z M25.88,11.877c-1.361,1.871-2.977,3.771-5.612,2.608
		c0.68,0.396,1.417,0.623,2.126,0.623c1.02,0.028,2.012-0.34,2.863-1.275l0,0l0,0l0,0c0.085-0.085,0.34-0.396,0.567-0.709
		c0.312-0.396,0.652-0.85,0.708-0.878c0.17-0.085,0.369,0.113,0.51,0.227c0.425,0.396,1.021,0.255,1.247-0.312l0.539-2.269
		c0.029-0.085-0.878,2.523-1.814,1.758C26.646,11.367,26.221,11.452,25.88,11.877z M12.331,14.967
		c-0.199-0.794-0.085-1.615,0.312-2.268c0.369-0.652,0.992-1.162,1.786-1.389c1.105-0.284,1.871,0.113,2.636,0.708
		c-1.672-1.955-4.054-1.417-5.018,0.143c-0.85,1.304-0.624,3.26,1.333,4.422c-0.057-0.057-0.113-0.113-0.17-0.171
		c-0.057-0.028-0.085-0.085-0.142-0.142C12.728,15.93,12.473,15.477,12.331,14.967z M28.488,6.832l-0.312,0.425l0.482,0.368
		l0.34-0.396C28.857,7.257,28.545,7.03,28.488,6.832z M7.541,31.18c0.028-0.057,0.085-0.113,0.142-0.17l0.17-0.227l3.288-4.11
		c0.567-0.681,1.247-1.049,2.012-0.567c-0.17-0.142-0.312-0.255-0.482-0.396c-0.85-0.595-1.587-0.255-2.183,0.482l-3.231,4.024
		L7.03,30.529c-0.028,0.028-0.057,0.057-0.085,0.085c-0.397,0.538-0.34,1.19,0.085,1.672c0.085,0.057,0.142,0.113,0.227,0.198
		c0.028,0,0.057,0.028,0.085,0.028c0.142,0.114,0.312,0.256,0.481,0.369C7.285,32.427,7.172,31.748,7.541,31.18z"/>
	<path id="path3708" inkscape:connector-curvature="0" fill-opacity="0.349" d="M10.97,9.892c0.794,0.369,1.191,0.567,1.814,1.021
		c0.085-0.68-0.085-1.332-0.312-2.013C11.877,9.156,11.396,9.496,10.97,9.892z M19.814,12.841c0.737-0.142,1.445-0.51,1.984-1.021
		l0,0c-0.113-0.057-0.227-0.113-0.368-0.198c-0.369-0.255-0.709-0.538-1.049-0.822C20.296,11.65,20.126,12.161,19.814,12.841z
		 M18.34,20.381c0.652,0,1.19,0.085,1.672,0.227c-0.028-0.113-0.085-0.198-0.113-0.283c-0.255-0.623-0.312-1.105-0.369-1.758
		c-0.454,0.369-0.822,0.851-1.049,1.39c-0.085,0.142-0.142,0.283-0.198,0.425C18.312,20.381,18.34,20.381,18.34,20.381z
		 M15.647,20.352c0.652,0.028,1.162,0.028,1.701,0.028c-0.34-0.651-0.482-1.162-0.595-1.928
		C16.214,18.992,15.817,19.615,15.647,20.352z M13.437,19.984c0.369,0.113,0.737,0.198,1.077,0.255
		c-0.028-0.142-0.057-0.255-0.085-0.368c-0.113-0.596-0.113-1.077-0.057-1.673c-0.567,0.34-1.021,0.822-1.361,1.36
		c-0.057,0.085-0.085,0.143-0.142,0.228C13.068,19.843,13.238,19.927,13.437,19.984z M9.213,14.542
		c0.737-0.341,1.247-0.454,1.984-0.539c-0.51-0.566-1.162-0.936-1.871-1.162c-0.113,0.539-0.142,1.077-0.142,1.616
		C9.185,14.485,9.213,14.513,9.213,14.542z M9.582,12.047c0.793,0.028,1.219,0,1.956,0.171c-0.227-0.681-0.567-1.191-1.105-1.701
		c-0.142,0.198-0.312,0.425-0.425,0.652C9.836,11.48,9.695,11.763,9.582,12.047z M8.192,28.658c-0.113-0.737-0.51-1.446-0.964-1.984
		c-0.396,0.453-0.765,0.936-1.162,1.389c0.369,0.057,0.766,0.085,1.077,0.17C7.512,28.346,7.824,28.46,8.192,28.658z M7.625,26.192
		l0.397-0.482c0.227-0.283,0.482-0.595,0.708-0.907c0.454,0.539,0.907,1.275,1.021,1.984C9.071,26.447,8.504,26.277,7.625,26.192z
		 M14.797,23.527c-0.085,0.907-0.227,1.417-0.567,2.098c0.766-0.142,1.446-0.51,1.984-1.021
		C15.761,24.236,15.307,23.839,14.797,23.527L14.797,23.527z M16.781,25.057c-0.028,0.879-0.17,1.39-0.482,2.098
		c0.766-0.17,1.417-0.566,1.956-1.105C17.745,25.795,17.263,25.427,16.781,25.057z M22.28,24.378
		c-0.17,0.538-0.51,1.049-0.992,1.445c0.851,0.028,1.502,0.113,2.183,0.397C23.329,25.483,22.904,24.859,22.28,24.378z
		 M17.773,11.367c0.765-0.113,1.502-0.511,2.069-0.992c-0.482-0.368-0.964-0.737-1.474-1.049
		C18.284,10.177,18.114,10.686,17.773,11.367z"/>
	<path id="path3710" inkscape:connector-curvature="0" fill="#FFFFFF" d="M48.388,15.874c0,0.992-0.369,1.786-1.106,2.353
		c-0.737,0.567-1.672,0.851-2.807,0.851c-0.907,0-1.757-0.255-2.607-0.737c-0.397-0.255-0.766-0.623-1.021-1.077
		c-0.255-0.481-0.397-1.021-0.397-1.615l1.871-0.085c0,0.51,0.227,0.936,0.681,1.247c0.454,0.283,0.964,0.425,1.502,0.425
		c1.247,0,1.871-0.425,1.871-1.304c0-0.709-0.425-1.134-1.275-1.247l-1.701-0.17c-0.878-0.142-1.559-0.454-2.069-0.936
		c-0.482-0.482-0.737-1.19-0.737-2.098s0.34-1.645,1.077-2.239c0.709-0.596,1.616-0.907,2.721-0.907s2.013,0.283,2.665,0.851
		c0.681,0.566,1.021,1.275,1.021,2.154l-1.842,0.085c-0.17-0.851-0.737-1.275-1.729-1.275c-0.624,0-1.077,0.113-1.417,0.368
		s-0.51,0.567-0.51,0.907c0,0.368,0.113,0.651,0.369,0.851c0.255,0.198,0.539,0.312,0.907,0.368l1.701,0.17
		C47.423,13.067,48.388,14.088,48.388,15.874z M83.479,18.992h-2.324c-2.069,0-2.523-0.596-2.523-2.58V8.447h2.07v7.597
		c0,0.624,0.197,1.105,0.878,1.105h2.495L83.479,18.992z M93.542,18.992h-2.154l-0.596-1.814h-3.287l-0.596,1.814h-2.126
		l3.231-9.666c0.143-0.34,0.34-0.567,0.51-0.681c0.171-0.142,0.397-0.198,0.682-0.198c0.254,0,0.48,0.057,0.623,0.17
		c0.17,0.113,0.34,0.369,0.453,0.709L93.542,18.992z M90.312,15.449l-1.105-4.195l-1.191,4.195H90.312z M54.453,15.902l1.729-0.028
		c0,0.085,0,0.227-0.029,0.425c0,0.228,0,0.369-0.027,0.426c0,0.085,0,0.198-0.029,0.368c-0.027,0.142-0.027,0.255-0.057,0.34
		c-0.027,0.057-0.057,0.171-0.113,0.284c-0.17,0.51-0.651,0.936-1.445,1.219c-0.51,0.17-1.021,0.255-1.588,0.255
		c-0.538,0-1.02-0.085-1.474-0.255c-0.453-0.17-0.794-0.397-1.049-0.681c-0.595-0.623-0.878-1.757-0.878-3.458
		c0-1.673,0.283-2.835,0.878-3.43c0.255-0.283,0.596-0.511,1.049-0.681c0.454-0.198,0.936-0.283,1.474-0.283
		c1.078,0,1.871,0.283,2.438,0.794c0.538,0.538,0.821,1.275,0.821,2.239h-1.729c0-0.426-0.113-0.766-0.34-0.964
		c-0.227-0.227-0.624-0.341-1.219-0.341c-0.567,0-0.965,0.199-1.162,0.567c-0.199,0.368-0.284,0.907-0.284,1.645v0.765
		c0,1.162,0.228,1.899,0.681,2.154c0.198,0.142,0.482,0.198,0.822,0.198s0.595-0.028,0.822-0.085c0.197-0.085,0.367-0.17,0.453-0.34
		c0.085-0.17,0.142-0.312,0.17-0.481C54.425,16.412,54.425,16.185,54.453,15.902z M58.79,7.285c0.453,0,0.766,0.085,0.907,0.227
		s0.198,0.454,0.198,0.907s-0.057,0.766-0.227,0.907c-0.143,0.142-0.426,0.198-0.879,0.198c-0.482,0-0.766-0.057-0.907-0.227
		c-0.142-0.142-0.227-0.426-0.227-0.879c0-0.481,0.085-0.766,0.227-0.907S58.308,7.285,58.79,7.285z M59.726,18.992h-1.928v-8.164
		h1.928V18.992z"/>
	<path id="path3712" inkscape:connector-curvature="0" fill="#FFD43B" d="M68.314,9.354c0.624,0.595,0.907,1.502,0.907,2.664
		c0,1.19-0.283,2.069-0.907,2.693c-0.595,0.595-1.446,0.907-2.579,0.907h-2.014v3.373h-2.068V8.447h4.082
		C66.868,8.447,67.72,8.73,68.314,9.354z M67.181,12.018c0-1.162-0.51-1.757-1.531-1.757h-1.928v3.486h1.928
		c0.482,0,0.879-0.113,1.135-0.396C67.038,13.095,67.181,12.642,67.181,12.018z M77.243,10.516l-3.203,9.411
		c-0.142,0.425-0.34,0.765-0.596,1.021c-0.367,0.368-0.935,0.566-1.644,0.566h-1.36v-1.729h1.049c0.283,0,0.482-0.028,0.623-0.143
		c0.113-0.085,0.227-0.283,0.34-0.538l0.143-0.425l-2.551-8.164h2.041l1.502,5.896l1.645-5.896H77.243z"/>
</g>
<text transform="matrix(1 0 0 1 55.125 29.196)" enable-background="new    "><tspan x="0" y="0" fill="#FFFFFF" font-family="'HelveticaLTStd-Cond'" font-size="6.9696">Curitiba, 20</tspan><tspan x="31.746" y="0" fill="#FFFFFF" font-family="'HelveticaLTStd-Cond'" font-size="6.9696">17</tspan></text>
</svg>
