<?xml version="1.0" encoding="UTF-8"?>
<!DOCTYPE svg PUBLIC "-//W3C//DTD SVG 1.1//EN" "http://www.w3.org/Graphics/SVG/1.1/DTD/svg11.dtd">
<!-- Creator: CorelDRAW X7 -->
<svg xmlns="http://www.w3.org/2000/svg" xml:space="preserve" width="11.645mm" height="16.748mm" version="1.1" style="shape-rendering:geometricPrecision; text-rendering:geometricPrecision; image-rendering:optimizeQuality; fill-rule:evenodd; clip-rule:evenodd"
viewBox="0 0 1165 1675"
 xmlns:xlink="http://www.w3.org/1999/xlink">
 <defs>
  <style type="text/css">
   <![CDATA[
    .fil3 {fill:#0E253F}
    .fil2 {fill:#14365B}
    .fil1 {fill:#FFD43B}
    .fil0 {fill:white}
    .fil4 {fill:white;fill-rule:nonzero}
    .fil6 {fill:#1A0000;fill-opacity:0.200000}
    .fil5 {fill:black;fill-opacity:0.301961}
    .fil7 {fill:black;fill-opacity:0.349020}
   ]]>
  </style>
 </defs>
 <g id="Capa_x0020_1">
  <metadata id="CorelCorpID_0Corel-Layer"/>
  <g id="_494905001600">
   <path class="fil0" d="M995 1376l-62 0c-48,0 -70,-13 -70,-58l0 -181 47 0 0 173c0,14 5,25 20,25l65 0 0 41zm-129 222l299 0 0 12 -299 0 0 -12zm0 -40l299 0 0 12 -299 0 0 -12zm-866 40l298 0 0 12 -298 0 0 -12zm0 -40l298 0 0 12 -298 0 0 -12zm349 114c-1,-2 -1,-5 -1,-8 0,-4 0,-7 1,-10 1,-2 3,-6 7,-12 7,-13 19,-28 35,-47 13,-15 22,-27 28,-36 6,-10 8,-19 8,-29 0,-14 -8,-22 -24,-22 -8,0 -16,1 -25,4 -9,2 -15,4 -21,7 -2,-4 -3,-11 -3,-18 0,-3 3,-5 8,-8 5,-2 12,-5 20,-6 9,-2 18,-3 28,-3 17,0 29,4 36,11 6,7 10,17 10,32 0,9 -2,18 -5,26 -4,8 -8,16 -14,23 -5,8 -13,17 -22,29 -15,17 -26,31 -34,43l43 0c7,0 14,0 22,-1 7,0 12,-1 15,-1 0,10 -1,17 -1,21 -1,3 -2,5 -5,5l-106 0zm130 -93c0,-31 4,-55 13,-71 9,-16 24,-24 44,-24 19,0 34,7 42,22 9,14 13,36 13,66 0,35 -4,61 -12,78 -9,16 -24,25 -45,25 -21,0 -35,-8 -43,-23 -8,-16 -12,-40 -12,-73zm27 2c0,18 1,32 3,42 1,10 4,18 9,22 4,5 9,7 17,7 11,0 18,-6 23,-19 5,-13 7,-33 7,-61 0,-23 -2,-39 -6,-50 -4,-10 -12,-15 -22,-15 -12,0 -20,6 -24,18 -5,13 -7,31 -7,56zm144 -71c-11,2 -24,4 -35,7 -2,-4 -4,-12 -4,-19 0,-1 4,-3 12,-6 8,-2 17,-4 27,-6 10,-2 16,-3 20,-3 3,0 6,0 7,1 0,57 -1,114 0,171 0,3 1,14 -2,16 0,1 -1,1 -3,1 -7,0 -18,0 -22,0l0 -162zm163 -27c0,3 0,7 0,10 0,5 0,10 -1,12 -25,51 -38,102 -38,158 0,11 -6,9 -16,9 -4,0 -6,0 -10,0 1,-59 10,-108 34,-163 -16,1 -41,0 -73,0 -4,0 -4,-10 -4,-25l108 -1zm-633 -177c0,22 -8,40 -25,53 -16,13 -38,19 -63,19 -21,0 -41,-5 -60,-17 -9,-5 -17,-14 -23,-24 -6,-11 -9,-23 -9,-37l42 -2c0,12 6,22 16,28 10,7 22,11 34,11 28,0 42,-10 42,-30 0,-16 -9,-26 -28,-29l-39 -4c-20,-3 -35,-10 -47,-21 -11,-11 -17,-26 -17,-47 0,-21 8,-38 25,-51 16,-14 37,-21 62,-21 25,0 45,7 60,20 16,12 23,29 23,49l-42 2c-3,-20 -17,-30 -39,-30 -14,0 -24,3 -32,9 -8,6 -12,13 -12,21 0,8 3,14 9,19 5,4 12,7 20,8l39 4c43,6 64,29 64,70zm138 0l40 0c-1,1 -1,5 -1,9 0,5 0,8 -1,10 0,2 0,4 0,8 -1,3 -1,6 -2,8 0,1 -1,4 -2,6 -4,12 -15,21 -33,28 -12,4 -24,6 -36,6 -12,0 -24,-2 -34,-6 -10,-4 -18,-9 -24,-16 -13,-13 -20,-40 -20,-78 0,-38 7,-64 20,-78 6,-6 14,-12 24,-16 10,-4 22,-6 34,-6 24,0 43,6 55,18 13,13 19,29 19,51l-40 0c0,-10 -2,-17 -7,-22 -5,-5 -14,-7 -28,-7 -13,0 -22,4 -26,12 -5,8 -7,21 -7,38l0 17c0,27 5,43 16,49 4,3 11,5 18,5 8,0 14,-1 19,-3 5,-1 8,-4 10,-7 2,-4 4,-7 5,-11 0,-3 1,-8 1,-15zm99 -195c10,0 17,1 20,4 3,4 5,11 5,21 0,10 -2,17 -5,21 -3,3 -10,4 -21,4 -10,0 -17,-1 -20,-5 -3,-3 -5,-10 -5,-20 0,-11 2,-17 5,-21 3,-3 10,-4 21,-4zm21 265l-44 0 0 -185 44 0 0 185zm726 0l-32 0 -7 -17 -45 19c-33,2 -49,-9 -58,-28 -5,-9 -8,-19 -9,-30 -2,-10 -3,-22 -3,-33 0,-12 0,-20 0,-26 1,-5 1,-12 2,-19 1,-7 2,-13 4,-18 2,-5 4,-10 7,-16 3,-5 7,-9 12,-12 10,-7 23,-11 39,-11l90 0 0 191zm-44 -61l0 -90 -33 0c-13,0 -21,4 -26,14 -5,9 -7,23 -7,42 0,19 2,32 7,40 4,7 13,10 26,10l33 -16z"/>
   <path class="fil1" d="M633 1157c14,14 21,34 21,61 0,27 -7,47 -21,61 -14,14 -33,21 -58,21l-46 0 0 76 -47 0 0 -239 93 0c25,0 44,6 58,20zm-26 61c0,-26 -11,-40 -35,-40l-43 0 0 79 43 0c12,0 20,-3 26,-9 6,-6 9,-16 9,-30zm223 -34l-73 214c-3,10 -7,17 -13,22 -9,9 -21,14 -38,14l-29 0 0 -39 22 0c7,0 11,-2 14,-4 3,-2 6,-6 8,-12l4 -10 -58 -185 46 0 34 134 37 -134 46 0z"/>
   <g>
    <path class="fil2" d="M582 0c265,1 482,205 503,465l-404 538c-33,7 -68,11 -103,10 -268,-1 -487,-210 -504,-474l407 -529c33,-7 66,-10 101,-10z"/>
    <path class="fil3" d="M525 37c20,-14 39,-26 57,-37 -207,-1 -395,125 -473,319 -27,67 -39,140 -35,213 1,20 3,41 7,61 8,-19 17,-36 27,-52 10,-15 21,-42 35,-51 19,-13 38,-10 55,4 27,21 90,80 123,84 13,1 20,-9 17,-20 -3,-14 -18,-30 -38,-46 -31,-25 -67,-52 -79,-65 -13,-14 -16,-26 -13,-40 5,-22 27,-55 38,-73 8,-12 17,-26 27,-40l0 0c66,-93 169,-204 227,-238l0 0 25 -19z"/>
    <path class="fil3" d="M635 976c-19,15 -38,27 -57,37 207,1 395,-124 473,-319 26,-65 39,-137 35,-212 -1,-21 -3,-42 -7,-62 -8,19 -17,36 -27,52l-14 22c-9,14 -26,46 -38,55 -19,13 -37,9 -55,-4 -27,-21 -90,-81 -123,-84 -13,-2 -19,8 -17,19 3,14 19,30 38,46 31,25 68,52 79,65 21,22 16,38 3,65 -45,97 -188,257 -265,302l0 0 -25 18z"/>
    <path class="fil4" d="M944 229c-2,-3 -2,-8 2,-10 3,-3 8,-2 10,1 28,36 50,76 67,120 15,42 26,87 29,134 9,130 -36,252 -115,343 -79,91 -194,152 -324,161 -130,10 -252,-35 -343,-114 -92,-80 -153,-194 -162,-324 -9,-131 36,-252 115,-344 79,-91 193,-152 323,-161l4 0c54,-4 107,2 156,16 52,14 101,38 145,68 3,3 4,7 2,11 -3,3 -7,4 -11,1 -42,-29 -89,-52 -140,-66 -49,-13 -100,-19 -154,-15 -126,9 -237,68 -313,156 -77,89 -120,207 -112,333 9,126 68,236 157,313 88,77 206,120 332,111 126,-8 237,-67 314,-156 76,-88 120,-206 111,-332 -3,-46 -13,-89 -28,-130 -16,-42 -38,-81 -65,-116z"/>
    <path class="fil5" d="M331 407l0 0c2,94 28,158 118,186 17,5 34,8 52,9 35,3 53,2 86,2 50,0 117,18 113,76 1,-4 1,-7 2,-11l0 0 0 -1c0,0 0,-1 0,-1l0 -1 0 0 0 0 0 0c0,-1 0,-2 0,-3l0 0 0 0 0 0 0 -1 0 0 0 0 0 -1 0 -1 0 0 0 0 0 0 0 -1 0 0 0 0 0 -1 0 0 0 0 0 0 0 -1 0 0 0 0 0 -1 0 0 0 0 0 -1 0 0 0 0 0 0 0 -1 0 0 0 0 0 0 0 -1 0 0 0 -1 0 0 0 0 0 0 0 -1 0 0 0 0 0 0 -1 -1 0 0 0 0 0 -1 0 0 0 -1 0 0 0 0 0 -1 0 0 0 -1 0 0 0 0 0 0 0 -1 0 0 0 0 0 0 -1 -1 0 0 0 -1 0 0 0 -1 0 0 0 0 0 -1 0 0 0 -1 -1 -1 0 0 0 0 0 -1 0 0 0 0 0 -1 0 0 -1 -1 0 -1 0 0 0 -1 0 0 0 0 0 0 -1 -1 0 0 0 0 0 0 0 -1 0 0 0 0 0 -1 -1 -1 0 0 0 0 0 -1 0 0 -1 -1 0 0 0 -1 0 0 0 0 -1 -1 0 -1 0 0 0 0 0 -1 0 0c-1,0 -1,0 -1,-1l0 0 0 0 0 -1 -1 0 0 -1 0 0 -1 -1 0 0 0 0 0 -1 0 0 -1 0 0 -1 0 0 -1 -1 0 0 0 0 0 0 0 -1 0 0 -1 0 0 -1 0 0 0 0 0 0 -1 -1 0 0 0 0 0 0 0 -1 0 0 -1 0 0 0 0 -1 0 0 0 0 0 0 -1 -1 0 0 0 0 0 0 -1 -1 0 0 0 0 0 0 0 -1 0 0c-1,0 -1,0 -1,-1l0 0c-1,0 -1,0 -1,-1l0 0c0,0 -1,0 -1,-1l0 0 -1 -1 0 0c0,0 0,0 -1,-1l0 0c0,0 0,0 -1,0l0 0c0,-1 0,-1 -1,-1l0 0c0,-1 0,-1 -1,-1l0 0c0,-1 0,-1 -1,-1l0 0c0,0 0,-1 -1,-1l0 0c0,0 0,-1 -1,-1l0 0c0,0 0,-1 -1,-1l0 0c0,0 -1,0 -1,-1l0 0c0,0 -1,0 -1,0l0 0c0,-1 -1,-1 -1,-1l0 0c0,-1 -1,-1 -1,-1l0 0c-1,0 -1,-1 -1,-1l0 0c-1,0 -1,0 -2,-1l0 0c0,0 0,0 -1,0l0 0c0,-1 -1,-1 -1,-1l0 0c0,0 -1,-1 -1,-1l0 0c-1,0 -1,0 -2,-1l0 0c0,0 0,0 -1,0l0 0c0,-1 -1,-1 -1,-1l0 0c-1,0 -1,-1 -1,-1l0 0c-1,0 -1,0 -2,-1l0 0c0,0 -1,0 -1,0l0 0c-1,0 -1,-1 -2,-1l0 0c0,0 0,0 -1,0l0 0c0,-1 -1,-1 -1,-1l0 0c-1,0 -1,-1 -2,-1l0 0c0,0 -1,0 -1,0l0 0c-1,-1 -1,-1 -2,-1l0 0c0,0 -1,0 -1,0l0 0c-1,-1 -1,-1 -2,-1l0 0c0,0 -1,0 -1,-1l0 0 -2 0 0 0c-1,0 -1,0 -2,-1l0 0c0,0 -1,0 -1,0l0 0c-1,0 -1,0 -2,-1l0 0c0,0 -1,0 -2,0l0 0c0,0 -1,0 -1,0l0 0c-1,-1 -1,-1 -2,-1l0 0c0,0 -1,0 -2,0l0 0c0,0 -1,0 -1,-1l0 0c-1,0 -2,0 -2,0l0 0 -2 0 0 0c-1,0 -1,-1 -2,-1l0 0c0,0 -1,0 -2,0l0 0c0,0 -1,0 -1,0l0 0c-1,0 -2,0 -2,-1l0 0c-1,0 -2,0 -2,0l0 0c-1,0 -1,0 -2,0l0 0c-1,0 -1,0 -2,0l0 0 -2 0 0 0c-1,-1 -1,-1 -2,-1l0 0c-1,0 -1,0 -2,0l0 0c-1,0 -1,0 -2,0l0 0c-1,0 -1,0 -2,0l0 0c-1,0 -2,0 -2,0l0 0c-1,0 -2,0 -2,0l0 0c-1,0 -2,0 -2,0l0 0c-1,0 -2,0 -3,0l0 0c0,0 -1,0 -2,0l0 0 -1 0 0 0 -2 0 0 0 -1 0 0 0 -2 0 0 0 -1 0 -2 0 0 0 -1 0 -1 0 0 0 -2 0 -1 0 0 0 -1 0 -2 0 -1 0 -1 0 -2 0 0 0 -1 0 0 0 -1 0 -1 0 0 0 -2 0 0 0 -1 0 0 0 -1 0 -1 0 -2 0 0 0 -1 0 0 0 -1 0 0 0 -1 0 0 0 -2 0 -1 0 -1 0 -1 0 0 0 -2 0 0 0 -1 0 -1 0 0 0 -1 0 0 0 -1 0 0 0 -2 0 -1 0 0 0 -1 0 -1 0 0 0 -2 0 0 0 -1 0 0 0 -1 0 0 0 -1 0 0 0 -2 -1 0 0 -1 0 0 0 -1 0 0 0 -2 0 -1 0 0 0 -1 0 0 0 -2 0 0 0 -1 0 0 0 -1 0 -2 0 0 0 -1 0 0 0 -2 0 0 0 -1 0 0 0 -2 0 0 0 -1 0 -1 -1 0 0 -2 0 0 0 -2 0 0 0 -1 0 0 0 -2 0 0 0 -1 0 0 0 -1 0 0 0 -1 0 0 0 -1 0 0 0 -1 0 0 0 0 0 0 0 -1 0 -1 -1 0 0 -1 0 0 0 -1 0 0 0 -1 0 0 0 0 0 -1 0 0 0 -1 0 -1 0 -1 0 -1 -1 0 0 -1 0 0 0 -1 0 -1 0 0 0 -1 0c-1,0 -1,0 -2,0l-1 0 0 0 -1 -1 -1 0 0 0 0 0 -1 0 -1 0 0 0 -1 0 -2 -1 0 0 0 0 0 0 -1 0 0 0 -1 0 -1 0 0 0 -1 0 0 0 0 -1 -1 0 -1 0 0 0 -1 0 0 0 -1 0 0 0 -1 -1 0 0 -1 0 0 0 -1 0 -1 0 -1 0 0 0 0 -1 0 0 -1 0 -1 0 -1 0 -1 0 0 -1 -1 0 0 0 -1 0 -1 0 -1 -1 0 0 -1 0 0 0 -1 0 -1 -1 -1 0c-1,0 -2,-1 -4,-1l-1 -1c-1,0 -3,0 -4,-1l0 0c-2,-1 -3,-1 -4,-2l-1 0c-2,-1 -3,-1 -4,-2l-1 0c-1,-1 -2,-1 -4,-2l0 0c-2,-1 -3,-1 -4,-2l-1 0c-1,-1 -2,-2 -3,-2l-1 -1c-1,0 -2,-1 -3,-1l-1 -1c-1,-1 -3,-1 -4,-2l0 0c-1,-1 -2,-2 -3,-3l-1 0c-1,-1 -3,-2 -4,-2l0 -1c-1,0 -2,-1 -3,-2l-1 -1c-1,0 -2,-1 -3,-2l-1 -1c-1,0 -2,-1 -3,-2l-1 -1c0,-1 -1,-1 -2,-2l-1 -1c-1,-1 -2,-2 -3,-2l-1 -1c0,-1 -1,-2 -2,-2l-1 -1c-1,-1 -2,-2 -2,-3l-1 -1c-1,-1 -2,-2 -2,-2l-1 -1c-1,-1 -2,-2 -3,-3l0 -1c-1,-1 -2,-2 -2,-2l-1 -2c-1,0 -1,-1 -2,-2 0,0 -1,-1 -1,-1 -1,-1 -1,-2 -2,-3l-1 -1c0,-1 -1,-2 -1,-2l-1 -2c-1,-1 -2,-2 -2,-3l-1 -1c-1,-1 -1,-2 -1,-2l-1 -2c-1,-1 -1,-2 -2,-3 0,0 -1,-1 -1,-1 0,-1 -1,-2 -1,-2l-1 -2c0,-1 -1,-2 -1,-3 0,0 -1,-1 -1,-2 0,0 -1,-1 -1,-2l-1 -1c0,-1 -1,-2 -1,-3 0,-1 0,-1 -1,-2 0,-1 0,-2 -1,-2 0,-1 0,-2 0,-2 -1,-1 -1,-2 -1,-2 0,-1 -1,-1 -1,-2 0,-1 -1,-2 -1,-3 0,-1 0,-1 -1,-2 0,-1 0,-1 0,-2 0,-1 -1,-1 -1,-2 0,-1 0,-2 -1,-3 0,-1 0,-1 0,-2 0,-1 -1,-1 -1,-2 0,-1 0,-1 0,-2 0,-1 -1,-2 -1,-3 0,-1 0,-1 0,-2 0,-1 -1,-2 -1,-2 0,-1 0,-2 0,-2 0,-1 0,-2 -1,-3 0,-1 0,-1 0,-2 0,-1 0,-2 0,-3 0,0 0,-1 -1,-2 0,0 0,-1 0,-2 0,-1 0,-1 0,-2 0,-1 0,-2 0,-3 0,-1 0,-1 0,-2 -1,-1 -1,-1 -1,-2 0,-1 0,-1 0,-2l0 0zm-23 527c-9,-13 -7,-27 0,-40 2,-5 5,-9 8,-13 4,-4 7,-9 11,-13 23,-26 57,-75 79,-92l1 0 0 0 1 -1 0 0 0 0 0 0 1 -1 0 0 1 0 0 0 0 0 0 -1 1 0 0 0 0 0 0 0 1 -1 0 0 1 0 0 0 0 0 0 0 0 -1c1,0 1,0 1,0l1 0 0 0 0 0 1 -1 0 0 0 0 0 0 1 0 0 0 0 0 0 0c1,-1 1,-1 2,-1l0 0 0 0 0 0 1 0 0 0c0,0 1,0 2,-1l0 0c0,0 1,0 1,0l0 0 1 0 0 0c6,-1 13,1 19,5l0 0c10,6 21,16 34,26 39,31 96,71 169,62 123,-15 232,-155 114,-292l0 0 0 0 0 0 0 0 0 1 0 0 0 0 0 0 0 0 1 0 0 0 0 0 0 0 0 0 0 0c0,1 1,1 1,2l0 0c5,8 9,16 13,25l0 0c4,9 6,18 9,27l0 0c0,1 0,1 0,2 0,1 0,1 0,2l0 0c1,1 1,2 1,3l0 0c0,0 0,1 0,2l0 0 0 1 0 0c1,1 1,2 1,3l0 0c0,1 0,2 0,3l0 0c0,1 1,3 1,4l0 0c0,1 0,1 0,2l0 0 0 1 0 2 0 0 0 1 0 0c0,1 0,2 0,2l0 0 0 2c0,0 0,1 0,2l0 0c0,1 0,2 0,2l0 0c1,2 1,3 1,4l-1 1 0 0 0 1 0 0 0 2 0 1 0 1 0 0 0 1 0 0 0 1 0 2 0 1 0 1 0 1 0 2 0 1 -1 1 0 1 0 1 0 2 0 1 0 1 0 1 -1 1 0 2 0 0 0 1 0 0 0 1 -1 1 0 1 0 0 0 2 0 0 0 1 0 0 0 1 0 0 -1 1 0 0 0 1 0 0 0 1 0 0 -1 2 0 0 0 1 0 0c0,1 0,2 -1,2l0 0c0,1 0,2 0,3l0 0c-1,1 -1,2 -1,3l0 0c-1,1 -1,3 -2,5 0,0 0,1 -1,2 0,1 0,2 -1,3 0,0 0,1 0,2 -1,1 -1,2 -1,3 -1,1 -2,3 -3,4 0,1 0,2 -1,3l0 0c0,1 0,1 -1,2 0,1 -1,2 -1,3l0 0c-1,1 -2,3 -3,4 0,2 -1,4 -2,5l0 0c-1,1 -1,2 -2,2l0 0c0,1 -1,2 -1,3 -1,0 -1,1 -1,2 -1,1 -2,3 -4,4 0,1 -1,2 -1,3l0 0c-1,0 -1,1 -2,2 0,0 -1,1 -1,2 -1,1 -2,1 -2,2l0 0c-1,1 -1,1 -2,2 0,1 -1,1 -2,2l0 0c0,1 -1,2 -1,2l0 0c-1,1 -2,2 -2,2 -1,1 -1,2 -2,2l0 0c-1,1 -1,2 -2,2l0 0c-1,1 -1,1 -2,2 -1,1 -1,1 -2,2 -1,1 -1,1 -2,2 -1,1 -1,1 -2,2 -1,0 -1,1 -2,2 -1,0 -2,1 -2,1l0 0c-1,1 -2,2 -3,2 0,1 -1,1 -2,2l0 0c0,0 -1,1 -2,2 -1,0 -2,1 -2,1 -1,1 -2,1 -3,2 0,0 -1,1 -2,1l0 0c-1,1 -2,1 -2,2 -1,0 -2,1 -3,1l0 0c-1,1 -1,1 -2,2l0 0c-1,0 -2,1 -3,1 -1,1 -1,1 -2,2 -1,0 -2,1 -3,1l0 0c-1,1 -2,1 -3,2l0 0c0,0 -1,0 -2,1l0 0c-1,0 -2,1 -3,1 -1,1 -2,1 -3,1l0 0c-1,1 -1,1 -2,2l0 0c-1,0 -2,0 -3,1l0 0c-1,0 -2,0 -3,1l0 0c-1,0 -2,0 -3,1l0 0c-1,0 -2,0 -3,1 -1,0 -2,0 -3,1l0 0c-1,0 -2,0 -3,1l0 0c-1,0 -2,0 -3,1l0 0c-1,0 -2,0 -3,0l0 0c-1,1 -2,1 -3,1l0 0c-2,1 -3,1 -4,1l0 0c-1,0 -3,1 -4,1l0 0c-1,0 -2,0 -3,1l0 0c-2,0 -3,0 -4,0l0 0c-1,0 -2,1 -3,1l0 0c-2,0 -3,0 -4,0l0 0c-1,0 -2,0 -3,1l0 0c-2,0 -3,0 -4,0 -1,0 -2,0 -3,0 -1,0 -2,0 -4,0 -1,0 -2,0 -3,0 -1,0 -2,0 -3,0 -1,0 -2,0 -3,0 -1,0 -3,0 -4,0 -1,0 -2,0 -3,-1 -1,0 -2,0 -3,0 -1,0 -2,0 -3,0l0 0c-1,0 -2,-1 -3,-1l0 0c-1,0 -2,0 -3,0 -1,0 -2,-1 -3,-1 -1,0 -2,0 -3,0 -1,-1 -2,-1 -3,-1 -1,0 -2,-1 -3,-1l0 0c-1,0 -2,-1 -3,-1 -1,0 -2,0 -3,-1 -1,0 -2,0 -3,-1 -1,0 -2,0 -3,-1 -1,0 -2,0 -3,-1 0,0 -1,0 -2,-1 -1,0 -2,-1 -3,-1 -1,0 -2,-1 -3,-1 -1,-1 -2,-1 -3,-1l0 0c-1,-1 -1,-1 -2,-2 -1,0 -2,-1 -3,-1 -1,0 -2,-1 -3,-1l0 0c-1,-1 -1,-1 -2,-2l0 0c-1,0 -2,-1 -3,-1l0 0c-1,-1 -2,-1 -3,-2 -1,0 -1,-1 -2,-1 -1,-1 -2,-1 -3,-2 -1,0 -2,-1 -2,-1 -2,-1 -4,-3 -6,-4 0,0 -1,-1 -2,-1 -1,-1 -2,-1 -3,-2l0 0c0,-1 -1,-1 -2,-2 -1,0 -2,-1 -3,-2l0 0c0,0 -1,-1 -2,-1l0 0c-1,-1 -2,-2 -3,-2l0 0c0,-1 -1,-1 -2,-2l0 0c-2,-1 -3,-2 -5,-4l-2 -2 0 0c-3,-1 -5,-3 -8,-5l0 0c-1,-2 -3,-3 -5,-4l0 0c-1,-1 -3,-3 -4,-4l0 0c-3,-2 -5,-4 -8,-6l-2 -1 0 0 -2 -2 0 0c-24,-22 -48,-48 -79,-17l-1 0 0 0c0,1 0,1 -1,1l0 0 0 1 0 0 -1 1 0 0 -1 1 0 0 -1 1 0 0 -1 1 0 0 -1 1 0 0 0 1 0 0 -1 1 0 0 -1 0 0 0 -10 13 0 0 -82 102 0 1 -5 5c-1,2 -3,4 -4,5 -1,1 -1,2 -2,4 0,0 0,0 0,0 0,0 0,0 0,0 -7,12 -5,27 4,38l11 10 10 6zm136 -472c-39,-67 24,-135 87,-99 37,20 63,55 97,73 50,27 119,34 171,-67l0 0 0 0 -1 1 0 0 0 0 -1 1 0 0 0 0 0 0 -1 1 0 0 0 0 0 1 0 0 -1 0 0 1 0 0 -1 0 0 1 0 0 0 0 -2 2 0 1 0 0 0 0 -1 1 0 0 0 0 -1 1 0 0 0 0 0 0 0 1 -1 0 0 0 0 1 0 0 0 0 -1 0 0 0 0 1 0 0 0 0 0 0 -1 1 0 0 0 0 0 0 0 1 0 0 -1 0 0 0 0 0 0 0 0 1 0 0 -1 0 0 0 0 0 0 0 0 1 0 0 0 0 -1 0 0 0 0 0 0 1 0 0 0 0 0 0 -1 0 0 0 0 0 0 1 0 0 0 0 0 0 0 0 0 0 -1 0 0 0 0 1c-54,48 -108,40 -160,4 -1,0 -2,-1 -3,-1 -5,-4 -9,-8 -13,-11 -7,-6 -13,-10 -21,-16 -2,-2 -5,-4 -7,-6l0 0c-30,-24 -53,-49 -92,-42l0 0c0,0 -1,0 -2,0l0 0c-1,0 -1,0 -2,0l0 1 -2 0c0,0 -1,0 -2,0l-1 1 -1 0 -1 0 -1 1 -1 0 -1 0 -1 1 -1 0 -1 0 -1 1 -1 0 -1 1 -1 0 -1 0 -1 1 0 0 -1 1 -1 0 -1 1 -1 0 -1 1 -1 0 -1 1 -1 0 -1 1 0 0 -1 1 0 0 -1 1 -1 0 -1 1 0 0 -1 0 0 0 0 1 -1 1 -1 0 0 0 -1 1 0 0 -1 1 0 0 -1 1 -1 1 0 0 -1 0 0 0 0 1 -1 1 -1 0 0 0 0 1 -1 1 0 0c-1,1 -2,2 -3,4l-1 0 -1 1 0 0 0 1 -1 1c0,0 -1,1 -1,1 -1,1 -1,2 -2,3l0 0c0,0 0,1 -1,1l0 0c0,1 -1,2 -1,3 -1,1 -1,2 -2,3l0 0c-2,3 -3,6 -4,10 -1,0 -1,1 -1,2l0 0 0 0 0 0 -1 1c0,1 0,2 0,2l-1 1 0 1 0 0 0 1 0 1 0 0 -1 1 0 1 0 1 0 0 0 1 0 0 0 1 0 0 0 1 0 0 -1 1 0 1 0 0 0 1 0 0 0 1 0 1 0 1 0 1 0 1 0 1 -1 1 0 0 0 1 0 1 0 1 0 0 0 2 0 0 0 1 0 1 0 0 1 1 0 1 0 0 0 1 0 1 0 1 0 1 0 1 0 1 0 1 0 0 0 1 1 1 0 1 0 1 0 1 1 1 0 1 0 1 0 2 0 0 1 1 0 1 0 0 0 1 0 1 1 0 0 0 0 1 0 0 0 0 0 1 1 1 0 0 0 0 0 0 0 1 0 0 0 1 0 0 1 0 0 0 0 1 0 1 0 0 0 0 0 0 1 1 0 0 0 0 0 0 0 1 0 0 0 1 1 0 0 1 0 1 1 0 0 1 0 0 0 0 1 1 0 0 0 1 0 0 0 0 0 1 1 0 0 0 0 1 0 0 1 1 0 0 0 1 0 0 1 0 0 0 0 1 0 0 0 0 1 1 0 0 0 0 0 1 0 0 1 0 0 1 0 0 0 0 0 0 1 1 0 0 0 1 1 0 0 1 0 0 0 0 1 1 0 0 0 0 1 1 0 0 0 0 1 1 0 0 0 1 1 0 0 1 1 0 0 1 1 0 0 1 0 0 0 0 0 0 0 0 0 0 0 0 0 0 0 0 0 0 1 0 0 1 0 0 0 0 0 0 0 0 0 0 0 0 0 0 1 0 0 0 0 0 0 0 0 0 0 0 0 0 0 1 0 0 0 0 0 0 0 0 0 0 0 0 0 0 0 0 0 0 0 0 1 0 0 0 0 0 0 0 0 0 0 0 0 0 0 0 0 1 0 0 0 0 0 0 0 0 0 0 0 0 0 0 0 0 0 0 0 0 1 0 0 0 0 0 0 0z"/>
    <path class="fil1" d="M295 926c-19,-13 -21,-38 -6,-55l97 -121c17,-21 37,-30 61,-13 10,7 21,16 31,24 52,42 103,84 183,62 66,-17 107,-65 121,-120 7,-25 7,-52 2,-77 -6,-26 -17,-51 -35,-72 -90,-95 -177,-45 -274,-74 -13,-4 -25,-11 -35,-21 -10,-10 -17,-23 -21,-37 -6,-23 -2,-46 9,-64 10,-18 28,-33 50,-39 43,-11 68,15 100,42 10,8 24,19 38,29 54,43 118,52 166,0 5,-5 33,-43 36,-45 4,-2 10,3 14,6 12,12 29,8 35,-8l20 -81c3,-16 8,-31 -4,-41 -2,-2 -3,-3 -5,-5l18 -23 32 1c5,0 9,-4 10,-9 0,-4 -4,-9 -9,-9l-30 -1 -8 -29c-2,-5 -7,-8 -11,-6 -5,1 -8,6 -7,10l9 32 -4 5 0 0 -14 18c-2,-1 -3,-2 -5,-4 -7,-6 -16,-7 -24,-4 -6,1 -11,4 -16,7l-75 37c-12,7 -18,23 -8,35 7,8 20,8 9,23l-17 22c-18,23 -35,19 -53,7 -13,-9 -25,-19 -37,-29 -54,-42 -101,-80 -188,-57 -45,12 -75,36 -96,73 -54,94 -7,215 96,247 18,5 35,9 53,10 34,3 53,1 85,2 47,0 78,14 96,35 8,10 14,22 16,34 3,13 3,26 0,39 -7,27 -28,50 -60,59 -39,10 -74,-18 -108,-46 -19,-15 -39,-32 -61,-43 -24,-12 -48,-17 -72,-12 -15,2 -29,8 -43,18 -22,16 -40,43 -58,65 -19,25 -92,107 -99,129 -3,9 -4,18 -4,27 0,49 39,88 88,88 19,0 37,-6 51,-17l1 0 0 0 0 0c-10,-5 -15,-9 -25,-14 -5,-4 -10,-7 -15,-10zm518 -664c-8,0 -14,-5 -14,-13 0,-7 5,-13 13,-14 7,0 13,6 13,13 1,8 -5,14 -12,14z"/>
    <path class="fil6" d="M643 810c-58,15 -101,-2 -139,-29 43,34 91,60 157,42 66,-17 107,-65 121,-120 7,-25 7,-52 2,-77 -4,-20 -12,-39 -24,-57 -3,-5 -7,-10 -11,-15 -11,-13 -24,-24 -39,-34 7,7 14,13 20,20 18,22 30,47 35,72 6,26 5,52 -1,77 -15,55 -56,104 -121,121zm156 -475c-38,52 -83,106 -157,73 19,11 40,17 59,18 29,1 57,-10 81,-36 0,0 0,0 0,0 0,0 0,0 0,0 0,0 0,-1 0,-1 3,-2 9,-10 16,-19 9,-11 18,-24 20,-25 4,-2 10,3 14,6 12,12 29,8 35,-8l15 -64c1,-2 -24,71 -51,49 -10,-8 -22,-5 -32,7zm-380 87c-6,-23 -2,-46 9,-64 10,-18 28,-33 50,-39 31,-8 53,3 74,20 -47,-55 -113,-40 -141,3 -24,37 -18,92 38,125 -2,-2 -4,-3 -5,-5 -2,-1 -3,-2 -4,-3 -10,-10 -17,-23 -21,-37zm454 -229l-9 12 14 11 9 -11c-4,1 -13,-6 -14,-12zm-588 684c1,-2 2,-4 4,-6l5 -5 92 -116c16,-19 35,-29 57,-16 -5,-4 -10,-7 -14,-11 -24,-17 -45,-7 -62,14l-90 113 -7 8c0,1 -1,2 -2,3 -11,14 -10,33 3,46 2,2 4,4 6,6 1,0 2,1 2,1 5,3 9,7 14,10 -15,-12 -18,-32 -8,-47z"/>
    <path class="fil7" d="M381 280c22,10 33,15 51,28 2,-19 -2,-38 -9,-56 -16,7 -30,16 -42,28zm248 82c21,-4 41,-15 56,-29 0,0 0,0 0,0 -3,-1 -7,-3 -10,-5 -10,-7 -20,-15 -30,-23 -2,24 -7,38 -16,57zm-41 212c18,0 34,2 47,6 -1,-3 -2,-6 -3,-8 -7,-18 -9,-31 -10,-49 -14,10 -23,24 -31,38 -1,4 -3,8 -5,13 1,0 2,0 2,0zm-76 -1c19,1 33,1 48,1 -10,-18 -13,-33 -17,-54 -15,14 -26,32 -31,53zm-62 -11c11,3 21,6 31,7 -1,-3 -2,-7 -3,-10 -3,-17 -3,-30 -1,-47 -17,10 -29,23 -39,39 -1,2 -2,4 -3,6 5,2 10,4 15,5zm-119 -152c21,-10 36,-13 56,-15 -14,-16 -32,-27 -52,-33 -3,15 -4,30 -4,45 0,1 0,2 0,3zm11 -70c22,0 35,0 55,5 -6,-20 -16,-34 -31,-48 -4,5 -8,12 -12,18 -5,8 -9,17 -12,25zm-39 466c-3,-21 -14,-41 -27,-56 -11,13 -22,26 -33,39 11,1 22,3 30,5 11,3 20,7 30,12zm-15 -70l10 -13c7,-8 14,-17 20,-26 13,16 26,37 29,56 -19,-9 -35,-14 -59,-17zm200 -74c-2,25 -6,39 -15,59 21,-4 40,-15 55,-29 -12,-10 -26,-21 -40,-30l0 0zm56 43c-1,24 -5,39 -13,58 21,-4 39,-16 54,-30 -14,-7 -27,-18 -41,-28zm154 -19c-4,15 -14,29 -28,40 24,1 43,3 62,11 -4,-20 -16,-38 -34,-51zm-126 -365c21,-4 42,-14 58,-28 -14,-11 -27,-21 -41,-30 -3,24 -7,39 -17,58z"/>
   </g>
  </g>
 </g>
</svg>
