<?xml version="1.0" encoding="UTF-8" standalone="no"?>
<!-- Creator: CorelDRAW X7 -->

<svg
   xmlns:dc="http://purl.org/dc/elements/1.1/"
   xmlns:cc="http://creativecommons.org/ns#"
   xmlns:rdf="http://www.w3.org/1999/02/22-rdf-syntax-ns#"
   xmlns:svg="http://www.w3.org/2000/svg"
   xmlns="http://www.w3.org/2000/svg"
   xmlns:sodipodi="http://sodipodi.sourceforge.net/DTD/sodipodi-0.dtd"
   xmlns:inkscape="http://www.inkscape.org/namespaces/inkscape"
   xml:space="preserve"
   width="33.0198mm"
   height="12.6998mm"
   version="1.1"
   style="shape-rendering:geometricPrecision; text-rendering:geometricPrecision; image-rendering:optimizeQuality; fill-rule:evenodd; clip-rule:evenodd"
   viewBox="0 0 3302 1270"
   id="svg3685"
   inkscape:version="0.92.1 r15371"
   sodipodi:docname="scipyla.h.svg"><metadata
     id="metadata3718"><rdf:RDF><cc:Work
         rdf:about=""><dc:format>image/svg+xml</dc:format><dc:type
           rdf:resource="http://purl.org/dc/dcmitype/StillImage" /><dc:title></dc:title></cc:Work></rdf:RDF></metadata><sodipodi:namedview
     pagecolor="#000000"
     bordercolor="#666666"
     borderopacity="1"
     objecttolerance="10"
     gridtolerance="10"
     guidetolerance="10"
     inkscape:pageopacity="0"
     inkscape:pageshadow="2"
     inkscape:window-width="1680"
     inkscape:window-height="986"
     id="namedview3716"
     showgrid="false"
     showguides="false"
     inkscape:zoom="4.5212695"
     inkscape:cx="86.667109"
     inkscape:cy="26.925221"
     inkscape:window-x="0"
     inkscape:window-y="27"
     inkscape:window-maximized="1"
     inkscape:current-layer="Capa_x0020_1" /><defs
     id="defs3687"><style
       type="text/css"
       id="style3689"><![CDATA[
    .fil1 {fill:#0E253F}
    .fil0 {fill:#14365B}
    .fil4 {fill:#FFD43B}
    .fil7 {fill:white}
    .fil2 {fill:white;fill-rule:nonzero}
    .fil5 {fill:#1A0000;fill-opacity:0.200000}
    .fil3 {fill:black;fill-opacity:0.301961}
    .fil6 {fill:black;fill-opacity:0.349020}
   ]]></style><clipPath
       clipPathUnits="userSpaceOnUse"
       id="clipPath523"><path
         d="m 298.252,264.783 h 65.507 v -13.248 h -65.507 z"
         id="path521"
         inkscape:connector-curvature="0" /></clipPath></defs><g
     id="Capa_x0020_1"><metadata
       id="CorelCorpID_0Corel-Layer" /><path
       style="fill:#14365b"
       inkscape:connector-curvature="0"
       id="path3694"
       d="m 640,-2 c 333,1 605,258 632,584 l -508,677 c -42,9 -85,13 -129,13 C 297,1271 22,1007 1,676 L 513,10 C 554,2 596,-2 640,-2 Z"
       class="fil0" /><path
       style="fill:#0e253f"
       inkscape:connector-curvature="0"
       id="path3696"
       d="M 568,44 C 593,27 616,11 640,-2 380,-3 143,155 45,399 11,484 -4,575 1,666 c 1,26 4,52 8,77 11,-23 23,-45 35,-65 12,-19 26,-52 44,-65 24,-16 47,-11 69,6 33,26 113,101 154,105 17,2 25,-10 22,-25 -4,-17 -23,-37 -47,-57 -40,-32 -86,-66 -100,-81 -17,-19 -21,-34 -16,-51 6,-28 34,-70 47,-92 10,-16 22,-33 34,-50 l 0,0 C 334,250 464,111 537,68 l 0,0 31,-24 z"
       class="fil1" /><path
       style="fill:#0e253f"
       inkscape:connector-curvature="0"
       id="path3698"
       d="m 706,1226 c -24,17 -48,33 -71,46 259,1 497,-157 594,-401 33,-82 49,-172 44,-268 -1,-25 -4,-51 -8,-77 -11,23 -22,45 -35,66 l -17,27 c -12,17 -32,58 -48,69 -23,16 -47,11 -68,-5 -34,-27 -114,-102 -155,-106 -17,-1 -25,11 -22,25 4,17 23,38 48,57 39,32 85,66 99,82 26,28 21,48 4,82 -57,121 -237,323 -334,379 l 0,0 -31,24 z"
       class="fil1" /><path
       style="fill:#ffffff;fill-rule:nonzero"
       inkscape:connector-curvature="0"
       id="path3700"
       d="m 1095,286 c -3,-4 -2,-10 2,-13 4,-3 10,-3 13,1 35,46 63,96 84,151 19,53 32,109 36,169 12,163 -44,316 -144,431 C 986,1140 842,1217 679,1228 515,1240 362,1183 247,1084 132,984 56,840 44,676 33,513 89,360 188,245 288,130 431,54 594,42 l 5,0 c 68,-5 134,3 197,20 65,18 127,47 182,86 4,3 5,9 2,13 -3,4 -9,5 -13,2 C 914,126 854,98 791,80 729,63 664,56 597,61 438,72 299,146 203,257 106,369 52,517 63,675 c 11,159 85,298 197,394 111,97 259,151 417,140 159,-11 298,-85 395,-196 96,-112 150,-260 139,-418 -4,-57 -16,-112 -35,-163 -20,-53 -48,-102 -81,-146 z"
       class="fil2" /><path
       style="fill:#000000;fill-opacity:0.30196102"
       inkscape:connector-curvature="0"
       id="path3702"
       d="m 324,510 0,0 c 2,118 35,198 148,233 22,7 44,11 66,12 43,4 67,2 108,2 63,1 147,23 142,95 1,-4 2,-8 2,-13 l 0,0 0,-1 c 0,0 0,-1 0,-2 l 0,0 0,-1 0,0 0,0 c 1,-1 1,-2 1,-3 l 0,0 0,-1 0,0 0,-1 0,0 0,0 0,-2 0,0 0,0 0,0 0,-1 0,0 0,0 0,-1 0,0 0,-1 0,0 0,0 0,-1 0,0 0,-1 0,0 -1,0 0,0 0,-1 0,0 0,-1 0,0 0,-1 0,0 0,0 0,0 0,-1 0,0 0,-1 0,0 0,0 0,-1 0,0 0,0 0,-1 0,0 0,-1 0,0 0,0 0,-1 0,0 -1,-1 0,0 0,-1 0,-1 0,0 0,0 0,-1 0,0 0,0 0,-1 0,0 0,-1 0,0 0,0 0,0 -1,-1 0,-1 0,-1 0,0 0,0 0,-1 0,-1 -1,0 0,-1 0,0 0,-1 0,-1 0,0 0,0 -1,-1 0,-1 0,0 0,-1 -1,-1 0,-1 0,0 0,0 0,0 0,-1 0,0 -1,-1 0,0 0,0 0,0 0,-1 0,-1 -1,0 0,0 0,-1 0,-1 0,-1 -1,0 0,-1 0,-1 -1,0 0,0 0,-1 0,-1 0,0 -1,0 0,-1 0,0 c 0,0 0,-1 -1,-1 l 0,0 0,-1 0,-1 -1,0 0,-1 -1,-1 0,0 0,-1 0,0 -1,-1 0,0 0,0 0,-1 -1,-1 0,0 0,0 -1,-1 0,0 0,0 0,0 -1,-1 0,-1 0,0 0,0 0,0 -1,-1 0,0 0,-1 0,0 -1,0 0,0 0,-1 0,0 -1,0 0,0 0,-1 0,0 -1,-1 0,0 0,0 0,0 -1,-1 0,0 0,-1 0,0 -1,0 0,0 c 0,-1 0,-1 -1,-1 l 0,0 c 0,-1 0,-1 -1,-2 l 0,0 c 0,0 -1,0 -1,-1 l 0,0 -1,-1 0,0 c 0,0 -1,-1 -1,-1 l 0,0 c -1,-1 -1,-1 -1,-1 l 0,0 c -1,-1 -1,-1 -2,-1 l 0,0 c 0,-1 0,-1 -1,-2 l 0,0 c 0,0 -1,0 -1,-1 l 0,0 c -1,0 -1,0 -1,-1 l 0,0 c -1,0 -1,-1 -2,-1 l 0,0 c 0,0 -1,-1 -1,-1 l 0,0 c 0,0 -1,-1 -1,-1 l 0,0 c -1,0 -1,-1 -2,-1 l 0,0 c 0,0 -1,-1 -1,-1 l 0,0 c -1,0 -1,-1 -2,-1 l 0,0 c 0,0 -1,-1 -1,-1 l 0,0 c -1,0 -1,-1 -2,-1 l 0,0 c 0,0 -1,-1 -1,-1 l 0,0 c -1,0 -1,-1 -2,-1 l 0,0 c 0,0 -1,-1 -1,-1 l 0,0 c -1,0 -1,-1 -2,-1 l 0,0 c 0,0 -1,-1 -1,-1 l 0,0 c -1,0 -1,0 -2,-1 l 0,0 c -1,0 -1,0 -2,-1 l 0,0 c 0,0 -1,0 -1,0 l 0,0 c -1,-1 -1,-1 -2,-1 l 0,0 c -1,-1 -1,-1 -2,-1 l 0,0 c 0,0 -1,-1 -2,-1 l 0,0 c 0,0 -1,0 -1,-1 l 0,0 c -1,0 -2,0 -2,0 l 0,0 c -1,-1 -1,-1 -2,-1 l 0,0 c -1,0 -1,-1 -2,-1 l 0,0 c -1,0 -1,0 -2,-1 l 0,0 c 0,0 -1,0 -2,0 l 0,0 c 0,-1 -1,-1 -2,-1 l 0,0 -2,-1 0,0 c 0,0 -1,0 -2,0 l 0,0 c 0,-1 -1,-1 -2,-1 l 0,0 c 0,0 -1,0 -2,-1 l 0,0 c -1,0 -1,0 -2,0 l 0,0 c -1,0 -1,0 -2,-1 l 0,0 c -1,0 -1,0 -2,0 l 0,0 c -1,0 -2,0 -2,-1 l 0,0 c -1,0 -2,0 -3,0 l 0,0 c 0,0 -1,0 -2,-1 l 0,0 -2,0 0,0 c -1,0 -2,0 -2,0 l 0,0 c -1,-1 -2,-1 -3,-1 l 0,0 c 0,0 -1,0 -2,0 l 0,0 c -1,0 -2,0 -2,-1 l 0,0 c -1,0 -2,0 -3,0 l 0,0 c 0,0 -1,0 -2,0 l 0,0 c -1,0 -2,0 -3,0 l 0,0 -2,-1 0,0 c -1,0 -2,0 -3,0 l 0,0 c 0,0 -1,0 -2,0 l 0,0 c -1,0 -2,0 -3,0 l 0,0 c 0,0 -1,0 -2,0 l 0,0 c -1,-1 -2,-1 -3,-1 l 0,0 c -1,0 -2,0 -2,0 l 0,0 c -1,0 -2,0 -3,0 l 0,0 c -1,0 -2,0 -3,0 l 0,0 c -1,0 -2,0 -3,0 l 0,0 -1,0 0,0 -2,0 0,0 -2,0 0,0 -2,0 0,0 -2,0 -2,0 0,0 -1,0 -2,0 0,0 -2,0 -2,0 0,0 -1,0 -2,0 -2,0 -1,0 -2,0 0,0 -1,0 0,0 -2,0 -2,0 0,0 -1,0 0,0 -2,0 0,0 -1,0 -2,0 -1,0 0,0 -2,0 0,0 -2,0 0,0 -1,0 0,0 -2,0 -1,0 -2,0 -1,0 0,0 -2,0 0,0 -1,0 -2,0 0,0 -1,0 0,0 -2,0 0,0 -1,0 -2,0 0,0 -2,0 -1,0 0,0 -2,0 0,0 -1,0 0,0 -2,0 0,0 -2,0 0,0 -1,0 0,0 -2,0 0,0 -1,0 0,0 -2,0 -2,0 0,0 -1,0 0,0 -2,0 0,0 -2,-1 0,0 -2,0 -1,0 0,0 -2,0 0,0 -2,0 0,0 -2,0 0,0 -2,0 0,0 -1,0 -2,0 0,0 -2,0 0,0 -2,-1 0,0 -2,0 0,0 -2,0 0,0 -2,0 0,0 -1,0 0,0 -1,0 0,0 -1,0 0,0 -1,0 0,0 -1,0 0,0 -1,-1 -1,0 0,0 -1,0 0,0 -2,0 0,0 -1,0 -1,0 0,0 -1,0 0,0 -1,0 -1,0 -1,-1 -2,0 0,0 -1,0 0,0 -1,0 -1,0 0,0 -1,0 c -1,-1 -2,-1 -3,-1 l -1,0 0,0 -1,0 -1,0 0,0 -1,-1 -1,0 -1,0 0,0 -1,0 -2,0 0,0 -1,-1 0,0 -1,0 0,0 -1,0 -1,0 0,0 -1,0 0,0 -1,-1 -1,0 -1,0 0,0 -1,0 0,0 -2,-1 -1,0 -1,0 0,0 -1,0 0,0 -1,-1 -1,0 -1,0 0,0 -1,0 0,0 -1,-1 -1,0 -1,0 -1,0 -1,-1 -1,0 0,0 -1,0 -1,0 -1,-1 -1,0 -1,0 0,0 -1,-1 -1,0 -1,0 c -2,-1 -3,-1 -5,-2 l -2,-1 c -1,0 -3,-1 -4,-1 l -1,0 c -2,-1 -4,-2 -5,-2 l -2,-1 c -1,-1 -2,-1 -4,-2 l -1,0 c -1,-1 -3,-2 -5,-2 l -1,-1 c -1,-1 -3,-1 -4,-2 l -1,-1 c -2,0 -3,-1 -5,-2 l -1,-1 c -1,0 -2,-1 -4,-2 l -1,-1 c -1,0 -3,-1 -4,-2 l -1,-1 c -1,-1 -3,-1 -4,-2 l -1,-1 c -2,-1 -3,-2 -4,-3 l -1,0 c -1,-1 -2,-2 -4,-3 l -1,-1 c -1,-1 -2,-2 -3,-3 l -1,-1 c -2,-1 -3,-2 -4,-3 l -1,-1 c -1,-1 -2,-2 -3,-2 l -1,-1 c -2,-2 -3,-3 -4,-4 l -1,-1 c -1,-1 -2,-2 -3,-3 l -1,-1 c -1,-1 -2,-2 -3,-3 l -1,-1 c -1,-1 -2,-2 -3,-3 l -1,-1 c -1,-2 -2,-3 -3,-4 l -1,-1 c -1,-1 -2,-2 -3,-3 l -1,-2 c -1,-1 -1,-2 -2,-3 0,0 -1,0 -1,-1 -1,-1 -2,-2 -3,-4 l -1,-1 c -1,-1 -1,-2 -2,-3 l -1,-1 c -1,-2 -1,-3 -2,-4 l -1,-2 c -1,-1 -1,-2 -2,-3 l -1,-2 c -1,-1 -2,-2 -2,-4 -1,0 -1,-1 -1,-1 -1,-1 -1,-2 -2,-3 l -1,-2 c 0,-1 -1,-2 -1,-3 -1,-1 -1,-2 -2,-3 0,-1 -1,-2 -1,-3 l -1,-2 c 0,-1 -1,-2 -1,-3 -1,-1 -1,-1 -1,-2 -1,-1 -1,-2 -2,-4 0,0 0,-1 0,-2 -1,-1 -1,-2 -1,-2 -1,-1 -1,-2 -1,-2 -1,-2 -1,-3 -2,-5 0,0 0,-1 0,-2 -1,-1 -1,-2 -1,-2 0,-1 -1,-2 -1,-3 0,-1 -1,-2 -1,-4 0,-1 0,-1 -1,-2 0,-1 0,-2 0,-3 -1,-1 -1,-1 -1,-2 0,-1 -1,-3 -1,-4 0,-1 0,-2 0,-3 -1,-1 -1,-1 -1,-2 0,-1 0,-2 0,-3 -1,-1 -1,-2 -1,-3 0,-1 0,-2 0,-3 -1,-1 -1,-2 -1,-3 0,-1 0,-2 0,-3 0,0 0,-1 0,-2 -1,-1 -1,-2 -1,-3 0,-2 0,-3 0,-4 0,-1 0,-1 0,-2 0,-1 0,-2 0,-3 -1,-1 -1,-2 -1,-2 l 0,0 z m -29,663 c -12,-17 -9,-34 0,-52 3,-5 7,-10 11,-15 4,-6 8,-11 13,-17 29,-32 72,-93 100,-115 l 1,-1 0,0 0,0 0,-1 1,0 0,0 1,-1 0,0 1,0 0,0 0,0 1,-1 0,0 0,0 1,-1 0,0 1,0 0,0 1,-1 0,0 0,0 0,0 1,0 c 0,0 1,-1 1,-1 l 0,0 1,0 0,0 1,-1 0,0 0,0 0,0 1,0 0,0 1,0 0,0 c 0,-1 1,-1 1,-1 l 0,0 1,0 0,0 1,0 0,0 c 0,-1 1,-1 2,-1 l 0,0 c 1,0 1,0 2,0 l 0,0 1,0 0,0 c 8,-1 16,1 24,6 l 0,0 c 13,7 26,19 43,33 49,38 121,88 213,77 153,-18 290,-194 142,-367 l 0,1 1,0 0,0 0,0 0,0 0,0 0,0 0,0 0,0 0,0 0,1 0,0 0,0 0,0 0,0 c 1,1 1,1 2,2 l 0,0 c 6,10 11,20 16,31 l 0,1 c 5,11 8,22 11,34 l 0,0 c 0,0 0,1 0,2 1,1 1,2 1,3 l 0,0 c 0,1 0,2 1,3 l 0,0 c 0,1 0,2 0,3 l 0,0 0,1 0,0 c 1,1 1,2 1,3 l 0,0 c 0,2 0,3 0,5 l 0,0 c 1,1 1,3 1,4 l 0,0 c 0,1 0,2 0,3 l 0,0 0,2 0,2 0,0 1,1 0,0 c 0,1 0,2 0,3 l 0,0 0,2 c 0,1 0,2 0,3 l 0,0 c 0,1 0,2 0,3 l 0,0 c 0,1 0,3 0,4 l 0,2 0,0 0,1 0,0 0,2 0,1 0,2 0,0 0,1 0,0 0,2 -1,1 0,2 0,1 0,2 0,2 0,1 0,2 -1,1 0,2 0,1 0,2 0,1 -1,2 0,1 0,2 0,0 0,1 0,0 -1,2 0,1 0,2 0,0 0,1 0,0 -1,2 0,0 0,1 0,0 0,2 0,0 -1,1 0,0 0,2 0,0 0,1 0,0 -1,2 0,0 c 0,1 0,2 -1,3 l 0,0 c 0,1 0,2 -1,3 l 0,0 c 0,1 0,2 -1,3 l 0,0 c 0,2 -1,4 -2,7 0,1 0,2 -1,3 0,1 0,2 -1,3 0,1 -1,2 -1,3 -1,1 -1,2 -1,3 -1,2 -2,4 -3,6 0,1 -1,2 -1,3 l 0,0 c -1,1 -1,2 -2,3 0,1 -1,2 -1,3 l 0,0 c -1,2 -2,4 -4,6 -1,2 -2,4 -3,6 l 0,0 c 0,1 -1,2 -2,3 l 0,0 c 0,1 -1,2 -1,3 -1,1 -2,2 -2,3 -1,2 -3,4 -4,5 -1,1 -1,2 -2,3 l 0,0 c -1,1 -1,2 -2,3 -1,1 -1,2 -2,3 -1,0 -2,1 -2,2 l 0,0 c -1,1 -2,2 -2,3 -1,1 -2,2 -3,2 l 0,0 c 0,1 -1,2 -2,3 l 0,0 c -1,1 -2,2 -2,3 -1,0 -2,1 -3,2 l 0,0 c 0,1 -1,2 -2,3 l 0,0 c -1,0 -2,1 -3,2 0,1 -1,2 -2,2 -1,1 -2,2 -3,3 0,1 -1,1 -2,2 -1,1 -2,2 -3,2 -1,1 -2,2 -3,3 l 0,0 c 0,0 -1,1 -2,2 -1,1 -2,1 -3,2 l 0,0 c -1,1 -2,1 -3,2 -1,1 -2,2 -3,2 -1,1 -2,2 -3,2 -1,1 -2,2 -3,2 l 0,0 c -1,1 -2,2 -3,2 -1,1 -2,1 -3,2 l 0,0 c -1,1 -2,1 -3,2 l 0,0 c -1,1 -2,1 -3,2 -1,0 -2,1 -3,2 -1,0 -2,1 -3,1 l 0,0 c -2,1 -3,1 -4,2 l 0,0 c -1,1 -2,1 -3,2 l 0,0 c -1,0 -2,1 -3,1 -2,1 -3,1 -4,2 l 0,0 c -1,0 -2,1 -3,1 l 0,0 c -2,1 -3,1 -4,2 l 0,0 c -1,0 -2,1 -3,1 l 0,0 c -2,0 -3,1 -4,1 l 0,0 c -1,1 -2,1 -4,2 -1,0 -2,0 -3,1 l 0,0 c -2,0 -3,1 -4,1 l 0,0 c -1,0 -3,1 -4,1 l 0,0 c -1,0 -2,1 -4,1 l 0,0 c -1,1 -3,1 -4,1 l 0,0 c -2,1 -3,1 -5,1 l 0,0 c -2,1 -3,1 -5,1 l 0,0 c -1,1 -3,1 -4,1 l 0,0 c -2,1 -3,1 -5,1 l 0,0 c -1,0 -3,0 -4,1 l 0,0 c -2,0 -3,0 -4,0 l 0,0 c -2,0 -3,0 -5,1 l 0,0 c -1,0 -3,0 -4,0 -1,0 -3,0 -4,0 -2,0 -3,0 -5,0 -1,0 -2,0 -4,0 -1,0 -2,0 -4,0 -1,0 -3,0 -4,0 -1,0 -3,0 -4,0 -1,0 -3,0 -4,0 -1,-1 -3,-1 -4,-1 -1,0 -3,0 -4,0 l 0,0 c -1,-1 -2,-1 -4,-1 l 0,0 c -1,0 -2,0 -4,-1 -1,0 -2,0 -3,0 -2,-1 -3,-1 -4,-1 -1,0 -3,-1 -4,-1 -1,0 -2,-1 -4,-1 l 0,0 c -1,0 -2,-1 -3,-1 -1,0 -3,-1 -4,-1 -1,-1 -2,-1 -4,-1 -1,-1 -2,-1 -3,-2 -1,0 -2,-1 -4,-1 -1,0 -2,-1 -3,-1 -1,-1 -3,-1 -4,-2 -1,0 -2,-1 -3,-1 -1,-1 -2,-1 -4,-2 l 0,0 c -1,0 -2,-1 -3,-2 -1,0 -2,-1 -3,-1 -2,-1 -3,-1 -4,-2 l 0,0 c -1,-1 -2,-1 -3,-2 l 0,0 c -1,0 -2,-1 -3,-2 l 0,0 c -2,0 -3,-1 -4,-1 -1,-1 -2,-2 -3,-2 -1,-1 -2,-2 -3,-2 -1,-1 -2,-2 -4,-2 -2,-2 -4,-3 -6,-4 -1,-1 -2,-2 -3,-2 -1,-1 -2,-2 -3,-3 l 0,0 c -1,0 -2,-1 -4,-2 -1,-1 -2,-1 -3,-2 l 0,0 c -1,-1 -2,-2 -3,-2 l 0,0 c -1,-1 -2,-2 -3,-3 l 0,0 c -1,0 -2,-1 -3,-2 l 0,0 c -2,-1 -4,-3 -6,-4 l -3,-3 0,0 c -3,-2 -6,-5 -9,-7 l 0,0 c -2,-2 -4,-3 -6,-5 l -1,0 c -2,-1 -4,-3 -6,-5 l 0,0 c -3,-2 -6,-5 -9,-7 l -2,-2 0,0 -3,-3 0,0 c -30,-26 -61,-59 -99,-21 l -1,1 0,0 c -1,1 -1,1 -2,1 l 0,0 -1,1 0,0 -1,1 0,0 -1,1 0,0 -1,2 0,0 -1,1 0,0 -1,1 0,0 -1,1 0,0 -1,1 0,0 -1,1 0,0 -13,17 0,0 -102,127 -1,1 -6,7 c -2,3 -3,5 -5,7 -1,1 -1,2 -2,4 0,0 0,0 0,0 0,0 0,0 0,0 -8,16 -6,34 5,48 l 13,12 13,9 z M 466,579 c -49,-85 31,-170 110,-125 46,26 79,69 121,92 63,34 150,42 215,-84 l 0,0 0,0 -1,1 0,0 0,0 0,1 -1,0 0,1 0,0 -1,0 0,1 0,0 -1,1 0,0 0,0 -1,1 0,0 0,1 -1,0 0,0 0,1 -2,2 0,1 0,0 -1,0 -1,1 0,1 0,0 0,0 -1,1 0,0 0,0 0,1 -1,0 0,0 0,1 0,0 -1,0 0,1 0,0 0,0 -1,0 0,1 0,0 0,0 -1,1 0,0 0,0 0,0 0,0 -1,1 0,0 0,0 0,1 0,0 -1,0 0,0 0,1 0,0 0,0 0,0 -1,0 0,0 0,1 0,0 0,0 0,0 -1,1 0,0 0,0 0,0 0,0 0,0 -1,1 0,0 0,0 0,0 0,0 0,0 0,0 0,0 -1,1 c -67,61 -136,50 -202,6 -1,-1 -2,-1 -3,-2 -7,-5 -12,-10 -16,-14 -9,-7 -16,-12 -27,-20 -3,-3 -5,-5 -8,-7 l 0,0 C 596,420 567,389 519,397 l 0,0 c -1,0 -1,1 -2,1 l -1,0 c 0,0 -1,0 -2,0 l -1,1 -1,0 c -1,0 -2,0 -3,0 l -1,1 -1,0 -2,1 -1,0 -1,0 -1,1 -2,0 -1,1 -1,0 -1,1 -2,0 -1,1 -1,0 -1,1 -1,0 -2,1 -1,1 -1,0 -1,1 -1,0 -1,1 -1,1 -2,0 -1,1 -1,1 -1,0 -1,1 0,0 -1,1 -1,1 -1,0 0,0 -1,1 0,0 -1,1 -1,1 -1,0 0,0 -1,1 0,0 -1,1 -1,1 -1,1 -1,1 0,0 -1,0 0,0 -1,1 -1,1 -1,1 0,0 0,1 -1,1 0,0 c -2,1 -3,3 -4,5 l -1,1 -1,1 0,0 -1,1 -1,1 c 0,0 -1,1 -1,2 -1,1 -1,2 -2,3 l 0,0 c -1,0 -1,1 -2,2 l 0,0 c 0,1 -1,2 -1,3 -1,1 -2,2 -2,3 l 0,0 c -2,4 -4,9 -6,13 0,1 -1,2 -1,2 l 0,0 0,2 0,0 -1,1 c 0,1 0,1 0,2 l -1,1 0,2 0,0 0,1 -1,1 0,0 0,1 0,1 -1,2 0,0 0,1 0,0 0,1 0,0 0,2 0,0 0,1 -1,1 0,0 0,1 0,0 0,2 0,1 0,1 0,1 0,2 0,1 0,1 0,0 -1,2 0,1 0,1 0,0 0,1 0,0 0,2 0,1 0,0 1,1 0,2 0,0 0,1 0,1 0,2 0,1 0,1 0,2 1,1 0,0 0,1 0,2 0,1 1,1 0,2 0,1 0,1 1,2 0,1 0,1 1,1 0,0 0,1 0,1 1,1 0,1 0,0 0,1 0,0 0,0 1,1 0,1 0,0 0,1 0,0 0,1 0,0 1,0 0,0 0,1 0,0 0,1 1,1 0,0 0,1 0,0 0,0 0,0 1,1 0,0 0,1 0,0 0,1 1,1 0,0 1,1 0,1 0,1 0,0 1,0 0,1 0,0 1,1 0,0 0,1 0,0 1,1 0,0 0,1 1,0 0,1 0,0 0,1 0,0 1,1 0,0 0,0 1,1 0,0 0,1 0,0 1,0 0,1 0,0 1,1 0,0 0,0 1,1 0,0 0,1 0,0 1,0 0,1 1,1 0,0 0,0 1,1 0,1 0,0 1,0 0,1 0,0 1,1 0,0 1,1 0,0 1,1 0,1 1,0 1,1 0,0 0,1 0,0 0,0 0,0 0,0 0,0 1,0 0,0 0,0 0,1 0,0 0,0 0,0 0,0 0,0 1,0 0,0 0,0 0,0 0,1 0,0 0,0 0,0 0,0 0,0 1,0 0,0 0,0 0,0 0,0 0,0 0,0 0,0 0,0 0,1 0,0 0,0 0,0 0,0 0,0 1,0 0,0 0,0 0,0 0,0 0,0 0,0 0,0 0,0 0,1 0,0 0,0 0,0 0,0 0,0 1,0 0,0 0,0 0,0 z"
       class="fil3" /><path
       style="fill:#ffd43b"
       inkscape:connector-curvature="0"
       id="path3704"
       d="m 279,1162 c -25,-17 -27,-47 -8,-69 L 393,941 c 22,-26 47,-38 77,-17 13,9 26,20 39,31 65,52 130,105 230,78 82,-22 134,-82 152,-151 8,-32 9,-65 2,-97 -6,-33 -21,-64 -44,-91 -113,-119 -222,-56 -343,-92 -17,-5 -33,-15 -45,-28 -12,-12 -21,-28 -26,-46 -7,-28 -3,-57 11,-80 13,-23 35,-41 63,-49 55,-14 85,19 126,53 13,10 30,23 47,37 68,54 148,65 209,-1 7,-6 41,-54 45,-56 6,-3 14,4 18,8 15,14 36,9 44,-11 l 25,-102 c 4,-20 11,-38 -5,-51 -2,-3 -4,-5 -7,-7 l 23,-29 41,2 c 6,0 11,-5 12,-11 0,-6 -5,-11 -11,-11 l -38,-2 -10,-37 c -2,-6 -8,-9 -14,-8 -6,2 -10,8 -8,14 l 11,39 -5,7 0,0 -18,23 c -2,-2 -4,-3 -6,-5 -9,-8 -20,-9 -31,-6 -7,2 -13,6 -19,9 l -94,47 c -16,8 -23,29 -11,44 10,11 26,10 11,29 l -21,27 c -22,29 -44,24 -67,9 -16,-11 -31,-24 -46,-36 -67,-53 -127,-101 -236,-71 -57,15 -94,44 -121,91 -68,118 -9,271 121,311 22,6 43,10 66,12 43,3 67,2 107,2 59,0 98,19 120,45 11,13 18,27 21,43 4,16 3,32 -1,48 -8,34 -34,64 -75,75 -48,12 -92,-23 -135,-58 -24,-20 -49,-41 -77,-55 -29,-15 -60,-21 -91,-15 -18,3 -36,11 -53,23 -29,21 -51,55 -73,82 -25,31 -116,134 -125,163 -3,10 -5,22 -5,33 0,61 49,111 110,111 25,0 47,-8 65,-21 l 0,0 1,-1 0,0 c -13,-6 -19,-10 -31,-18 -7,-4 -13,-8 -19,-12 z M 929,327 c -9,1 -16,-7 -17,-16 0,-9 7,-17 16,-17 10,0 17,7 18,16 0,9 -7,17 -17,17 z"
       class="fil4" /><path
       style="fill:#1a0000;fill-opacity:0.2"
       inkscape:connector-curvature="0"
       id="path3706"
       d="m 716,1016 c -72,19 -126,-2 -175,-36 55,42 114,75 198,53 82,-22 134,-82 152,-151 8,-32 9,-65 2,-97 -5,-25 -15,-49 -30,-72 -4,-6 -9,-12 -14,-19 -14,-16 -30,-30 -49,-42 10,8 18,16 26,25 23,27 37,58 44,91 7,32 6,65 -2,97 -18,69 -70,129 -152,151 z M 913,419 c -48,66 -105,133 -198,92 24,14 50,22 75,22 36,1 71,-12 101,-45 0,0 0,0 0,0 0,0 0,0 0,0 0,0 0,0 0,0 3,-3 12,-14 20,-25 11,-14 23,-30 25,-31 6,-3 13,4 18,8 15,14 36,9 44,-11 l 19,-80 c 1,-3 -31,89 -64,62 -13,-10 -28,-7 -40,8 z M 435,528 c -7,-28 -3,-57 11,-80 13,-23 35,-41 63,-49 39,-10 66,4 93,25 -59,-69 -143,-50 -177,5 -30,46 -22,115 47,156 -2,-2 -4,-4 -6,-6 -2,-1 -3,-3 -5,-5 -12,-12 -21,-28 -26,-46 z m 570,-287 -11,15 17,13 12,-14 c -5,1 -16,-7 -18,-14 z m -739,859 c 1,-2 3,-4 5,-6 l 6,-8 116,-145 c 20,-24 44,-37 71,-20 -6,-5 -11,-9 -17,-14 -30,-21 -56,-9 -77,17 l -114,142 -8,11 c -1,1 -2,2 -3,3 -14,19 -12,42 3,59 3,2 5,4 8,7 1,0 2,1 3,1 5,4 11,9 17,13 -19,-16 -23,-40 -10,-60 z"
       class="fil5" /><path
       style="fill:#000000;fill-opacity:0.34902003"
       inkscape:connector-curvature="0"
       id="path3708"
       d="m 387,349 c 28,13 42,20 64,36 3,-24 -3,-47 -11,-71 -21,9 -38,21 -53,35 z m 312,104 c 26,-5 51,-18 70,-36 0,0 0,0 0,0 -4,-2 -8,-4 -13,-7 -13,-9 -25,-19 -37,-29 -3,30 -9,48 -20,72 z m -52,266 c 23,0 42,3 59,8 -1,-4 -3,-7 -4,-10 -9,-22 -11,-39 -13,-62 -16,13 -29,30 -37,49 -3,5 -5,10 -7,15 1,0 2,0 2,0 z m -95,-1 c 23,1 41,1 60,1 -12,-23 -17,-41 -21,-68 -19,19 -33,41 -39,67 z m -78,-13 c 13,4 26,7 38,9 -1,-5 -2,-9 -3,-13 -4,-21 -4,-38 -2,-59 -20,12 -36,29 -48,48 -2,3 -3,5 -5,8 7,2 13,5 20,7 z M 325,513 c 26,-12 44,-16 70,-19 -18,-20 -41,-33 -66,-41 -4,19 -5,38 -5,57 0,1 1,2 1,3 z m 13,-88 c 28,1 43,0 69,6 -8,-24 -20,-42 -39,-60 -5,7 -11,15 -15,23 -6,11 -11,21 -15,31 z m -49,586 c -4,-26 -18,-51 -34,-70 -14,16 -27,33 -41,49 13,2 27,3 38,6 13,4 24,8 37,15 z m -20,-87 14,-17 c 8,-10 17,-21 25,-32 16,19 32,45 36,70 -24,-12 -44,-18 -75,-21 z m 253,-94 c -3,32 -8,50 -20,74 27,-5 51,-18 70,-36 -16,-13 -32,-27 -50,-38 l 0,0 z m 70,54 c -1,31 -6,49 -17,74 27,-6 50,-20 69,-39 -18,-9 -35,-22 -52,-35 z m 194,-24 c -6,19 -18,37 -35,51 30,1 53,4 77,14 -5,-26 -20,-48 -42,-65 z M 627,401 c 27,-4 53,-18 73,-35 -17,-13 -34,-26 -52,-37 -3,30 -9,48 -21,72 z"
       class="fil6" /><path
       style="fill:#ffffff"
       inkscape:connector-curvature="0"
       id="path3710"
       d="m 1707,560 c 0,35 -13,63 -39,83 -26,20 -59,30 -99,30 -32,0 -62,-9 -92,-26 -14,-9 -27,-22 -36,-38 -9,-17 -14,-36 -14,-57 l 66,-3 c 0,18 8,33 24,44 16,10 34,15 53,15 44,0 66,-15 66,-46 0,-25 -15,-40 -45,-44 l -60,-6 c -31,-5 -55,-16 -73,-33 -17,-17 -26,-42 -26,-74 0,-32 12,-58 38,-79 25,-21 57,-32 96,-32 39,0 71,10 94,30 24,20 36,45 36,76 l -65,3 c -6,-30 -26,-45 -61,-45 -22,0 -38,4 -50,13 -12,9 -18,20 -18,32 0,13 4,23 13,30 9,7 19,11 32,13 l 60,6 c 66,9 100,45 100,108 z m 1238,110 -82,0 c -73,0 -89,-21 -89,-91 l 0,-281 73,0 0,268 c 0,22 7,39 31,39 l 88,0 -21,65 z m 355,0 -76,0 -21,-64 -116,0 -21,64 -75,0 114,-341 c 5,-12 12,-20 18,-24 6,-5 14,-7 24,-7 9,0 17,2 22,6 6,4 12,13 16,25 l 115,341 z m -114,-125 -39,-148 -42,148 81,0 z m -1265,16 61,-1 c 0,3 0,8 -1,15 0,8 0,13 -1,15 0,3 0,7 -1,13 -1,5 -1,9 -2,12 -1,2 -2,6 -4,10 -6,18 -23,33 -51,43 -18,6 -36,9 -56,9 -19,0 -36,-3 -52,-9 -16,-6 -28,-14 -37,-24 -21,-22 -31,-62 -31,-122 0,-59 10,-100 31,-121 9,-10 21,-18 37,-24 16,-7 33,-10 52,-10 38,0 66,10 86,28 19,19 29,45 29,79 l -61,0 c 0,-15 -4,-27 -12,-34 -8,-8 -22,-12 -43,-12 -20,0 -34,7 -41,20 -7,13 -10,32 -10,58 l 0,27 c 0,41 8,67 24,76 7,5 17,7 29,7 12,0 21,-1 29,-3 7,-3 13,-6 16,-12 3,-6 5,-11 6,-17 2,-5 2,-13 3,-23 z m 153,-304 c 16,0 27,3 32,8 5,5 7,16 7,32 0,16 -2,27 -8,32 -5,5 -15,7 -31,7 -17,0 -27,-2 -32,-8 -5,-5 -8,-15 -8,-31 0,-17 3,-27 8,-32 5,-5 15,-8 32,-8 z m 33,413 -68,0 0,-288 68,0 0,288 z"
       class="fil7" /><path
       style="fill:#ffd43b"
       inkscape:connector-curvature="0"
       id="path3712"
       d="m 2410,330 c 22,21 32,53 32,94 0,42 -10,73 -32,95 -21,21 -51,32 -91,32 l -71,0 0,119 -73,0 0,-372 144,0 c 40,0 70,10 91,32 z m -40,94 c 0,-41 -18,-62 -54,-62 l -68,0 0,123 68,0 c 17,0 31,-4 40,-14 9,-9 14,-25 14,-47 z m 355,-53 -113,332 c -5,15 -12,27 -21,36 -13,13 -33,20 -58,20 l -48,0 0,-61 37,0 c 10,0 17,-1 22,-5 4,-3 8,-10 12,-19 l 5,-15 -90,-288 72,0 53,208 58,-208 71,0 z"
       class="fil4" /><g
       transform="matrix(28.485371,0,0,-28.485371,-6996.9443,8244.1563)"
       id="g517"><g
         id="g519" /><g
         id="g531"><g
           clip-path="url(#clipPath523)"
           id="g529"><g
             aria-label="Curitiba, 2018"
             transform="matrix(1,0,0,-1,298.252,254.5352)"
             style="font-variant:normal;font-weight:normal;font-stretch:condensed;font-size:12px;font-family:'Helvetica LT Std Cond';-inkscape-font-specification:HelveticaLTStd-Cond;writing-mode:lr-tb;fill:#ffffff;fill-opacity:1;fill-rule:nonzero;stroke:none"
             id="text527"><g
               aria-label="Curitiba, 2018"
               style="font-style:normal;font-weight:normal;font-size:9.52832699px;line-height:125%;font-family:Sans;letter-spacing:0px;word-spacing:0px;fill:#000000;fill-opacity:1;stroke:none;stroke-width:0.23820817px;stroke-linecap:butt;stroke-linejoin:miter;stroke-opacity:1"
               id="text53"><path
                 d="m 8.3116892,-7.2264201 v 0.9909832 Q 7.8836589,-6.6774247 7.3997985,-6.8960924 6.9159382,-7.11476 6.3715953,-7.11476 q -1.0700758,0 -1.6423337,0.730443 -0.5676055,0.7257905 -0.5676055,2.1029315 0,1.3724885 0.5676055,2.1029316 0.5722579,0.7257905 1.6423337,0.7257905 0.5443429,0 1.0282032,-0.2186677 0.4838604,-0.2186676 0.9118907,-0.6606554 v 0.9816782 q -0.4419878,0.3349802 -0.9398057,0.50247035 -0.4978179,0.16749013 -1.0468133,0.16749013 -1.423666,0 -2.2378541,-0.96306818 -0.8141881,-0.9677207 -0.8141881,-2.6379695 0,-1.6749012 0.8141881,-2.6379694 0.8141881,-0.9677207 2.2378541,-0.9677207 0.5583004,0 1.0561183,0.1674901 0.4978179,0.1628376 0.9305007,0.4931654 z"
                 style="fill:#ffffff;stroke-width:0.23820817px"
                 id="path99" /><path
                 d="m 9.5120352,-2.8716769 v -3.1543973 h 0.7676628 v 3.1218297 q 0,0.7397481 0.26054,1.1119484 0.260541,0.3675477 0.776968,0.3675477 0.628088,0 0.986331,-0.4419878 0.362895,-0.4419878 0.362895,-1.2049984 v -2.9543396 h 0.772316 v 5.21080378 H 12.666432 V -1.615501 q -0.27915,0.4745553 -0.65135,0.70718051 -0.367548,0.22797267 -0.860713,0.22797267 -0.804883,0 -1.2236085,-0.55830038 -0.4187253,-0.5583004 -0.4187253,-1.6330287 z m 1.9354418,-3.2800149 z"
                 style="fill:#ffffff;stroke-width:0.23820817px"
                 id="path101" /><path
                 d="m 17.742313,-5.2258437 q -0.13027,-0.083745 -0.283802,-0.120965 -0.153533,-0.041873 -0.334981,-0.041873 -0.656003,0 -1.00494,0.4745554 -0.348938,0.4699028 -0.348938,1.3538785 v 2.74497698 H 14.992684 V -6.0260742 h 0.776968 v 0.8095355 q 0.24193,-0.4745553 0.63274,-0.702528 0.390811,-0.2326251 0.944458,-0.2326251 0.07909,0 0.176796,0.013958 0.0977,0.00931 0.214015,0.032567 z"
                 style="fill:#ffffff;stroke-width:0.23820817px"
                 id="path103" /><path
                 d="m 18.542544,-6.0260742 h 0.767663 v 5.21080378 h -0.767663 z m 0,-2.0284915 h 0.767663 v 1.0840333 h -0.767663 z"
                 style="fill:#ffffff;stroke-width:0.23820817px"
                 id="path105" /><path
                 d="m 21.687636,-7.5055703 v 1.4794961 h 1.586503 v 0.6653079 h -1.586503 v 2.8287221 q 0,0.637393 0.153532,0.8188406 0.158186,0.1814477 0.637393,0.1814477 h 0.795578 v 0.71648548 h -0.795578 q -0.888628,0 -1.228261,-0.36754778 -0.339632,-0.3722003 -0.339632,-1.349226 v -2.8287221 h -0.562953 v -0.6653079 h 0.562953 v -1.4794961 z"
                 style="fill:#ffffff;stroke-width:0.23820817px"
                 id="path107" /><path
                 d="m 24.293039,-6.0260742 h 0.767663 v 5.21080378 h -0.767663 z m 0,-2.0284915 h 0.767663 v 1.0840333 h -0.767663 z"
                 style="fill:#ffffff;stroke-width:0.23820817px"
                 id="path109" /><path
                 d="m 30.038879,-3.4160198 q 0,-0.9444582 -0.348938,-1.4794961 -0.348937,-0.5396904 -0.958415,-0.5396904 -0.614131,0 -0.963068,0.5396904 -0.348938,0.5350379 -0.348938,1.4794961 0,0.9444582 0.348938,1.4841486 0.348937,0.5350378 0.963068,0.5350378 0.609478,0 0.958415,-0.5350378 0.348938,-0.5396904 0.348938,-1.4841486 z M 27.41952,-5.2351487 q 0.24193,-0.4652503 0.609478,-0.6885705 0.3722,-0.2279726 0.888628,-0.2279726 0.856061,0 1.386446,0.7537055 0.535038,0.7537056 0.535038,1.9819665 0,1.2282609 -0.535038,1.9819664 -0.530385,0.75370558 -1.386446,0.75370558 -0.516428,0 -0.888628,-0.22332017 Q 27.66145,-1.1316407 27.41952,-1.596891 v 0.78162058 H 26.642552 V -8.0545657 h 0.776968 z"
                 style="fill:#ffffff;stroke-width:0.23820817px"
                 id="path111" /><path
                 d="m 34.258702,-3.4346298 q -0.935153,0 -1.298049,0.2372776 -0.358242,0.2372777 -0.358242,0.8095356 0,0.4559454 0.269845,0.7257906 0.269845,0.2651926 0.735095,0.2651926 0.642046,0 1.028203,-0.5024703 0.386158,-0.5071229 0.386158,-1.3445735 v -0.1907526 z m 1.535326,-0.3535903 v 2.97294968 H 35.021712 V -1.606196 q -0.26054,0.4745553 -0.656003,0.70252801 -0.39081,0.22332017 -0.963068,0.22332017 -0.721138,0 -1.144516,-0.44664038 -0.423378,-0.4512928 -0.423378,-1.2049983 0,-0.8793232 0.525733,-1.3259635 0.530386,-0.4466403 1.581851,-0.4466403 h 1.079381 v -0.083745 q 0,-0.5908679 -0.348937,-0.9118907 -0.348938,-0.3256752 -0.981679,-0.3256752 -0.400115,0 -0.78162,0.1070076 -0.381506,0.1070076 -0.735096,0.3210227 v -0.7909256 q 0.423378,-0.1814476 0.818841,-0.2698452 0.400115,-0.09305 0.776968,-0.09305 1.018898,0 1.521368,0.5862154 0.502471,0.5862154 0.502471,1.7772563 z"
                 style="fill:#ffffff;stroke-width:0.23820817px"
                 id="path113" /><path
                 d="m 37.571284,-1.9970063 h 0.883976 v 0.8002306 l -0.688571,1.48880109 h -0.53969 l 0.344285,-1.48880109 z"
                 style="fill:#ffffff;stroke-width:0.23820817px"
                 id="path115" /><path
                 d="m 43.647454,-1.606196 h 2.949687 v 0.79092558 H 42.628555 V -1.606196 q 0.479208,-0.5536479 1.312006,-1.4841486 0.832799,-0.9351532 1.046814,-1.2049984 0.404768,-0.5071228 0.562953,-0.8560606 0.162837,-0.3535903 0.162837,-0.693223 0,-0.5536479 -0.348937,-0.9025857 Q 45.01529,-7.09615 44.452337,-7.09615 q -0.395463,0 -0.837451,0.1535326 -0.441988,0.1535326 -0.944458,0.4652503 v -0.9491107 q 0.511775,-0.2279726 0.953763,-0.3442852 0.446641,-0.1163126 0.814188,-0.1163126 0.972374,0 1.549284,0.5396904 0.57691,0.5396904 0.57691,1.442276 0,0.4280304 -0.144227,0.8141881 -0.144228,0.3815053 -0.525733,0.9025857 -0.107008,0.1349226 -0.669961,0.7816206 -0.5583,0.6420454 -1.577198,1.8005188 z"
                 style="fill:#ffffff;stroke-width:0.23820817px"
                 id="path117" /><path
                 d="m 50.179567,-7.1426751 q -0.651351,0 -0.981679,0.7164856 -0.330327,0.711833 -0.330327,2.144804 0,1.4283186 0.330327,2.1448041 0.330328,0.711833 0.981679,0.711833 0.656003,0 0.981678,-0.711833 0.330328,-0.7164855 0.330328,-2.1448041 0,-1.432971 -0.330328,-2.144804 -0.325675,-0.7164856 -0.981678,-0.7164856 z m 0,-0.7444005 q 1.051465,0 1.605113,0.9258482 0.553648,0.9211956 0.553648,2.6798419 0,1.7539938 -0.553648,2.679842 -0.553648,0.92119568 -1.605113,0.92119568 -1.051466,0 -1.605114,-0.92119568 -0.553648,-0.9258482 -0.553648,-2.679842 0,-1.7586463 0.553648,-2.6798419 0.553648,-0.9258482 1.605114,-0.9258482 z"
                 style="fill:#ffffff;stroke-width:0.23820817px"
                 id="path119" /><path
                 d="m 53.971359,-1.606196 h 1.381793 v -5.2992014 l -1.507411,0.3349803 v -0.8560607 l 1.498106,-0.3349802 h 0.846756 v 6.155262 h 1.381793 v 0.79092558 h -3.601037 z"
                 style="fill:#ffffff;stroke-width:0.23820817px"
                 id="path121" /><path
                 d="m 61.085035,-4.1138953 q -0.604826,0 -0.949111,0.3582427 -0.344285,0.3582428 -0.344285,0.9863307 0,0.628088 0.344285,0.9863308 0.344285,0.3582427 0.949111,0.3582427 0.604825,0 0.94911,-0.3582427 0.348938,-0.3628953 0.348938,-0.9863308 0,-0.6280879 -0.348938,-0.9863307 -0.344285,-0.3582427 -0.94911,-0.3582427 z m -0.846756,-0.4001153 q -0.544343,-0.1488801 -0.846756,-0.5629529 -0.302412,-0.4140729 -0.302412,-1.0095933 0,-0.8327981 0.530385,-1.3166585 0.535038,-0.4838603 1.465539,-0.4838603 0.935153,0 1.465538,0.4838603 0.530386,0.4838604 0.530386,1.3166585 0,0.5955204 -0.302413,1.0095933 -0.302413,0.4140728 -0.842103,0.5629529 0.609478,0.1581851 0.94911,0.6187829 0.344286,0.4605979 0.344286,1.1259058 0,1.0095933 -0.558301,1.5492837 -0.553648,0.53969038 -1.586503,0.53969038 -1.032856,0 -1.591157,-0.53969038 -0.553647,-0.5396904 -0.553647,-1.5492837 0,-0.6653079 0.344285,-1.1259058 0.344285,-0.4605978 0.953763,-0.6187829 z m -0.307065,-1.4841486 q 0,0.5396904 0.302412,0.8421031 0.302413,0.3024127 0.851409,0.3024127 0.544343,0 0.851408,-0.3024127 0.307065,-0.3024127 0.307065,-0.8421031 0,-0.5396904 -0.307065,-0.8421031 -0.307065,-0.3024128 -0.851408,-0.3024128 -0.548996,0 -0.851409,0.3024128 -0.302412,0.3024127 -0.302412,0.8421031 z"
                 style="fill:#ffffff;stroke-width:0.23820817px"
                 id="path123" /></g></g></g></g></g></g></svg>