<?xml version="1.0" encoding="UTF-8" standalone="no"?>
<!-- Generator: Adobe Illustrator 16.0.0, SVG Export Plug-In . SVG Version: 6.00 Build 0)  -->

<svg
   xmlns:dc="http://purl.org/dc/elements/1.1/"
   xmlns:cc="http://creativecommons.org/ns#"
   xmlns:rdf="http://www.w3.org/1999/02/22-rdf-syntax-ns#"
   xmlns:svg="http://www.w3.org/2000/svg"
   xmlns="http://www.w3.org/2000/svg"
   xmlns:sodipodi="http://sodipodi.sourceforge.net/DTD/sodipodi-0.dtd"
   xmlns:inkscape="http://www.inkscape.org/namespaces/inkscape"
   version="1.1"
   id="svg3685"
   sodipodi:docname="scipyla.h.svg"
   inkscape:version="0.92.2 (5c3e80d, 2017-08-06)"
   x="0px"
   y="0px"
   width="477.1499"
   height="184.22038"
   viewBox="0 0 219.21513 172.7066"
   enable-background="new 0 0 93.6 36"
   xml:space="preserve"><metadata
     id="metadata23"><rdf:RDF><cc:Work
         rdf:about=""><dc:format>image/svg+xml</dc:format><dc:type
           rdf:resource="http://purl.org/dc/dcmitype/StillImage" /><dc:title /></cc:Work></rdf:RDF></metadata><defs
     id="defs21" /><sodipodi:namedview
     borderopacity="1"
     pagecolor="#000000"
     guidetolerance="10"
     inkscape:zoom="1.220093"
     inkscape:cy="68.8086"
     objecttolerance="10"
     bordercolor="#666666"
     gridtolerance="10"
     id="namedview3716"
     inkscape:cx="72.53378"
     showgrid="false"
     inkscape:pageopacity="0"
     inkscape:pageshadow="2"
     inkscape:window-width="1920"
     inkscape:window-height="1053"
     inkscape:window-x="0"
     inkscape:window-y="27"
     inkscape:window-maximized="1"
     inkscape:current-layer="svg3685"
     showguides="true"
     inkscape:guide-bbox="true"><sodipodi:guide
       position="0,138.30913"
       orientation="1,0"
       id="guide19"
       inkscape:locked="false" /><sodipodi:guide
       position="219.15216,115.25761"
       orientation="1,0"
       id="guide21"
       inkscape:locked="false" /><sodipodi:guide
       position="94.791261,97.596317"
       orientation="1,0"
       id="guide3739"
       inkscape:locked="false" /></sodipodi:namedview><g
     id="Capa_x0020_1"
     transform="matrix(4.7822271,0,0,4.7822271,-114.06751,0.27321129)"><path
       id="path3694"
       inkscape:connector-curvature="0"
       d="m 18.142,-0.057 c 9.439,0.028 17.149,7.313 17.915,16.555 l -14.4,19.189 C 20.467,35.943 19.248,36.056 18,36.056 8.419,36.028 0.624,28.545 0.029,19.162 L 14.542,0.283 c 1.162,-0.227 2.353,-0.34 3.6,-0.34 z"
       style="fill:#14365b" /><path
       id="path3696"
       inkscape:connector-curvature="0"
       d="m 16.101,1.247 c 0.708,-0.481 1.36,-0.935 2.041,-1.304 -7.37,-0.028 -14.088,4.45 -16.866,11.367 -0.963,2.409 -1.389,4.988 -1.247,7.568 0.028,0.736 0.113,1.474 0.227,2.183 0.312,-0.652 0.652,-1.275 0.992,-1.843 0.34,-0.538 0.737,-1.474 1.248,-1.843 0.68,-0.453 1.332,-0.312 1.956,0.171 0.936,0.736 3.203,2.862 4.365,2.976 0.482,0.057 0.709,-0.283 0.624,-0.708 C 9.328,19.332 8.789,18.765 8.109,18.198 6.975,17.291 5.671,16.327 5.275,15.902 4.793,15.363 4.68,14.938 4.821,14.457 4.991,13.663 5.785,12.473 6.153,11.849 6.437,11.396 6.777,10.913 7.117,10.432 v 0 C 9.47,7.087 13.155,3.147 15.224,1.928 v 0 z"
       style="fill:#0e253f" /><path
       id="path3698"
       inkscape:connector-curvature="0"
       d="m 20.013,34.752 c -0.68,0.482 -1.36,0.936 -2.013,1.305 7.342,0.028 14.088,-4.45 16.838,-11.367 0.935,-2.324 1.389,-4.875 1.247,-7.597 -0.028,-0.709 -0.113,-1.445 -0.227,-2.183 -0.312,0.652 -0.624,1.275 -0.992,1.871 l -0.482,0.766 c -0.34,0.481 -0.907,1.644 -1.361,1.955 -0.652,0.454 -1.332,0.313 -1.927,-0.142 -0.964,-0.766 -3.231,-2.891 -4.394,-3.005 -0.482,-0.028 -0.709,0.313 -0.624,0.709 0.114,0.482 0.652,1.077 1.361,1.616 1.105,0.906 2.409,1.87 2.806,2.324 0.737,0.793 0.595,1.36 0.113,2.324 -1.616,3.43 -6.718,9.155 -9.467,10.743 v 0 z"
       style="fill:#0e253f" /><path
       id="path3700"
       inkscape:connector-curvature="0"
       d="M 31.04,8.107 C 30.955,7.994 30.983,7.823 31.097,7.738 31.21,7.653 31.38,7.653 31.465,7.766 c 0.992,1.305 1.786,2.722 2.381,4.28 0.539,1.503 0.907,3.09 1.021,4.791 0.34,4.62 -1.248,8.957 -4.082,12.217 -2.834,3.26 -6.917,5.442 -11.537,5.755 C 14.599,35.149 10.262,33.533 7.002,30.727 3.742,27.892 1.588,23.81 1.248,19.162 0.936,14.542 2.524,10.205 5.33,6.945 8.164,3.685 12.218,1.531 16.838,1.19 h 0.142 c 1.928,-0.142 3.799,0.085 5.584,0.567 1.842,0.51 3.6,1.332 5.159,2.438 0.114,0.085 0.142,0.255 0.057,0.368 -0.085,0.114 -0.255,0.143 -0.369,0.058 -1.502,-1.049 -3.203,-1.843 -4.989,-2.354 -1.758,-0.481 -3.6,-0.68 -5.5,-0.538 -4.506,0.312 -8.446,2.409 -11.167,5.556 -2.75,3.175 -4.28,7.37 -3.969,11.849 0.312,4.507 2.41,8.447 5.584,11.168 3.146,2.75 7.341,4.28 11.82,3.969 4.507,-0.312 8.447,-2.409 11.196,-5.556 2.721,-3.175 4.252,-7.37 3.94,-11.849 C 34.212,15.25 33.872,13.691 33.334,12.246 32.769,10.743 31.975,9.354 31.04,8.107 Z"
       style="fill:#ffffff" /><path
       id="path3702"
       inkscape:connector-curvature="0"
       d="m 9.185,14.457 v 0 c 0.057,3.345 0.992,5.612 4.195,6.604 0.624,0.198 1.247,0.312 1.871,0.34 1.219,0.113 1.899,0.057 3.062,0.057 1.786,0.028 4.167,0.652 4.025,2.693 0.028,-0.113 0.057,-0.228 0.057,-0.369 v 0 -0.028 c 0,0 0,-0.028 0,-0.057 v 0 -0.028 0 0 c 0.028,-0.028 0.028,-0.057 0.028,-0.085 v 0 -0.028 0 -0.028 0 0 -0.058 0 0 0 -0.028 0 0 -0.028 0 -0.028 0 0 -0.028 0 -0.028 0 h -0.028 v 0 -0.028 0 -0.028 0 -0.028 0 0 0 -0.028 0 -0.028 0 0 -0.028 0 0 -0.028 0 -0.028 0 0 -0.028 0 L 22.366,23.05 v 0 -0.028 -0.028 0 0 -0.028 0 0 -0.028 0 -0.029 0 0 0 l -0.028,-0.028 v -0.028 -0.028 0 0 -0.035 -0.028 H 22.31 v -0.028 0 -0.028 -0.028 0 0 L 22.282,22.65 v -0.03 0 -0.028 l -0.028,-0.028 v -0.028 0 0 0 -0.028 0 L 22.226,22.48 v 0 0 0 -0.03 -0.028 h -0.028 v 0 -0.028 -0.028 -0.028 H 22.17 V 22.31 22.28 h -0.028 v 0 -0.028 -0.028 0 H 22.11 v -0.028 0 c 0,0 0,-0.028 -0.028,-0.028 v 0 -0.028 -0.03 h -0.028 v -0.028 l -0.028,-0.028 v 0 -0.028 0 l -0.028,-0.028 v 0 0 -0.028 L 21.97,21.942 v 0 0 l -0.028,-0.028 v 0 0 0 l -0.028,-0.028 v -0.028 0 0 0 l -0.028,-0.029 v 0 -0.028 0 h -0.028 v 0 -0.028 0 h -0.029 v 0 -0.028 0 l -0.028,-0.028 v 0 0 0 l -0.028,-0.028 v 0 -0.028 0 h -0.028 v 0 c 0,-0.028 0,-0.028 -0.028,-0.028 v 0 c 0,-0.028 0,-0.028 -0.028,-0.057 v 0 c 0,0 -0.028,0 -0.028,-0.028 v 0 L 21.633,21.52 v 0 L 21.6,21.486 v 0 c -0.028,-0.028 -0.028,-0.028 -0.028,-0.028 v 0 C 21.544,21.43 21.544,21.43 21.515,21.43 v 0 c 0,-0.028 0,-0.028 -0.028,-0.057 v 0 c 0,0 -0.028,0 -0.028,-0.028 v 0 c -0.028,0 -0.028,0 -0.028,-0.028 v 0 c -0.028,0 -0.028,-0.028 -0.057,-0.028 v 0 l -0.028,-0.028 v 0 l -0.028,-0.028 v 0 c -0.029,0 -0.029,-0.028 -0.057,-0.028 v 0 l -0.028,-0.028 v 0 c -0.028,0 -0.028,-0.028 -0.057,-0.028 v 0 l -0.028,-0.028 v 0 c -0.028,0 -0.028,-0.028 -0.057,-0.028 v 0 l -0.028,-0.028 v 0 c -0.028,0 -0.028,-0.028 -0.057,-0.028 v 0 l -0.028,-0.028 v 0 c -0.028,0 -0.028,-0.028 -0.057,-0.028 v 0 l -0.028,-0.028 v 0 c -0.028,0 -0.028,0 -0.057,-0.028 v 0 c -0.028,0 -0.028,0 -0.057,-0.028 v 0 H 20.75 v 0 c -0.028,-0.028 -0.028,-0.028 -0.057,-0.028 v 0 c -0.028,-0.028 -0.028,-0.028 -0.057,-0.028 v 0 c 0,0 -0.028,-0.028 -0.057,-0.028 v 0 c 0,0 -0.028,0 -0.028,-0.028 v 0 c -0.028,0 -0.057,0 -0.057,0 v 0 c -0.028,-0.029 -0.028,-0.029 -0.057,-0.029 v 0 c -0.028,0 -0.028,-0.028 -0.057,-0.028 v 0 c -0.028,0 -0.028,0 -0.057,-0.028 v 0 c 0,0 -0.028,0 -0.057,0 v 0 c 0,-0.028 -0.028,-0.028 -0.057,-0.028 v 0 l -0.057,-0.028 v 0 c 0,0 -0.028,0 -0.057,0 v 0 c 0,-0.028 -0.028,-0.028 -0.057,-0.028 v 0 c 0,0 -0.028,0 -0.057,-0.028 v 0 c -0.028,0 -0.028,0 -0.057,0 v 0 c -0.028,0 -0.028,0 -0.057,-0.028 v 0 c -0.028,0 -0.028,0 -0.057,0 v 0 c -0.028,0 -0.057,0 -0.057,-0.028 v 0 c -0.028,0 -0.057,0 -0.085,0 v 0 c 0,0 -0.028,0 -0.057,-0.028 v 0 h -0.057 v 0 c -0.028,0 -0.057,0 -0.057,0 v 0 C 19.469,20.476 19.44,20.476 19.412,20.476 v 0 c 0,0 -0.028,0 -0.057,0 v 0 c -0.028,0 -0.057,0 -0.057,-0.028 v 0 c -0.028,0 -0.057,0 -0.085,0 v 0 c 0,0 -0.028,0 -0.057,0 v 0 c -0.029,0 -0.057,0 -0.085,0 v 0 L 19.014,20.42 v 0 c -0.028,0 -0.057,0 -0.085,0 v 0 c 0,0 -0.028,0 -0.057,0 v 0 c -0.028,0 -0.057,0 -0.085,0 v 0 c 0,0 -0.028,0 -0.057,0 v 0 c -0.028,-0.028 -0.057,-0.028 -0.085,-0.028 v 0 c -0.028,0 -0.057,0 -0.057,0 v 0 c -0.028,0 -0.057,0 -0.085,0 v 0 c -0.028,0 -0.057,0 -0.085,0 v 0 c -0.028,0 -0.057,0 -0.085,0 v 0 h -0.028 v 0 h -0.057 v 0 h -0.057 v 0 h -0.057 v 0 H 18.077 18.02 v 0 H 18 17.943 v 0 H 17.886 17.83 v 0 H 17.802 17.745 17.688 17.66 17.603 v 0 h -0.028 v 0 h -0.057 -0.057 v 0 h -0.028 v 0 h -0.057 v 0 h -0.028 -0.057 -0.028 v 0 h -0.057 v 0 H 17.15 v 0 h -0.028 v 0 H 17.065 17.037 16.98 16.952 v 0 h -0.057 v 0 H 16.867 16.81 v 0 h -0.028 v 0 h -0.057 v 0 H 16.697 16.64 v 0 h -0.057 -0.028 v 0 h -0.057 v 0 H 16.47 v 0 h -0.057 v 0 h -0.057 v 0 h -0.028 v 0 h -0.057 v 0 h -0.028 v 0 h -0.057 -0.057 v 0 h -0.028 v 0 h -0.057 v 0 l -0.057,-0.028 v 0 H 15.93 15.901 v 0 h -0.057 v 0 h -0.057 v 0 H 15.73 v 0 h -0.057 v 0 h -0.028 -0.057 v 0 h -0.057 v 0 l -0.057,-0.028 v 0 h -0.057 v 0 H 15.36 v 0 h -0.057 v 0 h -0.028 v 0 H 15.25 v 0 h -0.028 v 0 h -0.028 v 0 h -0.028 v 0 L 15.138,20.308 H 15.11 v 0 h -0.028 v 0 h -0.057 v 0 h -0.028 -0.028 v 0 h -0.028 v 0 H 14.913 14.885 L 14.857,20.28 H 14.8 v 0 h -0.028 v 0 H 14.74 14.712 v 0 H 14.684 C 14.656,20.252 14.627,20.252 14.599,20.252 H 14.57 v 0 h -0.028 -0.028 v 0 L 14.486,20.224 H 14.458 14.43 v 0 H 14.4 14.343 v 0 l -0.028,-0.028 v 0 h -0.029 v 0 H 14.258 14.23 v 0 h -0.028 v 0 l -0.028,-0.028 h -0.028 -0.028 v 0 H 14.09 v 0 L 14.033,20.14 h -0.028 -0.028 v 0 h -0.028 v 0 L 13.921,20.112 H 13.89 13.862 v 0 h -0.028 v 0 L 13.806,20.084 H 13.778 13.749 13.72 l -0.028,-0.028 h -0.028 v 0 H 13.636 13.608 L 13.58,20.028 h -0.03 -0.028 v 0 L 13.494,20 h -0.028 -0.028 c -0.057,-0.028 -0.085,-0.028 -0.142,-0.057 l -0.057,-0.028 c -0.029,0 -0.085,-0.028 -0.114,-0.028 H 13.097 C 13.04,19.859 12.984,19.83 12.955,19.83 L 12.898,19.802 C 12.87,19.774 12.841,19.774 12.785,19.745 h -0.028 c -0.028,-0.028 -0.085,-0.058 -0.142,-0.058 l -0.028,-0.028 c -0.028,-0.028 -0.085,-0.028 -0.113,-0.057 l -0.028,-0.028 c -0.057,0 -0.085,-0.028 -0.142,-0.057 l -0.028,-0.028 c -0.028,0 -0.057,-0.028 -0.113,-0.057 l -0.029,-0.028 c -0.028,0 -0.085,-0.028 -0.113,-0.057 L 11.993,19.319 C 11.965,19.291 11.908,19.291 11.88,19.262 L 11.852,19.234 C 11.795,19.206 11.767,19.177 11.739,19.149 H 11.711 C 11.683,19.121 11.654,19.092 11.597,19.064 L 11.569,19.036 C 11.541,19.008 11.512,18.979 11.484,18.951 L 11.456,18.923 C 11.399,18.895 11.371,18.866 11.343,18.838 L 11.315,18.81 C 11.287,18.782 11.258,18.753 11.23,18.753 L 11.202,18.725 C 11.145,18.668 11.117,18.64 11.089,18.611 L 11.06,18.583 C 11.032,18.555 11.003,18.526 10.975,18.498 L 10.947,18.47 C 10.919,18.442 10.89,18.413 10.862,18.385 L 10.834,18.357 C 10.806,18.329 10.777,18.3 10.749,18.272 L 10.721,18.244 C 10.693,18.187 10.664,18.159 10.636,18.131 L 10.608,18.103 C 10.58,18.075 10.551,18.046 10.523,18.018 l -0.028,-0.057 c -0.028,-0.028 -0.028,-0.057 -0.057,-0.085 0,0 -0.028,0 -0.028,-0.028 -0.028,-0.028 -0.057,-0.057 -0.085,-0.113 L 10.297,17.707 C 10.269,17.679 10.269,17.65 10.24,17.622 L 10.212,17.594 C 10.184,17.536 10.184,17.508 10.155,17.48 L 10.127,17.423 C 10.099,17.395 10.099,17.366 10.07,17.338 L 10.042,17.281 C 10.014,17.253 9.985,17.224 9.985,17.168 9.957,17.168 9.957,17.14 9.957,17.14 9.929,17.112 9.929,17.083 9.9,17.055 L 9.872,16.998 C 9.872,16.97 9.844,16.941 9.844,16.913 9.816,16.885 9.816,16.856 9.787,16.828 9.787,16.8 9.759,16.771 9.759,16.743 L 9.731,16.686 C 9.731,16.658 9.703,16.629 9.703,16.601 9.675,16.573 9.675,16.573 9.675,16.544 9.647,16.516 9.647,16.487 9.618,16.43 c 0,0 0,-0.028 0,-0.057 C 9.59,16.345 9.59,16.316 9.59,16.316 9.562,16.288 9.562,16.259 9.562,16.259 9.534,16.202 9.534,16.174 9.505,16.117 c 0,0 0,-0.028 0,-0.057 -0.028,-0.028 -0.028,-0.057 -0.028,-0.057 0,-0.028 -0.029,-0.057 -0.029,-0.085 0,-0.028 -0.028,-0.057 -0.028,-0.113 0,-0.028 0,-0.028 -0.028,-0.057 0,-0.028 0,-0.057 0,-0.085 -0.028,-0.028 -0.028,-0.028 -0.028,-0.057 0,-0.029 -0.028,-0.085 -0.028,-0.113 0,-0.028 0,-0.057 0,-0.085 -0.028,-0.029 -0.028,-0.029 -0.028,-0.058 0,-0.029 0,-0.057 0,-0.085 -0.038,-0.044 -0.038,-0.072 -0.038,-0.1 0,-0.028 0,-0.057 0,-0.085 -0.028,-0.028 -0.028,-0.057 -0.028,-0.085 0,-0.028 0,-0.057 0,-0.085 0,0 0,-0.028 0,-0.057 -0.028,-0.028 -0.028,-0.057 -0.028,-0.085 0,-0.057 0,-0.085 0,-0.113 0,-0.028 0,-0.028 0,-0.057 0,-0.029 0,-0.057 0,-0.085 C 9.185,14.485 9.185,14.457 9.185,14.457 Z M 8.362,33.25 c -0.34,-0.481 -0.255,-0.964 0,-1.474 0.085,-0.142 0.199,-0.284 0.312,-0.426 0.113,-0.17 0.227,-0.312 0.369,-0.481 0.822,-0.907 2.041,-2.637 2.834,-3.26 l 0.028,-0.028 v 0 0 -0.028 h 0.028 v 0 l 0.028,-0.028 v 0 h 0.028 v 0 0 l 0.028,-0.028 v 0 0 l 0.028,-0.028 v 0 h 0.028 v 0 l 0.028,-0.028 v 0 0 0 h 0.028 l 0.029,-0.028 v 0 h 0.028 v 0 l 0.028,-0.028 v 0 0 0 h 0.028 v 0 h 0.028 v 0 c 0,-0.028 0.028,-0.028 0.028,-0.028 v 0 h 0.028 v 0 h 0.028 v 0 c 0,-0.028 0.028,-0.028 0.057,-0.028 v 0 c 0.028,0 0.028,0 0.057,0 v 0 h 0.028 v 0 c 0.227,-0.028 0.454,0.028 0.68,0.17 v 0 c 0.369,0.198 0.737,0.538 1.219,0.936 1.389,1.077 3.43,2.494 6.038,2.183 4.337,-0.511 8.22,-5.499 4.025,-10.403 v 0.028 h 0.028 v 0 0 0 0 0 0 0 0 0.028 0 0 0 0 c 0.028,0.028 0.028,0.028 0.057,0.057 v 0 c 0.17,0.283 0.312,0.567 0.453,0.879 v 0.028 c 0.142,0.312 0.227,0.624 0.312,0.964 v 0 c 0,0 0,0.028 0,0.057 0.028,0.028 0.028,0.057 0.028,0.085 v 0 c 0,0.028 0,0.057 0.028,0.085 v 0 c 0,0.028 0,0.057 0,0.085 v 0 0.028 0 c 0.028,0.028 0.028,0.057 0.028,0.085 v 0 c 0,0.057 0,0.085 0,0.142 v 0 c 0.028,0.028 0.028,0.085 0.028,0.113 v 0 c 0,0.028 0,0.058 0,0.086 v 0 0.057 0.057 0 l 0.028,0.028 v 0 c 0,0.028 0,0.057 0,0.085 v 0 0.057 c 0,0.028 0,0.057 0,0.085 v 0 c 0,0.028 0,0.057 0,0.085 v 0 c 0,0.028 0,0.085 0,0.113 v 0.057 0 0.028 0 0.057 0.028 0.057 0 0.028 0 0.057 l -0.028,0.028 v 0.057 0.028 0.058 0.057 0.028 0.057 l -0.028,0.028 v 0.057 0.028 0.057 0.028 l -0.028,0.057 v 0.028 0.057 0 0.028 0 l -0.028,0.057 v 0.028 0.057 0 0.028 0 l -0.028,0.057 v 0 0.028 0 0.057 0 l -0.028,0.028 v 0 0.057 0 0.028 0 l -0.028,0.057 v 0 c 0,0.028 0,0.057 -0.028,0.086 v 0 c 0,0.028 0,0.057 -0.028,0.085 v 0 c 0,0.028 0,0.057 -0.028,0.085 v 0 c 0,0.057 -0.028,0.113 -0.057,0.198 0,0.028 0,0.057 -0.029,0.085 0,0.028 0,0.057 -0.028,0.085 0,0.028 -0.028,0.057 -0.028,0.085 -0.028,0.028 -0.028,0.057 -0.028,0.085 -0.028,0.057 -0.057,0.113 -0.085,0.17 0,0.028 -0.028,0.057 -0.028,0.085 v 0 c -0.028,0.028 -0.028,0.057 -0.057,0.085 0,0.029 -0.028,0.058 -0.028,0.086 v 0 c -0.028,0.057 -0.057,0.113 -0.113,0.17 -0.028,0.057 -0.057,0.113 -0.085,0.17 v 0 c 0,0.028 -0.028,0.057 -0.057,0.085 v 0 c 0,0.028 -0.029,0.057 -0.029,0.085 -0.028,0.028 -0.057,0.057 -0.057,0.085 -0.028,0.057 -0.085,0.113 -0.113,0.142 -0.028,0.029 -0.028,0.057 -0.057,0.085 v 0 c -0.028,0.028 -0.028,0.057 -0.057,0.085 -0.029,0.028 -0.028,0.057 -0.057,0.085 -0.028,0 -0.057,0.029 -0.057,0.058 v 0 c -0.028,0.028 -0.057,0.057 -0.057,0.085 -0.028,0.028 -0.057,0.057 -0.085,0.057 v 0 c 0,0.028 -0.028,0.057 -0.057,0.085 v 0 c -0.028,0.028 -0.057,0.057 -0.057,0.085 -0.028,0 -0.057,0.028 -0.085,0.057 v 0 c 0,0.028 -0.028,0.057 -0.057,0.085 v 0 c -0.028,0 -0.057,0.028 -0.085,0.057 0,0.028 -0.028,0.057 -0.057,0.057 -0.028,0.028 -0.057,0.057 -0.085,0.085 0,0.028 -0.028,0.028 -0.057,0.057 -0.028,0.028 -0.057,0.057 -0.085,0.057 -0.028,0.028 -0.057,0.057 -0.085,0.085 v 0 c 0,0 -0.028,0.028 -0.057,0.057 -0.029,0.029 -0.057,0.028 -0.085,0.057 v 0 c -0.028,0.028 -0.057,0.028 -0.085,0.057 -0.028,0.029 -0.057,0.058 -0.085,0.058 -0.028,0.028 -0.057,0.057 -0.085,0.057 -0.028,0.028 -0.057,0.057 -0.085,0.057 v 0 c -0.028,0.028 -0.057,0.057 -0.085,0.057 -0.028,0.028 -0.057,0.028 -0.085,0.057 v 0 c -0.028,0.028 -0.057,0.028 -0.085,0.057 v 0 c -0.028,0.028 -0.057,0.028 -0.085,0.057 -0.028,0 -0.057,0.028 -0.085,0.057 -0.028,0 -0.057,0.028 -0.085,0.028 v 0 c -0.057,0.028 -0.085,0.028 -0.113,0.057 v 0 c -0.028,0.028 -0.057,0.028 -0.085,0.057 v 0 c -0.028,0 -0.057,0.028 -0.085,0.028 -0.057,0.028 -0.085,0.028 -0.113,0.057 v 0 c -0.028,0 -0.057,0.028 -0.085,0.028 v 0 c -0.057,0.028 -0.085,0.028 -0.113,0.057 v 0 c -0.028,0 -0.057,0.028 -0.085,0.028 v 0 c -0.057,0 -0.085,0.028 -0.113,0.028 v 0 c -0.028,0.028 -0.057,0.028 -0.113,0.057 -0.028,0 -0.057,0 -0.085,0.028 v 0 c -0.057,0 -0.085,0.028 -0.113,0.028 v 0 c -0.028,0 -0.085,0.028 -0.113,0.028 v 0 c -0.028,0 -0.057,0.028 -0.113,0.028 v 0 c -0.028,0.028 -0.085,0.028 -0.113,0.028 v 0 C 20.775,29.35 20.747,29.35 20.69,29.35 v 0 c -0.057,0.028 -0.085,0.028 -0.142,0.028 v 0 c -0.028,0.029 -0.085,0.029 -0.113,0.029 v 0 c -0.057,0.028 -0.085,0.028 -0.142,0.028 v 0 c -0.028,0 -0.085,0 -0.114,0.028 v 0 c -0.057,0 -0.085,0 -0.113,0 v 0 c -0.057,0 -0.085,0 -0.142,0.028 v 0 c -0.028,0 -0.085,0 -0.113,0 -0.028,0 -0.085,0 -0.113,0 -0.057,0 -0.085,0 -0.142,0 -0.028,0 -0.057,0 -0.113,0 -0.028,0 -0.057,0 -0.113,0 -0.028,0 -0.085,0 -0.113,0 -0.028,0 -0.085,0 -0.114,0 -0.029,0 -0.085,0 -0.113,0 -0.028,-0.028 -0.085,-0.028 -0.113,-0.028 -0.028,0 -0.085,0 -0.113,0 v 0 c -0.028,-0.028 -0.057,-0.028 -0.113,-0.028 v 0 c -0.028,0 -0.057,0 -0.114,-0.028 -0.028,0 -0.057,0 -0.085,0 -0.057,-0.029 -0.085,-0.029 -0.113,-0.029 -0.028,0 -0.085,-0.028 -0.113,-0.028 -0.028,0 -0.057,-0.028 -0.113,-0.028 v 0 c -0.028,0 -0.057,-0.028 -0.085,-0.028 -0.028,0 -0.085,-0.028 -0.113,-0.028 -0.028,-0.028 -0.057,-0.028 -0.113,-0.028 -0.028,-0.028 -0.057,-0.028 -0.085,-0.057 -0.028,0 -0.057,-0.028 -0.113,-0.028 -0.028,0 -0.057,-0.028 -0.085,-0.028 -0.028,-0.028 -0.085,-0.028 -0.113,-0.057 -0.028,0 -0.057,-0.028 -0.085,-0.028 -0.028,-0.028 -0.057,-0.028 -0.113,-0.057 v 0 c -0.028,0 -0.057,-0.028 -0.085,-0.057 -0.028,0 -0.057,-0.028 -0.085,-0.028 -0.057,-0.028 -0.085,-0.028 -0.114,-0.057 v 0 c -0.028,-0.028 -0.057,-0.028 -0.085,-0.057 v 0 c -0.028,0 -0.057,-0.028 -0.085,-0.057 v 0 c -0.057,0 -0.085,-0.028 -0.113,-0.028 C 16.613,28.671 16.584,28.642 16.556,28.642 16.528,28.614 16.499,28.585 16.471,28.585 16.442,28.557 16.414,28.528 16.357,28.528 16.3,28.471 16.244,28.443 16.187,28.415 16.159,28.387 16.13,28.358 16.102,28.358 16.074,28.33 16.045,28.3 16.017,28.272 v 0 c -0.028,0 -0.057,-0.028 -0.114,-0.057 -0.028,-0.028 -0.057,-0.028 -0.085,-0.057 v 0 C 15.79,28.13 15.761,28.101 15.733,28.101 v 0 c -0.028,-0.028 -0.057,-0.057 -0.085,-0.085 v 0 c -0.028,0 -0.057,-0.028 -0.085,-0.057 v 0 c -0.057,-0.028 -0.113,-0.085 -0.17,-0.113 l -0.085,-0.085 v 0 c -0.085,-0.057 -0.17,-0.142 -0.255,-0.198 v 0 c -0.057,-0.057 -0.113,-0.085 -0.17,-0.142 h -0.028 c -0.057,-0.028 -0.114,-0.085 -0.17,-0.142 v 0 C 14.6,27.221 14.515,27.136 14.43,27.08 l -0.057,-0.057 v 0 l -0.085,-0.085 v 0 c -0.85,-0.736 -1.729,-1.672 -2.806,-0.595 l -0.028,0.028 v 0 c -0.028,0.028 -0.028,0.028 -0.057,0.028 v 0 l -0.028,0.028 v 0 l -0.028,0.028 v 0 l -0.028,0.028 v 0 l -0.028,0.057 v 0 l -0.028,0.028 v 0 l -0.028,0.028 v 0 l -0.028,0.028 v 0 l -0.028,0.028 v 0 l -0.028,0.028 v 0 l -0.369,0.481 v 0 L 7.885,30.762 7.857,30.79 7.687,30.988 C 7.63,31.073 7.602,31.13 7.545,31.186 7.517,31.214 7.517,31.243 7.488,31.299 v 0 0 C 7.261,31.753 7.318,32.263 7.63,32.66 L 7.999,33 Z m 4.847,-16.838 c -1.389,-2.409 0.879,-4.818 3.118,-3.543 1.304,0.737 2.239,1.956 3.43,2.608 1.786,0.963 4.251,1.19 6.094,-2.382 v 0 0 l -0.028,0.028 v 0 0 0.028 h -0.028 v 0.028 0 h -0.028 v 0.028 0 l -0.028,0.029 v 0 0 l -0.028,0.028 v 0 0.028 h -0.028 v 0 0.028 l -0.057,0.057 v 0.028 0 h -0.029 l -0.028,0.028 v 0.028 0 0 l -0.028,0.028 v 0 0 0.028 h -0.028 v 0 0.028 0 h -0.028 v 0.028 0 0 h -0.028 v 0.028 0 0 l -0.028,0.028 v 0 0 0 0 l -0.028,0.028 v 0 0 0.028 0 H 25.37 v 0 0.028 0 0 0 h -0.028 v 0 0.028 0 0 0 l -0.028,0.028 v 0 0 0 0 0 l -0.028,0.028 v 0 0 0 0 0 0 0 l -0.028,0.028 c -1.899,1.729 -3.855,1.417 -5.726,0.17 -0.028,-0.028 -0.057,-0.028 -0.085,-0.057 -0.198,-0.142 -0.34,-0.283 -0.454,-0.396 -0.255,-0.198 -0.454,-0.341 -0.765,-0.567 -0.085,-0.085 -0.142,-0.142 -0.227,-0.198 v 0 c -1.105,-0.879 -1.927,-1.758 -3.288,-1.53 v 0 c -0.028,0 -0.028,0.028 -0.057,0.028 h -0.028 c 0,0 -0.028,0 -0.057,0 l -0.028,0.028 h -0.028 c -0.028,0 -0.057,0 -0.085,0 l -0.03,0.036 h -0.028 l -0.057,0.028 h -0.029 -0.028 l -0.028,0.028 h -0.057 l -0.028,0.028 h -0.028 l -0.028,0.028 h -0.057 l -0.028,0.028 h -0.028 l -0.028,0.028 H 13.92 l -0.057,0.028 -0.028,0.028 h -0.028 l -0.028,0.028 H 13.75 l -0.028,0.028 -0.028,0.028 h -0.057 l -0.028,0.028 -0.028,0.028 H 13.55 l -0.028,0.028 v 0 l -0.028,0.028 -0.028,0.028 h -0.028 v 0 l -0.028,0.028 v 0 l -0.028,0.028 -0.028,0.028 h -0.028 v 0 l -0.028,0.028 v 0 l -0.028,0.028 -0.028,0.028 -0.029,0.028 -0.028,0.028 v 0 h -0.028 v 0 l -0.028,0.028 -0.028,0.028 -0.028,0.028 v 0 0.028 l -0.028,0.029 v 0 c -0.057,0.028 -0.085,0.085 -0.113,0.142 l -0.028,0.028 -0.028,0.028 v 0 l -0.028,0.028 -0.028,0.028 c 0,0 -0.028,0.028 -0.028,0.057 -0.028,0.028 -0.028,0.057 -0.057,0.085 v 0 c -0.028,0 -0.028,0.028 -0.057,0.057 v 0 c 0,0.028 -0.028,0.057 -0.028,0.085 -0.028,0.028 -0.057,0.057 -0.057,0.085 v 0 c -0.057,0.113 -0.113,0.255 -0.17,0.368 0,0.028 -0.028,0.057 -0.028,0.057 v 0 0.058 0 l -0.028,0.028 c 0,0.028 0,0.028 0,0.057 l -0.028,0.028 v 0.057 0 0.028 l -0.028,0.028 v 0 0.028 0.028 l -0.028,0.057 v 0 0.028 0 0.028 0 0.057 0 0.028 l -0.028,0.028 v 0 0.028 0 0.057 0.028 0.028 0.028 0.057 0.028 0.028 0 l -0.028,0.057 v 0.028 0.028 0 0.028 0 0.057 0.028 0 l 0.028,0.029 v 0.057 0 0.04 0.028 0.057 0.028 0.028 0.057 l 0.028,0.028 v 0 0.028 0.057 0.028 l 0.028,0.028 v 0.057 0.028 0.028 l 0.028,0.057 v 0.028 0.028 l 0.028,0.028 v 0 0.028 0.028 l 0.028,0.028 v 0.028 0 0.028 0 0 l 0.028,0.028 v 0.028 0 0.028 0 0.028 0 h 0.028 v 0 0.028 0 0.028 l 0.028,0.028 v 0 0.029 0 0 0 l 0.028,0.028 v 0 0.028 0 0.028 l 0.028,0.028 v 0 l 0.028,0.028 v 0.028 0.028 0 h 0.028 v 0.028 0 l 0.028,0.028 v 0 0.028 0 l 0.028,0.028 v 0 0.028 h 0.028 v 0.028 0 0.028 0 l 0.029,0.028 v 0 0 l 0.028,0.028 v 0 0.028 0 h 0.028 v 0.028 0 l 0.028,0.028 v 0 0 l 0.028,0.028 v 0 0.028 0 h 0.028 v 0.028 l 0.028,0.028 v 0 0 l 0.028,0.028 v 0.042 0 h 0.028 v 0.028 0 l 0.028,0.028 v 0 l 0.028,0.028 v 0 l 0.028,0.028 v 0.028 h 0.028 l 0.028,0.028 v 0 0.028 0 0 0 0 0 h 0.028 v 0 0 0.028 0 0 0 0 0 h 0.028 v 0 0 0 0.028 0 0 0 0 0 h 0.028 v 0 0 0 0 0 0 0 0 0.028 0 0 0 0 0 h 0.028 v 0 0 0 0 0 0 0 0 0.028 0 0 0 0 0 h 0.029 z"
       style="fill-opacity:0.30199998" /><path
       id="path3704"
       inkscape:connector-curvature="0"
       d="M 7.909,32.938 C 7.2,32.456 7.143,31.606 7.682,30.982 l 3.458,-4.309 c 0.624,-0.737 1.332,-1.077 2.183,-0.481 0.368,0.255 0.737,0.566 1.105,0.878 1.842,1.475 3.685,2.977 6.52,2.211 2.324,-0.623 3.798,-2.324 4.309,-4.28 0.227,-0.906 0.255,-1.842 0.057,-2.749 -0.17,-0.936 -0.595,-1.814 -1.247,-2.58 -3.203,-3.373 -6.293,-1.587 -9.723,-2.607 -0.482,-0.142 -0.936,-0.425 -1.276,-0.794 -0.34,-0.34 -0.595,-0.793 -0.737,-1.304 -0.199,-0.794 -0.085,-1.615 0.312,-2.268 0.369,-0.652 0.992,-1.162 1.786,-1.389 1.559,-0.397 2.409,0.538 3.571,1.502 0.369,0.283 0.851,0.652 1.333,1.049 1.927,1.531 4.195,1.843 5.924,-0.028 0.198,-0.17 1.162,-1.53 1.275,-1.587 0.17,-0.085 0.397,0.113 0.51,0.227 0.425,0.396 1.021,0.255 1.247,-0.312 L 28.998,9.269 C 29.111,8.702 29.31,8.192 28.856,7.823 28.799,7.738 28.742,7.681 28.657,7.625 l 0.652,-0.821 1.162,0.057 c 0.17,0 0.312,-0.143 0.34,-0.313 0,-0.17 -0.142,-0.312 -0.312,-0.312 L 29.422,6.179 29.14,5.131 C 29.083,4.961 28.913,4.876 28.743,4.904 28.573,4.961 28.46,5.131 28.516,5.3 l 0.312,1.105 -0.142,0.198 v 0 l -0.51,0.652 C 28.119,7.198 28.063,7.17 28.006,7.113 27.751,6.886 27.439,6.858 27.127,6.943 26.929,7 26.759,7.113 26.588,7.198 L 23.923,8.53 c -0.453,0.227 -0.652,0.822 -0.312,1.247 0.283,0.313 0.737,0.284 0.312,0.822 l -0.595,0.766 c -0.624,0.822 -1.247,0.68 -1.899,0.255 -0.454,-0.312 -0.879,-0.681 -1.304,-1.021 -1.899,-1.502 -3.6,-2.863 -6.689,-2.013 -1.616,0.426 -2.665,1.247 -3.43,2.58 -1.928,3.345 -0.255,7.682 3.43,8.815 0.624,0.17 1.219,0.283 1.871,0.34 1.219,0.085 1.899,0.057 3.033,0.057 1.672,0 2.778,0.539 3.401,1.275 0.312,0.369 0.51,0.766 0.595,1.219 0.114,0.454 0.085,0.907 -0.028,1.361 -0.227,0.964 -0.963,1.813 -2.126,2.126 -1.36,0.34 -2.607,-0.652 -3.827,-1.645 -0.68,-0.566 -1.389,-1.162 -2.183,-1.559 -0.822,-0.426 -1.701,-0.596 -2.58,-0.426 -0.51,0.085 -1.02,0.313 -1.502,0.652 -0.82,0.599 -1.444,1.563 -2.068,2.329 -0.708,0.879 -3.288,3.799 -3.543,4.62 -0.085,0.284 -0.142,0.624 -0.142,0.936 0,1.729 1.389,3.146 3.118,3.146 0.708,0 1.332,-0.227 1.842,-0.595 v 0 l 0.028,-0.028 v 0 C 8.957,33.618 8.786,33.505 8.447,33.278 8.249,33.165 8.079,33.052 7.909,32.938 Z M 26.334,9.269 C 26.079,9.297 25.88,9.071 25.852,8.815 c 0,-0.255 0.198,-0.481 0.454,-0.481 0.283,0 0.482,0.198 0.51,0.453 0,0.256 -0.199,0.482 -0.482,0.482 z"
       style="fill:#ffd43b" /><path
       id="path3706"
       inkscape:connector-curvature="0"
       d="m 20.296,28.8 c -2.041,0.538 -3.572,-0.057 -4.961,-1.021 1.559,1.19 3.231,2.126 5.613,1.502 2.324,-0.623 3.798,-2.324 4.309,-4.28 0.227,-0.906 0.255,-1.842 0.057,-2.749 -0.142,-0.709 -0.425,-1.389 -0.851,-2.041 -0.113,-0.17 -0.255,-0.34 -0.396,-0.539 -0.397,-0.453 -0.851,-0.85 -1.389,-1.19 0.284,0.228 0.51,0.454 0.737,0.709 0.652,0.766 1.049,1.645 1.248,2.579 0.198,0.907 0.17,1.843 -0.057,2.75 -0.511,1.955 -1.985,3.656 -4.31,4.28 z M 25.88,11.877 c -1.361,1.871 -2.977,3.771 -5.612,2.608 0.68,0.396 1.417,0.623 2.126,0.623 1.02,0.028 2.012,-0.34 2.863,-1.275 v 0 0 0 c 0.085,-0.085 0.34,-0.396 0.567,-0.709 0.312,-0.396 0.652,-0.85 0.708,-0.878 0.17,-0.085 0.369,0.113 0.51,0.227 0.425,0.396 1.021,0.255 1.247,-0.312 l 0.539,-2.269 c 0.029,-0.085 -0.878,2.523 -1.814,1.758 -0.368,-0.283 -0.793,-0.198 -1.134,0.227 z m -13.549,3.09 c -0.199,-0.794 -0.085,-1.615 0.312,-2.268 0.369,-0.652 0.992,-1.162 1.786,-1.389 1.105,-0.284 1.871,0.113 2.636,0.708 -1.672,-1.955 -4.054,-1.417 -5.018,0.143 -0.85,1.304 -0.624,3.26 1.333,4.422 -0.057,-0.057 -0.113,-0.113 -0.17,-0.171 -0.057,-0.028 -0.085,-0.085 -0.142,-0.142 -0.34,-0.34 -0.595,-0.793 -0.737,-1.303 z m 16.157,-8.135 -0.312,0.425 0.482,0.368 0.34,-0.396 C 28.857,7.257 28.545,7.03 28.488,6.832 Z M 7.541,31.18 c 0.028,-0.057 0.085,-0.113 0.142,-0.17 l 0.17,-0.227 3.288,-4.11 c 0.567,-0.681 1.247,-1.049 2.012,-0.567 -0.17,-0.142 -0.312,-0.255 -0.482,-0.396 -0.85,-0.595 -1.587,-0.255 -2.183,0.482 L 7.257,30.216 7.03,30.529 c -0.028,0.028 -0.057,0.057 -0.085,0.085 -0.397,0.538 -0.34,1.19 0.085,1.672 0.085,0.057 0.142,0.113 0.227,0.198 0.028,0 0.057,0.028 0.085,0.028 0.142,0.114 0.312,0.256 0.481,0.369 C 7.285,32.427 7.172,31.748 7.541,31.18 Z"
       style="fill:#1a0000;fill-opacity:0.2" /><path
       id="path3708"
       inkscape:connector-curvature="0"
       d="m 10.97,9.892 c 0.794,0.369 1.191,0.567 1.814,1.021 C 12.869,10.233 12.699,9.581 12.472,8.9 11.877,9.156 11.396,9.496 10.97,9.892 Z m 8.844,2.949 c 0.737,-0.142 1.445,-0.51 1.984,-1.021 v 0 C 21.685,11.763 21.571,11.707 21.43,11.622 21.061,11.367 20.721,11.084 20.381,10.8 c -0.085,0.85 -0.255,1.361 -0.567,2.041 z m -1.474,7.54 c 0.652,0 1.19,0.085 1.672,0.227 -0.028,-0.113 -0.085,-0.198 -0.113,-0.283 -0.255,-0.623 -0.312,-1.105 -0.369,-1.758 -0.454,0.369 -0.822,0.851 -1.049,1.39 -0.085,0.142 -0.142,0.283 -0.198,0.425 0.029,-0.001 0.057,-0.001 0.057,-0.001 z m -2.693,-0.029 c 0.652,0.028 1.162,0.028 1.701,0.028 -0.34,-0.651 -0.482,-1.162 -0.595,-1.928 -0.539,0.54 -0.936,1.163 -1.106,1.9 z m -2.21,-0.368 c 0.369,0.113 0.737,0.198 1.077,0.255 -0.028,-0.142 -0.057,-0.255 -0.085,-0.368 -0.113,-0.596 -0.113,-1.077 -0.057,-1.673 -0.567,0.34 -1.021,0.822 -1.361,1.36 -0.057,0.085 -0.085,0.143 -0.142,0.228 0.199,0.057 0.369,0.141 0.568,0.198 z M 9.213,14.542 c 0.737,-0.341 1.247,-0.454 1.984,-0.539 -0.51,-0.566 -1.162,-0.936 -1.871,-1.162 -0.113,0.539 -0.142,1.077 -0.142,1.616 0.001,0.028 0.029,0.056 0.029,0.085 z m 0.369,-2.495 c 0.793,0.028 1.219,0 1.956,0.171 -0.227,-0.681 -0.567,-1.191 -1.105,-1.701 -0.142,0.198 -0.312,0.425 -0.425,0.652 -0.172,0.311 -0.313,0.594 -0.426,0.878 z M 8.192,28.658 C 8.079,27.921 7.682,27.212 7.228,26.674 6.832,27.127 6.463,27.61 6.066,28.063 c 0.369,0.057 0.766,0.085 1.077,0.17 0.369,0.113 0.681,0.227 1.049,0.425 z M 7.625,26.192 8.022,25.71 c 0.227,-0.283 0.482,-0.595 0.708,-0.907 0.454,0.539 0.907,1.275 1.021,1.984 -0.68,-0.34 -1.247,-0.51 -2.126,-0.595 z m 7.172,-2.665 c -0.085,0.907 -0.227,1.417 -0.567,2.098 0.766,-0.142 1.446,-0.51 1.984,-1.021 -0.453,-0.368 -0.907,-0.765 -1.417,-1.077 z m 1.984,1.53 c -0.028,0.879 -0.17,1.39 -0.482,2.098 0.766,-0.17 1.417,-0.566 1.956,-1.105 -0.51,-0.255 -0.992,-0.623 -1.474,-0.993 z m 5.499,-0.679 c -0.17,0.538 -0.51,1.049 -0.992,1.445 0.851,0.028 1.502,0.113 2.183,0.397 -0.142,-0.737 -0.567,-1.361 -1.191,-1.842 z M 17.773,11.367 c 0.765,-0.113 1.502,-0.511 2.069,-0.992 -0.482,-0.368 -0.964,-0.737 -1.474,-1.049 -0.084,0.851 -0.254,1.36 -0.595,2.041 z"
       style="fill-opacity:0.34900004" /><path
       id="path3710"
       inkscape:connector-curvature="0"
       d="m 48.388,15.874 c 0,0.992 -0.369,1.786 -1.106,2.353 -0.737,0.567 -1.672,0.851 -2.807,0.851 -0.907,0 -1.757,-0.255 -2.607,-0.737 -0.397,-0.255 -0.766,-0.623 -1.021,-1.077 -0.255,-0.481 -0.397,-1.021 -0.397,-1.615 l 1.871,-0.085 c 0,0.51 0.227,0.936 0.681,1.247 0.454,0.283 0.964,0.425 1.502,0.425 1.247,0 1.871,-0.425 1.871,-1.304 0,-0.709 -0.425,-1.134 -1.275,-1.247 l -1.701,-0.17 c -0.878,-0.142 -1.559,-0.454 -2.069,-0.936 -0.482,-0.482 -0.737,-1.19 -0.737,-2.098 0,-0.908 0.34,-1.645 1.077,-2.239 0.709,-0.596 1.616,-0.907 2.721,-0.907 1.105,0 2.013,0.283 2.665,0.851 0.681,0.566 1.021,1.275 1.021,2.154 l -1.842,0.085 c -0.17,-0.851 -0.737,-1.275 -1.729,-1.275 -0.624,0 -1.077,0.113 -1.417,0.368 -0.34,0.255 -0.51,0.567 -0.51,0.907 0,0.368 0.113,0.651 0.369,0.851 0.255,0.198 0.539,0.312 0.907,0.368 l 1.701,0.17 c 1.867,0.253 2.832,1.274 2.832,3.06 z m 35.091,3.118 h -2.324 c -2.069,0 -2.523,-0.596 -2.523,-2.58 V 8.447 h 2.07 v 7.597 c 0,0.624 0.197,1.105 0.878,1.105 h 2.495 z m 10.063,0 h -2.154 l -0.596,-1.814 h -3.287 l -0.596,1.814 h -2.126 l 3.231,-9.666 c 0.143,-0.34 0.34,-0.567 0.51,-0.681 0.171,-0.142 0.397,-0.198 0.682,-0.198 0.254,0 0.48,0.057 0.623,0.17 0.17,0.113 0.34,0.369 0.453,0.709 z m -3.23,-3.543 -1.105,-4.195 -1.191,4.195 z m -35.859,0.453 1.729,-0.028 c 0,0.085 0,0.227 -0.029,0.425 0,0.228 0,0.369 -0.027,0.426 0,0.085 0,0.198 -0.029,0.368 -0.027,0.142 -0.027,0.255 -0.057,0.34 -0.027,0.057 -0.057,0.171 -0.113,0.284 -0.17,0.51 -0.651,0.936 -1.445,1.219 -0.51,0.17 -1.021,0.255 -1.588,0.255 -0.538,0 -1.02,-0.085 -1.474,-0.255 -0.453,-0.17 -0.794,-0.397 -1.049,-0.681 -0.595,-0.623 -0.878,-1.757 -0.878,-3.458 0,-1.673 0.283,-2.835 0.878,-3.43 0.255,-0.283 0.596,-0.511 1.049,-0.681 0.454,-0.198 0.936,-0.283 1.474,-0.283 1.078,0 1.871,0.283 2.438,0.794 0.538,0.538 0.821,1.275 0.821,2.239 h -1.729 c 0,-0.426 -0.113,-0.766 -0.34,-0.964 -0.227,-0.227 -0.624,-0.341 -1.219,-0.341 -0.567,0 -0.965,0.199 -1.162,0.567 -0.199,0.368 -0.284,0.907 -0.284,1.645 v 0.765 c 0,1.162 0.228,1.899 0.681,2.154 0.198,0.142 0.482,0.198 0.822,0.198 0.34,0 0.595,-0.028 0.822,-0.085 0.197,-0.085 0.367,-0.17 0.453,-0.34 0.085,-0.17 0.142,-0.312 0.17,-0.481 0.058,-0.142 0.058,-0.369 0.086,-0.652 z M 58.79,7.285 c 0.453,0 0.766,0.085 0.907,0.227 0.141,0.142 0.198,0.454 0.198,0.907 0,0.453 -0.057,0.766 -0.227,0.907 -0.143,0.142 -0.426,0.198 -0.879,0.198 -0.482,0 -0.766,-0.057 -0.907,-0.227 C 57.74,9.155 57.655,8.871 57.655,8.418 57.655,7.937 57.74,7.652 57.882,7.511 58.024,7.37 58.308,7.285 58.79,7.285 Z m 0.936,11.707 h -1.928 v -8.164 h 1.928 z"
       style="fill:#ffffff" /><path
       id="path3712"
       inkscape:connector-curvature="0"
       d="m 68.314,9.354 c 0.624,0.595 0.907,1.502 0.907,2.664 0,1.19 -0.283,2.069 -0.907,2.693 -0.595,0.595 -1.446,0.907 -2.579,0.907 h -2.014 v 3.373 H 61.653 V 8.447 h 4.082 c 1.133,0 1.985,0.283 2.579,0.907 z m -1.133,2.664 c 0,-1.162 -0.51,-1.757 -1.531,-1.757 h -1.928 v 3.486 h 1.928 c 0.482,0 0.879,-0.113 1.135,-0.396 0.253,-0.256 0.396,-0.709 0.396,-1.333 z m 10.062,-1.502 -3.203,9.411 c -0.142,0.425 -0.34,0.765 -0.596,1.021 -0.367,0.368 -0.935,0.566 -1.644,0.566 h -1.36 v -1.729 h 1.049 c 0.283,0 0.482,-0.028 0.623,-0.143 0.113,-0.085 0.227,-0.283 0.34,-0.538 l 0.143,-0.425 -2.551,-8.164 h 2.041 l 1.502,5.896 1.645,-5.896 h 2.011 z"
       style="fill:#ffd43b" /></g><g
     aria-label="Curitiba, 2018"
     style="font-style:normal;font-weight:normal;font-size:47.2964859px;line-height:125%;font-family:sans-serif;letter-spacing:0px;word-spacing:0px;fill:#000000;fill-opacity:1;stroke:none;stroke-width:1.18241227px;stroke-linecap:butt;stroke-linejoin:miter;stroke-opacity:1"
     id="text3718"><path
       d="m 100.61544,127.88116 q -0.27713,5.40399 -3.048411,8.26765 -2.748184,2.86365 -7.782674,2.86365 -5.057583,0 -8.036707,-3.8336 -2.979125,-3.8567 -2.979125,-10.43848 v -6.09681 q 0,-6.5587 3.048407,-10.3692 3.0715,-3.81051 8.360023,-3.81051 4.872832,0 7.52864,2.93293 2.678907,2.90985 2.909847,8.33693 h -4.272392 q -0.277128,-4.11073 -1.732049,-5.86587 -1.454921,-1.75514 -4.434046,-1.75514 -3.441004,0 -5.288523,2.70199 -1.847519,2.67891 -1.847519,7.87505 v 6.1661 q 0,5.10377 1.708955,7.82886 1.732049,2.72509 5.034489,2.72509 3.302441,0 4.757362,-1.63967 1.454921,-1.63968 1.801331,-5.88897 z"
       style="font-style:normal;font-variant:normal;font-weight:normal;font-stretch:normal;font-family:'Roboto Condensed';-inkscape-font-specification:'Roboto Condensed, ';fill:#f9f9f9;stroke-width:1.18241227px"
       id="path22" /><path
       d="m 118.49018,136.35665 q -2.03227,2.65581 -5.93515,2.65581 -3.39482,0 -5.12687,-2.33249 -1.73205,-2.35559 -1.75514,-6.83582 v -16.28126 h 4.06454 v 15.98104 q 0,5.84278 3.51029,5.84278 3.71813,0 5.12686,-3.32554 v -18.49828 h 4.08764 v 24.98769 h -3.87979 z"
       style="font-style:normal;font-variant:normal;font-weight:normal;font-stretch:normal;font-family:'Roboto Condensed';-inkscape-font-specification:'Roboto Condensed, ';fill:#f9f9f9;stroke-width:1.18241227px"
       id="path24" /><path
       d="m 138.97455,117.39649 q -0.85448,-0.16166 -1.84752,-0.16166 -3.14079,0 -4.38786,3.44101 v 17.87474 h -4.08764 v -24.98769 h 3.97217 l 0.0693,2.54034 q 1.63967,-3.00222 4.64189,-3.00222 0.96995,0 1.61658,0.32331 z"
       style="font-style:normal;font-variant:normal;font-weight:normal;font-stretch:normal;font-family:'Roboto Condensed';-inkscape-font-specification:'Roboto Condensed, ';fill:#f9f9f9;stroke-width:1.18241227px"
       id="path26" /><path
       d="m 147.47314,138.55058 h -4.08764 v -24.98769 h 4.08764 z m 0.32331,-31.61567 q 0,1.03923 -0.57735,1.73205 -0.57735,0.69282 -1.75514,0.69282 -1.1547,0 -1.73205,-0.69282 -0.57735,-0.69282 -0.57735,-1.73205 0,-1.03923 0.57735,-1.75514 0.57735,-0.71591 1.73205,-0.71591 1.1547,0 1.73205,0.73901 0.60044,0.71591 0.60044,1.73204 z"
       style="font-style:normal;font-variant:normal;font-weight:normal;font-stretch:normal;font-family:'Roboto Condensed';-inkscape-font-specification:'Roboto Condensed, ';fill:#f9f9f9;stroke-width:1.18241227px"
       id="path28" /><path
       d="m 159.22797,107.51226 v 6.05063 h 3.76432 v 3.30244 h -3.76432 v 15.49606 q 0,1.47802 0.48498,2.24012 0.48497,0.7621 1.66276,0.7621 0.80829,0 1.63968,-0.27713 l -0.0462,3.4641 q -1.38564,0.46188 -2.84056,0.46188 -2.42487,0 -3.69504,-1.73205 -1.27017,-1.73205 -1.27017,-4.89592 v -15.51916 h -3.81051 v -3.30244 h 3.81051 v -6.05063 z"
       style="font-style:normal;font-variant:normal;font-weight:normal;font-stretch:normal;font-family:'Roboto Condensed';-inkscape-font-specification:'Roboto Condensed, ';fill:#f9f9f9;stroke-width:1.18241227px"
       id="path30" /><path
       d="m 172.22989,138.55058 h -4.08764 v -24.98769 h 4.08764 z m 0.32331,-31.61567 q 0,1.03923 -0.57735,1.73205 -0.57734,0.69282 -1.75514,0.69282 -1.1547,0 -1.73205,-0.69282 -0.57735,-0.69282 -0.57735,-1.73205 0,-1.03923 0.57735,-1.75514 0.57735,-0.71591 1.73205,-0.71591 1.1547,0 1.73205,0.73901 0.60044,0.71591 0.60044,1.73204 z"
       style="font-style:normal;font-variant:normal;font-weight:normal;font-stretch:normal;font-family:'Roboto Condensed';-inkscape-font-specification:'Roboto Condensed, ';fill:#f9f9f9;stroke-width:1.18241227px"
       id="path32" /><path
       d="m 196.73261,127.25762 q 0,5.84278 -2.10156,8.79881 -2.10155,2.95603 -6.09681,2.95603 -3.97216,0 -5.95825,-3.41791 l -0.20784,2.95603 h -3.71814 v -35.47236 h 4.06455 v 13.23285 q 2.00917,-3.21006 5.77349,-3.21006 4.11073,0 6.1661,2.90984 2.05536,2.90984 2.07846,8.77572 z m -4.06455,-2.33249 q 0,-4.43405 -1.24707,-6.30466 -1.22398,-1.89371 -3.99526,-1.89371 -3.16388,0 -4.71117,3.41792 v 11.8934 q 1.5242,3.37172 4.75736,3.37172 2.77128,0 3.97216,-1.93989 1.20089,-1.9399 1.22398,-6.02753 z"
       style="font-style:normal;font-variant:normal;font-weight:normal;font-stretch:normal;font-family:'Roboto Condensed';-inkscape-font-specification:'Roboto Condensed, ';fill:#f9f9f9;stroke-width:1.18241227px"
       id="path34" /><path
       d="m 214.86139,138.55058 q -0.36951,-0.80829 -0.53116,-2.72509 -2.17084,3.18697 -5.54256,3.18697 -3.39482,0 -5.31162,-1.8937 -1.8937,-1.91681 -1.8937,-5.3809 0,-3.81051 2.58652,-6.05063 2.58653,-2.24011 7.08986,-2.2863 h 3.00221 v -2.65581 q 0,-2.24012 -0.99304,-3.18697 -0.99304,-0.94686 -3.02531,-0.94686 -1.84752,0 -3.00222,1.10852 -1.1547,1.08541 -1.1547,2.77127 h -4.08763 q 0,-1.9168 1.1316,-3.64885 1.13161,-1.75514 3.04841,-2.74818 1.9168,-0.99304 4.27239,-0.99304 3.8336,0 5.81968,1.9168 2.00918,1.89371 2.05537,5.54256 v 12.60931 q 0.0231,2.88675 0.78519,5.0114 v 0.3695 z m -5.45018,-3.25625 q 1.50111,0 2.86365,-0.83138 1.36255,-0.83139 1.98608,-2.07846 v -5.95825 h -2.30939 q -2.90985,0.0462 -4.59571,1.31636 -1.68586,1.24707 -1.68586,3.51028 0,2.12465 0.85448,3.0946 0.85448,0.94685 2.88675,0.94685 z"
       style="font-style:normal;font-variant:normal;font-weight:normal;font-stretch:normal;font-family:'Roboto Condensed';-inkscape-font-specification:'Roboto Condensed, ';fill:#f9f9f9;stroke-width:1.18241227px"
       id="path36" /><path
       d="m 224.67633,145.24784 -2.42487,-1.66277 q 2.17083,-3.02531 2.26321,-6.23537 v -3.8567 h 4.18001 v 3.34863 q 0,2.33249 -1.1547,4.66498 -1.1316,2.3325 -2.86365,3.74123 z"
       style="font-style:normal;font-variant:normal;font-weight:normal;font-stretch:normal;font-family:'Roboto Condensed';-inkscape-font-specification:'Roboto Condensed, ';fill:#f9f9f9;stroke-width:1.18241227px"
       id="path38" /><path
       d="M 263.22021,138.55058 H 244.4217 v -3.0715 l 9.584,-12.70169 q 2.17084,-2.93294 3.00222,-4.80355 0.85448,-1.89371 0.85448,-3.99526 0,-2.6789 -1.24707,-4.34167 -1.24708,-1.66277 -3.27935,-1.66277 -2.56343,0 -3.97217,1.77824 -1.38564,1.75514 -1.38564,5.08068 h -4.08763 q 0,-4.64189 2.54034,-7.50555 2.54034,-2.86365 6.9051,-2.86365 4.01835,0 6.32775,2.47105 2.3094,2.44797 2.3094,6.5356 0,4.9883 -5.19615,11.80103 l -7.48245,9.79185 h 13.92568 z"
       style="font-style:normal;font-variant:normal;font-weight:normal;font-stretch:normal;font-family:'Roboto Condensed';-inkscape-font-specification:'Roboto Condensed, ';fill:#f9f9f9;stroke-width:1.18241227px"
       id="path40" /><path
       d="m 285.75993,124.20922 q 0,7.43626 -2.17083,11.1313 -2.17084,3.67194 -6.81273,3.67194 -4.50333,0 -6.72035,-3.53338 -2.21702,-3.53338 -2.3094,-10.62323 v -5.7735 q 0,-7.36698 2.17084,-10.99274 2.19392,-3.62575 6.81272,-3.62575 4.54952,0 6.72035,3.441 2.19393,3.44101 2.3094,10.41539 z m -4.08763,-5.84278 q 0,-5.33471 -1.1778,-7.85196 -1.17779,-2.54034 -3.76432,-2.54034 -2.51724,0 -3.69504,2.49415 -1.17779,2.47106 -1.22398,7.48246 v 6.92819 q 0,5.31162 1.22398,7.99052 1.22399,2.65581 3.74123,2.65581 2.49415,0 3.67194,-2.51724 1.1778,-2.51725 1.22399,-7.6903 z"
       style="font-style:normal;font-variant:normal;font-weight:normal;font-stretch:normal;font-family:'Roboto Condensed';-inkscape-font-specification:'Roboto Condensed, ';fill:#f9f9f9;stroke-width:1.18241227px"
       id="path42" /><path
       d="m 303.33445,138.55058 h -4.11073 V 110.0757 l -7.06676,3.16387 v -3.87979 l 10.53086,-4.5957 h 0.64663 z"
       style="font-style:normal;font-variant:normal;font-weight:normal;font-stretch:normal;font-family:'Roboto Condensed';-inkscape-font-specification:'Roboto Condensed, ';fill:#f9f9f9;stroke-width:1.18241227px"
       id="path44" /><path
       d="m 331.83244,113.70145 q 0,2.51725 -1.13161,4.48024 -1.10851,1.96299 -3.00221,3.0715 2.24011,1.1547 3.51028,3.32553 1.27017,2.14774 1.27017,4.89593 0,4.34167 -2.47106,6.95129 -2.44796,2.58652 -6.5125,2.58652 -4.06454,0 -6.5356,-2.58652 -2.44796,-2.60962 -2.44796,-6.95129 0,-2.77128 1.24707,-4.94212 1.27017,-2.19393 3.44101,-3.30244 -1.89371,-1.10851 -2.97913,-3.0484 -1.08541,-1.96299 -1.08541,-4.48024 0,-4.24929 2.2863,-6.74344 2.3094,-2.49415 6.07372,-2.49415 3.74123,0 6.02753,2.47105 2.3094,2.47106 2.3094,6.76654 z m -3.44101,15.68082 q 0,-2.88675 -1.36254,-4.6188 -1.36255,-1.75514 -3.57957,-1.75514 -2.26321,0 -3.57957,1.75514 -1.29326,1.75515 -1.29326,4.6188 0,2.90984 1.27017,4.52642 1.29326,1.61658 3.64885,1.61658 2.35559,0 3.62576,-1.61658 1.27016,-1.61658 1.27016,-4.52642 z m -0.62353,-15.61154 q 0,-2.56343 -1.20089,-4.18001 -1.20089,-1.61658 -3.0715,-1.61658 -1.96299,0 -3.11769,1.59349 -1.1547,1.59348 -1.1547,4.2031 0,2.63272 1.1778,4.18002 1.17779,1.54729 3.09459,1.54729 1.96299,0 3.11769,-1.57039 1.1547,-1.57039 1.1547,-4.15692 z"
       style="font-style:normal;font-variant:normal;font-weight:normal;font-stretch:normal;font-family:'Roboto Condensed';-inkscape-font-specification:'Roboto Condensed, ';fill:#f9f9f9;stroke-width:1.18241227px"
       id="path46" /></g></svg>