<?xml version="1.0" encoding="UTF-8" standalone="no"?>
<!-- Generator: Adobe Illustrator 16.0.0, SVG Export Plug-In . SVG Version: 6.00 Build 0)  -->

<svg
   xmlns:dc="http://purl.org/dc/elements/1.1/"
   xmlns:cc="http://creativecommons.org/ns#"
   xmlns:rdf="http://www.w3.org/1999/02/22-rdf-syntax-ns#"
   xmlns:svg="http://www.w3.org/2000/svg"
   xmlns="http://www.w3.org/2000/svg"
   xmlns:sodipodi="http://sodipodi.sourceforge.net/DTD/sodipodi-0.dtd"
   xmlns:inkscape="http://www.inkscape.org/namespaces/inkscape"
   version="1.1"
   x="0px"
   y="0px"
   width="54px"
   height="67px"
   viewBox="39.6 -36.804 54 67"
   enable-background="new 39.6 -36.804 54 67"
   xml:space="preserve"
   id="svg29"
   sodipodi:docname="scipyla.v.svg"
   inkscape:version="0.92.2 (5c3e80d, 2017-08-06)"><metadata
     id="metadata35"><rdf:RDF><cc:Work
         rdf:about=""><dc:format>image/svg+xml</dc:format><dc:type
           rdf:resource="http://purl.org/dc/dcmitype/StillImage" /><dc:title /></cc:Work></rdf:RDF></metadata><defs
     id="defs33" /><sodipodi:namedview
     pagecolor="#ffffff"
     bordercolor="#666666"
     borderopacity="1"
     objecttolerance="10"
     gridtolerance="10"
     guidetolerance="10"
     inkscape:pageopacity="0"
     inkscape:pageshadow="2"
     inkscape:window-width="1920"
     inkscape:window-height="1053"
     id="namedview31"
     showgrid="false"
     inkscape:pagecheckerboard="true"
     inkscape:zoom="9.9628179"
     inkscape:cx="16.927333"
     inkscape:cy="15.924181"
     inkscape:window-x="0"
     inkscape:window-y="27"
     inkscape:window-maximized="1"
     inkscape:current-layer="g26"
     showguides="true"
     inkscape:guide-bbox="true"><sodipodi:guide
       position="0.85,14.291"
       orientation="1,0"
       id="guide25"
       inkscape:locked="false" /><sodipodi:guide
       position="53.097427,-7.4276174"
       orientation="1,0"
       id="guide27"
       inkscape:locked="false" /></sodipodi:namedview><g
     id="Camada_2"
     display="none"><rect
       x="29.8"
       y="-44"
       display="inline"
       fill="#71BE90"
       width="78.75"
       height="82"
       id="rect2" /></g><g
     id="svg3685"
     sodipodi:docname="scipyla.h.svg"
     inkscape:version="0.91 r13725"><sodipodi:namedview
       borderopacity="1"
       pagecolor="#000000"
       guidetolerance="10"
       inkscape:zoom="6.9018878"
       inkscape:cy="25.708421"
       objecttolerance="10"
       bordercolor="#666666"
       gridtolerance="10"
       id="namedview3716"
       inkscape:cx="51.837084"
       showgrid="false"
       inkscape:pageopacity="0"
       inkscape:pageshadow="2"
       inkscape:window-width="1233"
       inkscape:window-height="670"
       inkscape:window-x="18"
       inkscape:window-y="21"
       inkscape:window-maximized="0"
       inkscape:current-layer="Capa_x0020_1"
       showguides="false" /><g
       id="g26"><g
         id="g14"><path
           id="path3694"
           inkscape:connector-curvature="0"
           fill="#14365B"
           d="M67.081-35.913c9.439,0.028,17.149,7.313,17.915,16.555     L70.597-0.169C69.405,0.087,68.187,0.2,66.939,0.2c-9.581-0.028-17.376-7.512-17.971-16.895l14.513-18.879     C64.644-35.8,65.834-35.913,67.081-35.913z" /><path
           id="path3696"
           inkscape:connector-curvature="0"
           fill="#0E253F"
           d="M65.04-34.609c0.709-0.481,1.361-0.935,2.041-1.304     c-7.369-0.028-14.088,4.45-16.865,11.367c-0.964,2.409-1.389,4.988-1.247,7.568c0.028,0.736,0.113,1.474,0.227,2.183     c0.312-0.652,0.652-1.275,0.992-1.843c0.34-0.538,0.737-1.474,1.247-1.843c0.681-0.453,1.332-0.312,1.955,0.171     c0.936,0.736,3.203,2.862,4.365,2.976c0.482,0.057,0.709-0.283,0.624-0.708c-0.113-0.482-0.651-1.049-1.332-1.616     c-1.134-0.907-2.438-1.871-2.835-2.296c-0.481-0.539-0.595-0.964-0.453-1.445c0.17-0.794,0.964-1.984,1.332-2.608     c0.283-0.453,0.624-0.936,0.964-1.417l0,0c2.353-3.345,6.038-7.285,8.106-8.504l0,0L65.04-34.609z" /><path
           id="path3698"
           inkscape:connector-curvature="0"
           fill="#0E253F"
           d="M68.952-1.104c-0.68,0.482-1.36,0.936-2.013,1.305     c7.342,0.028,14.089-4.45,16.838-11.367c0.935-2.324,1.389-4.875,1.247-7.597c-0.028-0.709-0.113-1.445-0.227-2.183     c-0.313,0.652-0.624,1.275-0.992,1.871l-0.482,0.766c-0.34,0.481-0.906,1.644-1.36,1.955c-0.651,0.454-1.332,0.313-1.927-0.142     c-0.965-0.766-3.232-2.891-4.395-3.005c-0.481-0.028-0.709,0.313-0.623,0.709c0.113,0.482,0.652,1.077,1.36,1.616     c1.105,0.906,2.409,1.87,2.806,2.324c0.737,0.793,0.596,1.36,0.113,2.324c-1.615,3.43-6.717,9.155-9.467,10.743l0,0L68.952-1.104     z" /><path
           id="path3700"
           inkscape:connector-curvature="0"
           fill="#FFFFFF"
           d="M79.979-27.749c-0.086-0.113-0.058-0.284,0.057-0.369     c0.113-0.085,0.283-0.085,0.367,0.028c0.992,1.305,1.787,2.722,2.382,4.28c0.538,1.503,0.907,3.09,1.021,4.791     c0.34,4.62-1.248,8.957-4.082,12.217s-6.916,5.442-11.537,5.755c-4.648,0.34-8.985-1.276-12.245-4.082     c-3.26-2.835-5.414-6.917-5.754-11.565c-0.312-4.62,1.275-8.957,4.081-12.217c2.835-3.26,6.889-5.414,11.509-5.755h0.142     c1.928-0.142,3.799,0.085,5.584,0.567c1.843,0.51,3.6,1.332,5.159,2.438c0.114,0.085,0.142,0.255,0.058,0.368     c-0.086,0.114-0.256,0.143-0.369,0.058c-1.502-1.049-3.203-1.843-4.988-2.354c-1.758-0.481-3.601-0.68-5.5-0.538     c-4.507,0.312-8.447,2.409-11.168,5.556c-2.749,3.175-4.28,7.37-3.969,11.849c0.313,4.507,2.41,8.447,5.584,11.168     c3.146,2.75,7.342,4.28,11.82,3.969c4.508-0.312,8.447-2.409,11.197-5.556c2.721-3.175,4.252-7.37,3.939-11.849     c-0.113-1.616-0.453-3.175-0.992-4.62C81.708-25.113,80.914-26.502,79.979-27.749z" /><path
           id="path3702"
           inkscape:connector-curvature="0"
           fill-opacity="0.302"
           d="M58.124-21.399L58.124-21.399     c0.057,3.345,0.992,5.612,4.195,6.604c0.623,0.198,1.247,0.312,1.871,0.34c1.219,0.113,1.898,0.057,3.061,0.057     c1.786,0.028,4.168,0.652,4.025,2.693c0.028-0.113,0.057-0.228,0.057-0.369l0,0v-0.028c0,0,0-0.028,0-0.057l0,0v-0.028l0,0l0,0     c0.029-0.028,0.029-0.057,0.029-0.085l0,0v-0.028l0,0v-0.028l0,0l0,0v-0.057l0,0l0,0l0,0v-0.028l0,0l0,0v-0.028l0,0v-0.028l0,0     l0,0v-0.028l0,0v-0.028l0,0h-0.029l0,0v-0.028l0,0v-0.028l0,0v-0.028l0,0l0,0l0,0v-0.028l0,0v-0.028l0,0l0,0v-0.028l0,0l0,0     v-0.028l0,0v-0.028l0,0l0,0v-0.028l0,0l-0.028-0.028l0,0v-0.028v-0.028l0,0l0,0v-0.028l0,0l0,0v-0.028l0,0v-0.029l0,0l0,0l0,0     l-0.028-0.028v-0.028v-0.028l0,0l0,0v-0.028v-0.028h-0.028v-0.028l0,0v-0.028v-0.028l0,0l0,0l-0.028-0.028v-0.028l0,0v-0.028     l-0.028-0.028v-0.028l0,0l0,0l0,0v-0.028l0,0l-0.028-0.028l0,0l0,0l0,0v-0.028v-0.028h-0.028l0,0v-0.028v-0.028v-0.028h-0.028     v-0.028v-0.028h-0.028l0,0v-0.028v-0.028l0,0H71.05v-0.028l0,0c0,0,0-0.028-0.028-0.028l0,0v-0.028v-0.028h-0.028v-0.028     l-0.028-0.028l0,0v-0.028l0,0l-0.028-0.028l0,0l0,0v-0.028l-0.028-0.028l0,0l0,0l-0.028-0.028l0,0l0,0l0,0l-0.028-0.028v-0.028     l0,0l0,0l0,0l-0.028-0.029l0,0v-0.028l0,0h-0.028l0,0v-0.028l0,0h-0.028l0,0v-0.028l0,0l-0.029-0.028l0,0l0,0l0,0l-0.027-0.028     l0,0V-14.2l0,0h-0.029l0,0c0-0.028,0-0.028-0.027-0.028l0,0c0-0.028,0-0.028-0.029-0.057l0,0c0,0-0.027,0-0.027-0.028l0,0     l-0.029-0.028l0,0L70.54-14.37l0,0c-0.029-0.028-0.029-0.028-0.029-0.028l0,0c-0.027-0.028-0.027-0.028-0.057-0.028l0,0     c0-0.028,0-0.028-0.027-0.057l0,0c0,0-0.029,0-0.029-0.028l0,0c-0.027,0-0.027,0-0.027-0.028l0,0     c-0.029,0-0.029-0.028-0.057-0.028l0,0l-0.029-0.028l0,0l-0.027-0.028l0,0c-0.029,0-0.029-0.028-0.058-0.028l0,0l-0.028-0.028     l0,0c-0.028,0-0.028-0.028-0.057-0.028l0,0l-0.028-0.028l0,0c-0.028,0-0.028-0.028-0.057-0.028l0,0l-0.028-0.028l0,0     c-0.028,0-0.028-0.028-0.057-0.028l0,0l-0.028-0.028l0,0c-0.028,0-0.028-0.028-0.057-0.028l0,0l-0.028-0.028l0,0     c-0.028,0-0.028,0-0.057-0.028l0,0c-0.028,0-0.028,0-0.057-0.028l0,0h-0.029l0,0c-0.027-0.028-0.027-0.028-0.057-0.028l0,0     c-0.027-0.028-0.027-0.028-0.057-0.028l0,0c0,0-0.027-0.028-0.057-0.028l0,0c0,0-0.027,0-0.027-0.028l0,0     c-0.029,0-0.057,0-0.057,0l0,0c-0.029-0.029-0.029-0.029-0.057-0.029l0,0c-0.029,0-0.029-0.028-0.057-0.028l0,0     c-0.029,0-0.029,0-0.057-0.028l0,0c0,0-0.029,0-0.057,0l0,0c0-0.028-0.029-0.028-0.058-0.028l0,0l-0.057-0.028l0,0     c0,0-0.028,0-0.057,0l0,0c0-0.028-0.028-0.028-0.057-0.028l0,0c0,0-0.028,0-0.057-0.028l0,0c-0.028,0-0.028,0-0.057,0l0,0     c-0.028,0-0.028,0-0.057-0.028l0,0c-0.028,0-0.028,0-0.057,0l0,0c-0.028,0-0.057,0-0.057-0.028l0,0c-0.028,0-0.057,0-0.085,0l0,0     c0,0-0.029,0-0.057-0.028l0,0h-0.057l0,0c-0.029,0-0.057,0-0.057,0l0,0c-0.029-0.028-0.057-0.028-0.086-0.028l0,0     c0,0-0.027,0-0.057,0l0,0c-0.027,0-0.057,0-0.057-0.028l0,0c-0.027,0-0.057,0-0.084,0l0,0c0,0-0.029,0-0.057,0l0,0     c-0.029,0-0.058,0-0.086,0l0,0l-0.057-0.028l0,0c-0.028,0-0.057,0-0.085,0l0,0c0,0-0.028,0-0.057,0l0,0c-0.028,0-0.057,0-0.085,0     l0,0c0,0-0.028,0-0.057,0l0,0c-0.028-0.028-0.057-0.028-0.085-0.028l0,0c-0.028,0-0.058,0-0.058,0l0,0c-0.027,0-0.057,0-0.084,0     l0,0c-0.029,0-0.057,0-0.086,0l0,0c-0.027,0-0.057,0-0.084,0l0,0h-0.029l0,0h-0.057l0,0h-0.057l0,0h-0.057l0,0h-0.057h-0.057l0,0     h-0.028h-0.057l0,0h-0.057H66.77l0,0h-0.028h-0.057h-0.057H66.6h-0.057l0,0h-0.028l0,0h-0.057h-0.057l0,0h-0.029l0,0h-0.057l0,0     h-0.027h-0.057h-0.029l0,0h-0.057l0,0h-0.057l0,0h-0.027l0,0h-0.057h-0.029h-0.057h-0.028l0,0h-0.057l0,0h-0.028h-0.057l0,0     h-0.028l0,0h-0.057l0,0h-0.028h-0.057l0,0h-0.057h-0.028l0,0h-0.057l0,0h-0.028l0,0h-0.057l0,0h-0.057l0,0h-0.029l0,0H65.21l0,0     h-0.027l0,0h-0.057h-0.057l0,0H65.04l0,0h-0.057l0,0l-0.057-0.028l0,0H64.87h-0.028l0,0h-0.057l0,0h-0.057l0,0h-0.057l0,0h-0.057     l0,0h-0.028H64.53l0,0h-0.057l0,0l-0.057-0.028l0,0H64.36l0,0h-0.057l0,0h-0.057l0,0h-0.029l0,0H64.19l0,0h-0.029l0,0h-0.027l0,0     h-0.029l0,0l-0.027-0.028h-0.029l0,0h-0.027l0,0h-0.057l0,0h-0.029h-0.027l0,0h-0.029l0,0h-0.027h-0.029l-0.027-0.028h-0.058l0,0     h-0.028l0,0H63.68h-0.028l0,0h-0.028c-0.028-0.028-0.057-0.028-0.085-0.028H63.51l0,0h-0.028h-0.028l0,0l-0.028-0.028h-0.028     h-0.028l0,0H63.34h-0.057l0,0l-0.028-0.028l0,0h-0.029l0,0h-0.027h-0.029l0,0h-0.027l0,0l-0.029-0.028h-0.027h-0.029l0,0h-0.027     l0,0l-0.057-0.028h-0.029h-0.027l0,0h-0.029l0,0l-0.027-0.028h-0.029h-0.027l0,0h-0.029l0,0l-0.027-0.028h-0.029h-0.028h-0.028     l-0.028-0.028h-0.028l0,0h-0.028h-0.028l-0.028-0.028h-0.028h-0.028l0,0l-0.028-0.028h-0.028h-0.028     c-0.057-0.028-0.085-0.028-0.142-0.057l-0.057-0.028c-0.028,0-0.085-0.028-0.114-0.028h-0.027     c-0.057-0.028-0.113-0.057-0.143-0.057l-0.057-0.028c-0.027-0.028-0.057-0.028-0.113-0.057h-0.027     c-0.029-0.028-0.086-0.058-0.143-0.058l-0.028-0.028c-0.028-0.028-0.085-0.028-0.113-0.057l-0.028-0.028     c-0.057,0-0.085-0.028-0.142-0.057l-0.028-0.028c-0.028,0-0.057-0.028-0.113-0.057l-0.029-0.028     c-0.027,0-0.084-0.028-0.113-0.057l-0.027-0.028c-0.029-0.028-0.086-0.028-0.113-0.057l-0.029-0.028     c-0.057-0.028-0.084-0.057-0.113-0.085h-0.027c-0.029-0.028-0.057-0.057-0.114-0.085l-0.028-0.028     c-0.028-0.028-0.057-0.057-0.085-0.085l-0.028-0.028c-0.057-0.028-0.085-0.057-0.113-0.085l-0.028-0.028     c-0.028-0.028-0.057-0.057-0.085-0.057l-0.028-0.028c-0.057-0.057-0.085-0.085-0.113-0.114l-0.028-0.028     c-0.029-0.028-0.057-0.057-0.086-0.085l-0.027-0.028c-0.029-0.028-0.057-0.057-0.086-0.085l-0.027-0.028     c-0.029-0.028-0.057-0.057-0.086-0.085l-0.027-0.028c-0.029-0.057-0.057-0.085-0.086-0.113l-0.027-0.028     c-0.029-0.028-0.057-0.057-0.086-0.085l-0.028-0.057c-0.028-0.028-0.028-0.057-0.057-0.085c0,0-0.028,0-0.028-0.028     c-0.028-0.028-0.057-0.057-0.085-0.113l-0.028-0.028c-0.028-0.028-0.028-0.057-0.057-0.085l-0.028-0.028     c-0.028-0.058-0.028-0.086-0.057-0.114l-0.028-0.057c-0.028-0.028-0.028-0.057-0.057-0.085l-0.028-0.057     c-0.028-0.028-0.058-0.057-0.058-0.113c-0.027,0-0.027-0.028-0.027-0.028c-0.029-0.028-0.029-0.057-0.057-0.085l-0.029-0.057     c0-0.028-0.027-0.057-0.027-0.085c-0.029-0.028-0.029-0.057-0.057-0.085c0-0.028-0.029-0.057-0.029-0.085l-0.027-0.057     c0-0.028-0.029-0.057-0.029-0.085c-0.027-0.028-0.027-0.028-0.027-0.057c-0.029-0.028-0.029-0.057-0.057-0.114     c0,0,0-0.028,0-0.057c-0.029-0.028-0.029-0.057-0.029-0.057c-0.027-0.028-0.027-0.057-0.027-0.057     c-0.029-0.057-0.029-0.085-0.057-0.142c0,0,0-0.028,0-0.057c-0.029-0.028-0.029-0.057-0.029-0.057     c0-0.028-0.028-0.057-0.028-0.085s-0.028-0.057-0.028-0.113c0-0.028,0-0.028-0.028-0.057c0-0.028,0-0.057,0-0.085     c-0.028-0.028-0.028-0.028-0.028-0.057s-0.028-0.085-0.028-0.113s0-0.057,0-0.085c-0.028-0.029-0.028-0.029-0.028-0.058     s0-0.057,0-0.085c-0.028-0.028-0.028-0.057-0.028-0.085s0-0.057,0-0.085c-0.028-0.028-0.028-0.057-0.028-0.085s0-0.057,0-0.085     c0,0,0-0.028,0-0.057c-0.028-0.028-0.028-0.057-0.028-0.085c0-0.057,0-0.085,0-0.113s0-0.028,0-0.057s0-0.057,0-0.085     C58.124-21.371,58.124-21.399,58.124-21.399L58.124-21.399z M57.302-2.606c-0.34-0.481-0.255-0.964,0-1.474     c0.086-0.142,0.199-0.284,0.313-0.426c0.113-0.17,0.227-0.312,0.368-0.481c0.821-0.907,2.041-2.637,2.835-3.26l0.027-0.028l0,0     l0,0v-0.028h0.029l0,0l0.027-0.028l0,0h0.029l0,0l0,0l0.027-0.028l0,0l0,0l0.029-0.028l0,0h0.027l0,0l0.029-0.028l0,0l0,0l0,0     h0.027l0.029-0.028l0,0h0.028l0,0l0.028-0.028l0,0l0,0l0,0h0.028l0,0h0.028l0,0c0-0.028,0.028-0.028,0.028-0.028l0,0h0.028l0,0     h0.028l0,0c0-0.028,0.028-0.028,0.057-0.028l0,0c0.028,0,0.028,0,0.057,0l0,0h0.028l0,0c0.227-0.028,0.453,0.028,0.68,0.17l0,0     c0.369,0.198,0.738,0.538,1.22,0.936c1.389,1.077,3.43,2.494,6.038,2.183c4.336-0.511,8.22-5.499,4.024-10.403v0.028h0.028l0,0     l0,0l0,0l0,0l0,0l0,0l0,0l0,0v0.028l0,0l0,0l0,0l0,0c0.028,0.028,0.028,0.028,0.057,0.057l0,0     c0.17,0.283,0.313,0.567,0.453,0.879v0.028c0.143,0.312,0.228,0.624,0.313,0.964l0,0c0,0,0,0.028,0,0.057     c0.028,0.028,0.028,0.057,0.028,0.085l0,0c0,0.028,0,0.057,0.028,0.085l0,0c0,0.028,0,0.057,0,0.085l0,0v0.028l0,0     c0.028,0.028,0.028,0.057,0.028,0.085l0,0c0,0.057,0,0.085,0,0.142l0,0c0.028,0.028,0.028,0.085,0.028,0.113l0,0     c0,0.028,0,0.058,0,0.086l0,0v0.057v0.057l0,0l0.028,0.028l0,0c0,0.028,0,0.057,0,0.085l0,0v0.057c0,0.028,0,0.057,0,0.085l0,0     c0,0.028,0,0.057,0,0.085l0,0c0,0.028,0,0.085,0,0.113v0.057l0,0v0.028l0,0v0.057v0.028v0.057l0,0v0.028l0,0v0.057l-0.028,0.028     v0.057v0.028v0.058v0.057v0.028v0.057l-0.028,0.028v0.057v0.028v0.057v0.028L74.31-11.45v0.028v0.057l0,0v0.028l0,0l-0.028,0.057     v0.028v0.057l0,0v0.028l0,0l-0.028,0.057l0,0v0.028l0,0v0.057l0,0l-0.028,0.028l0,0v0.057l0,0v0.028l0,0l-0.028,0.057l0,0     c0,0.028,0,0.057-0.028,0.086l0,0c0,0.028,0,0.057-0.028,0.085l0,0c0,0.028,0,0.057-0.028,0.085l0,0     c0,0.057-0.028,0.113-0.057,0.198c0,0.028,0,0.057-0.028,0.085c0,0.028,0,0.057-0.029,0.085c0,0.028-0.027,0.057-0.027,0.085     c-0.029,0.028-0.029,0.057-0.029,0.085c-0.027,0.057-0.057,0.113-0.084,0.17c0,0.028-0.029,0.057-0.029,0.085l0,0     C73.8-9.778,73.8-9.75,73.771-9.721c0,0.029-0.027,0.058-0.027,0.086l0,0c-0.029,0.057-0.057,0.113-0.113,0.17     c-0.029,0.057-0.057,0.113-0.086,0.17l0,0c0,0.028-0.027,0.057-0.057,0.085l0,0c0,0.028-0.028,0.057-0.028,0.085     c-0.028,0.028-0.057,0.057-0.057,0.085c-0.028,0.057-0.085,0.113-0.113,0.142s-0.028,0.057-0.057,0.085l0,0     c-0.028,0.028-0.028,0.057-0.057,0.085s-0.028,0.057-0.057,0.085c-0.028,0-0.057,0.029-0.057,0.058l0,0     c-0.028,0.028-0.057,0.057-0.057,0.085c-0.028,0.028-0.058,0.057-0.085,0.057l0,0c0,0.028-0.029,0.057-0.057,0.085l0,0     c-0.029,0.028-0.057,0.057-0.057,0.085c-0.029,0-0.057,0.028-0.086,0.057l0,0c0,0.028-0.027,0.057-0.057,0.085l0,0     c-0.027,0-0.057,0.028-0.084,0.057c0,0.028-0.029,0.057-0.057,0.057c-0.029,0.028-0.057,0.057-0.086,0.085     c0,0.028-0.027,0.028-0.057,0.057c-0.028,0.028-0.057,0.057-0.085,0.057c-0.028,0.028-0.057,0.057-0.085,0.085l0,0     c0,0-0.028,0.028-0.057,0.057s-0.057,0.028-0.085,0.057l0,0c-0.028,0.028-0.057,0.028-0.085,0.057     C71.957-7.538,71.929-7.51,71.9-7.51c-0.028,0.028-0.058,0.057-0.085,0.057c-0.029,0.028-0.057,0.057-0.086,0.057l0,0     c-0.027,0.028-0.057,0.057-0.084,0.057c-0.029,0.028-0.057,0.028-0.086,0.057l0,0c-0.027,0.028-0.057,0.028-0.084,0.057l0,0     c-0.029,0.028-0.057,0.028-0.086,0.057c-0.027,0-0.057,0.028-0.085,0.057c-0.028,0-0.057,0.028-0.085,0.028l0,0     c-0.057,0.028-0.085,0.028-0.113,0.057l0,0C71.078-7,71.05-7,71.021-6.971l0,0c-0.028,0-0.057,0.028-0.085,0.028     c-0.057,0.028-0.085,0.028-0.113,0.057l0,0c-0.028,0-0.057,0.028-0.086,0.028l0,0c-0.057,0.028-0.084,0.028-0.113,0.057l0,0     c-0.027,0-0.057,0.028-0.084,0.028l0,0c-0.057,0-0.086,0.028-0.113,0.028l0,0c-0.029,0.028-0.057,0.028-0.113,0.057     c-0.029,0-0.057,0-0.086,0.028l0,0c-0.057,0-0.085,0.028-0.113,0.028l0,0c-0.028,0-0.085,0.028-0.113,0.028l0,0     c-0.028,0-0.057,0.028-0.113,0.028l0,0c-0.028,0.028-0.085,0.028-0.113,0.028l0,0c-0.057,0.028-0.086,0.028-0.143,0.028l0,0     C69.575-6.49,69.548-6.49,69.491-6.49l0,0c-0.029,0.029-0.086,0.029-0.113,0.029l0,0c-0.057,0.028-0.086,0.028-0.143,0.028l0,0     c-0.027,0-0.085,0-0.113,0.028l0,0c-0.057,0-0.085,0-0.113,0l0,0c-0.057,0-0.085,0-0.142,0.028l0,0c-0.028,0-0.085,0-0.113,0     s-0.085,0-0.113,0c-0.058,0-0.085,0-0.142,0c-0.029,0-0.057,0-0.113,0c-0.029,0-0.057,0-0.113,0c-0.029,0-0.086,0-0.113,0     c-0.029,0-0.086,0-0.114,0s-0.085,0-0.113,0c-0.028-0.028-0.085-0.028-0.113-0.028s-0.085,0-0.113,0l0,0     c-0.028-0.028-0.057-0.028-0.113-0.028l0,0c-0.028,0-0.058,0-0.114-0.028c-0.027,0-0.057,0-0.084,0     C67.337-6.49,67.308-6.49,67.28-6.49c-0.029,0-0.086-0.028-0.113-0.028c-0.029,0-0.057-0.028-0.113-0.028l0,0     c-0.029,0-0.058-0.028-0.086-0.028s-0.085-0.028-0.113-0.028c-0.028-0.028-0.057-0.028-0.113-0.028     c-0.028-0.028-0.057-0.028-0.085-0.057c-0.028,0-0.057-0.028-0.113-0.028c-0.028,0-0.057-0.028-0.085-0.028     c-0.029-0.028-0.086-0.028-0.113-0.057c-0.029,0-0.057-0.028-0.086-0.028c-0.027-0.028-0.057-0.028-0.113-0.057l0,0     c-0.027,0-0.057-0.028-0.084-0.057c-0.029,0-0.057-0.028-0.086-0.028C65.919-7,65.891-7,65.862-7.028l0,0     c-0.028-0.028-0.057-0.028-0.085-0.057l0,0c-0.028,0-0.057-0.028-0.085-0.057l0,0c-0.057,0-0.085-0.028-0.113-0.028     c-0.028-0.028-0.057-0.057-0.085-0.057c-0.028-0.028-0.057-0.057-0.085-0.057C65.38-7.311,65.353-7.34,65.296-7.34     c-0.057-0.057-0.113-0.085-0.17-0.113C65.097-7.481,65.069-7.51,65.04-7.51c-0.027-0.028-0.057-0.058-0.084-0.086l0,0     c-0.029,0-0.057-0.028-0.114-0.057c-0.028-0.028-0.057-0.028-0.085-0.057l0,0c-0.028-0.028-0.057-0.057-0.085-0.057l0,0     c-0.028-0.028-0.057-0.057-0.085-0.085l0,0c-0.028,0-0.057-0.028-0.085-0.057l0,0c-0.057-0.028-0.113-0.085-0.17-0.113     l-0.085-0.085l0,0c-0.086-0.057-0.17-0.142-0.256-0.198l0,0c-0.057-0.057-0.113-0.085-0.17-0.142h-0.027     c-0.058-0.028-0.114-0.085-0.171-0.142l0,0c-0.085-0.058-0.17-0.143-0.255-0.199l-0.057-0.057l0,0l-0.086-0.085l0,0     c-0.85-0.736-1.729-1.672-2.806-0.595l-0.028,0.028l0,0c-0.028,0.028-0.028,0.028-0.057,0.028l0,0l-0.028,0.028l0,0l-0.028,0.028     l0,0L60.25-9.381l0,0l-0.028,0.057l0,0l-0.028,0.028l0,0l-0.028,0.028l0,0l-0.028,0.028l0,0l-0.028,0.028l0,0L60.08-9.182l0,0     l-0.368,0.481l0,0L56.82-5.1l-0.028,0.028l-0.17,0.198c-0.057,0.085-0.086,0.142-0.143,0.198     c-0.027,0.028-0.027,0.057-0.057,0.113l0,0l0,0c-0.227,0.454-0.17,0.964,0.143,1.361l0.368,0.34L57.302-2.606z M62.149-19.444     c-1.389-2.409,0.879-4.818,3.117-3.543c1.305,0.737,2.24,1.956,3.431,2.608c1.786,0.963,4.251,1.19,6.095-2.382l0,0l0,0     l-0.029,0.028l0,0l0,0v0.028h-0.027v0.028l0,0h-0.029v0.028l0,0l-0.027,0.029l0,0l0,0l-0.029,0.028l0,0v0.028h-0.027l0,0v0.028     l-0.057,0.057v0.028l0,0h-0.029l-0.028,0.028v0.028l0,0l0,0l-0.028,0.028l0,0l0,0v0.028h-0.028l0,0v0.028l0,0h-0.028v0.028l0,0     l0,0h-0.028v0.028l0,0l0,0l-0.028,0.028l0,0l0,0l0,0l0,0l-0.028,0.028l0,0l0,0v0.028l0,0H74.31l0,0v0.028l0,0l0,0l0,0h-0.028l0,0     v0.028l0,0l0,0l0,0l-0.028,0.028l0,0l0,0l0,0l0,0l0,0l-0.028,0.028l0,0l0,0l0,0l0,0l0,0l0,0l0,0l-0.028,0.028     c-1.899,1.729-3.855,1.417-5.727,0.17c-0.027-0.028-0.057-0.028-0.084-0.057c-0.199-0.142-0.341-0.283-0.454-0.396     c-0.255-0.198-0.454-0.341-0.765-0.567c-0.086-0.085-0.143-0.142-0.228-0.198l0,0c-1.105-0.879-1.927-1.758-3.288-1.53l0,0     c-0.028,0-0.028,0.028-0.057,0.028h-0.028c0,0-0.028,0-0.057,0l-0.028,0.028h-0.028c-0.028,0-0.057,0-0.085,0l-0.028,0.028     h-0.028l-0.057,0.028h-0.029h-0.027l-0.029,0.028h-0.057l-0.027,0.028h-0.029l-0.027,0.028h-0.057l-0.029,0.028h-0.027     l-0.029,0.028h-0.027l-0.057,0.028l-0.029,0.028h-0.027l-0.029,0.028h-0.028l-0.028,0.028l-0.028,0.028h-0.057l-0.028,0.028     l-0.028,0.028h-0.028l-0.028,0.028l0,0l-0.028,0.028l-0.028,0.028h-0.028l0,0l-0.028,0.028l0,0l-0.028,0.028l-0.028,0.028h-0.028     l0,0l-0.028,0.028l0,0l-0.028,0.028l-0.028,0.028l-0.028,0.028l-0.029,0.028l0,0h-0.027l0,0l-0.029,0.028l-0.027,0.028     l-0.029,0.028l0,0v0.028l-0.027,0.029l0,0c-0.057,0.028-0.086,0.085-0.113,0.142l-0.029,0.028l-0.027,0.028l0,0l-0.029,0.028     l-0.027,0.028c0,0-0.029,0.028-0.029,0.057c-0.027,0.028-0.027,0.057-0.057,0.085l0,0c-0.027,0-0.027,0.028-0.057,0.057l0,0     c0,0.028-0.028,0.057-0.028,0.085c-0.028,0.028-0.057,0.057-0.057,0.085l0,0c-0.057,0.113-0.113,0.255-0.17,0.368     c0,0.028-0.028,0.057-0.028,0.057l0,0v0.058l0,0l-0.028,0.028c0,0.028,0,0.028,0,0.057l-0.028,0.028v0.057l0,0v0.028     l-0.028,0.028l0,0v0.028v0.028l-0.028,0.057l0,0v0.028l0,0v0.028l0,0v0.057l0,0v0.028l-0.028,0.028l0,0v0.028l0,0v0.057v0.028     v0.028v0.028v0.057v0.028v0.028l0,0l-0.028,0.057v0.028v0.028l0,0v0.028l0,0v0.057v0.028l0,0l0.028,0.029v0.057l0,0v0.028v0.028     v0.057v0.028v0.028v0.057l0.028,0.028l0,0v0.028v0.057v0.028l0.028,0.028v0.057v0.028v0.028l0.028,0.057v0.028v0.028l0.028,0.028     l0,0v0.028v0.028l0.028,0.028v0.028l0,0v0.028l0,0l0,0l0.028,0.028v0.028l0,0v0.028l0,0v0.028l0,0h0.028l0,0v0.028l0,0v0.028     l0.028,0.028l0,0v0.029l0,0l0,0l0,0l0.028,0.028l0,0v0.028l0,0v0.028l0.028,0.028l0,0l0.028,0.028v0.028v0.028l0,0h0.028v0.028     l0,0l0.028,0.028l0,0v0.028l0,0l0.028,0.028l0,0v0.028h0.028v0.028l0,0v0.028l0,0l0.029,0.028l0,0l0,0l0.027,0.028l0,0v0.028l0,0     h0.029v0.028l0,0l0.027,0.028l0,0l0,0l0.029,0.028l0,0v0.028l0,0h0.027v0.028l0.029,0.028l0,0l0,0l0.027,0.028v0.028l0,0h0.029     v0.028l0,0l0.027,0.028l0,0l0.029,0.028l0,0l0.027,0.028v0.028h0.029l0.027,0.028l0,0v0.028l0,0l0,0l0,0l0,0l0,0h0.029l0,0l0,0     v0.028l0,0l0,0l0,0l0,0l0,0h0.027l0,0l0,0l0,0v0.028l0,0l0,0l0,0l0,0l0,0h0.029l0,0l0,0l0,0l0,0l0,0l0,0l0,0l0,0v0.028l0,0l0,0     l0,0l0,0l0,0h0.027l0,0l0,0l0,0l0,0l0,0l0,0l0,0l0,0v0.028l0,0l0,0l0,0l0,0l0,0H62.149L62.149-19.444L62.149-19.444     L62.149-19.444z" /><path
           id="path3704"
           inkscape:connector-curvature="0"
           fill="#FFD43B"
           d="M56.849-2.918C56.14-3.4,56.083-4.25,56.622-4.874     l3.458-4.309c0.624-0.737,1.332-1.077,2.183-0.481c0.368,0.255,0.736,0.566,1.105,0.878c1.842,1.475,3.686,2.977,6.52,2.211     c2.324-0.623,3.799-2.324,4.309-4.28c0.227-0.906,0.255-1.842,0.057-2.749c-0.17-0.936-0.596-1.814-1.247-2.58     c-3.203-3.373-6.293-1.587-9.723-2.607c-0.481-0.142-0.936-0.425-1.276-0.794c-0.34-0.34-0.595-0.793-0.736-1.304     c-0.199-0.794-0.085-1.615,0.312-2.268c0.368-0.652,0.992-1.162,1.786-1.389c1.559-0.397,2.409,0.538,3.571,1.502     c0.368,0.283,0.851,0.652,1.333,1.049c1.927,1.531,4.195,1.843,5.924-0.028c0.198-0.17,1.162-1.53,1.275-1.587     c0.17-0.085,0.396,0.113,0.51,0.227c0.426,0.396,1.021,0.255,1.248-0.312l0.709-2.892c0.113-0.567,0.311-1.077-0.143-1.446     c-0.057-0.085-0.113-0.142-0.198-0.198l0.651-0.821l1.162,0.057c0.171,0,0.313-0.143,0.341-0.313c0-0.17-0.142-0.312-0.312-0.312     l-1.077-0.057l-0.284-1.049c-0.057-0.17-0.227-0.255-0.396-0.227c-0.17,0.057-0.283,0.227-0.227,0.396l0.312,1.105l-0.142,0.198     l0,0l-0.51,0.652c-0.057-0.057-0.113-0.085-0.17-0.142c-0.256-0.227-0.567-0.255-0.879-0.17c-0.199,0.057-0.369,0.17-0.539,0.255     l-2.664,1.332c-0.453,0.227-0.652,0.822-0.313,1.247c0.283,0.313,0.737,0.284,0.313,0.822l-0.596,0.766     c-0.623,0.822-1.247,0.68-1.898,0.255c-0.454-0.312-0.879-0.681-1.305-1.021c-1.898-1.502-3.6-2.863-6.689-2.013     c-1.615,0.426-2.664,1.247-3.43,2.58c-1.928,3.345-0.256,7.682,3.43,8.815c0.623,0.17,1.219,0.283,1.871,0.34     c1.219,0.085,1.898,0.057,3.033,0.057c1.672,0,2.777,0.539,3.4,1.275c0.313,0.369,0.511,0.766,0.596,1.219     c0.113,0.454,0.086,0.907-0.028,1.361c-0.227,0.964-0.964,1.813-2.126,2.126c-1.36,0.34-2.607-0.652-3.826-1.645     c-0.681-0.566-1.389-1.162-2.184-1.559c-0.821-0.426-1.7-0.596-2.579-0.426c-0.51,0.085-1.021,0.313-1.502,0.652     c-0.822,0.595-1.446,1.559-2.069,2.324c-0.709,0.879-3.288,3.799-3.543,4.62c-0.086,0.284-0.143,0.624-0.143,0.936     c0,1.729,1.39,3.146,3.119,3.146c0.708,0,1.332-0.227,1.842-0.595l0,0l0.028-0.028l0,0c-0.368-0.171-0.538-0.284-0.878-0.511     C57.188-2.691,57.019-2.804,56.849-2.918z M75.273-26.587c-0.255,0.028-0.454-0.198-0.481-0.454c0-0.255,0.197-0.481,0.453-0.481     c0.283,0,0.482,0.198,0.51,0.453C75.755-26.813,75.557-26.587,75.273-26.587z" /><path
           id="path3706"
           inkscape:connector-curvature="0"
           fill="#1A0000"
           fill-opacity="0.2"
           d="M69.235-7.056     c-2.041,0.538-3.571-0.057-4.961-1.021c1.56,1.19,3.232,2.126,5.613,1.502c2.324-0.623,3.799-2.324,4.309-4.28     c0.227-0.906,0.255-1.842,0.057-2.749c-0.142-0.709-0.426-1.389-0.851-2.041c-0.113-0.17-0.255-0.34-0.396-0.539     c-0.397-0.453-0.851-0.85-1.39-1.19c0.284,0.228,0.511,0.454,0.737,0.709c0.652,0.766,1.049,1.645,1.247,2.579     c0.199,0.907,0.17,1.843-0.057,2.75C73.034-9.381,71.56-7.68,69.235-7.056z M74.819-23.979c-1.36,1.871-2.977,3.771-5.611,2.608     c0.68,0.396,1.416,0.623,2.125,0.623c1.021,0.028,2.013-0.34,2.863-1.275l0,0l0,0l0,0c0.085-0.085,0.34-0.396,0.566-0.709     c0.313-0.396,0.652-0.85,0.709-0.878c0.17-0.085,0.369,0.113,0.51,0.227c0.426,0.396,1.021,0.255,1.248-0.312l0.538-2.269     c0.028-0.085-0.878,2.523-1.813,1.758C75.585-24.489,75.16-24.404,74.819-23.979z M61.271-20.889     c-0.199-0.794-0.085-1.615,0.312-2.268c0.368-0.652,0.992-1.162,1.786-1.389c1.105-0.284,1.871,0.113,2.637,0.708     c-1.673-1.955-4.055-1.417-5.018,0.143c-0.851,1.304-0.624,3.26,1.332,4.422c-0.057-0.057-0.113-0.113-0.17-0.171     c-0.057-0.028-0.086-0.085-0.143-0.142C61.667-19.926,61.412-20.379,61.271-20.889z M77.428-29.024l-0.312,0.425l0.481,0.368     l0.341-0.396C77.796-28.599,77.484-28.826,77.428-29.024z M56.479-4.676c0.029-0.057,0.086-0.113,0.143-0.17l0.17-0.227     l3.288-4.11c0.567-0.681,1.247-1.049,2.013-0.567c-0.17-0.142-0.313-0.255-0.482-0.396c-0.85-0.595-1.587-0.255-2.183,0.482     l-3.231,4.024L55.97-5.327c-0.028,0.028-0.057,0.057-0.085,0.085c-0.397,0.538-0.341,1.19,0.085,1.672     c0.085,0.057,0.142,0.113,0.227,0.198c0.028,0,0.057,0.028,0.086,0.028c0.141,0.114,0.311,0.256,0.48,0.369     C56.225-3.428,56.111-4.108,56.479-4.676z" /><path
           id="path3708"
           inkscape:connector-curvature="0"
           fill-opacity="0.349"
           d="M59.909-25.964     c0.795,0.369,1.191,0.567,1.814,1.021c0.086-0.68-0.084-1.332-0.312-2.013C60.817-26.7,60.335-26.36,59.909-25.964z      M68.754-23.015c0.737-0.142,1.445-0.51,1.983-1.021l0,0c-0.113-0.057-0.227-0.113-0.367-0.198     c-0.369-0.255-0.709-0.538-1.049-0.822C69.235-24.206,69.065-23.695,68.754-23.015z M67.28-15.475     c0.651,0,1.189,0.085,1.672,0.227c-0.028-0.113-0.085-0.198-0.113-0.283c-0.256-0.623-0.313-1.105-0.369-1.758     c-0.453,0.369-0.821,0.851-1.049,1.39c-0.084,0.142-0.141,0.283-0.197,0.425C67.251-15.475,67.28-15.475,67.28-15.475z      M64.587-15.504c0.652,0.028,1.162,0.028,1.701,0.028c-0.34-0.651-0.482-1.162-0.596-1.928     C65.153-16.864,64.757-16.241,64.587-15.504z M62.376-15.872c0.369,0.113,0.736,0.198,1.077,0.255     c-0.028-0.142-0.057-0.255-0.085-0.368c-0.113-0.596-0.113-1.077-0.057-1.673c-0.566,0.34-1.021,0.822-1.361,1.36     c-0.057,0.085-0.084,0.143-0.141,0.228C62.007-16.013,62.178-15.928,62.376-15.872z M58.152-21.314     c0.737-0.341,1.247-0.454,1.984-0.539c-0.511-0.566-1.162-0.936-1.871-1.162c-0.113,0.539-0.142,1.077-0.142,1.616     C58.124-21.371,58.152-21.343,58.152-21.314z M58.521-23.809c0.794,0.028,1.219,0,1.956,0.171     c-0.227-0.681-0.567-1.191-1.105-1.701c-0.142,0.198-0.312,0.425-0.425,0.652C58.776-24.376,58.634-24.093,58.521-23.809z      M57.132-7.198c-0.113-0.737-0.51-1.446-0.964-1.984c-0.396,0.453-0.765,0.936-1.162,1.389c0.368,0.057,0.766,0.085,1.077,0.17     C56.452-7.51,56.763-7.396,57.132-7.198z M56.565-9.664l0.396-0.482c0.227-0.283,0.482-0.595,0.709-0.907     c0.453,0.539,0.906,1.275,1.02,1.984C58.011-9.409,57.444-9.579,56.565-9.664z M63.736-12.329     c-0.085,0.907-0.227,1.417-0.567,2.098c0.766-0.142,1.446-0.51,1.984-1.021C64.7-11.62,64.247-12.017,63.736-12.329     L63.736-12.329z M65.721-10.799c-0.028,0.879-0.17,1.39-0.481,2.098c0.766-0.17,1.417-0.566,1.955-1.105     C66.685-10.061,66.202-10.429,65.721-10.799z M71.22-11.478c-0.17,0.538-0.51,1.049-0.992,1.445     c0.851,0.028,1.502,0.113,2.184,0.397C72.269-10.373,71.843-10.997,71.22-11.478z M66.713-24.489     c0.765-0.113,1.503-0.511,2.069-0.992c-0.482-0.368-0.964-0.737-1.475-1.049C67.224-25.679,67.054-25.17,66.713-24.489z" /></g><g
         id="g18"
         transform="matrix(0.98409227,0,0,0.98409227,0.64346753,0.11997607)"><path
           id="path3710"
           inkscape:connector-curvature="0"
           d="m 48.388,16.131 c 0,0.992 -0.369,1.786 -1.106,2.353 -0.737,0.567 -1.672,0.85 -2.807,0.85 -0.907,0 -1.757,-0.254 -2.607,-0.736 C 41.471,18.343 41.102,17.974 40.847,17.52 40.592,17.039 40.45,16.499 40.45,15.905 l 1.871,-0.085 c 0,0.51 0.227,0.936 0.681,1.247 0.454,0.283 0.964,0.425 1.502,0.425 1.247,0 1.871,-0.425 1.871,-1.304 0,-0.709 -0.425,-1.134 -1.275,-1.247 l -1.701,-0.17 c -0.878,-0.142 -1.559,-0.454 -2.069,-0.936 -0.482,-0.482 -0.737,-1.19 -0.737,-2.098 0,-0.908 0.34,-1.645 1.077,-2.239 0.709,-0.596 1.616,-0.907 2.721,-0.907 1.105,0 2.013,0.283 2.665,0.851 0.681,0.566 1.021,1.275 1.021,2.154 l -1.842,0.085 c -0.17,-0.851 -0.737,-1.275 -1.729,-1.275 -0.624,0 -1.077,0.113 -1.417,0.368 -0.34,0.255 -0.51,0.567 -0.51,0.907 0,0.368 0.113,0.651 0.369,0.851 0.255,0.198 0.539,0.312 0.907,0.368 l 1.701,0.17 c 1.867,0.254 2.832,1.275 2.832,3.061 z m 35.091,3.119 h -2.324 c -2.069,0 -2.523,-0.596 -2.523,-2.581 V 8.704 h 2.07 v 7.597 c 0,0.624 0.197,1.105 0.878,1.105 h 2.495 z m 10.063,0 h -2.154 l -0.596,-1.815 h -3.287 l -0.596,1.815 h -2.126 l 3.231,-9.667 c 0.143,-0.34 0.34,-0.567 0.51,-0.681 0.171,-0.142 0.397,-0.198 0.682,-0.198 0.254,0 0.48,0.057 0.623,0.17 0.17,0.113 0.34,0.369 0.453,0.709 z m -3.23,-3.544 -1.105,-4.195 -1.191,4.195 z m -35.859,0.453 1.729,-0.028 c 0,0.085 0,0.227 -0.029,0.425 0,0.228 0,0.369 -0.027,0.426 0,0.085 0,0.198 -0.029,0.368 -0.027,0.142 -0.027,0.255 -0.057,0.34 -0.027,0.057 -0.057,0.171 -0.113,0.284 -0.17,0.51 -0.651,0.936 -1.445,1.219 -0.51,0.17 -1.021,0.255 -1.588,0.255 -0.538,0 -1.02,-0.085 -1.474,-0.255 -0.453,-0.17 -0.794,-0.398 -1.049,-0.682 -0.595,-0.623 -0.878,-1.756 -0.878,-3.458 0,-1.673 0.283,-2.835 0.878,-3.43 0.255,-0.283 0.596,-0.511 1.049,-0.681 0.454,-0.198 0.936,-0.283 1.474,-0.283 1.078,0 1.871,0.283 2.438,0.794 0.538,0.538 0.821,1.275 0.821,2.239 h -1.729 c 0,-0.426 -0.113,-0.766 -0.34,-0.964 -0.227,-0.227 -0.624,-0.341 -1.219,-0.341 -0.567,0 -0.965,0.199 -1.162,0.567 -0.199,0.368 -0.284,0.907 -0.284,1.645 v 0.765 c 0,1.162 0.228,1.899 0.681,2.154 0.198,0.142 0.482,0.198 0.822,0.198 0.34,0 0.595,-0.028 0.822,-0.085 0.197,-0.085 0.367,-0.17 0.453,-0.34 0.085,-0.17 0.142,-0.312 0.17,-0.481 0.058,-0.141 0.058,-0.367 0.086,-0.651 z M 58.79,7.542 c 0.453,0 0.766,0.085 0.907,0.227 0.141,0.142 0.198,0.454 0.198,0.907 0,0.453 -0.057,0.766 -0.227,0.907 -0.143,0.142 -0.426,0.198 -0.879,0.198 -0.482,0 -0.766,-0.057 -0.907,-0.227 -0.142,-0.142 -0.227,-0.426 -0.227,-0.879 0,-0.481 0.085,-0.766 0.227,-0.907 0.142,-0.141 0.426,-0.226 0.908,-0.226 z m 0.936,11.708 h -1.928 v -8.165 h 1.928 z"
           style="fill:#ffffff" /><path
           id="path3712"
           inkscape:connector-curvature="0"
           d="m 68.314,9.612 c 0.624,0.595 0.907,1.502 0.907,2.664 0,1.19 -0.283,2.069 -0.907,2.693 -0.595,0.595 -1.446,0.907 -2.579,0.907 H 63.721 V 19.25 H 61.653 V 8.704 h 4.082 c 1.133,0 1.985,0.284 2.579,0.908 z m -1.133,2.664 c 0,-1.162 -0.51,-1.757 -1.531,-1.757 h -1.928 v 3.486 h 1.928 c 0.482,0 0.879,-0.113 1.135,-0.396 0.253,-0.256 0.396,-0.709 0.396,-1.333 z m 10.062,-1.502 -3.203,9.412 c -0.142,0.425 -0.34,0.765 -0.596,1.021 -0.367,0.368 -0.935,0.566 -1.644,0.566 h -1.36 v -1.729 h 1.049 c 0.283,0 0.482,-0.028 0.623,-0.143 0.113,-0.085 0.227,-0.283 0.34,-0.538 l 0.143,-0.426 -2.551,-8.164 h 2.041 l 1.502,5.896 1.645,-5.896 h 2.011 z"
           style="fill:#ffd43b" /></g><g
         aria-label="Curitiba, 2018"
         style="font-size:16.77254295px;stroke-width:1.39771175"
         id="text24"><path
           d="m 44.847503,26.059187 q -0.05708,1.113042 -0.62787,1.702859 -0.566034,0.589817 -1.60297,0.589817 -1.041693,0 -1.655293,-0.789594 -0.613599,-0.79435 -0.613599,-2.149978 v -1.255739 q 0,-1.350871 0.627869,-2.135708 0.632626,-0.784837 1.721885,-0.784837 1.00364,0 1.550648,0.604087 0.551764,0.59933 0.59933,1.717128 h -0.879969 q -0.05708,-0.846673 -0.356744,-1.208173 -0.299665,-0.361501 -0.913265,-0.361501 -0.708732,0 -1.089259,0.556521 -0.380527,0.551764 -0.380527,1.621996 v 1.270009 q 0,1.051206 0.351988,1.612484 0.356744,0.561277 1.036936,0.561277 0.680192,0 0.979857,-0.337718 0.299665,-0.337717 0.371014,-1.21293 z"
           style="font-style:normal;font-variant:normal;font-weight:normal;font-stretch:normal;font-size:9.74149227px;font-family:'Roboto Condensed';-inkscape-font-specification:'Roboto Condensed, ';fill:#ffffff;stroke-width:1.39771175"
           id="path27" /><path
           d="m 48.529102,27.804855 q -0.41858,0.547008 -1.222443,0.547008 -0.699219,0 -1.055963,-0.480416 -0.356744,-0.485172 -0.3615,-1.40795 v -3.353394 h 0.837159 v 3.291559 q 0,1.203416 0.723001,1.203416 0.765811,0 1.055963,-0.684948 v -3.810027 h 0.841916 v 5.146628 h -0.799107 z"
           style="font-style:normal;font-variant:normal;font-weight:normal;font-stretch:normal;font-size:9.74149227px;font-family:'Roboto Condensed';-inkscape-font-specification:'Roboto Condensed, ';fill:#ffffff;stroke-width:1.39771175"
           id="path29" /><path
           d="m 52.748196,23.899696 q -0.175994,-0.0333 -0.380527,-0.0333 -0.646896,0 -0.903752,0.708732 v 3.681599 h -0.841916 v -5.146628 h 0.818133 l 0.01427,0.523224 q 0.337717,-0.618356 0.956074,-0.618356 0.199777,0 0.332961,0.06659 z"
           style="font-style:normal;font-variant:normal;font-weight:normal;font-stretch:normal;font-size:9.74149227px;font-family:'Roboto Condensed';-inkscape-font-specification:'Roboto Condensed, ';fill:#ffffff;stroke-width:1.39771175"
           id="path31" /><path
           d="m 54.49862,28.256731 h -0.841916 v -5.146628 h 0.841916 z m 0.06659,-6.511769 q 0,0.214046 -0.118914,0.356744 -0.118915,0.142698 -0.361501,0.142698 -0.23783,0 -0.356744,-0.142698 -0.118915,-0.142698 -0.118915,-0.356744 0,-0.214046 0.118915,-0.361501 0.118914,-0.147454 0.356744,-0.147454 0.237829,0 0.356744,0.152211 0.123671,0.147454 0.123671,0.356744 z"
           style="font-style:normal;font-variant:normal;font-weight:normal;font-stretch:normal;font-size:9.74149227px;font-family:'Roboto Condensed';-inkscape-font-specification:'Roboto Condensed, ';fill:#ffffff;stroke-width:1.39771175"
           id="path33" /><path
           d="m 56.919724,21.863877 v 1.246226 h 0.775324 v 0.680192 h -0.775324 v 3.19167 q 0,0.304422 0.09989,0.461389 0.09989,0.156968 0.342475,0.156968 0.16648,0 0.337717,-0.05708 l -0.0095,0.713488 q -0.285395,0.09513 -0.58506,0.09513 -0.499442,0 -0.761054,-0.356744 -0.261613,-0.356744 -0.261613,-1.008397 v -3.196427 h -0.784837 v -0.680192 h 0.784837 v -1.246226 z"
           style="font-style:normal;font-variant:normal;font-weight:normal;font-stretch:normal;font-size:9.74149227px;font-family:'Roboto Condensed';-inkscape-font-specification:'Roboto Condensed, ';fill:#ffffff;stroke-width:1.39771175"
           id="path35" /><path
           d="m 59.597682,28.256731 h -0.841916 v -5.146628 h 0.841916 z m 0.06659,-6.511769 q 0,0.214046 -0.118914,0.356744 -0.118915,0.142698 -0.361501,0.142698 -0.23783,0 -0.356744,-0.142698 -0.118915,-0.142698 -0.118915,-0.356744 0,-0.214046 0.118915,-0.361501 0.118914,-0.147454 0.356744,-0.147454 0.237829,0 0.356744,0.152211 0.123671,0.147454 0.123671,0.356744 z"
           style="font-style:normal;font-variant:normal;font-weight:normal;font-stretch:normal;font-size:9.74149227px;font-family:'Roboto Condensed';-inkscape-font-specification:'Roboto Condensed, ';fill:#ffffff;stroke-width:1.39771175"
           id="path37" /><path
           d="m 64.644422,25.930759 q 0,1.203417 -0.432849,1.812261 -0.43285,0.608843 -1.255739,0.608843 -0.818133,0 -1.2272,-0.703975 l -0.04281,0.608843 h -0.765811 v -7.306119 h 0.83716 v 2.725525 q 0.413823,-0.661166 1.189147,-0.661166 0.846672,0 1.270009,0.59933 0.423336,0.59933 0.428092,1.807504 z m -0.837159,-0.480415 q 0,-0.913265 -0.256856,-1.298548 -0.252099,-0.390041 -0.822889,-0.390041 -0.651653,0 -0.970344,0.703975 v 2.449643 q 0.313934,0.694462 0.979857,0.694462 0.57079,0 0.818133,-0.399553 0.247342,-0.399554 0.252099,-1.24147 z"
           style="font-style:normal;font-variant:normal;font-weight:normal;font-stretch:normal;font-size:9.74149227px;font-family:'Roboto Condensed';-inkscape-font-specification:'Roboto Condensed, ';fill:#ffffff;stroke-width:1.39771175"
           id="path39" /><path
           d="m 68.378344,28.256731 q -0.0761,-0.166481 -0.109401,-0.561277 -0.44712,0.656409 -1.141581,0.656409 -0.699219,0 -1.094016,-0.39004 -0.39004,-0.394797 -0.39004,-1.108285 0,-0.784837 0.532738,-1.246226 0.532738,-0.46139 1.460273,-0.470903 h 0.618356 v -0.547007 q 0,-0.461389 -0.204533,-0.656409 -0.204534,-0.195021 -0.623113,-0.195021 -0.380527,0 -0.618357,0.228317 -0.237829,0.223559 -0.237829,0.57079 h -0.841916 q 0,-0.394797 0.233073,-0.751541 0.233072,-0.3615 0.627869,-0.566034 0.394797,-0.204533 0.879969,-0.204533 0.789594,0 1.19866,0.394797 0.413823,0.39004 0.423336,1.141581 v 2.597097 q 0.0048,0.594574 0.161724,1.03218 v 0.0761 z M 67.25579,27.586052 q 0.309178,0 0.589816,-0.171237 0.280639,-0.171237 0.409067,-0.428093 v -1.2272 h -0.475659 q -0.59933,0.0095 -0.946561,0.271126 -0.347231,0.256856 -0.347231,0.723001 0,0.437606 0.175994,0.637383 0.175994,0.19502 0.594574,0.19502 z"
           style="font-style:normal;font-variant:normal;font-weight:normal;font-stretch:normal;font-size:9.74149227px;font-family:'Roboto Condensed';-inkscape-font-specification:'Roboto Condensed, ';fill:#ffffff;stroke-width:1.39771175"
           id="path41" /><path
           d="m 70.399895,29.636142 -0.499442,-0.342475 q 0.44712,-0.623113 0.466146,-1.284279 v -0.79435 h 0.860942 v 0.689706 q 0,0.480415 -0.237829,0.96083 -0.233073,0.480416 -0.589817,0.770568 z"
           style="font-style:normal;font-variant:normal;font-weight:normal;font-stretch:normal;font-size:9.74149227px;font-family:'Roboto Condensed';-inkscape-font-specification:'Roboto Condensed, ';fill:#ffffff;stroke-width:1.39771175"
           id="path43" /><path
           d="m 78.338639,28.256731 h -3.871863 v -0.632626 l 1.973984,-2.616124 q 0.44712,-0.604086 0.618357,-0.98937 0.175993,-0.39004 0.175993,-0.82289 0,-0.551764 -0.256855,-0.894238 -0.256856,-0.342475 -0.675436,-0.342475 -0.527981,0 -0.818133,0.366258 -0.285395,0.3615 -0.285395,1.046449 h -0.841916 q 0,-0.956074 0.523224,-1.545891 0.523225,-0.589817 1.42222,-0.589817 0.827647,0 1.303305,0.508955 0.475659,0.504198 0.475659,1.346114 0,1.027423 -1.070232,2.430617 l -1.541135,2.016793 h 2.868223 z"
           style="font-style:normal;font-variant:normal;font-weight:normal;font-stretch:normal;font-size:9.74149227px;font-family:'Roboto Condensed';-inkscape-font-specification:'Roboto Condensed, ';fill:#ffffff;stroke-width:1.39771175"
           id="path45" /><path
           d="m 82.981069,25.30289 q 0,1.531621 -0.447119,2.292675 -0.44712,0.756298 -1.403194,0.756298 -0.927534,0 -1.384167,-0.727758 -0.456632,-0.727758 -0.475659,-2.188031 v -1.189147 q 0,-1.517351 0.44712,-2.264136 0.451875,-0.746784 1.403193,-0.746784 0.937048,0 1.384167,0.708732 0.451876,0.708731 0.475659,2.145221 z m -0.841916,-1.203417 q 0,-1.098772 -0.242586,-1.61724 -0.242586,-0.523225 -0.775324,-0.523225 -0.518468,0 -0.761054,0.513712 -0.242586,0.508955 -0.252099,1.541135 v 1.426976 q 0,1.094015 0.252099,1.645779 0.252099,0.547008 0.770567,0.547008 0.513712,0 0.756298,-0.518468 0.242586,-0.518468 0.252099,-1.583944 z"
           style="font-style:normal;font-variant:normal;font-weight:normal;font-stretch:normal;font-size:9.74149227px;font-family:'Roboto Condensed';-inkscape-font-specification:'Roboto Condensed, ';fill:#ffffff;stroke-width:1.39771175"
           id="path47" /><path
           d="M 86.600833,28.256731 H 85.75416 v -5.864873 l -1.455516,0.651653 v -0.799107 l 2.169004,-0.946561 h 0.133185 z"
           style="font-style:normal;font-variant:normal;font-weight:normal;font-stretch:normal;font-size:9.74149227px;font-family:'Roboto Condensed';-inkscape-font-specification:'Roboto Condensed, ';fill:#ffffff;stroke-width:1.39771175"
           id="path49" /><path
           d="m 92.470463,23.138642 q 0,0.518468 -0.233073,0.922778 -0.228316,0.40431 -0.618357,0.632627 0.461389,0.237829 0.723002,0.684948 0.261612,0.442363 0.261612,1.008397 0,0.894238 -0.508955,1.431733 -0.504198,0.532738 -1.341358,0.532738 -0.837159,0 -1.346114,-0.532738 -0.504198,-0.537495 -0.504198,-1.431733 0,-0.570791 0.256855,-1.01791 0.261613,-0.451876 0.708732,-0.680192 -0.39004,-0.228316 -0.6136,-0.62787 -0.22356,-0.40431 -0.22356,-0.922778 0,-0.875212 0.470903,-1.388923 0.475658,-0.513712 1.250982,-0.513712 0.770568,0 1.24147,0.508955 0.475659,0.508955 0.475659,1.39368 z m -0.708732,3.229724 q 0,-0.594574 -0.280639,-0.951318 -0.280638,-0.361501 -0.737271,-0.361501 -0.466146,0 -0.737271,0.361501 -0.266369,0.361501 -0.266369,0.951318 0,0.59933 0.261612,0.932291 0.266369,0.332961 0.751541,0.332961 0.485172,0 0.746785,-0.332961 0.261612,-0.332961 0.261612,-0.932291 z m -0.128428,-3.215454 q 0,-0.527981 -0.247343,-0.860942 -0.247342,-0.332962 -0.632626,-0.332962 -0.40431,0 -0.642139,0.328205 -0.23783,0.328205 -0.23783,0.865699 0,0.542251 0.242586,0.860943 0.242586,0.318691 0.637383,0.318691 0.40431,0 0.64214,-0.323448 0.237829,-0.323448 0.237829,-0.856186 z"
           style="font-style:normal;font-variant:normal;font-weight:normal;font-stretch:normal;font-size:9.74149227px;font-family:'Roboto Condensed';-inkscape-font-specification:'Roboto Condensed, ';fill:#ffffff;stroke-width:1.39771175"
           id="path51" /></g></g></g></svg>